
<svg id="Layer_1" data-name="Layer 1" xmlns="http://www.w3.org/2000/svg" viewBox="0 0 1040.25 1019.75"><defs><style>.cls-1{fill:#eee9db;}</style></defs><path class="cls-1" d="M490.85,238.91a37.91,37.91,0,0,1-1.07,3.94c-5.91,13.71-8.63,28.41-12.89,42.62-2.26,7.54-3.38,15.46-4.5,23.28-1,7.05,3.23,10.4,10.28,8.77.63-.15,1.28-.24,2.14-.4,0,3.38.17,6.63,0,9.86-.42,6.74-.9,13.48-1.63,20.19a84.11,84.11,0,0,1-2.34,13.62,46.88,46.88,0,0,0-1.92,14.15c.14,4.47-.11,8.94.14,13.4.35,6.33,4.05,9.85,10.27,10.59,9.32,1.11,18.6,2.44,27.91,3.57a67.48,67.48,0,0,0,7.91.4q22.07,0,44.11,0a10.27,10.27,0,0,1,7.67,2.88c5.88,5.94,13.52,5.48,20.85,5.71,3.62.12,6.15-2.5,7.34-5.8a73.87,73.87,0,0,0,2.75-10.49c1.52-7.59,2.62-15.28,4.32-22.83,2.46-10.93,5.26-21.79,8-32.66.71-2.83,1.78-5.58,2.63-8.2,11.88-.15,13.55-1.67,16.12-12.83,1.7-7.4,3.51-14.79,5.82-22a103.21,103.21,0,0,1,11.66-24.48,20,20,0,0,0,2.35-4.36c1.58-4.79,4.76-8.2,8.92-11,7.19,2.15,14.34,4.52,20.7,8.85a27.49,27.49,0,0,1,9.1,9.53c1.56,2.85,6.19,6.52,10.33,8.21a24.36,24.36,0,0,0,9.13-8.73c11.17-17.43,25.72-31.9,40.72-45.86,6.09-5.67,13.63-9.78,20.57-14.53a77.7,77.7,0,0,1,6.8-4.06c2.45-1.34,4.88-3,7.52-3.68A87,87,0,0,0,809,199.7c7.78-4,15.89-7.32,23.69-11.26,5.59-2.83,11-6.09,16.31-9.36,2.67-1.63,4.92-1.43,7.14.57,1.84,1.65,3.59,3.41,5.48,5a17,17,0,0,0,4,2.8c3.82,1.65,7.74-.43,8-4.55.17-3.05-.69-6.17-1.18-9.25s-1.19-6.13-1.56-9.23a5.33,5.33,0,0,1,2.42-5.07c3.66-2.79,7.12-5.85,10.8-8.91a26.62,26.62,0,0,1,11.55,7.36c5.68,6.52,13.19,10.39,20.38,14.73a8.89,8.89,0,0,0,4.23,1c3.47.07,4.84-1.83,4.69-5.31-.4-9-2.71-17.57-5.7-26-.66-1.86-1.16-3.77-1.92-6.22,8.9-5.17,17.45-10.79,26.57-15.28,13-6.4,26.47-12,39.73-17.9,4.51-2,11.68-.86,15.14,2.71,2,2.12,3.75,4.57,5.61,6.88,1.65,2,3.16,4.25,5,6.12,2.45,2.5,3.92,5.26,3.65,8.84a29.91,29.91,0,0,0,2.5,13.51,16.47,16.47,0,0,1,1.33,4.74c.47,6.41,1,12.83,1.07,19.26.14,7.9.09,15.72-2,23.59-1.85,7.11-1.86,14.68-3.06,22a67.47,67.47,0,0,1-3.29,12.42c-6.38,17.19-12.83,34.33-21.67,50.49-3.06,5.61-5,11.82-7.5,17.75-.07.16-.09.33-.16.47-4.64,9.95-7.22,20.49-9,31.27a8.86,8.86,0,0,1-3.15,5.34c-5.54,5.1-11.49,9.58-18.64,12-10.5,3.49-16.72,11.3-21.86,20.39a4.62,4.62,0,0,0-.8,1.81c-.29,5.57-.78,11.16-.67,16.73s.85,11.08,1.39,17.57c-2.91-1.93-5-3.34-7.17-4.77-.54-.37-1-.9-1.53-1.25-4.57-2.88-14,.59-15.08,5.75-1,4.67-1.63,9.42-2.19,14.17a32.83,32.83,0,0,0,4.93,21.33c1,1.69,2,3.39,3.33,5.51-4.13,7.23-9.69,13.61-15.58,20-.23-3.8,0-7.69-.77-11.39-1.33-6.61-6-14-13.78-15-.65-.09-1.52-.49-1.91-.21-3.54,2.53-8.26,3.8-10,8.35A57.06,57.06,0,0,0,866.47,478c.54,1.67,1,3.37,1.73,5.85-5.54.19-10.38.58-15.23-.3-2.11-.39-4.18-1-6.29-1.35a11.4,11.4,0,0,0-11.12,4.1c-5,6.36-9.71,12.93-14,19.75-2.44,3.85-3.71,8.41-5.71,12.56a37.07,37.07,0,0,1-4.67,8.1C804.67,534.3,800,543,795.74,552c-1,2.23-2.35,4.48-2.8,6.86C791.23,568,785.56,575,780.17,582a59.38,59.38,0,0,0-7.65,13.78c-2.2,5.31-5.18,10.29-7.87,15.38-2.54,4.82-5.36,9.5-7.65,14.43-1.21,2.63-1.48,5.68-2.31,8.5A46.3,46.3,0,0,1,752,642c-2.37,4.74-4.75,9.38-5.61,14.73a23.66,23.66,0,0,1-9.22,15.36c-14.64,11.31-28.91,23.14-44.08,33.69-15.45,10.73-31.74,20.24-47.78,30.1-2.14,1.31-5,1.57-7.47,2.24-2.22.6-4.62.76-6.66,1.72-2.7,1.28-5.14,2.59-8.33,1.69-1.06-.3-2.65.38-3.67,1.08-5.7,3.9-12.46,4.43-18.84,5.25A79.23,79.23,0,0,1,563.25,744a8.41,8.41,0,0,0-2.38-.64c-9.1-.48-16.35-5.8-24.29-9.3-.24-.1-.33-.51-.67-1.07,1-.72,2-1.51,3.05-2.2a53.54,53.54,0,0,0,16.4-17.64c5.77-9.67,7-20.12,4.79-31a13.67,13.67,0,0,0-1.77-4.06c-1.49-2.56-3-5.12-4.73-7.51a12.69,12.69,0,0,0-3.86-3.73c-2.64-1.44-3.56-3.63-4.16-6.83h7.43c10.08,0,16.09-7.52,13.7-17.4-1.42-5.87-4.56-10.58-10.54-12.81A108.15,108.15,0,0,0,545.61,626c-6.8-1.75-13.33-.1-19.89,1.92-6.25,1.92-12.59,4.21-19.36,2.33-.63-.18-1.47,0-1.9-.42-3.66-3.17-8.32-2.82-12.63-3.63A13,13,0,0,0,478,631.84c-3.41,4.83-2.72,10.13-.53,15.09.74,1.68,3.05,2.86,4.89,3.79,1.69.86,3.7,1.09,5.71,1.63-.25.78-.26,1.38-.55,1.63-11.31,9.6-15.32,22.85-17.86,36.64-1.68,9.07-1.48,18.26,3.72,26.39,2.73,4.27,6.21,8.06,9.66,12.45-2.2.9-4.74,1.81-7.16,3-6.37,3-12.73,6.13-19,9.34a12.16,12.16,0,0,1-11.44.25,150.2,150.2,0,0,1-16.77-10.42c-7.27-5.16-14.21-10.71-21.92-15.29a81.59,81.59,0,0,1-13.88-11.12C382,695,371.44,684.54,360.94,674a20.46,20.46,0,0,1-4-6.68q-4.35-10.51-8.25-21.22a119.51,119.51,0,0,1-5.92-21.91c-1.62-9.89-3.79-19.77-9.29-28.51-4.05-6.44-6.8-13.52-9.81-20.49-4.32-10-9.66-19.52-14.22-29.41a175.09,175.09,0,0,1-8.71-21.56c-1.78-5.76-2.13-12-3.1-18-1.49-9.29-3-18.56-4.43-27.86-.88-5.68-.93-11.6-2.6-17-2.52-8.19-6-16.06-13.4-21.43-2.24-1.63-3.85-4.11-6-5.83C266,430,260.8,426,255.34,422.27a44.69,44.69,0,0,1-17.83-22.41c-3.39-9.37-5.48-19-7.66-28.66a25.71,25.71,0,0,0-2.38-7c-4.16-7.32-8.5-14.55-12.92-21.72A52.45,52.45,0,0,0,202,328.62c-2.13-1.66-2.91-3.46-1.73-6,2.5-5.3,4-11.22,10-14.11a10.76,10.76,0,0,0,4-4.24c2.4-4,1.19-8.28-2.74-10.7-1.08-.67-2.25-1.2-4.07-2.17,1.82-2,3.2-3.77,4.85-5.25,6.32-5.69,5.12-16.65-2.39-20.58-4.62-2.42-8.94-5.26-14.34-6.34s-8.47-6-10.74-10.89c-5.73-12.29-11-24.76-13.51-38.19-1.67-9.07-2.93-18.21-4.58-27.28-1.31-7.14-3.36-14.16-4.32-21.33-2.24-16.82-5.6-33.51-5.93-50.56-.14-6.92-1-13.87-.59-20.75.66-10.67,2.5-21.28,3.16-31.95.62-10,4-19,7.54-28.06,1.61-4.16,4-5.83,8.53-5.85,3.63,0,7.27,0,10.91,0,.5,0,1,0,1.49,0,5,.13,24.75,6.63,29,9.44,1.91,1.27,3.83,2.77,6,3.43,10.08,3.13,17.17,10.19,24.18,17.53A92.56,92.56,0,0,0,257,63.91q8.79,6.8,17.93,13.15c6,4.19,10.73,9.77,16.1,14.65s11.11,9.86,17,14.32c15,11.34,30.28,22.36,45.32,33.66a59,59,0,0,1,8.55,8.17c8.69,9.88,18.84,17.95,29.75,25.21a130.44,130.44,0,0,1,14.9,11.43c2.06,1.86,3.26,4.91,4.29,7.64A77.48,77.48,0,0,1,414.33,204a57.39,57.39,0,0,0,11.25,24.52c3.88,4.93,7.39,10.15,10.79,15.42a7,7,0,0,0,5.5,3.56c3.92.36,7.82,1.16,11.75-.38a13.65,13.65,0,0,1,5.81-1c5.78.43,11-1.2,16.38-3.08C480.42,241.46,485.24,240.44,490.85,238.91ZM674.51,537.53c6.94-1.07,13.28-2,19.58-3.09a15.15,15.15,0,0,0,5-2c8.09-4.88,15.78-10.26,21.61-17.9.9-1.17,2-2.21,2.9-3.36,6-7.48,12.12-14.81,17.73-22.54,2.64-3.65,4.73-7.27,9.52-8.61,2.88-.81,3.56-4,1.64-6.47a16.59,16.59,0,0,0-4.22-3.23c-4-2.56-8.34-4.73-12.09-7.63-7.35-5.66-14.75-10.89-24.56-10.84a8.77,8.77,0,0,1-1.44-.38,50.08,50.08,0,0,0-27.64,2.33,138.76,138.76,0,0,0-13.72,6.8c-6.86,3.58-13.91,6.89-20.47,11-13.5,8.39-23,20.58-31.14,34-1.86,3.07-4.37,5.75-6.29,8.79a47.67,47.67,0,0,0-4.8,9.06c-2.35,6.49-4.31,13.13-6.29,19.75A20.81,20.81,0,0,0,599,549c0,5.45.39,10.91.24,16.35q-.42,14.58-1.33,29.15a60.79,60.79,0,0,1-1.73,10.16,54.68,54.68,0,0,1-2.8,8.45,77.72,77.72,0,0,1-4.39,8.75c-1.41,2.41-3.22,4.59-4.78,6.93a18.47,18.47,0,0,0-1.86,3.48c-1.33,3.45-.21,6.49,2.79,7.91,2.56,1.22,5.22.26,7.11-2.68,2.76-4.29,5.5-8.6,8.14-13a23.7,23.7,0,0,0,2.32-4.91c1.54-4.7,3.09-9.41,4.31-14.2a55.8,55.8,0,0,0,1.17-8.79c.31-3.43.3-6.9.67-10.34a143,143,0,0,0,.42-31.09,22.61,22.61,0,0,1,1.8-11.59,124.82,124.82,0,0,0,4.07-12.68c.72-2.36,1.14-4.84,2.06-7.12s2.13-2.37,4.29-1.08c3.21,1.93,6.3,4.26,9.78,5.52,4,1.44,7.75,3.27,12.22,3.59,6.36.45,12.66,2,19,3.16C666.61,535.75,670.74,536.72,674.51,537.53ZM453.4,512.06c1.27,4.93,3,9.46,3.52,14.13A195.35,195.35,0,0,1,458,546.44c.08,4.94-.25,9.89-.63,14.82-.62,7.88-1,15.81-2.29,23.61s-3.49,15.43-5.1,23.18a23.49,23.49,0,0,0-.65,8.31,18.49,18.49,0,0,0,3.29,7.55c1.85,2.57,5.78,2.71,8,.9,1.93-1.54,2.73-5.28.79-7.11-3.08-2.9-2.61-6.19-2.05-9.57,1.24-7.63,2.68-15.24,4-22.86a296.34,296.34,0,0,0,3.93-45.78,12.05,12.05,0,0,0-.25-3c-1.76-7.17-.45-14.88-3.91-21.76-.47-.93-.08-2.29-.14-3.44-.13-2.44.16-5-.53-7.28q-4.2-13.67-9-27.17c-3.55-10.16-9-19.09-17.75-25.69-3.29-2.47-7.06-4.76-9.32-8a34.84,34.84,0,0,0-6.29-6.63c-2.63-2.25-5.28-4.49-8-6.64a13.25,13.25,0,0,0-4.16-2.6c-9.57-2.73-18.9-6.69-29.33-5a53.94,53.94,0,0,0-16.35,5.14c-2.76,1.45-5.26,3.06-8.63,3.23-3.92.2-6.68,4.2-5.26,7.31,2.62,5.76,2.88,11.79,2.44,17.85-1,13.39,4.38,23.69,14.75,31.73a35.05,35.05,0,0,1,3.75,3.23c6.89,7.13,16.09,10.9,24,16.56a6.49,6.49,0,0,0,2.73,1.12c6.82,1.13,13.63,2.8,20.49,3.11,11.53.52,23.11.16,34.66.18A17.84,17.84,0,0,1,453.4,512.06ZM385.06,310.52a209.58,209.58,0,0,0-6.58-40.79q-3.53-13.14-6.73-26.37c-3.36-13.93-4.41-28.36-8.94-42.05a29.41,29.41,0,0,1-.82-3.86c-1-5.57-2.29-11-6.55-15.2a7.75,7.75,0,0,1-1.77-3c-2.88-8.52-9.49-14.59-14.35-21.8-1.42-2.1-3.73-3.69-5.83-5.25-5.69-4.22-11.48-8.3-17.24-12.43a21.47,21.47,0,0,0-3.69-2.48c-3.93-1.74-6.75-4.68-9.24-8-5.92-7.93-13.83-13.76-21.75-19.3-5.34-3.74-10.37-7.53-14.46-12.57a11.51,11.51,0,0,0-2-2.14c-7.76-5.58-15.33-11.48-23.42-16.55-7.39-4.62-15.4-8.23-23-12.47a98.54,98.54,0,0,1-9.91-6.41A23.45,23.45,0,0,1,203,54.6a108.43,108.43,0,0,1-5.73-10.36c-1.74-3.26-4.56-4.46-7.32-3.1-2.55,1.26-3.5,4-2.06,7.27,2.85,6.39,6.48,12.46,12,16.8,4.73,3.73,10.14,6.67,15.43,9.62,4.6,2.56,9.74,4.21,14.17,7,9.74,6.19,19.22,12.79,28.7,19.37a29.09,29.09,0,0,1,4.8,5,51.54,51.54,0,0,0,11.24,9.62,98.52,98.52,0,0,1,23.23,19.81c3,3.58,6.17,6.87,10.45,9a29,29,0,0,1,4.09,2.75c5.35,3.86,10.76,7.63,16,11.65a28.46,28.46,0,0,1,6.27,6.17c4.27,6.22,9.78,11.67,12.08,19.16a9.64,9.64,0,0,0,2.44,3.7c2.57,2.62,3.48,5.88,4.27,9.3,1.3,5.62,2.84,11.19,4.24,16.78.6,2.39,1.15,4.8,1.63,7.22,2.49,12.61,4.3,25.4,7.61,37.8,3.75,14.05,7.39,28.06,9,42.52.67,5.93.74,11.9-2.1,17.44-2.32,4.54-4.63,9.09-7.07,13.56-1.83,3.34-1.29,6.51,1.62,8.18s6.58.45,8.1-3.06c2.3-5.29,4.46-10.65,6.65-16C384.49,317.41,385.47,312.94,385.06,310.52Zm380.87,51.92c0,1.82,0,3.64,0,5.45.36,9.84,6.2,18.53,14.75,21.6,7.76,2.78,15.64,5.24,23.41,8,7.37,2.6,12.71,7.24,14.68,15.18.92,3.73,2.45,7.25,5.68,9.62,3,2.18,6.54,1.77,8.4-.77s1.22-4.37-1.57-7.29c-1.43-1.49-3-3.28-3.46-5.18-1.13-4.8-3.88-8.31-7.44-11.4s-6.9-6.56-11.77-7.94c-7.92-2.25-15.76-4.8-23.62-7.27-5.68-1.77-9.28-5.53-10.38-11.45a54.09,54.09,0,0,1-.74-6.86c-.43-8.75,2.09-17,4.79-25.11,2.92-8.75,6.85-17.15,10.33-25.71,1.36-3.35,3.42-6.63,2.67-10.4-1.17-5.8,1.63-10.1,4.61-14.57,9.48-14.22,22-25.37,35.38-35.7,2.84-2.2,6.15-3.81,9.25-5.67s6.51-3.33,9.29-5.59a241.27,241.27,0,0,1,45.51-29.61,19.66,19.66,0,0,0,5.52-4.1,5.2,5.2,0,0,0,.26-7.22c-1.83-2.21-4.28-2.56-7.11-1-.85.49-1.58,1.19-2.39,1.76-7.14,5-14.3,10.07-21.42,15.15-6.84,4.89-13.72,9.73-20.4,14.83-4.6,3.51-9.18,6.93-14.44,9.47a59.35,59.35,0,0,0-9.54,6.14c-3.81,2.88-7.43,6-11.08,9.12a134.07,134.07,0,0,0-28.74,33.81c-1.93,3.23-3.14,6.47-2,10.31.81,2.83,0,5.54-1.2,8.15-2.71,5.84-5.47,11.66-8,17.56C770,337.48,766,349.46,765.93,362.44ZM826.4,374.9a18.74,18.74,0,0,1-.71-3.5c.07-3.61.38-7.23.39-10.84,0-5.08-2.13-8.8-7-10.95-4.18-1.87-8.23-4-12.35-6.07a5.6,5.6,0,0,0-6.38,1.06,5,5,0,0,0,0,6.4,10.19,10.19,0,0,0,3.46,2.67c3.12,1.48,6.33,2.8,9.56,4,2,.75,3,1.92,2.73,4.07-.45,3.25-.86,6.51-1.44,9.73-.85,4.77.87,7.95,5.18,9.2.74.22,1.5.32,2.24.48a44.09,44.09,0,0,0-1.09,5.59c-.2,3.4,1.61,5.75,4.43,6.16s4.54-.95,6-4a78.18,78.18,0,0,1,6.32-11.64,152.76,152.76,0,0,0,11.85-20.53c5.72-11.4,5-21.85-3.13-31.69-2.18-2.65-4.36-5.45-7.07-7.49-4.84-3.66-10.44-6.31-13.77-11.81-1.07-1.77-4.1-1.93-5.85-.88a4.57,4.57,0,0,0-1.68,6,10,10,0,0,0,2.25,3.21c2.72,2.38,5.33,5.09,8.47,6.76,6.29,3.34,10.37,8.37,13.72,14.46,2.16,3.95,2.65,7.65,1,11.74C839.63,357.15,834.48,366.46,826.4,374.9Zm35.45-23.54a23.65,23.65,0,0,0,5-1.89c3.89-2.45,7.93-4.83,11.29-7.93a230.67,230.67,0,0,1,23.67-19.44c3.77-2.65,7.28-5.68,10.88-8.57a65,65,0,0,0,19.22-24.78,119.66,119.66,0,0,0,5-15,5.67,5.67,0,0,0-3.79-6.66,5.39,5.39,0,0,0-6.61,2.95,33.55,33.55,0,0,0-2,6.07,47.52,47.52,0,0,1-11.83,21.43,224.59,224.59,0,0,1-17.22,15.54c-6.45,5.37-13.43,10.13-19.8,15.59-5.16,4.42-10.17,8.9-16.45,11.69a6,6,0,0,0-1.94,1.49,5.77,5.77,0,0,0-1.07,6C857,350.18,859,351,861.85,351.36Zm-268,135.93c3.56.12,5.85-3,4.46-6.63-1.67-4.36-4.89-7.33-8.88-9.63-7.85-4.52-15.94-8.68-22.88-14.65-2.12-1.83-4.39-3.49-6.67-5.12-5.48-3.92-10.94-6.42-18.34-4.92-9.75,2-19.48,3.35-27.57,9.79-1.28,1-2.87,1.64-4.21,2.59-5.13,3.6-10.32,7.13-15.3,10.93-4,3.07-3.39,8.2,1,9.93,2.36.93,4.13,0,5.82-1.52A116.78,116.78,0,0,1,522.1,463c7.36-4.15,14.84-7.92,23.76-5.52a6.4,6.4,0,0,0,2.47.05,11.11,11.11,0,0,1,9.11,2.89c8,7,17.28,12.1,26.27,17.62,2.18,1.34,3.94,2.78,4.82,5.35A5.29,5.29,0,0,0,593.9,487.29ZM322.6,326.48c3.48-.1,5.66-1.74,6.28-4.43.58-2.49-.91-4.86-3.86-6.12-.46-.19-.95-.28-1.42-.43a23.57,23.57,0,0,1-12.75-8.92c-3.48-5-7.53-9.72-10.22-15.12a66.94,66.94,0,0,1-5.52-16.9c-1.49-7.56-5.55-12.66-11.71-16.95a210,210,0,0,1-17.23-14.08c-3.85-3.35-7-4-9.5-1.43s-2.25,5.5,1.67,8.92c6.22,5.41,12.58,10.69,19.26,15.51A17.38,17.38,0,0,1,285,277.06c2.16,8.64,4.78,17.27,9.74,24.79a171.75,171.75,0,0,0,11.48,14.91c3.68,4.42,8.83,6.86,13.93,9.23A9.11,9.11,0,0,0,322.6,326.48ZM710,399.79a62.9,62.9,0,0,0-30.93,9.71,10.85,10.85,0,0,0-3.34,3.53c-1.77,2.9-1.27,5.6,1,7.55s5,1.6,7.56-.58a39.78,39.78,0,0,1,24.21-9.91c5-.26,10.52.06,14.47,4.69,4.8,5.63,9.86,11,15,16.41,2.95,3.12,5.88,6.06,7.1,10.47.93,3.37,3.77,4.61,6.49,3.71,2.88-1,4.32-4,2.88-7.35a30,30,0,0,0-4.83-7.92c-6.71-7.67-13.62-15.17-20.61-22.59-1.77-1.88-3.92-3.82-6.27-4.62A121.33,121.33,0,0,0,710,399.79Zm4.32,169.42h-.22c0,3-.23,6,0,8.92.69,7.53,6.73,12.51,13.39,11.27,11-2,18-15.27,13.2-25.48-4.61-9.83-13.27-15.74-22-21.43-2.7-1.78-6.8-.63-8.61,1.61s-1.61,5.06.93,8.06a13.66,13.66,0,0,1,3.2,8.63C714.39,563.59,714.3,566.4,714.3,569.21Zm-95,56.72c-.5,0-1,0-1.49,0-2.59-.11-4.49.93-5.4,3.42a5.37,5.37,0,0,0,2.33,6.47,8.94,8.94,0,0,0,4.13,1.29,12.2,12.2,0,0,1,9,4.42q7.75,8.65,15.84,17a26.65,26.65,0,0,1,7.25,14.23c1.17,6.3,3.18,12.44,4.89,18.63a9.2,9.2,0,0,0,1.26,2.67,5.24,5.24,0,0,0,6.08,2.14,4.67,4.67,0,0,0,3.5-4.82,23.36,23.36,0,0,0-.8-5.33c-2-7.29-3.87-14.65-6.34-21.79a32.07,32.07,0,0,0-5.6-9.71c-5.8-6.95-12.22-13.39-18-20.37C631.51,628.82,626.14,626.07,619.3,625.93ZM354.25,332a12.08,12.08,0,0,0-1.53-2.75c-3-3.31-7.52-2.76-10.51,1.42s-5.92,8.39-8.46,12.82c-3.5,6.09-8.82,8.37-15.47,8.85a17.13,17.13,0,0,0-6.42,2.05,76,76,0,0,0-8.33,5.23,20.22,20.22,0,0,0-4.85,4.14c-3.83,5.15-7.45,10.46-11,15.8a4.5,4.5,0,0,0,.78,6.27c1.89,1.57,4.17,1.73,5.93.24a25.4,25.4,0,0,0,4.68-5.67c1.78-2.77,3.2-5.77,4.88-8.62,3.33-5.63,10-6.65,14.65-10.39a.67.67,0,0,1,.49,0c4.33.57,7.94-1.64,11.86-2.86,4.45-1.38,7.36-4.17,9.65-8,1.71-2.82,3.44-5.64,5.32-8.35,1.37-2,2.68-4,5.44-4.67C353.45,337,354.17,335,354.25,332Zm31.1,55.17c-2.91-.22-6-.58-9.15-.68-2.8-.08-4.69,1.34-5.29,3.58a5.12,5.12,0,0,0,3.2,6.44,16,16,0,0,0,5.28,1c3.62.15,7.26.11,10.89,0,13.23-.33,23.38,6.41,33,14.37.57.47.72,1.44,1.08,2.18,1.86,3.76,5.51,5.47,8.85,4.15,3-1.17,6.94-8.28,5.07-10.21-2.93-3-7-5-10.56-7.4-2.29,2.39-3.37-.12-4.78-1.19-2.59-2-4.88-4.62-7.78-5.9C405.77,389.5,396.17,385.9,385.35,387.21Zm251.36,74.91a9.63,9.63,0,0,0,7.18-3.85c3.1-4.26,6.42-8.47,8.69-13.16a30.4,30.4,0,0,0,2.75-11.84,123.62,123.62,0,0,0-1-17.71c-.41-3.81,1-6.32,4-8.32a22.83,22.83,0,0,0,3.57-2.63c2.1-2.12,2.3-4.48.79-6.71s-3.89-2.79-6.57-1.77c-6,2.29-12.28,11.07-12.12,17.47.15,6.24.71,12.47,1.06,18.7a27.23,27.23,0,0,1,0,3.38c-.3,5.13-3.57,8.76-6.59,12.43a9.06,9.06,0,0,1-4,2.44c-3.64,1.28-5.26,3.31-4.71,6.43A6.63,6.63,0,0,0,636.71,462.12ZM380,639.82c4.44-1.53,4.76-1.81,5.66-5.8a26,26,0,0,1,8.53-14.66,73.81,73.81,0,0,0,5.64-5.55c4-4.26,8.2-7.91,14.4-8.83,3.62-.53,5.21-3.76,4.45-7.07-.63-2.73-3-4.21-6.62-3.64-5.61.88-10.83,2.7-15,6.9-3.47,3.52-7.19,6.8-10.68,10.3-3.86,3.87-7.44,8-9.16,13.31a6.72,6.72,0,0,0-.6,3.3C377.57,632,378.82,635.9,380,639.82ZM836.33,392.14c.2,5,4.25,7.07,8,4.9,2-1.16,3.81-2.57,5.77-3.76,6.19-3.76,12.53-7.27,18.58-11.25a82.59,82.59,0,0,0,9.91-8.14c2.9-2.62,3.16-5.87,1-8.32-2-2.24-5-2.31-8-.08a23.27,23.27,0,0,0-3.32,2.95c-6.73,7.28-14.95,12.27-24,16.1a21.65,21.65,0,0,0-6,4.16C837.14,389.72,836.7,391.44,836.33,392.14ZM417.45,295.86c-.14,3.49,1.17,4.95,3.39,5.82a5.19,5.19,0,0,0,6.49-2.15,39.51,39.51,0,0,1,14.94-13.27,3.76,3.76,0,0,0,.77-.61c2.48-2.31,3-5.08,1.35-7.5a5.47,5.47,0,0,0-7.83-1.5c-6.89,4.27-13.21,9.23-17.77,16.09A14,14,0,0,0,417.45,295.86Zm-101.3,39.73a9.21,9.21,0,0,0-1.81-2.93c-3.66-3.11-7.6-5.84-12.61-6.29-3.31-.3-6.39-.85-9-3.33-1.71-1.6-4.76-1.12-6.36.36a5,5,0,0,0-1.3,5.87,9.55,9.55,0,0,0,6.38,5.77,29.1,29.1,0,0,0,6.76,1.24,10.52,10.52,0,0,1,7.44,3.32,9,9,0,0,0,3.17,2.26C312.54,343.33,316.34,340.5,316.15,335.59ZM782.43,462c0-3.32-1.29-5.36-3.55-6.15a5,5,0,0,0-6.14,1.8,31.63,31.63,0,0,1-7.39,7.08c-2.88,2.14-3.51,5.16-2,7.79s4.85,3.64,8.18,1.8c3.9-2.15,7.41-4.89,9.57-8.94A25.38,25.38,0,0,0,782.43,462Zm-449.37-42.6c-3.07.05-5.05,1.71-5.51,4.36-1,5.66,4.9,12.59,10.65,12.53a6.15,6.15,0,0,0,6.23-4.62c.57-2.72-.49-4.36-3.54-6.25a11.07,11.07,0,0,1-2.88-3C336.68,420.57,335.17,419.21,333.06,419.42Zm449.53,69.84c2.75-.08,4.41-1.28,5.18-3.75a5.46,5.46,0,0,0-1.95-6.16c-1.74-1.49-3.51-3-5.24-4.44a5.12,5.12,0,0,0-6-1,5.2,5.2,0,0,0-3.09,5.18C771.56,483.68,777.71,489.39,782.59,489.26ZM327.14,449.55a5.84,5.84,0,0,0,6.16-5.12c.2-3.18-3.88-7.66-7-7.73a5.84,5.84,0,0,0-5.72,5.62A7.19,7.19,0,0,0,327.14,449.55ZM585,684.81c.06-3.63-2.23-6.23-5.51-6.25a6.23,6.23,0,0,0-6.32,6.16c-.1,3.62,2,5.93,5.57,6A5.66,5.66,0,0,0,585,684.81Zm-138.5-32.12c.07-4.37-1.44-6.44-4.83-6.6s-5.3,1.95-5.43,5.61c-.15,4.08,2,6.9,5.34,7S446.43,656.72,446.49,652.69Zm19,25.14a5.08,5.08,0,0,0,5.47-4.6c.17-2.9-3.24-6.16-6.55-6.25a5.08,5.08,0,0,0-5.17,4.9C459.23,674.78,462.29,677.69,465.45,677.83Zm147.67-6a5,5,0,0,0-5.25-5.19,5.05,5.05,0,0,0-5,5.49,5.43,5.43,0,0,0,5.23,5.36C610.81,677.43,613.13,674.79,613.12,671.84Zm-4,37.49a5,5,0,0,0-.1,10.08c2.5,0,4.84-2.65,4.75-5.34A4.73,4.73,0,0,0,609.09,709.33ZM430.22,688.71a5,5,0,0,0-4.68-4.86,4.84,4.84,0,0,0-5,5,4.69,4.69,0,0,0,4.84,4.57A5,5,0,0,0,430.22,688.71Z"/><path class="cls-1" d="M738,774.52c1-2.34,1.85-4.62,2.86-6.85.61-1.35,1.42-2.6,2.14-3.91,1.48-2.69,1.66-5.45-.29-7.91s-4.59-3-7.56-1.89a23.37,23.37,0,0,1-3,.65c-2.52-3.56-5.57-7.09-7.71-11.1-3.31-6.22-10-5.4-12.71.21-1.5,3.12-3.32,6.09-5,9.11-.87,1.54-1.8,3-3,5-1.31-1.49-2.25-2.6-3.24-3.67-4.36-4.74-9.3-4.17-12.47,1.36A17.51,17.51,0,0,0,686,765c.15,6.57,0,13.15,0,19.89l-2.89.15c-8.09.49-14.1,4.11-17.62,11.6-2,4.18-4.08,8.29-6.09,12.35-3.37,1.32-6.1.84-8.57-1.83-6.7-7.25-10.53-7.9-19.21-3.41Q626.79,794.41,622,785c-.38-.73-.58-1.55-1-2.29-1.13-2.22-2.81-3.79-5.44-3.55a5.34,5.34,0,0,0-4.63,4c-.67,2-1.1,4.07-1.71,6.41-3-.38-5.36-1.82-7.81-3.08a112.33,112.33,0,0,0-12.07-5.68c-4.41-1.63-8,1-8.11,5.65-.13,4.11,0,8.23,0,12.76-3.79,2.21-8.25,4.65-12.56,7.35-7.49,4.69-7.5,12.22,0,17,2.91,1.82,6.15,3.11,9.58,4.8,0,.69,0,1.65,0,2.6-.34,7.17,4.52,11.42,11.68,10.22a52.77,52.77,0,0,1,5.86-.76,24,24,0,0,1,4.07.48c.94,6.43,1.53,12.91,8.29,17.54-5.28,1.18-9.18.36-12.87-.37a31.14,31.14,0,0,0-12.72.1,8,8,0,0,0-6.58,5.93c-.45,1.41-1,2.79-1.47,4.21-1.16,3.85-2.59,7.44-6.74,9.16a5.51,5.51,0,0,0-2.39,2.43c-2.24,4.26-6.21,5.1-10.41,5.35-5.74.35-11.49.53-17.24.72-5.58.19-8.73,3.48-7.67,9,.74,3.84-.15,7.11-1.4,10.57-1.48,4.12-4.43,6.35-8.4,7.66-6.35,2.11-11.62,5.68-14.37,12-2.23,5.13-4,10.46-6,15.7a7.26,7.26,0,0,1-1.44,2.44c-.47-12.69-4.32-24.65-6.76-36.87a41.49,41.49,0,0,0-2.75-9c-1.27-2.82-3.2-5.35-5-8.2a24.3,24.3,0,0,0,2.69-2.6c2.37-3.08,1-7.08-2.83-7.41-2.8-.25-4.33-1.52-6.16-3.37-2-2.05-4.77-3.41-7.32-4.88-3.27-1.9-6.83-3.35-9.93-5.47-4.69-3.21-10.05-4-15.37-5.1-3.31-.69-6.61-1.44-10.89-2.38,3.7-3,6.7-5.26,9.49-7.75,3.44-3.06,6.82-6.21,10-9.52,5-5.18,5.08-14.46,1-19.71-1.52-1.95-3.19-3.78-4.73-5.71-1.72-2.15-3.38-4.36-5.14-6.65,1.26-1.52,2.28-2.56,3.08-3.76,2.86-4.29.67-8.82-4.43-9.27-.65,0-1.32,0-2-.07-12.07-.77-15.39,6-15.82,15-.1,2.12-.65,4.22-.92,6.34a5.61,5.61,0,0,1-3.39,4.56c-3.49,1.66-7.11,2.36-11,1.14-1.47-4.43.38-8,2.56-11.27,1.63-2.46,3.88-4.5,5.65-6.88,2.95-4,5.93-7.91,8.55-12.09,4-6.46,2.43-17.26-3.31-22.93a44.21,44.21,0,0,1-6.13-8.3c-1.3-2.09-1-4.22.48-6.46,3.94-5.83,1.38-11.29-5.76-12.47-6.74-1.11-12.57.78-16.6,6.42a13.5,13.5,0,0,0-2.09,6.88c-.23,4.61,0,9.25.25,13.87a9.49,9.49,0,0,1-4.44,8.84q-5.12,3.49-10.24,7c-1.34.9-2.69,1.39-4.2-.9,1.71-2.06,3.28-4.58,5.42-6.44,8-6.9,7.44-15.71,5.68-24.68-1-4.85-2.58-9.56-5.9-13.49a9.26,9.26,0,0,1-1.53-3.56c-1.81-6.75-4.74-7.94-11.32-3.81,2.59-10.77,5-21,7.58-31.59,2.74,2.48,5.63,5,8.46,7.67,7.75,7.19,15.56,14.2,25,19.36,5.16,2.84,9.54,7.07,14.37,10.52,5.11,3.64,10.23,7.28,15.55,10.59,5.57,3.46,11.73,4.15,18.14,2.82,4.67-1,8.94.69,11.28,5a83.37,83.37,0,0,1,4.37,10.49C476.59,778.87,483,789,494.8,794.69a33.75,33.75,0,0,0,8,2.24c2.74.54,5.57.59,8.32,1.1,5.68,1,11.36,1.77,17.15,1a8.21,8.21,0,0,1,2,0c9.33,1.07,17-2.75,24.2-8.11a10.14,10.14,0,0,1,3-1.79c7.57-2.25,12.24-8.2,17.41-13.5,2.42-2.47,4.46-5.32,7-7.7,2.94-2.81,5.6-5.6,4.62-10.31a56.83,56.83,0,0,1,6.17-.48,69.69,69.69,0,0,0,19.54-2.4c1.93-.5,4.18-.05,6.22.33,2.39.44,4.53.41,6.58-1.09s4.2-2.65,6.18-4.12a20.35,20.35,0,0,1,10-3.95,21.15,21.15,0,0,0,8.25-3.05c13.91-8.59,27.83-17.16,41.45-26.2,7.82-5.19,15.08-11.25,22.58-16.94,9-6.78,17.75-13.77,26.87-20.32A33.49,33.49,0,0,0,754,657.86c.71-3.56,1.63-7,4.34-10.28.48,1.47.93,2.6,1.22,3.76,1.58,6.55,3.3,13.08,4.64,19.68A17.18,17.18,0,0,1,756,689.17c-2.78,1.71-5.25,3.93-8.79,4.21-1.2.09-2.34,1.11-3.48,1.76-3.29,1.85-6.58,3.73-9.86,5.61a16.11,16.11,0,0,0-2.55,1.5,5.12,5.12,0,0,0-1.28,6.25,5.06,5.06,0,0,0,6.25,2.64,10.78,10.78,0,0,0,2.23-1l23.2-12.73c1.76,2.49,1.76,2.49,2.59,9.54-2.43,2.52-4.54,5-6.91,7.09a28.83,28.83,0,0,1-5.3,3.51c-1.58.87-3.43,1.27-5,2.21-2.93,1.79-3.8,4.59-2.49,7.17s4.46,3.74,7.6,2.32c2.71-1.22,5.32-2.65,8-4,.69-.34,1.43-.58,2.78-1.12-1.33,7.51-2.56,14.45-3.8,21.39a13.78,13.78,0,0,1-.51,1.91c-2.78,8-2.32,15.85.67,23.71a19.74,19.74,0,0,1,1.18,6.28c.11,4.13.07,8.18,1.83,12.13a6,6,0,0,1-1.07,7c-7.36,7.1-13.64,15.35-22.32,21-1.37.9-2.76,1.78-4.44,2.86-.34-6.86.2-13.75-6.52-18.42,4.59-3.78,8.78-7.73,13.47-11s6-7.52,1.07-12.31C741.29,777.47,739.93,776.27,738,774.52ZM520.82,826.27c.12-1.07.45-3,.56-4.95a5.44,5.44,0,0,0-4.31-5.76,5.19,5.19,0,0,0-6.17,3.61,22.94,22.94,0,0,0-.88,5.3c-.2,2.61-.18,5.24-.27,7.86-.14,3.95,1.61,6.54,4.74,6.94s5.88-2.28,6.29-6.2C521,831.12,520.82,829.13,520.82,826.27Zm-4,35c.09-4.59-1.58-7.06-4.28-7.62s-5.76,1.42-6.68,4.59c-1,3.6-2.05,7.21-3,10.84-.77,3,.3,5.54,2.71,6.72a5.6,5.6,0,0,0,7-1.86,13.13,13.13,0,0,0,2.31-4.31C515.86,866.49,516.43,863.25,516.87,861.28Zm16.71-17.7.24,0a20.18,20.18,0,0,0,0,2.46,5.7,5.7,0,0,0,4.58,5.11,5.41,5.41,0,0,0,5.75-3.7,35.57,35.57,0,0,0,1.07-8.71,5.37,5.37,0,0,0-10.58-1A55.34,55.34,0,0,0,533.58,843.58ZM452.37,778c.08-4.4-2.21-7.36-5-7.65-3-.33-6.59,3.76-7.11,8.18-.41,3.49,1.35,6.32,4.47,6.43,1.64.06,3.9-.38,4.86-1.49C451.14,781.69,451.8,779.19,452.37,778Zm43.74,118.25c.07,3.34,3.3,6.27,6.19,5.31a10.2,10.2,0,0,0,7.15-7.5,4.72,4.72,0,0,0-2.89-5.58C502,887.05,496,891.47,496.11,896.24ZM737.87,738.07a5.83,5.83,0,0,0,5.88-5.47,5.41,5.41,0,0,0-5.72-5.41c-3.36.07-5.77,2.3-5.82,5.4A5.31,5.31,0,0,0,737.87,738.07ZM716,711.29a4.91,4.91,0,0,0,5.12,4.9,5.21,5.21,0,0,0,4.75-5.38c-.15-2.64-2.76-5.14-5.23-5A5.34,5.34,0,0,0,716,711.29Z"/><path class="cls-1" d="M651.54,1010.09c-3.44-3.35-6.12-5.75-8.56-8.37-5.18-5.53-10.37-11.06-15.31-16.81-10.41-12.16-20.68-24.44-31-36.71a35.92,35.92,0,0,1-3.27-5,44.25,44.25,0,0,0-11.1-13.18,15.8,15.8,0,0,1-4.07-4.29c-5.91-10.13-14.64-17.84-22.29-26.47-.86-1-1.63-2-2.94-3.64,6.92-1.31,13.27-2.51,19.62-3.74,4.35-.84,8.75-1.51,13-2.63a59.78,59.78,0,0,1,14.58-2.44c3.57,0,7.15-1,10.68-1.79,5.63-1.21,11.23-2.59,16.84-3.91,1-.22,1.94-.37,2.88-.68,13.44-4.47,27-8.49,40.17-13.84a145.61,145.61,0,0,0,21.43-11.16c2.35-1.44,5.16-2.11,7.67-3.33,1.91-.92,3.67-2.15,5.49-3.25,11.17-6.74,22.33-13.51,33.53-20.2a95.39,95.39,0,0,0,19.1-14.87c4.05-4.1,8.36-8,12.78-11.68,2.76-2.31,4.57-4.67,3.81-8.8.83,1,1.71,2.07,2.47,3.17,2.33,3.4,4.4,7,7,10.19a22.46,22.46,0,0,1,4.9,10.12c1.26,7,3,13.89,3.58,20.91.57,6.56-1.73,12.66-5.73,18q-13.74,18.48-27.37,37c-5.65,7.72-10.81,15.83-16.82,23.26C734,926.7,725,937,715.87,947.21c-9.6,10.72-20.55,20.06-31.44,29.44-11.14,9.6-22,19.46-31.48,30.78A14,14,0,0,0,651.54,1010.09Z"/><path class="cls-1" d="M469.1,880.24c-2.7,2.3-5,4.37-7.45,6.32-4.87,3.92-9.65,8-15.32,10.75a10.29,10.29,0,0,0-5.87,7,4.29,4.29,0,0,1-.81,1.79c-4.46,5.45-6.92,12-9.81,18.28-4.08,8.88-7.29,18-7.5,28-.14,6.76-.63,13.52-.55,20.27a24.46,24.46,0,0,0,1.73,9.14c2.3,5.45,5.29,10.62,7.89,15.95a37.33,37.33,0,0,1,3,8.33c-8-2.87-16-5.24-22.58-10.72-5.44-4.54-11.21-8.66-16.75-13.08-6.56-5.24-13-10.61-19.55-15.91a78.26,78.26,0,0,0-7-5.53c-8.07-5.15-14.53-11.91-20.18-19.51-7.29-9.81-14.59-19.61-21.72-29.53a82.66,82.66,0,0,1-15.55-44.19c-.47-7.68.7-15,1.57-22.51,1.43-12.29,7.84-21.44,15.32-30.37,1.69-2,3.1-4.27,4.82-6.65,3.53,4.27,7.12,8.46,10.52,12.78a32.38,32.38,0,0,0,8.47,7.42A148.54,148.54,0,0,1,367,839.33a51.32,51.32,0,0,0,17.38,9.2,98.11,98.11,0,0,1,12,4.62c16.31,7.76,33.17,13.77,51,17.07a39.13,39.13,0,0,1,9.14,3.46C460.59,875.64,464.61,877.89,469.1,880.24Z"/><path class="cls-1" d="M509.66,370.05c.12-2.72.21-4.83.32-6.95.57-11,1-22.05,3.11-32.94a35.56,35.56,0,0,0,.5-7.37c-.14-9,1.09-17.76,2.6-26.55.94-5.5.3-10.5-4.7-14.34A129.88,129.88,0,0,1,519.08,258c3.19-7.54,6.69-14.95,10.22-22.78,2.41,0,4.77-.41,6.94.07,7.92,1.76,15.75.12,23.63-.12,5.09-.15,10.19.34,15.28.55a14.11,14.11,0,0,0,3,.12c7.64-1.42,15.06.52,22.56,1.33a114.63,114.63,0,0,1,26.92,6.56c-5.59,17.43-11.17,34.8-16.91,52.71-1.8-.32-3.53-.5-5.19-.95-7.72-2.05-12.29.81-12.38,8.6-.13,10.89-3.11,21.16-5.81,31.52-2.62,10.05-5.46,20-8.23,30.05-.3,1.09-.73,2.14-1.21,3.55-2.35,0-4.65-.15-6.93,0-4.26.33-8.48,1-12.74,1.26-7,.39-14,.55-21,.8a9.36,9.36,0,0,0-2-.05C526.78,373.42,518.59,370.5,509.66,370.05Z"/><path class="cls-1" d="M89.12,657.6c-1.19-6.77-2.19-13.08-3.42-19.36-1-5-.79-9.82,1.6-14.45a30.12,30.12,0,0,0,3.14-14.37,29.24,29.24,0,0,1,1.4-7.18c.46-1.75,1.69-3.41,1.72-5.13.09-4.52,2.84-6,6.57-7.23,19.4-6.29,37.42-15.7,55.64-24.68,7.53-3.72,15.45-6.67,23.2-9.94a12.43,12.43,0,0,1,2.05-.46c.52,4.19.55,8.09-.82,11.89a13.8,13.8,0,0,0,.31,10.15c1.7,4.34,5.5,6.38,9.49,4,9.26-5.43,19.62-8.59,28.6-14.7,6.48-4.4,13.9-7.42,20.89-11.05l.78.79a7.54,7.54,0,0,1-.75,1.87c-7.26,10-14.23,20.3-22,30-6.59,8.24-13.95,15.87-21.19,23.56a90.26,90.26,0,0,1-9.36,8.06c-4.29,3.5-8.68,6.89-12.43,9.85-.42-3.77-1-8.11-1.37-12.47a13.47,13.47,0,0,1,.19-3.8c.6-3.13.47-6-2.51-7.91a8.17,8.17,0,0,0-8.86.62C148,616.35,133.86,627,119.89,637.79c-7.47,5.77-14.91,11.49-23.57,15.43A68.22,68.22,0,0,0,89.12,657.6Z"/><path class="cls-1" d="M198.7,473.52a31.76,31.76,0,0,1-3.43,2.57c-9.21,4.92-17.64,11-26,17.17-5.93,4.42-12.6,7.85-19,11.57-6.85,4-13.79,7.75-20.7,11.62-.84.47-1.69.91-3.05,1.64a28.18,28.18,0,0,1,1.13-10.76c.5-1.92,1.28-3.76,1.76-5.68.7-2.84.67-5.68-1.66-7.82s-5.12-2-7.9-.91c-8.69,3.52-17.67,6.22-26,10.69-6,3.21-12.88,5.09-19.55,6.84A191.25,191.25,0,0,0,45.46,521c-3.47,1.54-6.93,3.09-10.45,4.5-1.77.7-3.67,1.09-6.4,1.87.58-4.6,1-8.31,1.54-12a39.54,39.54,0,0,1,1.48-6.76c3.16-9.29,4.42-18.9,5.17-28.62a24.42,24.42,0,0,1,1-4.84c1.2-4.17,3.13-5.57,7.6-6.11,21.39-2.64,42.87-4.56,64.14-8.3,11.33-2,22.86-2.86,34.3-4.2a15.77,15.77,0,0,1,2.89.29c-.66,3.63-1.25,7-1.89,10.31-.28,1.46-.77,2.88-1,4.35-.7,5.17,2.33,8.36,7.53,7.7,8.16-1,16.28-2.42,24.44-3.42C183.07,474.9,190.36,474.33,198.7,473.52Z"/><path class="cls-1" d="M627.48,318.67c-1.13-.38-1.74-.55-2.32-.79-5.69-2.38-10.28-.35-11.84,5.46-5.26,19.58-10.61,39.14-14.86,59-1,4.66-1.49,9.44-2.25,14.15-.16,1-.5,1.89-.8,3-4.32,1-8.16.72-11.58-2.35-4.27-3.82-9.34-5.23-15.05-5.15q-22.8.29-45.6.17a89.78,89.78,0,0,1-10.8-1.17c-7.48-1-15-2-22.83-3a29.92,29.92,0,0,1-.38-3.56c0-8.24,0-16.34,2.3-24.51,1.89-6.71,1.86-14,2.35-21.07.6-8.72,1-17.46,1.23-26.2.18-7.86-2.84-10-10.44-8-.27.08-.6-.11-1-.21A88.67,88.67,0,0,1,488,282.83c1.59-5,2.71-10.2,4.31-15.22,2.31-7.23,4.83-14.39,7.34-21.55a19.26,19.26,0,0,1,1.77-2.92c1-1.81,2-3.63,3.36-6.09l12.69-1.14c-.9,2.33-1.42,4.14-2.25,5.79-6.85,13.65-11.14,28.23-15.55,42.76-1.35,4.47.36,6.91,6.47,9.05-.41,2.77-.93,5.64-1.24,8.54-.66,6.22-1.68,12.46-1.7,18.69,0,7.17-1.47,14.08-2.36,21.11-.77,6-.77,12.17-1.12,18.26-.2,3.62-.63,7.23-.61,10.85,0,6.37,3,9.29,9.3,9.81s12.45,1.24,18.67,1.79a24.12,24.12,0,0,0,4.41-.18c1.14-.12,2.26-.54,3.4-.6,7.07-.36,14.15-.61,21.22-1,4.43-.25,8.86-.9,13.29-.95a67.65,67.65,0,0,1,10.31.93c4.32.61,7.34-.93,8.4-5,4.82-18.17,9.63-36.34,14.23-54.57,1.12-4.44,1.45-9.08,2.19-13.93,2.89,0,5.79-.07,8.7,0a7,7,0,0,0,7.28-4.82c.69-1.68,1.34-3.38,1.87-5.12,4.55-14.82,9-29.66,13.61-44.48a65.51,65.51,0,0,1,2.63-6.22c6.25.65,11.92,3.07,18,5.24C641,271.72,632.32,294.25,627.48,318.67Z"/><path class="cls-1" d="M471.31,743.93l22.86-9.69-.21-.74a20.09,20.09,0,0,1,2.32.71c8.85,3.76,18.07,4.79,27.61,4a10.49,10.49,0,0,1,5.08,1.22c6.38,3.07,12.65,6.38,19,9.48a25.36,25.36,0,0,0,5.17,1.66c7,1.73,14.06,3.38,21.09,5.08.91.22,1.8.53,3.54,1-4.15,4.73-7.79,9.13-11.71,13.27-4.07,4.31-8.47,8.11-14.17,10.48-4.18,1.74-7.82,4.78-11.73,7.19a13.8,13.8,0,0,1-8,2.07c-2.46-.11-4.95.38-7.41.23-5.25-.31-10.47-1.12-15.72-1.27-14.94-.41-22-10.51-27.06-22.44-3.07-7.29-5.09-15-10.52-21.06C471.3,745,471.38,744.59,471.31,743.93Z"/><path class="cls-1" d="M666.09,829.77c-4.57,1.68-8.88,3.24-13.18,4.84-6.07,2.24-10,6.85-13.12,12.23a12.21,12.21,0,0,0-1.13,5.67c0,2.43,1.63,4,3.9,4.51a5,5,0,0,0,5.58-2.23,4,4,0,0,0,.52-.85c2.86-7.81,9.79-10.2,16.75-12.53a25,25,0,0,1,3.87-.78c5.24-.85,8.66-4,11.78-8.19,2.86-3.9,6.76-7.08,10.45-10.31,1.54-1.34,3.38-.55,4.9.82,1.84,1.65,3.75,3.23,5.74,4.69a5.05,5.05,0,0,0,6.37,0,4.74,4.74,0,0,0,.86-6.32C706,816.59,701.85,812.23,696,811c-5-1.06-9.67,1-13.48,4.75-2.47,2.4-5.23,4.49-8,6.88-3-2.09-3.27-5.67-5.23-8.37,2.16-4.62,4.06-9.2,6.45-13.52,1-1.72,2.77-3.63,4.55-4.1,4.66-1.23,9.75-1,13.86,1.28s8,4.43,12.88,4.22c5.17-.23,8.89,2.89,12.75,5.66,2.78,2,4.83,4.42,5.23,8,.36,3.29,1.65,5.9,6.37,6.46l-29.71,18.27c-1.09-1.2-2-2.32-3.06-3.34-3-2.94-6.47-3.26-9.3-.9-2.64,2.2-2.79,5.05-.49,8.81.17.27.32.55.51.87-7.86,6.47-17.22,10.1-26.83,13.93-1.72-2.18-3.15-5.52-7.06-4.37-4.15,1.22-4.08,5.12-5,8.63l-22.87,7.76c-2.16-8.69-6.63-15.23-12.36-21-4.61-4.69-5.86-12.91-2.86-18.64a11.06,11.06,0,0,1,2.24-2.56c.71-.67,1.89-1,2.29-1.83,2.1-4.15,6-5.26,10-6.45A17.86,17.86,0,0,0,637,814c2.12-3.23,3.23-3.23,6.18-.54,1.21,1.11,2.41,2.25,3.69,3.29,3.11,2.5,6.56,3.89,10.58,2.56,1.63-.54,3-.46,3.85,1.1C663,823.54,664.6,826.8,666.09,829.77Z"/><path class="cls-1" d="M167.92,779.59a11.46,11.46,0,0,1-4.17-9.38c.07-3.8.24-7.62-.05-11.4a40.23,40.23,0,0,0-1.84-10.65,34.93,34.93,0,0,1-2-14.67l13.27-9.44c1.21-.86,2.44-1.71,3.58-2.65,4.78-4,7.85-8.07,6.2-15.28-1.93-8.44-2.06-17.28-3-26q14.57-7.75,29.18-15.51c3.5-1.85,7-3.71,10.6-5.36a44.54,44.54,0,0,1,5.88-1.82l.53.85c-.58,1.1-1.21,2.18-1.75,3.3-2.81,5.78-5.65,11.55-8.37,17.38-4.39,9.42-8.49,19-13.14,28.27-2.25,4.51-1.94,8.4.17,12.7,2.45,5,4.54,10.17,6.74,15.16-5.3,6-9.72,12-16.18,16a28.35,28.35,0,0,0-6.29,5.54C180.82,764.07,174.55,771.68,167.92,779.59Z"/><path class="cls-1" d="M537.25,668.86c2.39,1.68,4.76,2.76,6.33,4.56,4.2,4.82,8.09,9.93,7.3,17a14.78,14.78,0,0,0-.19,1.47c0,16.36-9.63,26.52-22.61,34.07a25.11,25.11,0,0,1-16.75,2.69c-6.18-1-12.32-2.25-17.94-5.19-10.09-5.26-15.48-13.24-15.25-25,.18-9.1,2.72-17.54,6-25.82,1.68-4.2,3.38-5.94,7.19-8.72L497,678.57c-6,6.72-7,14.59-3.17,23.06,2.06,4.51,5.13,8.21,10.37,9a115.75,115.75,0,0,0,15.16,1.56c6.88.1,11.13-4.44,14.38-9.83,3.41-5.67,5.44-11.8,2.8-18.38C534.54,678.88,536,674.11,537.25,668.86Z"/><path class="cls-1" d="M492.38,634.43c2.72,1,5.46,1.92,8.15,3a30.81,30.81,0,0,0,16.56,1.32,87.31,87.31,0,0,0,13.36-3.52c8.36-2.79,16-1.09,23,3.56,1.94,1.28,3.27,4.12,3.93,6.5.81,2.94-.59,6.16-4.79,5.48a52,52,0,0,1-6.76-1,13.45,13.45,0,0,0-17.39,11.65q-.33,4.18-1,8.34a8.83,8.83,0,0,1-1.19,3.14,9.85,9.85,0,0,1-9.91,5.07c-9.38-.65-15.32-6.5-15.56-15.93a7.81,7.81,0,0,1,.84-3.27c1.66-3.66.7-6.62-2.05-9.36a26,26,0,0,0-10.81-6.74c-2.2-.67-4.18-1.38-3.86-4.21.24-2.17,2.31-3.54,5.18-3.52.66,0,1.32.1,2,.16Z"/><path class="cls-1" d="M406.63,764.3a43.36,43.36,0,0,0,2.37,4.08,97.77,97.77,0,0,0,6.09,7.77c3.92,4.33,4.63,8.09,1.32,12.94a114.53,114.53,0,0,1-9.28,11.49c-5.61,6.27-9.19,13.25-8.48,23-2.24-2.55-3.69-4.43-5.38-6.06s-3.57-2.93-5.33-4.42c-3.41-2.87-6.59-6.06-10.23-8.58-4.57-3.17-10.13-3.67-15.48-4.51-1.46-.23-3,0-4.46-.06a5.6,5.6,0,0,0-5.42,2.56c-2.29,3.14-4,3.46-8.86,3-1-1.92.28-3.22,1.16-4.8a67.73,67.73,0,0,0,3.91-8.42c1.2-3,2.08-6.22,3.14-9.33a16.22,16.22,0,0,1,9.35-10.26c4.2-1.79,7.11-5.29,9.7-9,1.4-2,2.76-4,4.63-6.78.93,4.65,1.51,8.29-1.65,11.58-2.28,2.38-4.38,4.93-6.49,7.47-5.9,7.12-3.26,14,1.77,19,2.87,2.85,11,3,15,.59,4.22-2.59,8.32-5.38,12.4-8.19,6.18-4.24,9.1-10.27,9.34-17.67.06-1.74,0-3.48,0-5.22Z"/><path class="cls-1" d="M907.4,457l4.29-5.61c2,3.22,4.17,5.62,5.1,8.44a87.74,87.74,0,0,1,3.47,14.85c1,6.5-3.24,11-6.77,15.84-7.1,9.7-28,5.91-31.73-4.05-2.24-5.95-5.63-11.48-7.86-17.43-1-2.8-.73-6.16-.81-9.27a44,44,0,0,1,5.6-22.39l7.14,5.92c-1.12,6.36-1.72,12.66,0,18.74a90.63,90.63,0,0,0,5.56,14.23,7.63,7.63,0,0,0,7.53,4.7c3.86-.18,7.22-1.37,8.85-5.18C910.39,469.66,910.87,463.44,907.4,457Z"/><path class="cls-1" d="M936,402.94c.29-2.2.51-3.8.75-5.66,5.28-.21,10.35-.21,14.49,3.26A19.93,19.93,0,0,1,958,412.25c1.46,7.44-.22,14.51-3.51,21.1-3.81,7.64-12.87,11.67-21.31,9.78-1.65-.37-3.13-1.7-4.56-2.76-2.37-1.75-4.52-3.84-7-5.46-6.43-4.25-8.49-10.77-9.17-17.82a104.35,104.35,0,0,1,0-13.35c.11-3.23,2.56-4.92,5.81-4.19,5.28,1.18,7.08,5.58,8.7,9.91.85,2.29,1,4.84,1.45,7.26a38.61,38.61,0,0,0,1.11,4.81c2,5.81,5.12,8,11.42,8.22,4.39.18,7.74-1.42,9.76-5.38s2.19-7.92-.36-11.73a18.71,18.71,0,0,0-8.25-6.88C940.24,404.93,938.33,404,936,402.94Z"/><path class="cls-1" d="M592.54,793.62c3.75,1.9,6.93,3.26,9.86,5,4.78,2.88,9.3,3.33,13.81-.89,3.56,4.25,4.71,9.15,6,14.33-10.23,2.29-15.67,10-21.1,18.29H589.59a3.46,3.46,0,0,1-.25-1.38c.9-5.48-2.33-8.25-6.69-10.24-2.37-1.08-4.81-2-7.61-3.2a22.1,22.1,0,0,1,9.11-5.67c7.78-2.93,8.67-4.24,8.2-12.28C592.29,796.49,592.45,795.35,592.54,793.62Z"/><path class="cls-1" d="M696.74,767.57c1.29-.14,1.49-.23,1.6-.16,8.13,4.72,10,4.2,14.63-4.11l5.41-9.72,10.22,14.36c-.21,2.22-.41,4.83-.71,7.42-.49,4.15.65,7.44,5.56,9.22l-11.92,10.19c-5.54-1.32-10.73-2.51-15.91-3.8a24.07,24.07,0,0,1-4.6-1.59,4.67,4.67,0,0,1-2.93-4.6C697.93,779.07,697.23,773.37,696.74,767.57Z"/><path class="cls-1" d="M436.62,815.94c3.38,3.86,6.22,6.8,8.7,10,2.6,3.37,2.71,5.53-.21,8.35-4.6,4.44-7.95,10.15-13.85,13.29-3,1.58-3.18,4.73-2.72,8.56-9.08-3.49-17.47-6.73-26.33-10.15,3.11-5.22.82-9.67-.65-14.87,7.34,4.7,14.54,3.73,21.64,1.55C430.9,830.31,435.59,825,436.62,815.94Z"/><path class="cls-1" d="M349.69,812.19c7-1.63,12.55-1.65,18.28.11,4.49,1.39,7.47,4.61,11,7.22,2.1,1.57,3.95,3.47,5.92,5.22.61.54,1.45,1,1.79,1.66,2.2,4.49,4.29,9,6.85,14.48-7.18-1.65-13-3.56-18-7.46-6-4.64-12.07-9.13-18-13.84C355,817.58,352.83,815.17,349.69,812.19Z"/><path class="cls-1" d="M581.91,879.89c1.36-3.62,2.43-6.87,3.8-10,1.13-2.58,3.61-1.77,5.65-1.66,3.42.19,6.83.75,10.25.83,4.21.1,8.42-.14,13.44-.26.2,1,.51,2.79.86,4.68-6.4,2.15-12.22,4-18.62,4C592.46,877.58,587.65,879,581.91,879.89Z"/><path class="cls-1" d="M514.58,703.62c-2-3.38-2-3.38-.32-16.7l11.65-1.24c3.25,3.72,1.75,7.54,0,11.3C523.69,701.57,520.18,704.1,514.58,703.62Z"/><path class="cls-1" d="M362,754.49l4.09-17.37C368.09,744.42,367.05,749,362,754.49Z"/><path class="cls-1" d="M503.92,686.69c-.18,2-.35,4-.54,6s-.4,4.16-.62,6.38c-3.7-4.92-3.67-7.92,0-12.54Z"/><path class="cls-1" d="M693.91,525.42c5.09-8.41,9.73-16.06,14.33-23.74.09-.15-.26-.56-.74-1.47-3.92,1.71-6.31,5.5-9.89,7.61s-6.75,4.65-10.09,7c-3.39-2.82-6.51-5.48-9.69-8.06-3-2.39-4.66-6.19-8.71-7.65a25.43,25.43,0,0,0,3,12.18,41.54,41.54,0,0,1,5,13.87c.22,1.43.31,2.87.47,4.34-5.39,0-10.68.9-15.5-.21-6.71-1.56-11.22-6.67-14.22-12.87-4.63-9.6-4-19.61-1.64-29.55a13,13,0,0,1,4.65-6.71,155.86,155.86,0,0,1,26.07-16c1.62-.78,3.07-1.92,4.68-2.7a29.09,29.09,0,0,1,4.24-1.19c-2,4.42-3.39,7.85-5,11.18-2.88,5.94-6.23,11.67-8.73,17.75-2.64,6.41-2.58,5.18,2,9.7,3.15,3.13,6.5,6.06,9.64,9.21,1.83,1.83,3.81,2.9,6.15,1.41,5.56-3.54,11-7.23,16.48-10.92a11.89,11.89,0,0,0,1.83-2.09c-5.5-12.75-11-25.53-14.38-39.29a11.7,11.7,0,0,1,2.95,0c7.38,1.85,15.19,2,22,6.22,3.84,2.38,6.73,5,7.53,9.77.59,3.53,2.18,6.88,3.08,10.37,1.16,4.52.66,8.59-2.8,12.31-4.82,5.19-9.18,10.8-13.79,16.18A48.7,48.7,0,0,1,693.91,525.42Z"/><path class="cls-1" d="M636.91,493.35c-.63,11.25-1.51,21.6,7.23,30.24-4.73.66-7.68-1.87-11-3-4-1.29-4.7-5.81-8.19-7.28C625.93,508.67,631,500.07,636.91,493.35Z"/><path class="cls-1" d="M736.12,482.57c-1.68-5.09-3-8.92-4.21-12.75l.63-.71,7.35,4.09C738.72,476.11,737.62,478.86,736.12,482.57Z"/><path class="cls-1" d="M402.08,500.46c2.38-3.11,4.56-6,6.75-8.8,2.61-3.38,5.38-6.64,7.8-10.15,1.19-1.73,2.78-3.76,1-6.36-7.55,3.29-13.28,8.73-19.76,14.19l-4.3-5.38c-1.74-2.19-3.39-4.47-5.28-6.52a3.09,3.09,0,0,0-2.58-.53c-.45.1-1,1.36-.87,2a42.21,42.21,0,0,0,1.64,6.65c1.07,3.05,3,5.82,3.31,9.07-2.79-1.47-5.43-2.69-7.89-4.22a18,18,0,0,1-4.06-3.53,31.42,31.42,0,0,1-8.14-21.68c.08-8.8.15-17.52,3.5-25.81,3.73-9.23,4.33-9.94,15.24-8.27,5.78.89,11.42,2.72,17.25,4.15-1.26,2.18-2.33,3.9-3.27,5.69-3.62,6.84-7.26,13.68-10.77,20.58a56.64,56.64,0,0,0-3.64,8.62,4.9,4.9,0,0,0,.74,4c2.89,3.33,6.1,6.37,9.63,10,5.65-4.2,11.38-8.3,16.91-12.64a4.51,4.51,0,0,0,1.53-5.25c-1.69-5.84-2.92-11.82-4.17-17.78-.58-2.71-.78-5.5-1.2-8.69,3.11.54,5,2,5.73,4.44a13.35,13.35,0,0,0,6.22,8c5.29,3.07,7.92,8.17,11.26,13-2.56,2.58-2.81,5.38-1.72,8.68a9.79,9.79,0,0,1,.14,5.79,128.18,128.18,0,0,1-6.45,16c-2.49,4.92-6.71,7.85-12.62,7.45C410.09,502.91,406.2,502.58,402.08,500.46Z"/><path class="cls-1" d="M451.8,502.63a41.58,41.58,0,0,1-17.2,1.18l9.56-26.49C446.73,485.81,449.19,494,451.8,502.63Z"/><path class="cls-1" d="M362.27,466a10.42,10.42,0,0,1-.43-1.73c-.67-7.33-1.39-14.66-1.95-22-.3-3.91,2.28-5.84,6-7.52C362,445.14,363.3,455.62,362.27,466Z"/><path class="cls-1" d="M725.11,561.4c8.18,6.71,8.28,14.15.14,17.24C722.4,572.92,725.15,567.25,725.11,561.4Z"/></svg>