
<svg id="Layer_1" data-name="Layer 1" xmlns="http://www.w3.org/2000/svg" viewBox="0 0 619.46 970.69"><defs><style>.cls-1{fill:#eee9db;}</style></defs><path class="cls-1" d="M207.63,512.72c.27-1.59.46-2.46.56-3.34a12.56,12.56,0,0,0-.59-6.8,12.35,12.35,0,0,1-.7-4.13,6.45,6.45,0,0,0-2.22-4.44c-1.22-1.15-2.53-2.2-3.93-3.4a3.85,3.85,0,0,0,.15,4.77,27.91,27.91,0,0,1,1.86,3.39,19.32,19.32,0,0,0-2-.34c-1.8-.05-2.67.6-2.78,2.4a36.25,36.25,0,0,0,1.53,13.4,13,13,0,0,0,8.17,8.31A34.54,34.54,0,0,1,213.6,526c.43.26.61.93.91,1.44-3.45,1.35-9.54.85-12.22-.95-1.67-1.13-3.28-2.32-5-3.43a5.47,5.47,0,0,1-2.39-3.93c-1-5.32-2.32-10.59-3.58-15.85a8.91,8.91,0,0,0-1.31-3,6.55,6.55,0,0,1-.88-5.77,167.09,167.09,0,0,1,5.22-17c2.11-5.29,5.07-10.24,7.66-15.34a1.2,1.2,0,0,1,.37-.46c2.65-1.77,2.58-4.55,2.76-7.26s.47-5.6.68-8.41a10,10,0,0,0,0-3,27.47,27.47,0,0,1,.16-12.27c2.64-12.83,6.2-25.43,12.17-37.13a85.26,85.26,0,0,0,6.4-17.75q1.28-5,2.53-9.91c4.16-4.21,2.2-9.35,2.09-14.17a105.58,105.58,0,0,0-4.23-25.5c-1-3.67-2.1-7.33-3.34-10.92a53.5,53.5,0,0,0-3.08-7.18,23.1,23.1,0,0,1-3-11.24c.15-6-.05-12.08.45-18.07a113.62,113.62,0,0,1,2.79-19.06c1.29-5,2.21-10.16,4.59-14.89a28.26,28.26,0,0,0,2.25-7.48,9.38,9.38,0,0,1,2.4-4.42c2.6-3.05,5.19-6.12,7.83-9.15,1.13-1.28,2.34-2.49,3.54-3.7,1-1,2.35-1.59,2.16-3.37,0-.42.56-1.06,1-1.36,2.67-1.75,5.35-3.48,8.09-5.11,3.36-2,6.79-3.91,10.16-5.9a2.24,2.24,0,0,0,.89-1.71l-4.86,1.93c-1-1.12-.71-2.07-.11-3.09a52.42,52.42,0,0,1,8.77-11.43,31.57,31.57,0,0,0,3.41-3.81,3.68,3.68,0,0,1,3.94-1.58c4.81.92,9.37-.12,13.89-1.59,1.18-.39,2.37-.69,3.4.26a2.59,2.59,0,0,1,.4,3.32c-.2.43-.5,1.06-.34,1.39,1.21,2.44-.42,4.5-.84,6.68a64.23,64.23,0,0,1-2.25,8.43,85.88,85.88,0,0,1-3.64,8.89,19.16,19.16,0,0,0-2.18,7.69A69.09,69.09,0,0,1,278,237.52a28.56,28.56,0,0,0-.93,4.41c-.72,5.07-1.35,10.16-2.06,15.23a20.55,20.55,0,0,1-.92,4.72c-1.2,3.09-1.17,6.26-1.3,9.48-.19,4.62-.67,9.22-1.05,13.82-.53,6.4-1.26,12.79-1.6,19.21-.71,13-1.66,26.08-.86,39.16.69,11.43,1.49,22.85,2.12,34.29.26,4.81.28,9.65.29,14.47a121.12,121.12,0,0,0,.93,14.11c.7,6,.72,12,.9,18.06.13,4.32,0,8.65,0,13,.17,11.47-.87,22.88-1.7,34.3-.27,3.78.07,7.62.15,11.43.05,3,.17,6,.18,9a42.58,42.58,0,0,0,2.37,14.2c.14.38.21.78.38,1.14.57,1.23,1.5,2,2.88,1.57a2.31,2.31,0,0,0,1.64-2.84,10.11,10.11,0,0,0-.57-2A35.23,35.23,0,0,1,277,493c-.15-5.52-.48-11-.53-16.57,0-3.09.35-6.2.56-9.54,1.55.46,2.82.89,4.11,1.22a2.21,2.21,0,0,0,2.93-1.42,2.16,2.16,0,0,0-1.47-2.9,29.78,29.78,0,0,0-5.16-.66,41.12,41.12,0,0,1,.37-9.62,34.9,34.9,0,0,0,.45-5.39q-.15-17.65-.43-35.29c0-2.6-.41-5.2-.6-7.81-.26-3.6-.56-7.2-.72-10.81-.36-7.73-.65-15.46-.94-23.19-.09-2.41.05-4.83-.13-7.23-.74-9.92-1.6-19.84-1.45-29.8.1-6.12.37-12.24.61-18.36.16-4.32.35-8.64.6-13,.13-2.1.48-4.18.65-6.28.32-4.1.49-8.22.9-12.32q1.17-11.39,2.54-22.76c.64-5.28,1.26-10.58,2.16-15.82.79-4.55,2-9,2.95-13.53.82-3.92,1.74-7.85,2.22-11.82a31,31,0,0,1,3-9.1c2.13-4.69,4-9.44,4.49-14.62,0-.4,0-.9.21-1.17,2.75-3.4,2.55-7.62,3.26-11.58a3.24,3.24,0,0,1,.65-1.64c1.82-2,3.44-4.1,6.17-5.09,4.53-1.64,9-3.53,13.43-5.35,4.27-1.75,8.55-3.5,12.77-5.35a32.19,32.19,0,0,0,4.17-2.41,11.23,11.23,0,0,1,10-1.32c5.2,1.66,10.23,3.54,14.74,6.71a15.36,15.36,0,0,0,4,2c3.86,1.23,6.77,3.77,10,6.92l-3.25.3a22.76,22.76,0,0,0-3,.29c-1.62.35-2.41,1.42-2.21,2.73s1.24,1.95,2.95,1.84c3.4-.21,6.81-.45,10.21-.54a52.62,52.62,0,0,1,16.93,2.38,84.94,84.94,0,0,0,9.4,2,29.61,29.61,0,0,1,9.63,4.12c6,3.56,10.58,8.68,14.82,14a74.4,74.4,0,0,1,10.06,16,43.94,43.94,0,0,1,3.77,21.41,3.32,3.32,0,0,1-.36.81c-2.6.33-5.37,1-8.12,1-4.46-.11-8.49,1.33-12.62,2.54a22.43,22.43,0,0,1-4.64.92c-2.48.18-3.2.64-3.82,3-.33,1.25-.77,2.48-1.07,3.73a4.78,4.78,0,0,0,0,1.77c.14,1,.5,1.94.57,2.93.25,3.7.42,7.41.62,11.14-10.95,4-22.17,4.41-33.79,4.62.16-1.8.36-3.07.37-4.35,0-2.29,0-4.59-.17-6.87a2.49,2.49,0,0,0-2.31-2.41c-1.14-.13-2.22.92-2.61,2.49a6.41,6.41,0,0,0-.22,1.79c.21,5.82.4,11.64.68,17.45.34,6.82.67,13.64,1.21,20.45a55,55,0,0,0,1.57,8.58c1.5,6.13,2.62,12.4,5.27,18.17,2.85,6.2,3.9,13.07,7.36,19a3.74,3.74,0,0,1-.25,4.67c-.93,1.24-1.12,3.19-1.23,4.84a21.32,21.32,0,0,1-2.33,8.59,49.25,49.25,0,0,0-4.15,12.52c-1.3,5.76-3.15,11.2-6.69,16a5.18,5.18,0,0,0-.75,2.22c-.46,2.57-.69,5.18-1.31,7.71a4.86,4.86,0,0,1-2,2.82c-6,3.44-8.93,8.79-10.9,15.21a161.42,161.42,0,0,1-11,27.69c-1.4,2.67-2.88,5.29-4.33,7.93a25,25,0,0,0-1.33,2.36,2.68,2.68,0,0,0,1.38,3.74c1.35.45,2.5-.31,3.21-2,.86-2,1.82-4,2.81-6.07a6.66,6.66,0,0,1,1.59.81,21,21,0,0,1,6.67,14.38,2.67,2.67,0,0,1-.94,2c-3.24,2.08-4.8,5.59-7.31,8.28-2.79,3-3.69,7-5.95,10.28-2.06,3-4.21,5.89-6,9-1.23,2.14-2.57,4.53-2.74,6.89-.43,5.82-3.13,10.26-7.37,14.37-2.82-.84-5.88-1.61-8.77.91-3.28-5.31-6.48-10.34-13.59-11.18,1-1.45,1.69-2.63,2.55-3.68,3.28-4.06,6.54-8.15,10-12.1,1.9-2.19,4.11-4.11,6.15-6.19s3.95-4,5.79-6.1a2.18,2.18,0,0,0-.28-3.24,2.22,2.22,0,0,0-3.25.27c-4,4-8.12,8-11.94,12.29-3.5,3.88-6.7,8-10,12.07a9.73,9.73,0,0,0-1.59,2.18c-1.23,2.87-3.28,3.75-6.38,3.66a27.68,27.68,0,0,0-12.26,2.38c-1.33.6-3.15.17-4.73.1a32.68,32.68,0,0,1-3.25-.49,27.49,27.49,0,0,0-7.95-.06c-2.9.39-5.94-.32-8.92-.51-2.68-.18-5.35-.3-8.46-.48-.12-.55-.33-1.48-.53-2.42q-3.09-14-6.19-27.94a4.86,4.86,0,0,0-.48-1.42c-1.78-3-1.48-6.17-1-9.37.62-4.17,1.25-8.33,1.95-12.48a8,8,0,0,1,1.59-3.59c.24.71.43,1.45.73,2.14a2.2,2.2,0,0,0,3.19,1.27,11.19,11.19,0,0,0,1.56-.92c1.77-1.15,2.21-2.57.75-3.93S253,452.2,253,450.6c0-2.81-.16-5.63-.15-8.44a23.28,23.28,0,0,0-1.5-8.21c-1.37-3.83-1-7.9-.61-11.94.3-3.57.09-7.19.09-10.78,0-1-.17-2-.11-3a79.65,79.65,0,0,0-3.34-27.68c-1.68-5.66-2.65-11.54-3.82-17.35-.87-4.32-1.58-8.68-2.33-13a5.41,5.41,0,0,1-.14-2.38c.73-2.23,0-4.14-.94-6.06a13,13,0,0,1-.92-2.22c-1.8-6.27-3.71-12.51-5.32-18.83a86.42,86.42,0,0,1-1.58-9.79c-.33-2.39-.52-4.77-1.86-6.92a6,6,0,0,1-.75-2.87c-.14-4.72-.54-9.47-.15-14.16a53.1,53.1,0,0,1,3.92-17.24,4.42,4.42,0,0,1,3.55-2.87c.68-2.86,0-5.51-.52-8.13A51.68,51.68,0,0,1,235.21,248c0-1.86-1-3.74-1.6-5.63-3.09,1.13-3.47,1.78-3.51,4.35a41.14,41.14,0,0,0,.87,9.25c.7,3.32-.75,6.49-1.59,9.68-1,3.86-2,7.75-3,11.61-2.45,8.9-1.74,17.94-1.29,27a17.64,17.64,0,0,1,0,2.41c-.52,5.75,1.56,10.83,3.91,15.88a33.8,33.8,0,0,1,1.3,4.29c1.67,5.47,3.52,10.9,5,16.42,1.11,4.17,1.74,8.46,2.55,12.7.49,2.57,1.33,5.15,1.3,7.71-.08,7,2.51,13.31,4.41,19.82,1.5,5.1,2.9,10.39,2.49,15.67-.39,5,.81,10.06-1,14.94a5.25,5.25,0,0,0-.23,2.09c.49,6.28-.27,12.66,1.6,18.84a2.94,2.94,0,0,1-.45,2.48c-3.59,3.38-5.66,7.8-8.24,11.84a89.61,89.61,0,0,1-9.76,13,54.67,54.67,0,0,0-9.42,12.76,4.93,4.93,0,0,0-.75,3.07c.55,4.22-1.21,7.64-4.28,10.42-2.47,2.24-2.67,2.29-1.27,5.34,1.68,3.67,1.4,7.4,1.13,11.23C213.14,508.64,211,510.59,207.63,512.72ZM379.08,256.43c2-1.88,3.08-3.76,3.14-6,.1-4,0-8-.08-12a2.67,2.67,0,0,0-.28-1.15,2.13,2.13,0,0,0-2.77-1.15c-1.15.42-1.36,1.3-1,2.44,1.52,4.67,1.26,9.48,1,14.29C379,253.91,379.08,255,379.08,256.43Zm-48,212.83c2.46-.69,4.74-1.15,6.87-2a2.55,2.55,0,0,0,1.16-3.8c-.84-1.36-2.27-1.51-3.93-.53a17.54,17.54,0,0,1-2.66,1.16,14.69,14.69,0,0,0-2.26.79,1.93,1.93,0,0,0-1,2.55C329.62,468.15,330.43,468.63,331.08,469.26Zm-15.89-3.82c-.33,0-1.12-.14-1.92-.19a2.21,2.21,0,0,0-2.63,1.87,2.34,2.34,0,0,0,1.76,2.77,10.54,10.54,0,0,0,6.77-.26,2,2,0,0,0,1.43-2.35,2.15,2.15,0,0,0-2.25-2C317.45,465.26,316.55,465.37,315.19,465.44Zm-49.81-1c1.41-.33,2.4-.75,2.7-2a2.13,2.13,0,0,0-1.39-2.67,29.09,29.09,0,0,0-3.38-1.24,2.09,2.09,0,0,0-2.56,1.07,2,2,0,0,0,.46,2.72A35.58,35.58,0,0,0,265.38,464.45Zm30.32,5.11c.6.06.9.11,1.2.11a2.2,2.2,0,0,0,2.43-1.76,2.12,2.12,0,0,0-1.47-2.61,12.15,12.15,0,0,0-4.06-.47,2.07,2.07,0,0,0-1.89,2.31,2.21,2.21,0,0,0,1.73,2.17A10.53,10.53,0,0,0,295.7,469.56Z"/><path class="cls-1" d="M298.53,579.78a25.56,25.56,0,0,1,4.18.51,59.53,59.53,0,0,0,12.44,2.13,47.89,47.89,0,0,1,7.38,1.36,27.5,27.5,0,0,0,9.78,1.06c2.85-.32,5.8.31,8.7.3,2.14,0,3.16-1.91,2.13-3.81a11.2,11.2,0,0,0-1.76-2c-.4-.44-.85-.84-1.22-1.31a3.46,3.46,0,0,1-.27-.93A11.7,11.7,0,0,1,347,575c2.81,0,5.62-.12,8.43-.07a24,24,0,0,1,4.48.47,17.41,17.41,0,0,0,8.92-.58c2.85-.89,3.81-2.87,2.23-5.33-3.22-5.05-7.19-9.42-12.75-12a5.45,5.45,0,0,0-.55-.25c-4.33-1.43-4.33-1.42-7.9-5.6a35.43,35.43,0,0,1,4.58-.19,7.79,7.79,0,0,0,6.45-2.57c1.85-1.82,3.85-3.34,6.74-2.19a2.37,2.37,0,0,0,1.72-.33c2.09-1.17,4.15-2.42,6.19-3.68a2.53,2.53,0,0,0,1-1.11c1.23-2.94,2.41-5.9,3.61-8.86.15-.37.17-.9.44-1.09.69-.49,1.55-1.21,2.21-1.09a2.48,2.48,0,0,1,1.57,1.78,16.07,16.07,0,0,1-.22,5.09c-1.71,7.33-3.18,14.8-6.85,21.45-1.95,3.54-1.88,6.68.08,9.88,4.38,7.15,5.08,15.12,5.37,23.17.09,2.6-.22,5.22-.34,7.83a6.19,6.19,0,0,0,0,1.49c1.56,7.84,1.17,15.79,1.42,23.7a3.18,3.18,0,0,1-.09,1.2c-1.91,4.74-1.12,9.36.42,14,1.4,4.22.95,8.55.2,12.84a101.09,101.09,0,0,1-2.2,11.22c-1.11,3.77-2.3,7.66-5.58,10.35a1.31,1.31,0,0,0-.34.49c-2.56,5.76-6.95,10.28-10.51,15.35-2.12,3-2.52,6.53-3.39,9.9a2.28,2.28,0,0,0,1,1.92,2.38,2.38,0,0,0,2.21-.1,6.38,6.38,0,0,0,1.19-2.56c.07-.19-.28-.51-.38-.79-1-2.48.12-3.89,2.78-3.6a5.13,5.13,0,0,1,1.74.44c3.54,1.85,7.38,3.32,10.5,5.72,4.26,3.25,8.62,6.53,11.16,11.6,2.24,4.48,4.74,8.81,6.86,13.38a30.29,30.29,0,0,1,2.54,11.67,183.06,183.06,0,0,1-1.29,31.31,274.37,274.37,0,0,0-2.44,40c0,1.4,0,2.81,0,4.42a42.16,42.16,0,0,1-11.91,3.91c-3.25.66-6.55,1.06-9.8,1.7-5.38,1.07-10.81.69-16.22.69a3,3,0,0,1-.6-.06l-15.56-3.48c-.54-2.7-1.11-5.64-1.7-8.58-3.82-18.92-6.38-38-9.52-57.08-.51-3.07-.76-6.18-1.17-9.27-.93-7.05-3.82-13.52-6.11-20.15-1.91-5.51-3.81-11-5.9-16.45a8.26,8.26,0,0,0-2.72-3.5c-3.94-2.9-5.43-6.85-6.15-11.53a92.53,92.53,0,0,1-1.13-13.49c0-3.62-.33-7.23-.36-10.85a30.8,30.8,0,0,1,.58-4.75A3.73,3.73,0,0,0,308.7,657a4.87,4.87,0,0,1-1.18-2.9c-.7-5.38-1.15-10.79-1.94-16.16a88.2,88.2,0,0,0-2.3-10.89,49.83,49.83,0,0,1-2.11-14.55,32.1,32.1,0,0,0-.46-4.47,31.46,31.46,0,0,1-.54-4.48,132.31,132.31,0,0,0-1.64-22.23A14.47,14.47,0,0,1,298.53,579.78Zm42.41,130.88c1.38,3.71,2.68,7.18,4,10.67a10.73,10.73,0,0,1-.51,9.29,12.19,12.19,0,0,0-1.15,4.6,2.17,2.17,0,0,0,2.08,2.48,2.31,2.31,0,0,0,2.42-1.85,14.79,14.79,0,0,1,1-3.15c2.48-4.4,2.13-8.86.44-13.37-2.29-6.11-4.72-12.17-5.89-18.63a3.89,3.89,0,0,0-.18-.58c-.57-1.57-3.47-3.26-5.1-3s-2.32,1.58-2.36,4c0,1.89-.09,3.78-.1,5.67C335.51,709.69,337.76,711.35,340.94,710.66Zm3.88-11.22c2.09-.1,3.06-1.5,2.56-3.31q-1.2-4.49-2.71-8.87a11.27,11.27,0,0,0-1.79-3.09,2.24,2.24,0,0,0-3.17-.69c-1.16.7-1.24,1.84-.58,3.42,1.08,2.56,2,5.17,3,7.77a20.75,20.75,0,0,0,1,3.13A7,7,0,0,0,344.82,699.44Z"/><path class="cls-1" d="M415.42,285.63c.36,2.94.66,5.91,1.1,8.87a50.81,50.81,0,0,0,1.32,6.47c.6,2.09,1.5,2.34,3.66,1.92,2.44-.48,4.93-.74,7.4-1.08,1.78-.25,3.56-.45,5.34-.71a8.22,8.22,0,0,1,1.76-.36,20.16,20.16,0,0,0,11.15-1.6c.08,1.43.17,2.41.18,3.39q.32,17.94.6,35.88a59.27,59.27,0,0,1-1.72,14.93c-.35,1.45-.32,3-.53,4.47a12.87,12.87,0,0,1-.8,4.08c-.89,1.72-.43,3,.38,4.5,1.15,2.1,2.59,4.16,3.19,6.43a15.15,15.15,0,0,1,.16,8.6c-1,3.15-2,6.32-2.91,9.5-.71,2.41-1.36,4.83-2,7.27a3.19,3.19,0,0,0,0,1.76,2.71,2.71,0,0,1-.7,3,3.14,3.14,0,0,0-.72,1.28c-1.31,5.44-4.8,9.67-7.81,14.17-3.18,4.75-6.43,9.47-9.67,14.19-.83,1.21-1.47,2.53-3,3.21-.79.35-1.3,1.49-1.75,2.37a212.4,212.4,0,0,1-12.42,21.58c-2.51,3.7-5.63,7-7.64,11.06a6.11,6.11,0,0,1-2.23,2.42c-2.91,1.73-4.44,4.55-6.13,7.27-.85,1.37-1.71,2.73-2.55,4.09-.59.95-1.13,1.79-2.46,1.93S384.87,487.7,385,489a26.25,26.25,0,0,0,.11,2.67,2.72,2.72,0,0,0,.89,1.76c2.83,1.58,3.12,4.18,2.85,6.93s-.91,5.35-1.18,8-.29,5.6-.45,8.4c-.06,1.09.11,2.35-.38,3.23-1.87,3.43-4,6.73-6,10.07-.14.22-.48.33-1,.65.1-.69.19-1.14.21-1.59a2.18,2.18,0,0,0-1.68-2.5,2.24,2.24,0,0,0-2.76,1.28,29.39,29.39,0,0,0-2.3,5.56c-1.05,4.32-3.68,6.75-8.44,7.58.35-1.24.64-2.33,1-3.41.59-1.82,1.31-3.59,1.8-5.43.59-2.22,0-3.58-1.56-3.92s-2.32.51-3,2.64c-1.23,3.82-2.41,7.66-3.79,11.43-1.62,4.4-2.76,5.11-7.33,5.15h-3.39a10.88,10.88,0,0,1,2.29-6.34c1.71-2,3-4.11,2.89-7-.05-1.81,1-3.65,1.45-5.49a2.29,2.29,0,1,0-4.25-1.68,7.38,7.38,0,0,0-.65,1.69c-.51,1.94-.89,3.91-1.47,5.83-.41,1.39-1.06,2.7-1.65,4.16a34.28,34.28,0,0,1-3.84-2,44.72,44.72,0,0,1-3.49-3c.61-2.15,1.19-4.27,1.81-6.38.4-1.35.48-2.62-1-3.39-1.21-.64-2.46-.15-3.29,1.65-.72,1.54-1.85,1.5-3.71,1.75A13.34,13.34,0,0,1,335,525a24.58,24.58,0,0,0,6.5-14.89c.37-4,3-7.16,5.15-10.44a1.62,1.62,0,0,1,.92-.7c1.64-.31,2.15-1.66,2.87-2.86,2.65-4.38,5.69-8.58,7.9-13.17,2.85-5.93,8.12-9.56,12.25-14.26a8.3,8.3,0,0,0,2.48-4.33c.53-3.77,1-7.57,1.69-11.31,1.61-8.38,3.4-16.72,6.79-24.63,1.82-4.24,3.43-8.58,4.88-13,4.32-13.06,9-26,11.5-39.6.64-3.55.94-7.16,1.58-10.71a18.35,18.35,0,0,1,1.61-4.46,2.94,2.94,0,0,0-.33-3.32,68.88,68.88,0,0,1-10.52-22.76,40.62,40.62,0,0,0-2.75-6.64c-2.52-5.57-3.39-11.51-4.18-17.49-.37-2.86-.41-5.86-2.46-8.24a1,1,0,0,1-.19-.57c-.25-4.47-1.44-8.89-1-13.53,4.15,0,8.14-.05,12.13,0,2.31,0,4.61.43,6.92.4a28.31,28.31,0,0,0,5.32-.76c3.43-.71,6.84-1.54,10.26-2.29A4.29,4.29,0,0,1,415.42,285.63Z"/><path class="cls-1" d="M266.12,714.49c2.84-1.86,2.95-2.25,1.73-5-1.41-3.22-2.65-6.53-4.28-9.64-1.72-3.27-3.84-6.33-5.71-9.53-1.46-2.5-2.85-5-4.2-7.61q-2.16-4.11-4.15-8.33a45.54,45.54,0,0,1-2.52-6.1c-1.88-6.19-2.41-12.6-2.86-19-.83-11.75-.76-23.49-.59-35.26.12-8.84-.33-17.68-.54-26.52,0-.4-.06-.8-.08-1.21-.18-3.71-.14-3.5,3.47-4.07a22.39,22.39,0,0,0,6.18-2.24c4.49-2.2,8.9-4.58,13.35-6.88.17-.09.35-.27.53-.27,3.59,0,7.18-.52,10.69,1,4.1,1.74,8.21,3.53,12.65,4.35,1.07.2,2.13.49,3.43.79.46,2,1,3.88,1.35,5.84a86.82,86.82,0,0,1,1.25,17.71,9.9,9.9,0,0,0,0,2.11c1.67,8.44,1.06,17.16,3.9,25.53,1.71,5,1.75,10.66,2.55,16-1.27,9.95-.68,20.08-3,29.94a42.25,42.25,0,0,0-.61,6.58c-.17,2.4.29,4.59,2.26,6.26a5.88,5.88,0,0,1,.9,1.53c.64,1,1.07,2.42,2,3,3.39,2,4.09,5.58,5.65,8.63,1,2,2,3.25,4.5,2.37.69,1.7,1.35,3.24,1.94,4.81q4.47,11.83,8.89,23.7a6.56,6.56,0,0,1,.45,4.38,9,9,0,0,0,.07,3.58,90,90,0,0,1,.21,18.35c-.43,5.91-.28,11.85-.38,17.78,0,.87,0,1.75,0,2.66-8.62,1.46-17,1.61-25.18-1-4-1.27-8-2.64-12-4-.38-.13-.73-.31-1.11-.46a6.36,6.36,0,0,1-4.4-5.42,67.85,67.85,0,0,0-5.34-17.55c-3-7-4.21-14.44-6.19-21.7-1.21-4.45-2.79-8.8-4.2-13.18C266.6,715.76,266.38,715.21,266.12,714.49Zm16.66-7.6h0c0-1.2,0-2.4,0-3.6a18.57,18.57,0,0,0-3.38-9.79,8.57,8.57,0,0,0-2.34-2.27,2.24,2.24,0,0,0-3,3.22,10.91,10.91,0,0,0,.77.91,13.73,13.73,0,0,1,3.32,9.39c0,2.3-.13,4.61,0,6.9.08,1.85,1.11,2.84,2.49,2.76s2.11-1,2.22-2.72S282.78,708.49,282.78,706.89Z"/><path class="cls-1" d="M242.27,577.55a15.65,15.65,0,0,1-1.62-2.6c-1.56-4-3.16-4.54-6.88-2.38-.77.45-1.54.88-2.51,1.43l-1.06-2.11a30,30,0,0,0-8.59,1.82,3.36,3.36,0,0,1-3.41-.22,3.25,3.25,0,0,0-2.46.09q-5.13,1.74-10.19,3.7c-3.55,1.36-7.28,1.37-11,1.59-1.51.09-4.46-2.53-4.73-4s.59-2.26,1.82-2.74c2.15-.84,4.39-1.49,6.45-2.5a28.16,28.16,0,0,0,4.09-2.94q2-1.54,4-3.13c2-1.63,4.06-3.25,6-4.91a31.6,31.6,0,0,1,3.62-3.17c2.26-1.35,4.05-2.83,3.71-6.09-1-.6-2.19-1.27-3.32-2.08a12,12,0,0,1-2.92-2.51c-1.7-2.38-1-4.67,1.65-5.89s5.6-2.21,8.33-3.49c2-.93,3.85-2.14,5.75-3.27a5,5,0,0,0,1.38-1.15,2.79,2.79,0,0,0-1.18-4.62c-1.94-.8-4-1.39-5.92-2.2-2.79-1.16-4.09-3.42-4.3-6.37a3.75,3.75,0,0,1,2.47-4c4.94-2.29,9.63-1.48,14.11,1.12a20.22,20.22,0,0,0,7,2.65c4.44.71,8.85,1.8,13.43.79a10.56,10.56,0,0,1,4.18.17c5.67,1.14,11.38.9,17.11.76a89.56,89.56,0,0,0,13.79-.88,42.35,42.35,0,0,1,8.64-1,37.29,37.29,0,0,1,9.74,1.59c2.46.78,4.28,2.89,5.68,5.17a35.64,35.64,0,0,0,1.93,3,4.34,4.34,0,0,0,5.85,1.46c3.75-1.66,5.57-1.27,8,1.93,2.67,3.54,5.43,7,9.13,9.5.82.56,1.74,1,2.61,1.47,1.29.76,2.29,1.59,1.56,3.37a23.7,23.7,0,0,0-.87,3.51,3.76,3.76,0,0,1-1-.22c-4.65-3-9.88-3-15.13-3a39.88,39.88,0,0,1-4.76-.29c-1.83-.23-2.85.14-3.24,1.36a2.47,2.47,0,0,0,2,3.19,17.67,17.67,0,0,0,4.43.52c1.8,0,3.61-.19,5.41-.14a20.14,20.14,0,0,1,9.19,2.49,73.12,73.12,0,0,1,11.12,7.53,15,15,0,0,0,3.76,1.75c.63.26,1.4.25,2,.56,3.64,1.89,6.13,5,9,8.3a11.35,11.35,0,0,1-5.7.27,53.76,53.76,0,0,0-5.67-.49c-2.51-.07-5,.06-7.53,0a19,19,0,0,0-8.44,1.94c-3.49,1.65-4.27,3.53-3.13,7.27a5.72,5.72,0,0,1,.14.86,18.21,18.21,0,0,1-10.4-.57,71,71,0,0,0-13.33-2.31,35.26,35.26,0,0,1-8.76-2,49.72,49.72,0,0,0-14.89-3.54,26.94,26.94,0,0,1-8.36-2.33,24.29,24.29,0,0,0-18.75.27c-4.37,1.76-8.78,3.42-13.16,5.16C246.3,575.74,244.49,576.59,242.27,577.55Zm.69-23.68a12.5,12.5,0,0,0-2.11.11c-3.46.93-6.93,1.85-10.35,2.89a2.25,2.25,0,0,0,.62,4.39,10.43,10.43,0,0,0,5.82-1.14,11,11,0,0,1,9.3-.76,37,37,0,0,0,4.09,1c4,.9,7.77.63,11.23-1.78a15.27,15.27,0,0,1,1.57-.91c4.44-2.28,9-3.23,13.91-1.45a39.36,39.36,0,0,0,6.73,1.55c1.72.29,2.78-.43,3.09-1.69s-.42-2.46-2.27-2.92c-2-.51-4.18-.71-6.16-1.39a20.51,20.51,0,0,0-18.17,2.3,11.79,11.79,0,0,1-10.58,1.35c-1.24-.41-2.5-.74-3.77-1S243.55,554,243,553.87Zm44-26.38a42.7,42.7,0,0,0-4.35.51,2.18,2.18,0,0,0,.38,4.26c1.09.09,2.2,0,3.31,0,1.29.06,2.58.13,3.86.28a14.72,14.72,0,0,1,7.8,3.56,10.82,10.82,0,0,0,9.26,2.34c3.57-.6,7.38-1.24,10.88.81a1.85,1.85,0,0,0,1.45.22c.77-.32,1.78-.76,2-1.4a3.25,3.25,0,0,0-.53-2.43c-.32-.51-1.17-.69-1.78-1-3.8-2-7.92-1.5-11.82-.93a9.61,9.61,0,0,1-8.3-2.33C295.47,528.23,291,528,286.93,527.49Zm-39.27-1.24c-3.73.73-7,1.3-10.19,2a2.1,2.1,0,0,0-1.68,2.51,2.14,2.14,0,0,0,2.31,2,11.06,11.06,0,0,0,4.13-.59c3.46-1.59,6.29-1.45,8.65,1.91a5.59,5.59,0,0,0,4.54,2.06c3.93.17,7.34-1.83,11-2.7.09,0,.22-.09.25-.16a7.63,7.63,0,0,0,.85-2.66c-.09-1.13-1.15-1.56-2.27-1.47a8.15,8.15,0,0,0-1.77.34c-1.72.53-3.45,1.08-5.14,1.69-2,.71-3.73.54-5.14-1.23a8.05,8.05,0,0,0-1.92-1.9A40.15,40.15,0,0,0,247.66,526.25Zm56.62,30.65c-1,0-2.31,0-3.61,0a2.16,2.16,0,0,0-2.2,2.05,2.25,2.25,0,0,0,1.76,2.47,6.55,6.55,0,0,0,2.37.26,26,26,0,0,1,11.69,2.09,72.3,72.3,0,0,0,8.63,2.49,3.42,3.42,0,0,0,2.32,0,3.54,3.54,0,0,0,1.72-2.12c.11-.63-.68-1.54-1.28-2.11-.37-.36-1.13-.31-1.7-.49-3.34-1-6.7-2-10-3.06A24.72,24.72,0,0,0,304.28,556.9Zm-61.63-9.38.08-.25h.9c2.1-.07,3.24-.91,3.19-2.36s-1.1-2.16-3-2.4a26.52,26.52,0,0,1-3.21-.53c-1.77-.45-2.85-.17-3.32,1a2.66,2.66,0,0,0,1.39,3.31A24.68,24.68,0,0,0,242.65,547.52Z"/><path class="cls-1" d="M321,956.27l-2.45-3.64a5.85,5.85,0,0,1,.66-1.06c.76-.84,1.12-1.74.3-2.67a2.41,2.41,0,0,0-3-.59c-1.27.6-2.45,1.4-3.73,2-2.75,1.2-5.5,2.44-8.34,3.39s-3.83.19-4.63-2.58c-.19-.67-.36-1.35-.52-2-.65-2.89.42-4.85,3.21-5.81a7.71,7.71,0,0,1,2-.5c3.22-.15,6-1.71,8.6-3.25a61.32,61.32,0,0,0,9.22-6.51c3.17-2.76,5.94-6,8.83-9,3.66-3.86,7.37-7.67,10.85-11.69,2.63-3,5-6.3,7.35-9.53,2-2.75,3.86-5.63,5.85-8.4a3,3,0,0,0,.45-3.32,12.16,12.16,0,0,1-.66-3.79c-.51-6.61-.53-13.28-1.54-19.81-1.77-11.51-4.14-22.92-6.26-34.38-.1-.57-.11-1.15-.18-2,1.38.31,2.53.51,3.65.83a60.08,60.08,0,0,0,28.87,1.5,31.88,31.88,0,0,0,3.2-.81c4.48-1.37,8.95-2.77,13.84-4.28-.33,3.78-.68,7.15-.91,10.53-.35,5.21-.75,10.42-.9,15.64-.28,10.05-.44,20.09-1.85,30.06a12.82,12.82,0,0,1-.79,3.2c-.56,1.35-.36,2.38.92,3.06a10.48,10.48,0,0,1,4,4.35,28.9,28.9,0,0,0,3.35,4.24,5,5,0,0,1-1,7.39,17.84,17.84,0,0,0-7,7.71,16.92,16.92,0,0,1-1.9,3.41,41.73,41.73,0,0,0-5.55,8.92,22.3,22.3,0,0,1-2.82,3.88c-1.76,2.31-3.52,4.62-5.32,6.89a12.71,12.71,0,0,1-1.88,1.93c-2.64,2.17-5.28,4.34-8,6.41-1.75,1.33-3.63,2.51-5.46,3.73-3.75,2.51-7.55,4.94-11.25,7.51a4.57,4.57,0,0,1-3.3,1c-2.58-.26-5.17-.44-7.76-.57-1.85-.1-3.57-.07-4.26-2.41-.38-1.3-1.75-1.63-3-1.41-1.77.31-3.52.79-5.27,1.2Z"/><path class="cls-1" d="M114.21,571.67a3.74,3.74,0,0,1,.12,4.59,98.32,98.32,0,0,1-5.88,8,12.37,12.37,0,0,1-11.36,4.27c-4.49-.49-9-1-13.48-1.42a49.59,49.59,0,0,0-5.72,0,3.67,3.67,0,0,0-3,1.11c-2.27,2.47-4.94,1.71-6-1.58a5.94,5.94,0,0,0-.22-.59c-1.83-.75-3.45-1.51-5.13-2.06a4.89,4.89,0,0,0-2.85-.29,10.07,10.07,0,0,1-7.64-.44,43.24,43.24,0,0,1-7.9-4.84c-1.91-1.49-1.66-2.81,0-4.58,2.62-2.8,5.59-4.56,9.61-3.63a4.71,4.71,0,0,0,1.5,0c1.7-.15,2.65-1,2.7-2.28a2.34,2.34,0,0,0-2.48-2.46c-2.6-.12-5.21-.08-7.82,0-3.1.11-6.19.39-9.29.54s-6.42.15-9.62.39c-4.6.34-9-.68-13.35-1.87-3.05-.84-6.27-9.16-4.84-12,2-3.93,5.35-7.42,10.4-6.8,6,.74,11.83-.23,17.74-.37,2.5-.07,5-.06,7.51.12,4.1.29,8.2.63,12.26,1.19,2.77.38,5.47,1.19,8.22,1.77,1.76.38,3.53.79,5.32,1,2.2.27,3.58-.55,3.78-2.05s-.89-2.42-3.17-2.82c-5.92-1.06-11.83-2.17-17.74-3.28a11.19,11.19,0,0,1-1.27-.41,3.39,3.39,0,0,1,3.43-2.07,42.4,42.4,0,0,0,4.51,0,40.09,40.09,0,0,0,6.14-1.28,3.93,3.93,0,0,0,3.19-3.48,4.88,4.88,0,0,1,2.14-2.7A36,36,0,0,1,78.58,529a14.31,14.31,0,0,1,11.1-1c1.53.46,3,1,4.6,1.4a6.75,6.75,0,0,0,2.94.39c2.42-.51,4.28.44,6.15,1.74,2.31,1.6,4.69,3.11,7.06,4.62a9.81,9.81,0,0,0,5.47,1.22q9.48,0,19,.45c2.77.12,4.81,1.66,6.42,4a44.55,44.55,0,0,0,4.59,5.51c2.21,2.3,2.34,3.85.18,6.2a13.3,13.3,0,0,1-6.27,3.42c-5,1.52-10,3-15,4.59a54.06,54.06,0,0,1-12.74,2.13c-3.11.23-6.22.41-8.9,2.35a4.1,4.1,0,0,1-2,.53c-3,.29-6,.55-9,.74A2.38,2.38,0,0,0,89.74,569a2.32,2.32,0,0,0,1.75,2.77,8.51,8.51,0,0,0,3.55.13,48.78,48.78,0,0,1,12.29-.93c1.36.09,2.7.5,4.07.67A25.87,25.87,0,0,0,114.21,571.67Zm-8.28-19.78c1.15-.27,2.21-.56,3.29-.78,2.84-.57,5.68-1.15,8.54-1.63a35.86,35.86,0,0,1,3.6-.23,9.61,9.61,0,0,0,1.79-.18,2.49,2.49,0,0,0,2-2.9,2.25,2.25,0,0,0-2.66-1.87c-4.7.38-9.42.51-14,2-1.1.35-2.57.74-3.47.29-4-2-8.5-1.27-12.65-2.34a2.19,2.19,0,0,0-2.91,1.45,2.21,2.21,0,0,0,1.36,3,14.69,14.69,0,0,0,4.33,1c2.83.14,5.59.29,8.19,1.62A11.64,11.64,0,0,0,105.93,551.89Zm-67.86,5.77v.67h9c1.34,0,2.42-.4,2.65-1.87a2.27,2.27,0,0,0-1.86-2.68,9.12,9.12,0,0,0-2.06-.38c-5.61-.22-11.22-.46-16.84-.55a8.9,8.9,0,0,0-3.71.94,2.1,2.1,0,0,0-1.17,2.77,2.35,2.35,0,0,0,2.61,1.58C30.5,558,34.28,557.82,38.07,557.66Zm36.19,22.27c1.9-.5,3.67-.85,5.36-1.44a2.25,2.25,0,0,0,1.43-2.92A2.35,2.35,0,0,0,78.18,574a54.28,54.28,0,0,0-5.56,1,3.25,3.25,0,0,0-1.86,1.63,1.94,1.94,0,0,0,1.07,2.52A13.86,13.86,0,0,0,74.26,579.93Z"/><path class="cls-1" d="M550.71,637.49c.63,4.7-.76,6.91-4.76,7.66-2.16.4-4.39.39-6.59.58-3.4.3-6.79.75-10.2.87a39,39,0,0,1-7.15-.5,8.3,8.3,0,0,0-5,.42,8.74,8.74,0,0,1-6.48.05c-3-.94-6-2.18-9.11-3a12.67,12.67,0,0,0-5.34-.21,13.45,13.45,0,0,1-5.93-.38c-1.65-.43-3.28-1-4.95-1.29a6.65,6.65,0,0,0-3.26,0c-5.06,1.84-10.36,2.28-15.6,3.17a107.4,107.4,0,0,1-23.41,1.42,36.48,36.48,0,0,1-18.79-6.65c-.49-.33-1.15-.71-1.3-1.2a4.35,4.35,0,0,1-.22-2.75c.25-.54,1.51-.92,2.28-.85,3.79.3,7.57.8,11.36,1.17,1.09.11,2.2,0,3.31,0,2,0,3.07-.65,3.44-2.84.42-2.48,2.43-3.61,4.83-3.81a53.39,53.39,0,0,1,6.32-.21,40.07,40.07,0,0,0,21.3-5.33c4.48-2.51,9.76-3.58,14.69-5.27a3,3,0,0,1,1.2,0c4.08.42,8.19.75,12.25,1.35a10.18,10.18,0,0,0,6.38-1.13c3.19-1.63,6.46-2.49,10.11-1.47,2.49.69,3.89,0,4.22-1.55s-.66-2.43-3.29-3c-1.94-.46-3.84-1.13-5.8-1.43a4.86,4.86,0,0,0-2.74.66,27.44,27.44,0,0,0-2.94,2.07,8,8,0,0,1-6.58,1.31,11.54,11.54,0,0,0-3-.18c-3.23.12-5.8-1.46-8.23-3.26a5.28,5.28,0,0,1-1.68-2.41A3.16,3.16,0,0,1,492.7,605c3.73-.68,7.39-1.37,11.28-.41a24,24,0,0,0,13.67-.34,10.9,10.9,0,0,1,6.47.35,66.77,66.77,0,0,0,18.33,3.12c4.71.23,9.4,1,14.1,0a9.44,9.44,0,0,0,3.36-1.16,9,9,0,0,1,8.34-1.16,32.73,32.73,0,0,0,13.38,1.32,54.6,54.6,0,0,1,9,.51c2.79.25,5.57.69,8.37.9a4.29,4.29,0,0,1,3.77,2c.77,1.29,1.81,2.43,2.49,3.76,1.34,2.6.3,5.16-2.52,5.94a14.69,14.69,0,0,1-4.77.39,24.16,24.16,0,0,0-10,1.51c-6.05,2.17-12.17,4.11-17.86,7.17a22.48,22.48,0,0,1-9.89,2.34c-3,.13-6.06-.23-8.78,1.51a1.87,1.87,0,0,1-1.18.13c-4-.74-8,.56-12,.55-2.4,0-4.79-.32-7.18-.41a39.78,39.78,0,0,0-6.55,0,2.29,2.29,0,0,0-2,2.85c.27,1.3,1.33,1.87,3,1.78a17.82,17.82,0,0,1,4.44,0c5.14,1.06,10.2.23,15.29-.25C547.05,637.35,548.83,637.49,550.71,637.49Zm-59.61-5.61-.11-.76c-3.65.57-7.36.9-10.92,1.79a28.69,28.69,0,0,0-6.49,3.07,2.2,2.2,0,0,0-.87,3.14c.68,1.28,1.87,1.39,3.14,1a4.88,4.88,0,0,0,1.08-.52c4.61-2.93,9.76-3.38,15-3.39a50.15,50.15,0,0,0,6-.54c3.35-.39,6.6-.94,10.07-.11,2.52.6,5.35,0,8-.26a2,2,0,0,0,1.67-2.2,2,2,0,0,0-1.79-2.09,9,9,0,0,0-2.69,0,10.85,10.85,0,0,1-6.19-.64,5.17,5.17,0,0,0-2.63-.39c-2.28.28-4.52.79-6.79,1.13S493.27,631.61,491.1,631.88Zm48.66-16.11-.06.27a21,21,0,0,0-2.39.14c-1.77.3-2.77,1.35-2.67,2.7s1.15,2.17,3.09,2.08a32.83,32.83,0,0,1,12.41,1.75c3.23,1.13,6.35,0,9.5-.17a2.1,2.1,0,0,0,1.91-2.34,2.27,2.27,0,0,0-2.32-2.29,11,11,0,0,0-3.58.14,10.46,10.46,0,0,1-5.3-.27C546.84,617,543.29,616.43,539.76,615.77Zm43-3.47a10.68,10.68,0,0,0-2.69.25,25.79,25.79,0,0,0-4.79,2.31,2.07,2.07,0,0,0-.47,3,2,2,0,0,0,2.85.85,13.76,13.76,0,0,1,6.3-1.63,2.53,2.53,0,0,0,2.46-2.56c-.08-1.26-1.12-2.08-2.77-2.19C583.25,612.28,582.84,612.3,582.75,612.3Z"/><path class="cls-1" d="M287.46,787.9a27.72,27.72,0,0,1,2.86.89A32.85,32.85,0,0,0,302,791.38c6.12.29,12.26.29,18.39.24,1.65,0,3.29-.68,5.39-1.15,0,1.25.07,2.39,0,3.52-.13,1.79-.52,3.56-.5,5.34.12,8.84.34,17.68.53,26.51,0,.6-.09,1.46.25,1.75,2.35,2,1.71,4.95,2.42,7.45.35,1.25.65,2.52.92,3.55-1.83,2.29-3.41,4.49-5.23,6.47a12.6,12.6,0,0,1-3.23,2.11c-2.18,1.23-4.39,2.42-6.6,3.6a42.33,42.33,0,0,1-4.55,2.32c-5.13,2-10.14,4.22-15.53,5.64-4.6,1.21-9,3.44-13.31,5.54-3.33,1.62-6.63,2.83-10.38,2.41a4.32,4.32,0,0,0-4.4,2,8.71,8.71,0,0,1-4.93,3.58,65.47,65.47,0,0,0-7.66,3.86c0-2.44-1.79-3.69-3.35-5.39A21.24,21.24,0,0,1,246,865c-1.32-3.08-3.54-6.09-7.51-6.63-.59-.08-1.16-.24-1.92-.4a6.17,6.17,0,0,1,3.65-4.4c5.81-2.51,11.54-5.07,18-5.74a50.7,50.7,0,0,0,9.58-2.46c3.45-1.06,6.92-2.1,9.94-4.21a4.34,4.34,0,0,1,2-.61c2.78-.27,4.81-1.79,6.65-3.76,2.39-2.57,4.83-5.09,7.36-7.52,2.29-2.21,3-5.16,4-8a2,2,0,0,0-.69-1.78c-1.38-.89-1.58-2.24-1.8-3.63a59,59,0,0,0-3.41-11.52c-1.86-5-3.05-10.19-4.51-15.3A3.89,3.89,0,0,1,287.46,787.9Z"/><path class="cls-1" d="M410.73,553.45c-2.88-1.28-5.61-2.5-8.34-3.7-3.85-1.69-3.76-6.17.09-8.16,2.4-1.24,4.77-2.57,7.27-3.58a13.59,13.59,0,0,1,4.12-.54,48.47,48.47,0,0,0,6.28-.34c3.66-.74,6.93.55,10.28,1.51,2.12.61,4.22,1.3,6.37,1.81a7.82,7.82,0,0,0,3.26.16,2.36,2.36,0,0,0,1.58-1.52,3.5,3.5,0,0,0-.79-2.36,3.72,3.72,0,0,0-1.89-.8c-4-1.07-7.93-2.14-11.91-3.15a3.72,3.72,0,0,1-2.74-2.52c-.91-2.44-.06-4.15,2.45-4.79a7.87,7.87,0,0,1,6.06,1,51.75,51.75,0,0,0,6.73,3.3,7.6,7.6,0,0,0,4.09.48,15.79,15.79,0,0,1,9.12,1.08c3,1.14,5.83,2.61,9.22,2.46,1.13,0,2.39.93,3.44,1.66,2.39,1.65,4.61,3.55,7,5.16a17.7,17.7,0,0,0,9.63,3.06,6.65,6.65,0,0,1,2.88.7,56,56,0,0,1,5.62,3.49c1.73,1.23,2,2.83.61,4.38a60.78,60.78,0,0,1-4.68,4.68,4.83,4.83,0,0,1-4.19,1.22c-4.16-.67-8.34-1.26-12.48-2a28.82,28.82,0,0,1-3.68-1.3,2.32,2.32,0,0,0-3,1.16,2.15,2.15,0,0,0,.84,2.9,12,12,0,0,0,3.83,1.65c4.52.89,9.15,1.34,13.62,2.42a54.35,54.35,0,0,1,19.9,8.92,11.35,11.35,0,0,1,2.48,2.6c1.48,2.08.9,4.12-1.46,5.14a9.94,9.94,0,0,1-2.9.71,7.12,7.12,0,0,1-3-.16c-7.39-2.7-15.28-3.13-22.84-5a34.15,34.15,0,0,0-12.5-.56,108,108,0,0,1-11.39.26c-.39,0-.79-.21-1.18-.2-7.43.15-12.35-4.23-16.61-9.49a9.18,9.18,0,0,0-6.15-3.82,19.77,19.77,0,0,1-2.6-.75c-2.3-.67-4.61-1.31-6.9-2C413.53,557.72,410.79,556.87,410.73,553.45Zm33,2.16c.74-.06,1.34-.07,1.93-.16,1.89-.3,2.82-1.19,2.72-2.57s-1.16-2.17-3-2.27c-1.38-.07-2.79-.06-4.16-.23-2.47-.3-4.92-.73-7.39-1.06a2.35,2.35,0,0,0-2.84,1.62,2.25,2.25,0,0,0,1.42,2.93,8,8,0,0,0,2.27.73C437.69,555,440.77,555.29,443.71,555.61Z"/><path class="cls-1" d="M283.44,19c5.53.5,12,.31,18.09,1.8,13.47,3.31,26.53,7.93,38.39,15.4A32,32,0,0,1,351,47.48c2.14,3.73,4.6,7.24,6.53,11.14,4.61,9.33,6.39,19.18,6.36,29.44,0,3.91-.34,7.82-.68,11.72-.68,7.73-3.95,14.69-6.61,21.83-1.19,3.19-2.84,6.22-3.91,9.45-1.59,4.78-4.37,8.79-7.43,12.67-1.61,2-3.3,4-5,6a38.6,38.6,0,0,1-10.06,8.41,105.75,105.75,0,0,1-15.46,7.36c-7,2.72-13.82,5.94-20.7,9a33,33,0,0,1-12.16,3.14,47.79,47.79,0,0,0-8,1.21,34.19,34.19,0,0,1-10.44.26c-3.89-.38-7.73-1.25-11.62-1.53-11-.78-18.63-7.2-25.2-15.22-5.77-7.05-9.94-15.07-13.49-23.42-.47-1.11-1-2.2-1.53-3.28a57.16,57.16,0,0,1-5.86-18.88,17.1,17.1,0,0,0-.81-3.82,21.43,21.43,0,0,1-.49-11,60.25,60.25,0,0,0,1.06-7.42,59.86,59.86,0,0,1,6.43-23.35c2-4.15,4.34-8.15,6.52-12.21.14-.27.29-.63.52-.73,2.58-1.09,3.21-3.69,4.5-5.77a36.44,36.44,0,0,1,8.56-10c7-5.36,14.07-10.69,21.27-15.8,5.87-4.17,12.74-5.81,19.76-6.72C276.23,19.5,279.44,19.35,283.44,19Zm76.32,70.56a89.08,89.08,0,0,0-.67-9c-1.15-6.92-2.27-13.8-5.7-20.18-2-3.73-4.46-7.13-6.53-10.79a26.17,26.17,0,0,0-8.92-9.19C326.22,32.9,313.16,28.68,299.88,25a3.74,3.74,0,0,0-.89-.12c-7.8-.45-15.57-1.73-23.43-.67-6.82.93-13.46,2.26-19.4,6a178.23,178.23,0,0,0-22.25,16.48,39.58,39.58,0,0,0-5.71,6.59c-2.3,3.13-4.48,6.37-6.48,9.71-1.8,3-3.21,6.23-4.94,9.27a43.9,43.9,0,0,0-5.29,13,68.72,68.72,0,0,0-1.39,21.55c.2,1.7.4,3.4.55,5.1,1,11.83,5.88,22.2,12.21,32,1.36,2.11,2.9,4.12,4.08,6.32a56.23,56.23,0,0,0,16.3,19.1,18.28,18.28,0,0,0,9.41,3.67c1.09.09,2.2,0,3.29,0,3.89,0,7.79-.22,11.63.69a5.51,5.51,0,0,0,2.35-.39c5.53-1.44,11.07-2.85,16.59-4.36,4.83-1.33,9.72-2.53,14.43-4.23,7.36-2.64,14.64-5.53,21.85-8.57,3.95-1.66,7.94-3.44,10.18-7.57a2.8,2.8,0,0,1,2.14-1.32c1.89.31,2.69-.8,3.63-2s2.22-2.6,3.3-3.92A36.48,36.48,0,0,0,348.79,130c1.17-3.42,2.72-6.7,4.06-10.05C356.76,110.2,360.08,100.32,359.76,89.58Z"/><path class="cls-1" d="M503,177.31c4.74-2.69,9.33-3,14-.62a6.92,6.92,0,0,1,3.21,9.44,53,53,0,0,1-3.93,5.49c3.67,2.7,6.19,6.24,6.64,11s-1.55,8.57-5.8,11.18a16.69,16.69,0,0,0,.88,1.67c3.35,4.88.37,10-4.86,11.41-3.77,1.05-7.38.16-10.81-1.47-2.17-1-4.22-2.29-6.51-3.55-.82.57-1.69,1.22-2.6,1.79-2.65,1.67-4.4,1.29-6.11-1.3a13.49,13.49,0,0,1-2.54-8.2c0-.69,0-1.38,0-2.45-1.43.15-2.68.24-3.91.43-2.87.44-5.73,1-8.62,1.37a5.35,5.35,0,0,1-3.4-.88c2.2-.42,4.4-.83,6.6-1.27a8.66,8.66,0,0,0,2-.53,2.16,2.16,0,0,0,1.32-2.45,2.09,2.09,0,0,0-2-1.92,11.63,11.63,0,0,0-2.68.24,65.69,65.69,0,0,1-9.62,1.14c.53-.28,1-.62,1.59-.85,5.16-2.16,10.66-2.75,16.11-3.61a5.55,5.55,0,0,0,2.54-.73,2.88,2.88,0,0,0,1-2.26,2.72,2.72,0,0,0-1.73-1.75,12,12,0,0,0-3.87.17c-3.85.63-7.68,1.34-11.72,1.68,1.95-1,3.87-2,5.86-2.92a61.2,61.2,0,0,1,6.69-2.71c2.16-.67,4.42-1,6.8-1.49-1-1.42-1.86-2.47-2.52-3.65-3.61-6.4,1.25-14.56,8.62-14.56A18.89,18.89,0,0,1,503,177.31Zm-6.8,10.49c2.88-1.31,3.09-1.25,4.49,1.08,1.52,2.54,2.72,2.62,4.77.36a2.13,2.13,0,0,1,.47-.31,8.49,8.49,0,0,0,1.53,1.42,2,2,0,0,0,3.14-1.55,7,7,0,0,0-2.1-5.73c-1.6-1.49-3.15-.38-4.62.54a2.27,2.27,0,0,1-.6.12,12.51,12.51,0,0,0-1.8-1,7.79,7.79,0,0,0-7.92,1.13,5.75,5.75,0,0,0-1.7,6.52A2.47,2.47,0,0,0,494.7,192a2.17,2.17,0,0,0,1.82-2.66C496.46,188.9,496.32,188.42,496.18,187.8Zm7.24,20.56c-.62,2.52-.38,4.4,1.18,6,.77.78,1.55,1.33,2.64.94a2.4,2.4,0,0,0,1.59-2.63c-.05-.79-.31-1.58-.31-2.37,0-4-2.34-6.7-6.3-6.68s-7.12,2-10,4.43a2.53,2.53,0,0,0,.9,4.2c1.23.45,2-.23,2.88-1A9.89,9.89,0,0,1,503.42,208.36Z"/><path class="cls-1" d="M187.08,603.19c1.42-.74,2.79-1.35,4.06-2.13a8.87,8.87,0,0,1,6-1.39c1.89.24,3.79.4,5.68.67,2.26.32,3.76,1.84,5.05,3.52,1,1.25.5,2.55-.56,3.5-5.37,4.74-11.32,7.82-18.83,7.07a40.63,40.63,0,0,0-8.37.42,2.64,2.64,0,0,0-1.82,1.62,3.09,3.09,0,0,0,.8,2.36,3.77,3.77,0,0,0,4,.75,12.72,12.72,0,0,1,6.25-.16,5.62,5.62,0,0,0,2.38-.07c3.39-.83,6.57.17,9.77,1a5.92,5.92,0,0,1,1.1.48c3,1.59,3.6,4.37.69,6.07-5,2.91-9.84,6.37-15.9,6.72-2.71.16-5.43.07-8.14,0-4.14-.16-8.18-.08-12,1.9-3,1.52-6.27,1.42-9.47,1-4-.46-5.65-3.56-4.09-7.22,2.05-4.83,2.36-5,7.43-3.89a12.4,12.4,0,0,0,3.27.27,2.22,2.22,0,0,0,2.17-2.14,2.09,2.09,0,0,0-1.8-2.42c-3.63-.4-7.19-1.91-11-.3a8.31,8.31,0,0,1-4.67.09c-2.95-.64-5.83-1.57-8.89-.69-1.09.31-1.66-.37-2.17-1.19-3-4.85-.92-10.19,4.66-11.51a38,38,0,0,1,14.34-1,7.28,7.28,0,0,0,4.11-.2c5.62-2.89,11.29-1.82,17-.67a33.63,33.63,0,0,0,5,.88C186.11,606.65,186.72,606,187.08,603.19Z"/><path class="cls-1" d="M440,122.69c1.75-6.51,3.42-7.82,9.54-7.22,7.21-6.84,13.15-5.16,15.32,2.84,1.11,0,2.28-.14,3.45-.15,3.82,0,5.78,1.89,5.71,5.72a31.9,31.9,0,0,1-.52,3.9c3.14,4.17,2.85,8-1,11.67-.94.9-2,1.69-2.86,2.67a5.65,5.65,0,0,0-1.23,2.27c-.61,2.32-2,3.34-4.39,2.63a38.45,38.45,0,0,1-4.91-2.27l-9.43,13.37c-1.68,2.37-3.29,4.78-5,7.11-.84,1.13-2,1.21-3.52.21.32-.82.64-1.71,1-2.58q3-7.2,6.1-14.39a5.64,5.64,0,0,0,.47-1.42,2,2,0,0,0-1.33-2.41,3,3,0,0,0-2.43.43,8.15,8.15,0,0,0-1.61,2.8c-2.22,5.14-4.39,10.29-6.58,15.44l-.67-.07a7.85,7.85,0,0,1-.43-1.75,4.48,4.48,0,0,1,.38-1.75c2-4.8,4-9.58,6-14.39.81-2,1.46-4,2.27-6.31a15.23,15.23,0,0,0-2.25-.14c-2.78.33-4.59-.93-5.86-3.3-.47-.88-1.13-1.65-1.68-2.49-1.71-2.57-1.62-4.92.62-7.05A38.68,38.68,0,0,1,440,122.69ZM459.44,126c.29.34.59.73.93,1.07a2.08,2.08,0,0,0,2.71.53,2.36,2.36,0,0,0,1.15-2.57c-.27-2.52-2.67-5.08-5-4.71a7.09,7.09,0,0,1-4.54-1,4.11,4.11,0,0,0-5.23.88,55.65,55.65,0,0,0-3.31,4.54,4.59,4.59,0,0,0-4.91,2.9c-1.57,3.48-.25,5.81,3.38,8.24a2.61,2.61,0,0,0,3.66-.91c.65-1.16.25-2.29-1.13-3.29-.57-.41-1.09-.88-2.09-1.7,2.28-.21,3.86-.27,5.42-.51,2.11-.34,2.65-1.3,2.09-3.4-.05-.2-.24-.37-.23-.55,0-.53.13-1.06.2-1.59a8.86,8.86,0,0,1,1.64.36c.33.15.56.55.83.84C456.72,127,456.72,127,459.44,126Z"/><path class="cls-1" d="M360.92,142.55a22.17,22.17,0,0,0-.68,2.51,2.15,2.15,0,0,0,1.31,2.46,2.11,2.11,0,0,0,2.69-.7,34.54,34.54,0,0,0,2-3.23l4.46,2a27.31,27.31,0,0,0-1,2.73,10,10,0,0,0-.32,2.66,2.08,2.08,0,0,0,1.84,2.09,2.15,2.15,0,0,0,2.51-1.66c.4-1.1.77-2.21,1.22-3.52,1.28.49,2.3.84,3.29,1.26s2,.92,3.1,1.44a24.15,24.15,0,0,0-.56,2.37,1.87,1.87,0,0,0,1.38,2.35,2.91,2.91,0,0,0,2.38-.62,13.35,13.35,0,0,0,1.59-3.8,6.56,6.56,0,0,0-.07-2.06l6.61-1.29c.44,1.24,1,2.49,1.32,3.78.25.86.18,1.81.42,2.67a2.22,2.22,0,0,0,2.64,1.88,2.16,2.16,0,0,0,1.85-2.38c0-1.1-.31-2.18-.43-3.28-.08-.66-.08-1.33-.13-2.19,3,.33,5.79.25,8.55,2.17-1,.88-1.9,1.62-2.76,2.39-1.23,1.12-1.49,2.43-.72,3.43s2,1.08,3.5.12c.42-.27.79-.61,1.2-.9s.64-.43,1.27-.85l2.9,6.49c-1.41,1.13-2.41.24-3.42.08-1.77-.29-2.86.08-3.25,1.27-.44,1.34.34,2.53,2.11,3.06,1,.32,2.13.51,3.3.79-.11,2.63-1.88,4.18-3.38,6.15l-2.54-.65c-1.84-.46-2.81-.15-3.35,1.06s0,2.19,1.85,3.18l.8.44c.15,1.44-.37,2.13-1.88,1.77l-2.33-.57c-1.26-.32-2.44-.33-3.1,1-.54,1.14,0,2.26,1.48,3.17a15.19,15.19,0,0,0,1.45.71,10.12,10.12,0,0,1-7.21-1.74,2.2,2.2,0,0,1-.35-3.43c1.57-1.94,3.1-3.91,4.82-5.7a10.24,10.24,0,0,0,2.74-7.11c0-1.4,0-2.8,0-4.12-3-1.82-5.8-2.22-8.86-.38a21.86,21.86,0,0,1-4.52,1.62,6.09,6.09,0,0,1-4.67-.34,22.73,22.73,0,0,0-4-1.31,79.52,79.52,0,0,1-12.32-4.79c-3.1-1.45-6.27-3.06-9.89-3.23a7.61,7.61,0,0,1-3.63-1.26c-2-1.33-2.2-3.12-.76-5.12.12-.16.27-.3.39-.46C354.5,141.38,356.29,140.88,360.92,142.55Z"/><path class="cls-1" d="M413.78,609.66a24.76,24.76,0,0,1-13,1.32,40.64,40.64,0,0,0-4.81,0,28.71,28.71,0,0,1-5.09-.29c-1.1-.21-2.58-.78-3-1.64-1.72-3.33-3.12-6.84-1.82-10.73.22-.67.43-1.34.68-2a3.33,3.33,0,0,1,3.35-2.5,11.92,11.92,0,0,0,5.81-1.22c.75-.41,2.15-.06,3.07.36a44.9,44.9,0,0,0,11.48,3.17c4.44.77,8.85,1.74,13.26,2.68a6.28,6.28,0,0,1,1.89.93c1.23.74,2.49,1.59,2.13,3.27a4.09,4.09,0,0,1-3.18,3.31,9.72,9.72,0,0,1-4.16,0c-3.68-.94-7.3-2.11-10.94-3.23-2.3-.72-3.57-.4-4,1.1s.38,2.73,2.49,3.53C409.71,608.4,411.62,609,413.78,609.66Z"/><path class="cls-1" d="M440.42,203.9c0,1.61.06,3.21,0,4.81a2.2,2.2,0,0,1-1.69,2.24c-1.16.26-1.86-.46-2.42-1.36a4.4,4.4,0,0,1-.44-.79c-1.72-4.77-5.47-8.07-8.58-11.83-1.66-2-3.32-4-5.12-5.9a7.44,7.44,0,0,0-2.7-1.67c-3.64-1.39-7.37-2.55-11-4a3,3,0,0,1-.28-5.45,36.22,36.22,0,0,1,8.48-2.86,23.07,23.07,0,0,1,6.89,0,9.58,9.58,0,0,1,4.18,1.44,31.43,31.43,0,0,1,10.18,11.28c1.91,3.48,2.24,7.46,2.5,11.37.06.9,0,1.81,0,2.71Z"/><path class="cls-1" d="M454.35,283.42c-5.39,2.09-19.65,3.52-27.28,2.73-.26-2.48-.51-5-.79-7.59-.77-6.88-1.59-13.75-2.32-20.63-.23-2.19-.25-4.39-.38-7a60.25,60.25,0,0,1,6.6-1.76c3.45-.52,7-.72,10.44-1.06.2,0,.45-.1.6,0,2.75,1.64,5.64.4,8.46.41h1.2c3.27.13,3.67.68,2.8,3.81a6.36,6.36,0,0,0-.29,1.77c.08,4.5.2,9,.31,13.52.05,1.81.1,3.61.19,5.42.13,2.39.33,4.79.45,7.19C454.4,281.36,454.35,282.44,454.35,283.42Zm-7.56-32.94-1.41.16-14.93,1.71a8.07,8.07,0,0,0-1.76.35c-1.68.58-2.15,1.53-1.79,3.24.26,1.26.49,2.54.63,3.82.18,1.7.15,3.42.39,5.1.3,2.19,1.73,3.31,3.81,2.65,2.67-.85,5.37-.48,8-.77,3.36-.37,6.72-1,10-1.67,1.7-.36,2.61-1.77,1.89-3.13-1.08-2-.51-3.89-.07-5.8C453,250.37,451.24,251.18,446.79,250.48Zm-11.18,30.64c2.89-1.47,4-3.06,4.77-6.68.33-1.63.45-3.33-1.14-4.35s-3.69-1.95-5.65-1a6.8,6.8,0,0,0-3.87,5.7,4.9,4.9,0,0,0,2.79,5.45,4.69,4.69,0,0,1,.88.76c-1.36,1-2,2.18-1,3.67a2.15,2.15,0,0,0,2.94.49C436.44,284.36,436.51,283.46,435.61,281.12Zm14.79-3.29c2.19-2.26,3-5.22,2-7a4.42,4.42,0,0,0-4.55-1.59c-2.14.46-4.29,2.63-4.25,4.49a3.9,3.9,0,0,0,.69,2.53,21.65,21.65,0,0,0,3.67,2.34c-.94,2-.9,3,.26,3.74a2.54,2.54,0,0,0,3.27-.46C452.38,280.78,452.14,279.82,450.4,277.83Zm-7.34,4.63a2,2,0,0,0-2-2.3,2.59,2.59,0,0,0-2.49,2.46,2.21,2.21,0,0,0,2.1,2.41C442.22,285.2,442.94,284.44,443.06,282.46Z"/><path class="cls-1" d="M453.41,288.78c.36,2.53,0,3.23-2.06,3.76a98.11,98.11,0,0,1-17.69,3.36,102.57,102.57,0,0,0-10.35,1.75c-.48.08-1,.09-1.73.15-1.11-7.6-2.26-15.1-3.29-22.61s-1.89-15-.17-22.81c.33.47.66.72.69,1q1.35,12,2.63,23.94c.35,3.3.58,6.61,1,9.9a10.4,10.4,0,0,0,.94,3.44c.91,1.77,2.36,2.07,4.3,1.57a45.15,45.15,0,0,1,4.67-.6l20.53-3A1.73,1.73,0,0,1,453.41,288.78Z"/><path class="cls-1" d="M397.4,819.46c.49,1.8,0,2.86-1.34,3.55a8.88,8.88,0,0,1-1.88.93c-6.82,1.58-13.23,4.63-20.27,5.43a54.58,54.58,0,0,1-20.55-1.68q-2.61-.71-5.18-1.55c-2.73-.88-2.72-.9-2.91-4.46a33.14,33.14,0,0,1,5.88.9c10.49,3.62,21,2.19,31.48.19,4.42-.84,8.78-2,13.16-3.07A16.05,16.05,0,0,1,397.4,819.46Z"/><path class="cls-1" d="M396.34,366.79a21.84,21.84,0,0,1-.46,2.77c-2.51,8.87-5.06,17.74-7.59,26.6-.3,1.06-.6,2.12-.86,3.19-.52,2.15-1.31,2.88-2.94,2.65-2.46-.35-4-1.86-3.65-3.89a21.37,21.37,0,0,1,1.3-4c2.35-6.17,4.87-12.28,7-18.52,1-2.91,1.36-6.06,2-9.1a6.52,6.52,0,0,1,.22-.87c.56-1.67,1.74-2.56,3.05-2.34S396.44,364.69,396.34,366.79Z"/><path class="cls-1" d="M379.72,280.09c11.52-.38,22.84-.75,34.08-4.44.33,1.61.61,2.92.95,4.6-2.64.53-5.05,1-7.46,1.51a13.88,13.88,0,0,0-2.91.69,16.3,16.3,0,0,1-7.94,1.18c-4.4-.28-8.81-.35-13.22-.47C380.66,283.08,380.47,283,379.72,280.09Z"/><path class="cls-1" d="M285,779.13c6.69,1.85,13.2,3.8,19.79,5.41s13.3,1.15,20,0c0,.33.08.65.13,1-1.67.47-3.34,1.35-5,1.34a207.65,207.65,0,0,1-21-.76c-4.1-.45-8.05-2.33-12-3.65A2.73,2.73,0,0,1,285,779.13Z"/><path class="cls-1" d="M212.54,514.43l3.84,1.35c.33,1.92.65,3.74,1,5.86-3.75-.48-6.44-3-10.13-3.65Z"/><path class="cls-1" d="M222.8,506.62a10.52,10.52,0,0,1-6.53,6.15c-2-2.26.54-3.6,1.26-4.82C218.37,506.52,220.45,505.82,222.8,506.62Z"/><path class="cls-1" d="M247.43,507.52l.77,6.1-3.17-.35c.6-2.08,1.13-3.94,1.66-5.79Z"/><path class="cls-1" d="M203.18,504a4,4,0,0,1-.15,5.12l-.59-5Z"/><path class="cls-1" d="M248,129.89l2.36-2.17.72,1.62,2.28-1.35a19.09,19.09,0,0,1,2.45,1.16A8.22,8.22,0,0,1,258,131c1.65,2.28,4.29,2.14,5.54-.4.4-.81.68-1.69,1.12-2.47,1.56-2.84,3.82-3.24,6.36-1.18,1.93,1.57,3.15,1.29,4.17-1,.19-.44.35-.89.6-1.5,8.47,4.41,12.94,11.29,14,20.5.29,2.49.37,2.61,2.75,3.27.21-5-.53-9.56-3.47-13.69-1.57-2.2-2.74-4.73-4.46-6.79a33.36,33.36,0,0,0-5.76-5.17,2.82,2.82,0,0,0-3.58.38c-2.21,1.8-2.51,1.69-4.25-.63-.83-1.1-1.57-2.25-2.17-3.11l-3.46,3.94c-1,1.19-2.1,2.37-3.17,3.54a1.65,1.65,0,0,1-2.58.29c-2.59-2-2.82-2.42-1.54-5.51.8-2,1.75-3.84,2.68-5.73,2.26-4.58,1.49-9-.71-13.3a6.69,6.69,0,0,0-6.88-4c-1.79.16-3.56.49-5.33.82-1.36.26-2.7.64-4.37,1a31.07,31.07,0,0,1,0-3.24,3.92,3.92,0,0,1,2.94-3.71,39.07,39.07,0,0,0,11.14-5.17c1.76-1.26,4-1.85,6-2.78,4.54-2.13,9-4.47,14-5.43,1.95-.38,3.91-.75,5.86-1.15a3.37,3.37,0,0,0,.77-.45c-.42-1.53-1.59-1.69-2.8-1.82-3.54-.39-6.72,1-9.91,2.14-3.87,1.37-7.68,2.92-11.4,4.66A28.56,28.56,0,0,0,254.91,87a16,16,0,0,1-9.64,3.75c-.39,0-.78-.08-1.61-.16.11-1.79.22-3.51.33-5.39a15.07,15.07,0,0,0,2,.24c1.79,0,3.75.27,5.33-.35a86.57,86.57,0,0,0,9.41-4.66c1.05-.57,1.43-1.61.73-3.09-2.17,1.23-4.27,2.35-6.28,3.59a10,10,0,0,1-7.15,1.7c-2.44-.44-3-1.6-2.41-4a5.31,5.31,0,0,1,3.84-4.18c1.15-.35,2.25-.87,3.38-1.26,1.73-.58,3.38-1.18,4.1-3.16a2.17,2.17,0,0,1,1.51-1.25c4.1-.24,6.51-2.85,8.63-5.92.51-.75,1-1.49,1.53-2.24a3.27,3.27,0,0,1,3.5-1.78c1.69.29,3.59-1.06,5.14.63.12.13.62.08.83-.06,1.93-1.22,3.86-.38,5.82-.13,1.27.16,2.58,0,3.85.15a5.76,5.76,0,0,1,2.7.84,30.78,30.78,0,0,1,3.09,3.16,7.75,7.75,0,0,1,2.05,3.21,9.17,9.17,0,0,0,2.55,4c2.11,1.85,2.68,4.33,3.51,6.75.16.47.11,1.22.41,1.4,2.3,1.35,2.45,4,3.65,5.94a22.29,22.29,0,0,1,2.78,15.38c-.58,3.81.22,4.9,3.91,5.66,1,.2,1.94.52,2.92.74,2.38.52,3.91-.31,4.61-2.63a22,22,0,0,0,.54-3.26c.43-2.81,1.75-4.94,4.64-5.68a4.19,4.19,0,0,1,2.6.14c2.8,1.29,4.89,6.07,3.85,9-.9,2.54-2.2,4.94-3.24,7.43a41.13,41.13,0,0,0-1.34,3.92c-.29,1-.41,2-.73,2.9-.73,2.14-1.9,3.71-4.53,3.55a4.33,4.33,0,0,0-2.27.63,2.41,2.41,0,0,0,1.78,4.47c1.85-.4,3.69-.83,5.69-1.29.45,3,1,6,.51,9a66.35,66.35,0,0,0-.54,6.9,3.79,3.79,0,0,0,.58,1.61,5,5,0,0,1-1,6.29,15.74,15.74,0,0,1-7.15,4.29,2.69,2.69,0,0,1-3-.8,2.5,2.5,0,0,1-.15-3.34c2.24-2.63,2.38-5.92,3-9a71.41,71.41,0,0,0,.84-7.47c.13-1.33-.18-2.44-1.64-2.81-1.29-.33-2.38.4-2.8,2.06a14.82,14.82,0,0,0-.5,3.86,32.84,32.84,0,0,1-1.87,10.63c-.87,2.76-1.59,5.57-2.62,8.27a5.53,5.53,0,0,1-2.26,2.59,34.13,34.13,0,0,1-6,2.73c-3.89,1.34-7.86,2.43-11.76,3.73-5.42,1.79-10.81,3.66-16.2,5.55-1.41.5-2.74,1.22-4.39,2-4.35-.54-7.46-3.15-9.73-7.18a69.09,69.09,0,0,1-4.65-10.75c-2.41-6.81-5.06-13.54-7.55-20.33a26,26,0,0,1-.77-3.44Zm34.33-13.79c.42.37.69.5.81.72.43.76,1,1.48,1.87.94a2.41,2.41,0,0,0,1.09-1.83,5.31,5.31,0,0,1,1.8-4.82,5.16,5.16,0,0,0,1.44-4.43c-.37-3.62-1.17-6.88-5.7-7.14.36-2.55,0-4.48-2.4-5.5-.41-.17-.72-.66-1-1.05-.78-1-1.56-1.15-2.43-.1a2.8,2.8,0,0,1-.85.73A20.44,20.44,0,0,0,270.81,98c-.09.12,0,.38,0,.77l2,.43c.63,5.55,1.24,10.92,1.9,16.64.11-.13-.06.12-.28.31a1.73,1.73,0,0,0-.42,2.62c.68.89,1.56.68,2.44.28.71-.32,1.44-.59,1.69-.69,1.09.69,1.92,1.66,2.59,1.56C282.75,119.62,281.68,117.65,282.29,116.1Zm-9,21-.06-.35c-1.31,0-2.61,0-3.92,0-4.33,0-6.77,3.13-9.26,6-1.07,1.22-.62,4,.41,4.72,1.48,1,2.59.19,3.72-.79a15,15,0,0,1,7.34-3.18c3.43-.65,6.79-1.66,10.18-2.54a4.16,4.16,0,0,0,1.09-.51,2.79,2.79,0,0,0,1.39-3.32c-.45-1.21-1.6-1.65-3.27-1.33C278.35,136.2,275.8,136.62,273.26,137.06ZM294.15,91.8c0-2.8-.57-3.3-2.86-3.61-1.87-.25-3.71-.69-5.57-1-2.7-.44-5.46-.66-8,.55a70.28,70.28,0,0,0-8.63,4.87,15.05,15.05,0,0,0-3.55,4,2.46,2.46,0,0,0,.38,3.54A33.06,33.06,0,0,1,269.16,97a92.45,92.45,0,0,1,8.22-5.55A11.16,11.16,0,0,1,282.44,90a43.47,43.47,0,0,1,7.41.84C291.21,91,292.55,91.42,294.15,91.8Zm25.06,22.66A2.29,2.29,0,0,0,320.9,117a2.23,2.23,0,0,0,2.73-1.31,19.06,19.06,0,0,0,.72-2.29c.92-2.72.7-5.8,2.59-8.22.55-.71,1.11-1.42,1.62-2.16a2.19,2.19,0,0,0,0-2.79,2.15,2.15,0,0,0-3-.51,9.63,9.63,0,0,0-2.28,2.31c-2.68,3.48-2.82,7.84-4,11.83A3,3,0,0,0,319.21,114.46Zm-48,36.89a51.19,51.19,0,0,0-5.61,1.86,2.31,2.31,0,0,0-1.09,3.09c.41,1.15,1.53,1.55,3,1.17s2.87-.76,4.31-1.12c1.64-.42,2.43-1.33,2.29-2.65S273,151.63,271.24,151.35ZM286,65.21c-.36-.66-.52-1.42-1-1.65a3.43,3.43,0,0,0-2.06-.25c-5.44.94-10.84,2.09-15.64,5a10.46,10.46,0,0,0-1.7,1.7c1.92.4,2.14.42,4.06-.78a21.43,21.43,0,0,1,8.6-3.42C280.63,65.53,283,65.44,286,65.21ZM273.9,72.42l12.59-1.56c-3.41-3.57-7.16-2.06-10.82-1.3C274.38,69.82,273.44,70.47,273.9,72.42Zm-25.22,4.71c1.95.68,9.2-1,12.41-2.77,1.06-.57,2.38-1,2.61-3C258.1,72.38,253.64,75.42,248.68,77.13Zm21.79-4a8.84,8.84,0,0,0-6.82,2.4c-.6.75-.35,1.27.57,1.52Zm-15.13,61.41c-1.24,1.78-1.24,1.78-.78,4,.34-1.27.64-2.39.92-3.51C255.52,134.94,255.39,134.75,255.34,134.58Z"/><path class="cls-1" d="M329.69,90.31c-7.54-.86-12.41,2-14.23,11.37-.18.06-.38.2-.54.16-.58-.15-1.14-.35-1.57-.5-.16-3.51-.13-6.93-.54-10.29A28.42,28.42,0,0,0,311,85c-.57-1.58-1.39-3-1.53-4.78-.1-1.35-1.59-2.58-2.55-4,1.34-2.71,1.19-3.13-1.66-5a20.34,20.34,0,0,1-2.57-2.06c-.35-.32-.85-.93-.75-1.23,1-3-1.48-4.08-3-5.67A15.41,15.41,0,0,0,297,60.8c.41-.65.63-.95.79-1.28,1-2,.43-3.37-1.73-3.76a37.38,37.38,0,0,0-5.4-.33,20.38,20.38,0,0,1-2.7,0,3,3,0,0,1-1.93-1c-1.18-1.87-2.82-1.74-4.51-1.22s-3.56,1.31-5.49,2a11.2,11.2,0,0,0-.77-1.33c-1.35-1.73-2.84-1.71-4.13.08A39.22,39.22,0,0,1,256,66.42a6.77,6.77,0,0,0-3.29,2.88c-1,1.79-2.17,1.74-3.77.37a6.58,6.58,0,0,0-6.73-1.33c-.94.32-1.84.74-2.79,1.13-.42-4.5,2.52-8.65.89-12.83,2.43-2,4.71-3.89,7-5.73a4.62,4.62,0,0,1,1.85-.93c2.14-.41,3.18-1.59,2.8-3.91,1.3-.37,2.62-.44,3.55-1.07,1.79-1.22,3.48-2.37,5.76-2.44.54,0,1.06-.85,1.75-1.44,1.74,1,3.62,1.55,5.28-.35,5.31-1.26,10.16-4.41,15.9-4,.49,0,1.07-.16,1.49,0,5.67,2.61,12.06,3.52,17.26,7.27,3.18,2.28,6.62,4.24,9.58,6.78a33,33,0,0,1,9.28,12.39c.88,2.13,2.65,3.89,4,5.86.58.88,1.49,1.91,1.4,2.79-.51,5.26,1.31,10.13,2.18,15.15C329.52,88.12,329.57,89.19,329.69,90.31Z"/><path class="cls-1" d="M322.93,36.42a23.77,23.77,0,0,1,3.92,1.29,74.35,74.35,0,0,1,8.09,4.65c4.29,3,4.92,5.43.94,10.17-1.66,2-3,1.76-4.62-.25-2.35-2.85-4.74-5.67-7.25-8.39a11.84,11.84,0,0,0-2.82-1.66c-1.39-.81-1.84-2.14-1.34-3.9C320.21,37.05,321.11,36.4,322.93,36.42Z"/><path class="cls-1" d="M342.69,51.1a6.83,6.83,0,0,1,1.72,1.41A35.61,35.61,0,0,1,346.7,57c.76,1.79.12,3-1.63,3.88a9.92,9.92,0,0,0-2.78,2c-2.26,2.44-4.1,2.28-5.85-.65-2.15-3.6-1.94-5,1.21-7.71q1.68-1.44,3.47-2.78A8,8,0,0,1,342.69,51.1Z"/><path class="cls-1" d="M248.48,102.29c5.77-1.08,10.58,2.82,10.54,8.54a15.33,15.33,0,0,1-1.8,7c-1.17-2.49-2-4.74-4.9-5.19,1.66-2.31,2.26-4.46.57-6.81-.46-.64-.34-1.71-.45-2.4C251.15,102.41,249.22,104.54,248.48,102.29Z"/><path class="cls-1" d="M350.27,66.49a7.6,7.6,0,0,1-2.45,5.18c-1.59,1.64-3,1.67-4.74.19s-2.23-3.62-.87-5a19.45,19.45,0,0,1,5-3.75C349,62.17,350.43,63.57,350.27,66.49Z"/><path class="cls-1" d="M249,123.42c0-1.82-.07-3.11,0-4.39a27.61,27.61,0,0,1,.55-3c1.47.29,3.05-.22,3.63,1.66.53,1.72.09,2.89-1.82,4.3C250.8,122.45,250.1,122.79,249,123.42Z"/><path class="cls-1" d="M351.3,78.94c-.12,1.75-1.28,3-2.68,3a2.37,2.37,0,0,1-2.27-2.87,3.07,3.07,0,0,1,2.86-2.91A2.35,2.35,0,0,1,351.3,78.94Z"/><path class="cls-1" d="M245.88,113.62c-.58-1.76-1.06-3.5-1.72-5.18-1-2.53-.82-3.43,1.3-5.1a5,5,0,0,1,1.09-.5c1.07,1.77-1.13,2.09-1.4,3.38,2.09,2.1,1.06,4.76,1.08,7.28,0,.07-.08.2-.13.2A.6.6,0,0,1,245.88,113.62Z"/><path class="cls-1" d="M255.36,123.59c0,2-.7,2.65-2.34,2.58C253.15,124.67,254.16,124.28,255.36,123.59Z"/><path class="cls-1" d="M446.89,256c-.43,1.91-.75,3.36-1.09,4.86-4.19,1.66-8.62,1.09-13.18,1.39a14.21,14.21,0,0,1-.4-2c-.2-2.88-.05-3,2.81-3.38,1.88-.25,3.74-.73,5.62-.88S444.57,256,446.89,256Z"/><path class="cls-1" d="M278.49,112.51c-.12-1.73-.34-3.41-.33-5.09s1.66-3,4-3.21a2.66,2.66,0,0,1,3,2.69,4.22,4.22,0,0,1-.85,2.7A6.62,6.62,0,0,1,278.49,112.51Z"/><path class="cls-1" d="M280.46,98.46l-3,2.34c-.2-1.49-.31-2.39-.49-3.71l3.25.49Z"/></svg>