
<svg id="Layer_1" data-name="Layer 1" xmlns="http://www.w3.org/2000/svg" viewBox="0 0 1348.91 1018.16"><defs><style>.cls-1{fill:#222222;}</style></defs><path class="cls-1" d="M1336.13,675.64c-2.67,4.65-5.87,9.23-10.68,12.11-22.73,13.63-45.63,27-68.38,40.59-12.68,7.59-25.16,15.5-37.76,23.23-8.53,5.24-17.17,10.31-25.64,15.66-4.67,2.95-9,6.5-13.63,9.49-15.09,9.67-30.18,19.33-45.45,28.71-5.76,3.54-12.28,5.84-17.94,9.51-13,8.45-25.72,17.46-38.64,26.11-6.26,4.18-12.72,8.07-19.11,12.06-24.6,15.33-50.46,28.53-74.55,44.75-16,10.75-32.58,20.58-48.69,31.15-10.93,7.18-21.42,15-32.24,22.37-11.2,7.61-22.3,15.43-33.94,22.33-8.37,5-16.54,10.78-26.44,12.61s-19.6,4.66-29.62,1.43c-6.87-2.21-13.6-4.88-20.53-6.91-7.28-2.14-14.71-3.76-22.07-5.6-4.43-1.11-9-1.76-13.24-3.41-8.06-3.14-15.74-7.27-23.85-10.24-13.22-4.82-26.64-9.11-40-13.49-17.7-5.8-34.43-13.79-51.2-21.82-15.25-7.3-31.14-13.29-46.74-19.86a21.45,21.45,0,0,1-3.66-1.6c-12.13-8.18-26.3-12-39.19-18.59-3.74-1.9-7.41-3.92-11.13-5.85s-7.28-3.74-10.93-5.58c-1.11-.56-2.3-1-3.36-1.58-10.45-6.11-21-12.08-31.29-18.41A261.44,261.44,0,0,0,455,834c-4-1.59-7.8-3.92-11.65-6-1.77-.95-3.39-2.16-5.18-3a601.13,601.13,0,0,0-68.95-29.56c-15.86-5.54-31.06-13-46.46-19.79-13.48-6-26.82-12.23-40.22-18.39a17.45,17.45,0,0,1-2.48-1.42c-3.43-2.34-3.81-6.53-.16-8.33a160.63,160.63,0,0,1,21.77-9.14c11.67-3.75,23.88-5.93,35.34-10.19,17.64-6.57,34.9-14.2,52.21-21.67,9.27-4,19.06-5.8,28.79-8.11,11.93-2.82,23.71-6.31,35.56-9.5C468,685,482.65,681.41,497,677.1c15.94-4.78,31.59-10.47,47.51-15.3,11.83-3.59,23.86-6.53,35.84-9.59,19.82-5.05,39.73-9.72,59.48-15,9.88-2.66,19.47-6.4,29.18-9.67,3.24-1.09,6.46-2.26,9.69-3.38,13.18-4.57,26.33-9.26,39.57-13.69,31.42-10.51,62.88-20.88,94.32-31.33,8.66-2.88,17.19-6.22,26-8.64a121.93,121.93,0,0,1,19.32-3.22c2.74-.29,5.6.81,8.42,1.14,5.29.61,10.61,1,15.89,1.68,10.69,1.35,21,4.19,31.35,7.22,5.62,1.65,11.59,2.08,17.32,3.4,7.5,1.73,14.89,4,22.39,5.7,17.82,4.11,35.67,8,53.86,10.23a126.73,126.73,0,0,1,28.68,7.17c7,2.58,14.46,3.84,21.8,5.27,14.92,2.9,29.9,5.56,44.87,8.23,12.94,2.31,26,4.21,38.83,6.84,11.54,2.36,23,5.37,34.37,8.28,8.48,2.16,16.8,4.94,25.33,6.85,7.23,1.62,14.8,1.84,22,3.67,9.29,2.37,18.38,5.56,27.45,8.69a334.48,334.48,0,0,0,46.68,12q12.77,2.45,25.58,4.63A21.67,21.67,0,0,1,1336.13,675.64Zm-245.06-48.09c-.73-.61-1.06-.94-1.44-1.2a51.86,51.86,0,0,0-21.09-8.23c-8.9-1.46-17.46-4.35-26.51-5.56-14.57-1.94-29-5.14-43.39-8.21s-28.49-6.65-42.75-9.93c-10.18-2.34-20.43-4.41-30.59-6.86-8.22-2-16.33-4.43-24.53-6.48q-15.75-3.93-31.59-7.52c-3.32-.76-6.79-1.76-10.08-1.47-4.41.4-8.76,1.77-13.05,3-21,6.14-42.12,12.19-63.07,18.65-11.79,3.64-23.37,8-35,12-9.24,3.22-18.41,6.61-27.67,9.74-13.93,4.7-27.92,9.25-41.88,13.86-10.83,3.58-21.57,7.45-32.51,10.68-19,5.59-38.09,10.71-57.1,16.18-15.17,4.37-30.26,9-45.39,13.48q-17.91,5.31-35.85,10.55c-14,4.05-28.07,7.74-41.94,12.13-10.42,3.3-20.57,7.47-30.84,11.23q-38.22,14-76.43,28c-7.34,2.68-14.82,5-22.08,7.81a65,65,0,0,0-11.31,6c-3.55,2.31-4,6.53-1,8.34,4,2.38,8.06,4.9,12.44,6.27,10.61,3.31,21.47,5.82,32.14,9,6.82,2,13.47,4.56,20.2,6.88,2,.68,4,1.31,5.89,2.13,8.13,3.45,16.32,6.8,24.34,10.51,6.81,3.15,13.39,6.8,20.12,10.15,8.51,4.25,17.07,8.41,25.6,12.64,9.39,4.65,18.6,9.72,28.2,13.88a226,226,0,0,1,25.73,13c6.93,4.1,14.45,7.21,21.63,10.9,8,4.14,15.92,8.58,24,12.59,2.91,1.44,6,3.27,9.57,2.21,1.54-.46,3.12-.77,4.67-1.19,4.59-1.24,9.4-2,13.7-3.86,10.38-4.57,20.49-9.76,30.77-14.59,10.59-5,21.29-9.75,31.87-14.78,6.53-3.1,12.84-6.67,19.38-9.74,7.94-3.73,16-7.09,24-10.72q18.57-8.44,37.08-17.07c6.1-2.86,12.09-6,18.12-9,2.13-1.07,4.15-2.39,6.33-3.32,12.7-5.37,25.57-10.34,38.11-16,19.07-8.7,38-17.79,56.83-26.91,10.62-5.14,21-10.7,31.58-16,3.58-1.79,7.4-3.11,10.89-5,14.9-8.18,30.6-14.53,46.36-20.79,18.73-7.44,37.48-14.88,55.93-23,23.27-10.21,46.33-20.94,69.31-31.79C1076.39,636.56,1083.43,631.91,1091.07,627.55ZM1016.9,860.22a54.93,54.93,0,0,0,5.59-.79c5.87-1.51,10.92-4.46,15.92-8,9.3-6.49,19.17-12.16,28.75-18.25,12.39-7.89,25.26-15.15,37-24,15.23-11.46,32.14-20.18,47.75-31,6.86-4.75,14.38-8.53,21.56-12.82q13.5-8.06,26.94-16.25c3-1.83,5.82-4.1,9-5.52a27.53,27.53,0,0,0,10.39-7.31c2.88-3.42,3-5.73-.66-8.34a27.24,27.24,0,0,0-6.38-3c-1.68-.62-3.57-.68-5.27-1.26-13.7-4.73-27.77-8-41.89-11.15-11.67-2.64-23-6.56-34.65-9.52-7.19-1.83-14.66-2.55-21.82-4.44-11.2-3-22-7.23-33.57-9.1-8.31-1.34-16.35-4.32-24.58-6.29-9.72-2.32-19.49-4.41-29.28-6.41a12.43,12.43,0,0,0-6.33.18c-14.41,5.17-28.62,10.89-43.11,15.83-20.51,7-39.91,16.52-59.65,25.26-10.72,4.75-21.14,10.15-31.75,15.15-9.56,4.52-19.54,8.29-28.72,13.48-12.46,7-26,11.12-39.11,16.54-5.53,2.29-11.18,4.29-16.71,6.59a83.11,83.11,0,0,0-8.45,4.21c-3.69,2.06-4.11,6.62-.57,8.69a22.7,22.7,0,0,0,8.48,3c11,1.32,21.36,4.65,31.67,8.33,11.54,4.11,23,8.43,34.48,12.76,4.44,1.68,8.79,3.61,13.16,5.46,2.89,1.23,5.67,2.73,8.62,3.77,11.49,4,23.13,7.64,34.51,11.95,20,7.57,39.82,15.56,60.58,21,8.82,2.3,17.28,5.92,26,8.62A121.57,121.57,0,0,0,1016.9,860.22Z"/><path class="cls-1" d="M126.92,176.58c13.94.78,31.2,2,48.48,2.63,12.13.46,24.29,0,36.43.33,20,.55,39.94,1.43,59.9,2.14,22.16.79,44.31,1.77,66.48,2.24,22.46.48,44.94.51,67.41.61q28.38.14,56.76-.05,18.06-.1,36.12-.63c11.26-.34,22.5-1.12,33.76-1.44,6.2-.18,12.42.36,18.62.23,6.77-.14,13.54-1.11,20.29-1,10.1.24,20.18,1.3,30.29,1.7,6.58.27,13.18-.11,19.78,0a69.81,69.81,0,0,1,10.83.73c2.27.38,4.42,1.65,6.55,2.66,10.06,4.77,16.62,13,22.23,22.28,4.39,7.25,9.16,14.28,13.39,21.62,3.13,5.44,5.54,11.29,8.49,16.84,5.55,10.43,11.28,20.76,16.88,31.17s10.84,20.82,16.63,31c10.21,18,20.82,35.76,31.07,53.73,4.8,8.43,9.34,17,13.63,25.72Q773,413.45,784.5,438c2.79,5.94,4.82,12.22,7.42,18.25q4.86,11.25,10.1,22.34c8.89,18.75,18,37.41,26.79,56.21,2.57,5.49,4.31,11.36,6.61,17,1.9,4.65-1.85,10.87-5.58,12.51-3,1.29-6,2.33-9.07,3.32-22,7.17-44.09,14.2-66.07,21.48-7.93,2.63-15.63,5.94-23.5,8.75-17.34,6.2-34.69,12.37-52.09,18.38-19.06,6.58-38.19,12.8-57.91,17.3-20.58,4.69-40.92,10.43-61.26,16.09-13.83,3.84-27.44,8.43-41.21,12.5Q491,670.31,463.1,678.2q-20,5.7-40.18,11c-11,2.93-22.45,4.71-33.1,8.62-17.5,6.42-34.49,14.21-51.75,21.31-12.37,5.09-25.39,7.91-38.31,11.19-7.86,2-15.3,5.72-22.82,8.92a20,20,0,0,0-5.53,4c-4.09,3.84-8.47,4.49-13.62,2-6.2-2.94-10.55-7.72-14.2-13.36-11-16.94-18.66-35.24-24.28-54.63-3.52-12.11-8.75-23.73-13.28-35.54C201.87,631,198,620,193.3,609.41c-3.67-8.37-8.3-16.3-12.51-24.43-1.32-2.53-2.83-5-4-7.59-8.56-19.52-17.81-38.73-25.25-58.76-6-16.05-12.87-31.78-20-47.35-4.24-9.25-9.92-17.83-14.61-26.89-4.41-8.53-8.37-17.3-12.54-26-7.48-15.55-15-31.07-22.41-46.65-1.71-3.6-3-7.4-4.47-11.11-4-10.16-8-20.36-12.18-30.49C59,314.76,52.68,299.36,46.09,284.05c-3.12-7.25-6.9-14.22-10.23-21.38C29.74,249.49,25.68,235.62,22,221.61c-2.35-8.85-5-17.58-5.24-26.84-.06-2.45.42-4,3-4.54,11.05-2.42,22-5.34,33.13-7.3,12-2.13,24.13-3.84,36.28-4.91C100.57,177,112.08,177.09,126.92,176.58Zm-47.8,14.2-.05-.85c-5.07,0-10.15.24-15.2-.06-7.81-.46-14.45,3.18-21.29,5.86a8.3,8.3,0,0,0-5.09,8.33c.31,8.45,2.61,16.51,5.21,24.46,1.5,4.61,3.66,9,5.12,13.61,4.7,14.87,9,29.86,13.85,44.69a228.91,228.91,0,0,0,15.55,37.43c4.45,8.3,8.49,16.82,12.8,25.2,1.91,3.72,4,7.33,6.07,11a60.23,60.23,0,0,1,3.38,6.27c2.63,6.43,4.89,13,9.06,18.72a70,70,0,0,1,5.81,10.46c3.31,6.75,6.59,13.53,9.63,20.4,2.41,5.48,4.25,11.21,6.7,16.67,4.36,9.72,9.13,19.26,13.47,29,6.13,13.74,11.65,27.71,17,41.78,5.9,15.4,10,31.71,19.57,45.59,1.44,2.08,2.14,4.66,3.23,7,2.05,4.4,3.78,9,6.26,13.15a242.45,242.45,0,0,1,21,45.93c2.11,6.1,4.66,12.05,6.9,18.11,1.49,4,2.22,8.41,4.29,12.07a239.27,239.27,0,0,1,11.32,23.7c6.06,14.1,12.52,28,18.76,42a40.33,40.33,0,0,1,2.39,6.42c1.19,4.74,3.66,6,8.15,4,2.7-1.21,5.28-2.8,8.09-3.59,8.5-2.39,17.12-4.4,25.65-6.69,18.28-4.91,36.61-9.64,54.77-15,15-4.37,29.59-9.92,44.6-14.11,13.28-3.7,26.74-6.72,39.56-12a220,220,0,0,1,31.72-10.22c17.66-4.25,35.09-9.49,52.47-14.77,11.47-3.48,22.55-8.26,34.07-11.55,20.12-5.74,40.47-10.67,60.67-16.17,11.1-3,22-6.74,33.11-9.77,13.21-3.61,26.61-6.55,39.79-10.28,16.73-4.73,32.54-12.32,49.67-16a268.11,268.11,0,0,0,26.42-7.12c13.48-4.35,26.77-9.25,40.18-13.83,5.85-2,11.79-3.72,17.65-5.67,3.62-1.21,4.36-4.5,2.11-7.19a43.52,43.52,0,0,1-6.15-8.84c-6.6-14.05-12.91-28.24-19.31-42.38a29.09,29.09,0,0,1-1.37-3.76,334.27,334.27,0,0,0-20.07-52.83c-5.37-11.06-11.21-21.9-16.74-32.89C750,387.51,740.55,367.5,730.11,348c-7.69-14.37-16.61-28.08-25-42.07-5.53-9.23-11.36-18.3-16.57-27.71-6.37-11.49-12.23-23.27-18.33-34.91q-5.9-11.24-11.86-22.45c-.54-1-1.2-2-1.65-3a96.78,96.78,0,0,0-14.6-23.43,14,14,0,0,0-4-3.15c-5.06-2.8-10.61-2.56-16.15-2.37-7.06.24-14.12.58-21.19.64-4.38,0-8.77-.48-13.16-.53-6.68-.08-13.35,0-20,.07-6.3,0-12.6.27-18.9.13-11.55-.26-23.11-1.21-34.65-1-17.19.28-34.37,1.54-51.56,2-18.33.46-36.69.4-55,.65-6.2.09-12.5-.18-18.57.8-6.92,1.11-13.72.31-20.54.06-7.79-.28-15.55-1.69-23.34-2-12.9-.49-25.81-.5-38.72-.64-5.07-.06-10.14.06-15.2.16-8.78.16-17.58.76-26.34.45-9.15-.32-18.25-1.82-27.4-2.22-15-.67-30-.92-45-1.24-9.56-.2-19.13-.36-28.69-.25-11.73.14-23.47.27-35.18,1C112,188,95.58,189.48,79.12,190.78Z"/><path class="cls-1" d="M1336.42,682.56c-.07.85.14,1.87-.25,2.53a79,79,0,0,1-6.25,9.76c-9.16,11.17-22.42,16.88-33.9,24.95-8.51,6-17.32,11.53-26.11,17.09-12.57,7.94-25.35,15.54-37.85,23.59-11.55,7.43-22.79,15.34-34.27,22.89q-23.57,15.51-47.3,30.76c-4,2.58-8.37,4.57-12.4,7.11q-25.8,16.26-51.49,32.7-21.57,13.77-43,27.67c-17.9,11.51-35.67,23.22-53.73,34.47-19.28,12-39,23.34-58.21,35.41-12.21,7.65-23.72,16.41-35.91,24.1-10.13,6.4-20.71,12.13-31.26,17.85-5.17,2.79-10.77,4.78-16.1,7.31-8.48,4-17.42,4.75-26.53,3.51-10.85-1.47-21.66-3.27-32.48-5a6.25,6.25,0,0,1-1.93-.51c-9.68-5.06-20.62-5.54-30.87-8.53-5.16-1.51-10-4-15-6.19C730.65,979.26,720,974,708.91,969.57c-14.95-5.92-30.21-11-45.25-16.74-8.09-3.08-16-6.7-23.95-10.05-4.47-1.88-9-3.68-13.42-5.59-2.87-1.23-5.68-2.61-8.52-3.91l-34-15.51c-3.11-1.42-6.24-2.8-9.37-4.17-7.81-3.45-15.48-7.3-23.48-10.24-21.72-8-43.17-16.56-63.47-27.68-9.35-5.11-17.87-11.71-27.1-17-8.56-4.94-17.49-9.26-26.39-13.56-8-3.85-16.1-7.37-24.21-10.9-9.13-4-18.39-7.69-27.49-11.77-7.1-3.18-14.1-6.6-21-10.16-8.39-4.31-17-8.36-24.87-13.47-9.42-6.1-20.14-9-30.18-13.49-4.49-2-9.76-2.34-14.7-3.37-6.67-1.39-12.4-4.19-16.21-10.18-2.62-4.12-1.87-8.52-1.7-13,17.06,12.38,37,18.28,55.39,27.25,17.33,8.44,35.32,15.14,53.41,21.6a340.78,340.78,0,0,1,52.37,24c15.41,8.68,32.25,14.18,47.42,23.17,2.46,1.45,4.89,2.95,7.36,4.41q11.81,7,23.64,13.94C532.14,884.39,551.4,895,572,902.84a28.08,28.08,0,0,1,5.45,2.5c13,8.58,28.09,12.61,41.87,19.53,12.49,6.28,25.42,11.68,38.1,17.6,15.3,7.14,31.34,12.22,47.4,17.32Q718.16,964,731.23,969c6.21,2.37,12.21,5.28,18.27,8a80.67,80.67,0,0,0,22.75,6.29c5.74.78,10.92,3.15,15.91,6.06a28,28,0,0,0,6.84,2.66c6.06,1.61,12.26,2.76,18.26,4.55,6.65,2,13.27,1.53,19.82.24,7-1.38,13.82-3.32,20.69-5.11a13.13,13.13,0,0,0,3.6-1.73c22.43-14.24,44.78-28.59,67.28-42.73,13.79-8.66,27.9-16.83,41.65-25.56,7.56-4.79,14.56-10.47,22-15.44s14.19-11.26,22.8-14.65c3.33-1.31,6.31-3.53,9.38-5.45,46.07-28.86,92.21-57.61,138.14-86.69,13.37-8.47,26.13-17.92,39.24-26.82,4.34-2.95,8.94-5.49,13.32-8.39,22-14.57,45-27.54,67.83-40.89,12.08-7.08,24-14.52,35.74-22.07A81.58,81.58,0,0,0,1334,683.9a8.28,8.28,0,0,0,.93-2.41Z"/><path class="cls-1" d="M842.46,42.84l10.89-14.41c2-2.66,4.09-5.29,6-8,7.58-10.67,11.38-12.12,24-9,8.35,2.06,15.12,10.54,15.55,19.45.5,10.46-1,20.58-5.73,30-6.73,13.29-10.82,27.58-16.1,41.42q-3.4,8.92-7,17.78c-1.45,3.57-4.79,3.81-9.52,1.6-7.05-3.28-14.12-6.67-21.5-9a134.35,134.35,0,0,1-36.56-18.36c-9.31-6.51-12.82-16.2-13.63-26.83-.42-5.5.75-11.16,1.52-16.7.71-5.13,3.66-8.91,8.05-11.59a46.66,46.66,0,0,1,23.25-7.08c6.27-.17,11.27,3.17,16.08,6.68C839.62,40.11,841.23,41.76,842.46,42.84Z"/><path class="cls-1" d="M1048.11,222.26c.73.58,1.08.9,1.47,1.16,11.56,7.88,16,19.38,15.68,32.74-.25,12-10.52,25.31-26.14,24.32-5.23-.34-10.38-5.85-11.08-12.07-1.41-12.6,2.2-24.29,6.54-35.83.9-2.39,2.14-4.66,3.2-7,.07-.14,0-.37-.09-.66-5.31-1.52-10.56-.19-15.8.55a24.42,24.42,0,0,0-14.72,8.07c-7.16,7.68-12.62,16.51-17.55,25.69a10.34,10.34,0,0,0-1.22,4.63c-.06,10.05.3,20,5.15,29.24A49.12,49.12,0,0,1,998.86,316a59.54,59.54,0,0,0,1.36,11.34c2.34,11.74,0,22.18-8.46,30.88-6.91,7.13-14,14.05-21.09,21.05a7.69,7.69,0,0,1-2.26,1.75c-4.93,2-7.35,5.94-8.84,10.74-1.9,6.16-6.08,10.74-10.69,15-7.19,6.57-14.1,13.79-24,16-5.43,1.19-11.14,1.25-16.74,1.45-6.2.22-12.47.53-18.62-.13-8.09-.87-15.07-5-22-9-6.18-3.53-12.52-6.79-18.81-10.14a38.16,38.16,0,0,1-4.14-1.93c-6.94-4.89-14.85-5.88-23-5.4-3,.18-6,1.52-8.86,2.8-3.24,1.47-5.57,1.36-7-1a4.54,4.54,0,0,1,2.19-6.76A39.4,39.4,0,0,1,820.33,389c6.83-.49,14-.33,20.21,2.76,10,5,20.52,8.64,29.85,15,5,3.38,10.71,5.74,16.27,8.2a17.91,17.91,0,0,0,7,1.15c7.92.05,15.85,0,23.77-.28a26.5,26.5,0,0,0,16.61-6.9c4.92-4.22,9.64-8.71,14.12-13.4,1.76-1.83,2.63-4.51,4.16-7.23-7.78,0-14.89,0-22,0a43.77,43.77,0,0,1-6.88-.2c-11.77-1.92-21.63-17-18.8-28.49,1.05-4.26,3.82-7.3,7.31-9.55a95.06,95.06,0,0,1,11-6c5.39-2.54,10.77-1.37,16.15.39a38.58,38.58,0,0,1,19.26,13.21,20.47,20.47,0,0,1,4.21,11.64c.12,1.88.39,3.76.68,6.47,3.78-3.24,7.22-5.92,10.34-8.91,4.28-4.1,8.31-8.46,12.47-12.69,7.13-7.26,9.32-15.84,7.3-25.75A62.83,62.83,0,0,1,992,316.49a47.15,47.15,0,0,0-5-21.21,51.7,51.7,0,0,1-5.44-23.71,23.16,23.16,0,0,0-.33-3.42,19.06,19.06,0,0,1,1.57-11.73A126.78,126.78,0,0,1,1001,228.78a33.21,33.21,0,0,1,22.6-11.52,122.4,122.4,0,0,1,12.55-.55c2.21,0,4.4.85,6.94,1.37.17-.18.65-.63,1.07-1.13a59.66,59.66,0,0,1,29.42-19.35c12.08-3.6,24.31-6.26,37-6.76a21.87,21.87,0,0,1,2.29,0c2.94.22,4.87,2,4.71,4.36-.17,2.52-2.86,4.92-5.51,4.12-6-1.8-11.66-.21-17.49.63a112,112,0,0,0-27.72,7.54C1059.28,210.68,1053.77,216.28,1048.11,222.26Zm-117.71,129a8.37,8.37,0,0,0-2.79.37c-4.36,2.5-8.75,5-12.88,7.79-1.12.76-1.78,2.7-2,4.19-1,6.79,5.77,16.2,12.81,16.8a168.63,168.63,0,0,0,24,.14c5.69-.32,5.66-.84,5.08-6.54a11.24,11.24,0,0,0-.06-1.43c-.56-2.68-.51-5.75-1.85-8C947.65,356.22,939.42,352.79,930.4,351.24Zm113.19-122.45a71.35,71.35,0,0,0-8.12,21.68c-1.26,5.89-2.5,11.74-1.13,17.78.86,3.79,3.72,5.61,7.51,5.19,10.06-1.1,15.86-11.06,16.07-18.74.16-6.07-2.46-11.2-4.81-16.53C1051.15,233.71,1047.48,231.46,1043.59,228.79Z"/><path class="cls-1" d="M1180.8,469.19c-.71-6.88-.1-13.63,4.58-19,7.71-8.81,16.73-15.67,29.13-16.18,5.72-.24,11.46-.41,17.19-.5a7.69,7.69,0,0,1,3.58.76c9,4.84,16.16,11.29,18.91,21.74,5.57,21.1,1.24,40.51-9.47,58.95-1.28,2.21-2.19,4.62-3.46,6.82a5.52,5.52,0,0,1-2.41,2.28c-7.23,3-14.5,5.95-22.59,5.25a7.43,7.43,0,0,1-3.76-1.06c-5.19-4-11.12-7.1-15-12.72a34.86,34.86,0,0,0-5.06-5.47,28.64,28.64,0,0,1-9-17.72c-1-7.72-2.39-15.39-3.6-23.08Zm55,36.71c-.27-2.5-1.23-4.27-3.46-5.13A5.67,5.67,0,0,0,1225,504c-1.64,4-3,4.31-6.51,2.14a8.07,8.07,0,0,0-8.19-.43c-2.63,1.32-3.51,3.62-3.22,6.46.23,2.36,1.51,4.08,3.76,4.48,2,.36,2.52,1.24,2.84,3.11a4,4,0,0,0,4.53,3.49c2.47-.17,3.77-1.63,4-4.07a5,5,0,0,1,.13-1.7c.42-.82,1-1.94,1.67-2.15a3.35,3.35,0,0,1,2.48,1c1,1,1.7,2.31,2.7,3.31,2.17,2.18,5,2.32,6.56.48s1.14-4.09-1.3-6.1c-1.42-1.16-1.84-2.13-.52-3.79C1234.81,509,1235.15,507.36,1235.75,505.9Z"/><path class="cls-1" d="M1246.42,142.81c12.25.22,23.7,2.18,34.6,8.94a50,50,0,0,1-3.76,5.87c-1.91,2.25-4.16,4.21-6.27,6.29-5.28,5.22-5.8,11.63-4,18.29.47,1.75,2.33,3.45,4,4.5,2.54,1.62,5.46,2.64,8.19,4a4,4,0,0,1,1.78,1.32c2.19,4,4.57,8.2,1.38,12.66s-.72,11.43,6.61,12.59c1.76.28,3.53.49,6,.83-3.62,6.23-5.08,13-11,17.19-4.05,2.86-8,5.88-11.92,8.89-9.88,7.55-20.94,9.52-33,7.09-3.25-.65-7.16-.38-9.64-2.13-7.27-5.15-16-8.05-22.23-14.83-5.84-6.37-11.1-13.07-11.66-22-.27-4.47.61-9.06,1.35-13.54A88.68,88.68,0,0,1,1207,170.69c2.54-4.67,5.59-5.51,9-1.63a49.82,49.82,0,0,0,5.94,5.38c4,3.24,8.69,3.5,13.25,2,1.86-.6,3.54-2.74,4.61-4.57,2.34-4,3.39-8.78,8.38-11,2.87-1.29,3.45-6.5,1.75-9.83-1-2-2.19-4-3.21-6A8.39,8.39,0,0,1,1246.42,142.81ZM1219,223.44c.26.9.51,1.62.67,2.36,1.78,8.53,7.87,14.17,16.33,15.62a7.46,7.46,0,0,1,4.75,3c1.76,3,4.15,4.68,7.41,4.27a40.93,40.93,0,0,0,10.68-2.62,5.87,5.87,0,0,0,2.77-4.76,17.92,17.92,0,0,0-2.76-7.52c-2.65-4.35-2.51-8.15,1.12-11.5a26.47,26.47,0,0,0,7.55-11.6c.75-2.35,1-4.73-.81-6.44-3.27-3.11-6.87-5.88-10.33-8.8-.7-.59-1.85-1-2-1.78-1.12-4-4.47-5-7.76-5.1-4.46-.2-8.76-.28-13.08-2-2.32-.92-3.94-1.45-4.54-4.12a5.27,5.27,0,0,0-5-4.34c-2.94-.21-4.52,1.71-5.66,4a22.32,22.32,0,0,0-.82,3c-.7,2.25-1.21,4.54-4,5.37a5.42,5.42,0,0,0-2.58,2.56c-3.47,6.18-7.62,12-8.4,19.46-.31,2.9.11,5.12,2.46,6.77A21.86,21.86,0,0,0,1219,223.44Z"/><path class="cls-1" d="M1005.73,536c-1.11-.49-2.2-1.05-3.34-1.44-9.07-3.1-11.86-10.62-13.35-19a8.22,8.22,0,0,1,4.27-9c11.9-7,25.77-4.61,29.79,10.75a19.77,19.77,0,0,1-.94,12.38c-.34.86-.67,1.73-1.21,3.12,6.75,1,13.2,1.94,19.66,2.82,9.06,1.25,18.11,2.53,27.19,3.61,5.88.7,11.79,1,17.68,1.58,6.65.59,13.3,1.16,19.94,1.85,2.8.29,4.36,2,4.1,4.2-.33,2.69-2.19,3.4-4.55,3.18-6.26-.61-12.53-1.16-18.77-1.94q-25.21-3.17-50.43-6.54c-5.36-.72-10.67-1.87-16-2.61a6.21,6.21,0,0,0-3.46,1c-1.32.72-2.36,2-3.7,2.64-11.47,5.43-23,10.74-35.87,11.9a70.48,70.48,0,0,1-32.8-4.7c-11.15-4.41-21.4-10.39-31.63-16.54C901.83,527,891.14,521.06,880.56,515a28.25,28.25,0,0,1-3.71-2.15c-6-4.81-12.84-5.23-20-3.73-3.49.72-6-.6-6.55-3.35-.48-2.55,1.67-5.3,5-5.57,9-.75,17.65-.29,25.76,5.1,8.87,5.88,18.47,10.66,27.72,16,6.86,4,13.57,8.17,20.51,12,10.23,5.57,20.79,10.53,32.42,12.32,9.48,1.46,18.89.24,28-2.6,5.51-1.72,10.8-4.12,16.19-6.22Zm9.67-14.41.18,0a24.45,24.45,0,0,0-.47-3.65c-2.12-7.42-12.17-10.16-18-4.88a3.31,3.31,0,0,0-.88,2.48c.82,6.52,3.32,11.65,10.26,13.92,5.9,1.92,8.12.81,8.88-5.57A21.66,21.66,0,0,0,1015.4,521.57Z"/><path class="cls-1" d="M792.05,234.13c5.51,1.11,14,2.28,22.25,4.58,18.89,5.3,35-.26,49.57-11.94,5-4,7.15-9.8,8.21-16.15,1-6-.2-11.76-.82-17.6a11.55,11.55,0,0,0-1.67-4.22c-2.61-4.61-3.27-9.71-3.76-14.83a3.52,3.52,0,0,1,3.42-4.16c2.33-.14,4,1.3,3.85,3.66-.32,5.54,2.22,10.23,3.7,15.32,3.59,12.35,4.81,25-2.28,36.77a33.41,33.41,0,0,1-8.22,9c-9,6.88-19,12.23-30.38,13.79-9.09,1.24-18-.69-26.92-2.62a135,135,0,0,0-19.4-3.18c-9.79-.67-18.6,2.44-25.18,9.93a96.85,96.85,0,0,0-11,15.25c-1.49,2.57-1.52,6.2-1.57,9.35s.82,6.24,1.08,9.38c.13,1.48.24,3.29-.48,4.43s-2.54,2.59-3.87,2.59-2.68-1.59-4-2.53c-.19-.14-.24-.53-.25-.81-.22-6.56-1.34-13.27-.34-19.64.78-4.93,3.53-10,6.65-14A96.94,96.94,0,0,1,765.82,241C772.4,235.63,780.69,234.54,792.05,234.13Z"/><path class="cls-1" d="M1272,399.11l-34.28,24.47c3.62-12.12,7.24-24.21,11.06-37Z"/><path class="cls-1" d="M1293.33,211l-5-1.58a48.41,48.41,0,0,0,2.68-5.34c.55-1.55,1.21-3.41.82-4.87a96.52,96.52,0,0,0-3.79-10.7,9.37,9.37,0,0,0-6.18-5.54,20.3,20.3,0,0,1-2.42-.83c-5.69-2.68-6.8-8.85-2.26-13.36,2.7-2.68,5.68-5.09,8.69-7.76,5.63,6.68,10.48,13.58,10.27,22.8-.1,4.49,0,9-.44,13.46S1294.2,206.22,1293.33,211Z"/><path class="cls-1" d="M1171.44,390.17c5.5,12.42,10.84,24.51,16.18,36.6l-.87.51c-4.47-2.84-9.11-5.45-13.37-8.58a106.49,106.49,0,0,0-17.33-10.42c-3.86-1.83-3.72-2.57-.42-5.23C1160.75,398.93,1165.83,394.75,1171.44,390.17Z"/><path class="cls-1" d="M1212.31,419.92c-4.6-12.54-12.19-23.8-15.79-37.46,7.64-.15,14.85-.34,22-.34.62,0,1.75,1.28,1.74,1.95a16.61,16.61,0,0,1-.88,5.28,88.9,88.9,0,0,0-5.46,28.11,14,14,0,0,1-.42,2.28Z"/><path class="cls-1" d="M1218.68,534.05c6.44-.62,12.9-1.06,18.86-4,1.06-.53,3.4-.72,3.66-.25,1.25,2.25,2.72,4.78,2.71,7.21,0,3-1.68,5.37-5.14,6.66-5.52,2.07-10.83,4.46-16.81,5.15s-11.44-2.71-12-8.18c-.42-4.06,1.25-6.15,5.3-6.52C1216.38,534,1217.54,534.05,1218.68,534.05Z"/><path class="cls-1" d="M1218.71,160.66a30.31,30.31,0,0,1,3.88-3.9c5.09-3.63,9.81-7.91,16.3-9.15,1.63-.31,2.56-.25,3,1.45a6.92,6.92,0,0,0,.43,1.06c1.93,4.25,1.56,3.89-1.71,7.19-2.81,2.84-4.89,6.49-6.86,10-1.66,3-4.5,4-7.13,1.54S1221.56,163.66,1218.71,160.66Z"/><path class="cls-1" d="M1243.81,547.51c1.16,2.8,2.41,5.34,3.25,8,.52,1.68-2.59,5.26-5.07,5.93-6.67,1.81-13.48,2.86-20.26,1.06a9.69,9.69,0,0,1-5.08-4.07c-1.78-2.81-.32-4.77,2.89-4.44,6.55.66,12.63-1,18.5-3.72C1239.77,549.5,1241.46,548.65,1243.81,547.51Z"/><path class="cls-1" d="M1266.36,438.24a16.83,16.83,0,0,1,2-2.88c3.33-3.1,6.74-6.12,10.15-9.13,1.49-1.33,2.89-1.29,3.41.83,1.22,5,2.28,10.08,3.46,15.36Z"/><path class="cls-1" d="M1147.36,457.77l3.39-10.87,17.93,8.77-.23.77Z"/><path class="cls-1" d="M1143.88,198.33a4.12,4.12,0,0,1-4.11,4.2c-2.66,0-6.14-3.55-6.11-6.2a4.4,4.4,0,0,1,4.17-4.23C1140.46,192,1143.84,195.51,1143.88,198.33Z"/><path class="cls-1" d="M1315.25,161.06c-2.78,0-4.81-1.8-4.74-4.19s3.5-5.1,6.69-5a4.08,4.08,0,0,1,4.1,4.18C1321.3,158.91,1318.71,161.08,1315.25,161.06Z"/><path class="cls-1" d="M1137.15,551.05a3.92,3.92,0,0,1-4.08,4.14c-2.92,0-5.9-2.69-6-5.46a4,4,0,0,1,4.09-4.19C1134.14,545.66,1137.15,548.44,1137.15,551.05Z"/><path class="cls-1" d="M791.6,410.61c-3,0-4.57-1.39-4.59-3.9,0-2.69,2.58-4.69,6.11-4.68a4.21,4.21,0,0,1,4.46,4.22C797.52,409,795.23,410.63,791.6,410.61Z"/><path class="cls-1" d="M755.79,310.32a4.38,4.38,0,0,1-4.3,4.4c-2.78.1-5.61-2.3-5.74-4.86a4.16,4.16,0,0,1,4.28-4.3C753.05,305.53,755.71,307.74,755.79,310.32Z"/><path class="cls-1" d="M871.42,155.85a4.51,4.51,0,0,1-4.7,4.39,4.34,4.34,0,0,1-4.52-4.5,4.81,4.81,0,0,1,5-4.43A4.36,4.36,0,0,1,871.42,155.85Z"/><path class="cls-1" d="M836.46,507.87a5.43,5.43,0,0,1-5.19,5.07,4.14,4.14,0,0,1-4-4.33,5.27,5.27,0,0,1,5.07-4.88A4,4,0,0,1,836.46,507.87Z"/><path class="cls-1" d="M756.2,336.44c2.75,0,4.58,1.73,4.54,4.33a4.44,4.44,0,0,1-4.6,4.4,4.38,4.38,0,0,1-4.71-4.23C751.38,338.35,753.39,336.45,756.2,336.44Z"/><path class="cls-1" d="M1158.33,550.92c.1-2.42,2.05-4,4.68-3.91a4.5,4.5,0,0,1,4.48,4.59,4.38,4.38,0,0,1-4.4,4A4.75,4.75,0,0,1,1158.33,550.92Z"/><path class="cls-1" d="M1219.83,138a4.08,4.08,0,0,1-4.14-4.12,4.59,4.59,0,0,1,4.08-4.92,4.33,4.33,0,0,1,4.42,4.24A4.88,4.88,0,0,1,1219.83,138Z"/><path class="cls-1" d="M1253.69,112.61a4.36,4.36,0,0,1-8.71,0,4.24,4.24,0,0,1,4.19-4.47A4.39,4.39,0,0,1,1253.69,112.61Z"/><path class="cls-1" d="M1279.43,127.2a3.92,3.92,0,0,1-4.23,4,4.16,4.16,0,0,1-4.32-4,4.35,4.35,0,0,1,4.34-4A4.06,4.06,0,0,1,1279.43,127.2Z"/><path class="cls-1" d="M1164.14,195.79a3.9,3.9,0,0,1,4,4.18,4,4,0,0,1-3.94,4,4.09,4.09,0,0,1-4.18-4.08A4,4,0,0,1,1164.14,195.79Z"/><path class="cls-1" d="M1307.16,121.79a4.15,4.15,0,0,1,4.08-3.67,4,4,0,0,1,3.74,4.23,3.85,3.85,0,0,1-4.29,3.62A4.08,4.08,0,0,1,1307.16,121.79Z"/><path class="cls-1" d="M744.75,744.33c5.3-2.24,10.73-4.21,15.87-6.78,11.16-5.59,22.08-11.65,33.27-17.18,6.65-3.28,13.7-5.72,20.42-8.86,16.57-7.75,33.05-15.71,49.59-23.55,8.1-3.83,16.25-7.54,24.35-11.37a5.62,5.62,0,0,1,5.41-.06c8.4,4.25,16.85,8.4,25.48,12.69l-10.6,5.69c-16.77,9-34.45,15.81-52.16,22.6-7.65,2.94-15.55,5.29-22.42,10a20.55,20.55,0,0,1-3.33,1.63c-9.06,4-18.06,8.17-27.23,11.94-5.87,2.41-12,4.14-18,6.32-4.82,1.75-9.55,3.73-14.34,5.57-.75.29-1.81.77-2.33.47A89.32,89.32,0,0,0,744.75,744.33Z"/><path class="cls-1" d="M821.31,596.43c-4.84,1.91-9.68,3.83-14.54,5.71-10.1,3.93-20.13,8.07-30.34,11.68-7.88,2.78-16,4.82-24,7.34-6.53,2.05-13.27,3.73-19.41,6.64-8.68,4.12-18,6.09-26.91,9.35-7.59,2.77-15.11,5.72-22.71,8.47-10.28,3.74-20.59,7.38-30.91,11-5.29,1.86-10.55,3.84-15.94,5.34-6.52,1.81-13.23,2.92-19.72,4.79-8.23,2.38-16.34,5.17-24.47,7.88-9.92,3.31-19.84,6.62-29.68,10.14-10.1,3.61-20.11,7.47-30.14,11.26-5.33,2-10.58,4.2-15.93,6.11-3,1.09-6.23,1.74-9.32,2.67-4.2,1.27-8.41,2.48-12.53,4-9,3.23-17.91,6.47-26.76,10-5,2-9.74,4.78-14.79,6.7-10.11,3.85-20.37,7.3-30.54,11q-6.71,2.44-13.26,5.28c-5,2.17-11.72.41-14.34-4,3.12-1.55,6.12-3.33,9.34-4.58,5.13-2,10.41-3.59,15.61-5.4,15.53-5.39,31.08-10.75,46.58-16.23,8-2.82,15.82-6.08,23.86-8.75,9.66-3.2,19.51-5.81,29.18-9,13.12-4.27,26.13-8.87,39.23-13.2,15.17-5,30.34-10,45.59-14.82,16-5,32.21-9.72,48.25-14.77,16.52-5.2,33.08-10.3,49.38-16.12,13.09-4.67,25.82-10.34,38.69-15.6,4.49-1.83,9-3.62,13.42-5.66,13.4-6.18,27.72-9.38,41.9-13.06,5.6-1.46,11.18-3,16.83-4.3a62.46,62.46,0,0,1,8.24-.76C821.22,595.8,821.27,596.12,821.31,596.43Z"/><path class="cls-1" d="M600.47,791.33c-6.73,2.25-13.1,4.21-19.34,6.49q-16.77,6.13-33.4,12.6c-6.56,2.56-13,5.44-19.46,8.26a19.2,19.2,0,0,0-3.18,2.32l-23.16-8.84-.27-.78c4-2.19,7.94-4.66,12.12-6.52,14.15-6.3,28.52-12.11,42.54-18.68,5.52-2.59,10.89-5.33,16.92-6.43a6.86,6.86,0,0,1,3.85.24c7.26,3.35,14.44,6.88,21.64,10.35C599.23,790.58,599.7,790.89,600.47,791.33Z"/><path class="cls-1" d="M535.62,779.24c-17.11,5.17-32.24,13.47-48.08,21.61-5.66-2.91-12.88-4.57-18.69-9.94l2.76-1a31.86,31.86,0,0,0,4.22-1.59q11.4-6.13,22.74-12.43c2.75-1.52,5.41-3.21,8.18-4.69a10.24,10.24,0,0,1,9.32-.46c5.51,2.34,11.1,4.49,16.64,6.77A26.67,26.67,0,0,1,535.62,779.24Z"/><path class="cls-1" d="M1071.2,626.88c-1.33.5-2.64,1-4,1.48-.5.16-1.25.29-1.58,0-5.09-3.86-10.72-1.66-16.15-1.47-.44,0-1.31,1-1.22,1.2.54,1,1.08,2.29,2,2.84a56.28,56.28,0,0,0,6.55,2.82c-4.44,2-8.07,3.69-11.77,5.2-.51.2-1.61-.34-2.06-.86a37.67,37.67,0,0,1-2.64-3.82c-3.5,1.9-6.95,3.71-10.31,5.66-.64.37-.93,1.32-1.39,2l2.85,1.67c-4.17,1.76-8.4,3.58-12.66,5.32a1.9,1.9,0,0,1-1.54-.19,79.85,79.85,0,0,0-6.77-4.6,4.54,4.54,0,0,0-3.73.38c-1.33.77-2.38,3.24-3.35,3.14-2.23-.24-4.35-1.59-6.51-2.49,0-.31-.07-.63-.11-.94,3.46-1.33,6.93-2.61,10.36-4,1.53-.64,3.71-1.17,4.31-2.38,2.64-5.34,7.84-7.09,12.45-9.72a7.64,7.64,0,0,0,2.71-2.06c-3.12-.9-6.2-2-9.38-2.65s-5.23,1.25-5.3,4.55c0,1.43,0,2.85,0,4.76l-10.87-4.45s0-.24,0-.27c6-3.07,12-6.14,18-9.13a2.9,2.9,0,0,1,2.13,0q7.23,3,14.4,6.09c2.59,1.12,5.1,2.14,7.83.34,5.32-3.52,10.73-3.7,16.69-1.23,3.41,1.41,7.38,1.46,11.1,2.12C1071.29,626.42,1071.24,626.65,1071.2,626.88Z"/><path class="cls-1" d="M923.77,695.13c-1.95,1.13-3.94,2.2-5.84,3.41-11.32,7.2-23.69,12.07-36.13,16.94-8.65,3.38-16.7,8.29-25.2,12.08C846,732.3,835.24,736.71,824.46,741c-11,4.43-22.18,8.53-33.22,12.9-3.18,1.26-6.12,3.12-9.29,4.42a71.55,71.55,0,0,1-8.37,2.69c-2.22.62-2.05-1.51-2.57-2.64s-.93-2.37.88-3c3.15-1.1,6.18-2.61,9.39-3.41,17.56-4.36,33.84-12.11,50.54-18.76a10,10,0,0,0,2.09-.92c10.54-7.17,22.74-10.59,34.34-15.4,5.83-2.42,11.2-5.92,16.94-8.59,7.67-3.58,15.47-6.89,23.28-10.17,3.76-1.58,7.62-2.93,11.5-4.19,1.11-.36,2.44-.05,3.67-.05C923.68,694.33,923.72,694.73,923.77,695.13Z"/><path class="cls-1" d="M696.82,747.39,666.3,762.58c-5.15-2.94-11-6.41-17-9.63a56.63,56.63,0,0,0-7.42-2.86c-1-.38-2.09-.72-3.77-1.29,2.46-1.11,4.33-2,6.25-2.8,8.08-3.36,16.16-6.74,24.28-10a5,5,0,0,1,3.47-.19c8,3.57,15.88,7.31,23.79,11A4.78,4.78,0,0,1,696.82,747.39Z"/><path class="cls-1" d="M651.53,813.85l-27.69,12.43-22.27-20,7.44-3.18c4.81-2.06,9.61-4.17,14.45-6.14a3.65,3.65,0,0,1,2.82-.09c6.67,4.24,13.26,8.59,19.84,13C647.85,811,649.46,812.3,651.53,813.85Z"/><path class="cls-1" d="M540.91,832.19c11.27-4.8,21.92-9.35,32.62-13.83a2.92,2.92,0,0,1,2.33.2c7,4.43,13.93,9,20.87,13.46.46.29.9.63,1.56,1.11-4.17,1.74-8.06,3.4-12,5-5.1,2.07-10.26,4-15.35,6.12a3.46,3.46,0,0,1-4.27-.61,24.29,24.29,0,0,0-6.36-3.75c-5-2.16-10.2-4.08-15.31-6.09Z"/><path class="cls-1" d="M446.83,784.42a41.37,41.37,0,0,0-23.62-9c.6-.37.92-.6,1.26-.77,4.48-2.28,9.2-4.19,13.39-6.91a43,43,0,0,1,17.26-6.22c5.5-.87,10.81-3,16.31-3.9s9.92,1.83,15.3,4.09c-7.61,3.82-14.4,6.89-20.86,10.57S453.38,780.21,446.83,784.42Z"/><path class="cls-1" d="M394.13,735.69c-.93-3.59-.43-5.11,3-6.31,17.21-6.1,34.38-12.34,51.72-18.07,19.94-6.59,40.08-12.6,60.08-19.06,22-7.11,43.91-14.53,65.93-21.62a155.37,155.37,0,0,1,20.25-4.82c-7.25,2.67-14.48,5.43-21.77,8-10.59,3.71-21.15,7.51-31.86,10.85-13.16,4.1-26.47,7.72-39.68,11.65-4,1.19-7.94,2.66-11.87,4.09Q468.6,708.15,447.3,716q-18.58,6.82-37.14,13.71C404.86,731.65,399.58,733.65,394.13,735.69Z"/><path class="cls-1" d="M740.18,768.56l-28,12.46a56.28,56.28,0,0,0-20.53-12.92c9.35-4.22,18.23-8.3,27.21-12.18.91-.4,2.56.13,3.53.76,5.89,3.79,11.68,7.74,17.5,11.63C740.13,768.47,740.32,768.68,740.18,768.56Z"/><path class="cls-1" d="M645.07,786.89l12.76-5a55.11,55.11,0,0,0,6.87-2.78,7.73,7.73,0,0,1,9.19.52c4.23,3.1,8.52,6.1,12.79,9.14,1.54,1.1,3.09,2.18,4.79,3.38l-20.1,10.14Z"/><path class="cls-1" d="M690,726.11l20.89-8a8.16,8.16,0,0,0,1.06-.44,5.93,5.93,0,0,1,6.89.47c4.31,2.93,9.22,5,13.86,7.41,1.85,1,3.66,2,5.85,3.26-.89.57-1.45,1-2.06,1.31a81.36,81.36,0,0,1-8.81,4.74c-2.64,1.07-4.31,5-8.12,2.87-2.64-1.49-5.29-3-8-4.24a99.87,99.87,0,0,0-9.4-3.88C698.33,728.38,694.47,727.42,690,726.11Z"/><path class="cls-1" d="M960.36,670.62c-2.25,1-4.7,2.25-7.29,3.08-4.61,1.45-9.3,2.62-14,3.9a1.25,1.25,0,0,1-.81,0c-8.06-4-16.11-7.93-24.44-12C920.7,663,927.33,660.45,934,658a2.37,2.37,0,0,1,1.66,0q7.15,3.5,14.24,7.11C953.49,667,957.06,668.88,960.36,670.62Z"/><path class="cls-1" d="M598.48,765.88c6.45-2.51,12.88-5,19.36-7.47a3.37,3.37,0,0,1,2.42.35c7.26,3.68,14.49,7.43,21.94,11.27-3.76,1.94-7.88,3.71-11.6,6.09-3,1.92-5.43,2-8.42.07-7.22-4.73-15.31-7.44-23.72-9.29C598.47,766.56,598.48,766.22,598.48,765.88Z"/><path class="cls-1" d="M582.34,740.87a10.7,10.7,0,0,1,1.33-1c7-3.35,14.11-6.64,21.12-10a5.1,5.1,0,0,1,5.56.34c4.26,2.67,8.72,5,13.37,7.65a36.05,36.05,0,0,1-4.11,1.49,35.35,35.35,0,0,0-13.92,7.06c-1.1.9-2.34,1.64-3.52,2.44-1.59,1.09-3,1-4.75,0-4.22-2.4-8.6-4.52-12.91-6.76C583.86,741.73,583.23,741.36,582.34,740.87Z"/><path class="cls-1" d="M479.61,726.12c4.25-1.34,8.51-2.62,12.73-4,6.84-2.31,13.68-4.62,20.46-7.1a6.76,6.76,0,0,1,6.18.39c2.86,1.6,5.94,2.81,9.69,4.54-2.71.76-4.76,1.15-6.66,1.9-5,2-10,4.05-15,6.24-3.39,1.51-6.64,3.31-10,4.94a2.32,2.32,0,0,1-1.56.32c-5.38-2-10.73-4.11-16.08-6.18Z"/><path class="cls-1" d="M559.21,767.88l-20.08-8.8c7.33-3.32,14.4-6.55,21.52-9.66a3.38,3.38,0,0,1,2.59.34c5.21,3,10.36,6,15.52,9,.32.19.61.4,1.51,1Z"/><path class="cls-1" d="M668.55,717l-23.89,14.28a20.19,20.19,0,0,0-14.89-10.55c.08-.26.17-.52.25-.77l17.65-6.32c3.12-1.12,6.35-3.32,9.34-3s5.79,3,8.67,4.73Z"/><path class="cls-1" d="M954,648.87c8.81-3.79,17.17-7.7,25.8-10.84,1.83-.67,4.68,1.45,7.85,2.56-3.42,2.4-6,4.17-8.48,6-3.85,2.73-3.64,5.4.59,7.72l9,5c-2.78,1.08-4.92,1.95-7.1,2.73a2.23,2.23,0,0,1-1.57-.06c-3.1-1.63-6.11-3.46-9.26-5-4.61-2.26-9.3-4.32-14-6.49C956.06,650,955.26,649.53,954,648.87Z"/><path class="cls-1" d="M428.79,757.4c-3.25,1.29-6,2.08-8.49,3.42-4.5,2.45-8.83,5.22-13.25,7.83-.6.36-1.45,1-1.94.77-6.31-2.3-12.56-4.73-18.83-7.12l.06-.77,15.11-5.46c2.5-.9,5.17-1.5,7.47-2.78,3.82-2.14,7.31-1.75,11,.17C422.61,754.85,425.44,755.93,428.79,757.4Z"/><path class="cls-1" d="M959.75,615.82l14.39-5.44a7.72,7.72,0,0,0,1.88-.65c4.25-3.14,8.64-2.57,13.4-1.19s9.67,2,15.43,3.06c-2.47,1.14-4.19,1.9-5.89,2.72-6,2.88-11.91,5.78-17.87,8.65a2.25,2.25,0,0,1-1.48.29C973.22,620.91,966.86,618.49,959.75,615.82Z"/><path class="cls-1" d="M777,713.05l-17.14,8.09c-5.45-7.2-15.1-8.46-24.21-12.46,7.82-2.11,14.85-4,21.9-5.88a2.45,2.45,0,0,1,1.63.23C765.16,706.35,771.1,709.72,777,713.05Z"/><path class="cls-1" d="M346.71,747c1.5-1.09,2.69-2.47,4.18-3a190.57,190.57,0,0,1,18.6-5.53c3.93-.87,8.13-.6,12.22-.65.9,0,1.82.77,2.73,1.18a10.83,10.83,0,0,1-1.45,2.93c-5.69,6-12.83,8.7-20.89,10.17C355.91,753.23,351.42,751.13,346.71,747Z"/><path class="cls-1" d="M993.82,646.67c4.87,2.52,9.25,5,13.81,7.05,1.3.58,3.15.25,4.68,0,8.68-1.53,16.38-5.89,24.51-9,11-4.12,21.53-9.41,32.31-14.11a12.81,12.81,0,0,1,3.56-.48c-.8,1.14-1.35,2.85-2.44,3.33-15.74,6.91-31.56,13.64-47.33,20.46-3.49,1.51-6.85,3.31-10.34,4.81a5.71,5.71,0,0,1-3.7.55c-4.65-1.68-9.23-3.59-13.76-5.57-1.9-.83-4.12-1.84-3.2-4.58A8.18,8.18,0,0,1,993.82,646.67Z"/><path class="cls-1" d="M919.15,607.94c7-3.13,14.22-6.43,21.53-9.59a5.81,5.81,0,0,1,3.36-.05c3.85.91,7.67,2,11.5,3,.05.31.09.61.14.92-2.95,1.34-5.91,2.63-8.83,4-5.13,2.45-10.22,5-15.35,7.41a2.59,2.59,0,0,1-2,.16C926,611.92,922.62,609.92,919.15,607.94Z"/><path class="cls-1" d="M587.14,686.71c6.14-1.54,12.45-2.64,18.39-4.76,5.6-2,10.6-2.51,15.63,1.17,1.31,1,3,1.36,5.18,2.28-7,2.64-13.3,5.07-19.67,7.46a2.37,2.37,0,0,1-1.37,0q-7.8-2.21-15.59-4.47c-.88-.25-1.74-.58-2.62-.87Z"/><path class="cls-1" d="M598.54,798.09c-8.37,3.63-16.72,7.3-25.12,10.87q-18,7.65-36,15.17c-1.84.77-3.79,1.26-5.62,2-1.43.6-2.54.8-3.2-1s-.38-2.82,1.58-3.5c7.91-2.74,15.81-5.52,23.66-8.44,11.78-4.39,23.49-9,35.27-13.32,3-1.12,6.17-1.82,9.26-2.71Z"/><path class="cls-1" d="M785.54,675.91c-3.43,1.93-6.35,3.49-9.18,5.21a4.19,4.19,0,0,1-4.47.1c-4.39-2-9-3.62-13.46-5.4-2-.8-4-1.61-6.58-2.64,5.22-2.24,9.89-4.27,14.59-6.24a2.08,2.08,0,0,1,1.57,0C773.77,669.86,779.51,672.82,785.54,675.91Z"/><path class="cls-1" d="M541.23,733.47c7.14-3.15,14.17-6.28,21.23-9.32a2.8,2.8,0,0,1,2.18,0,122.08,122.08,0,0,1,10.5,6.54c-9.23,1.92-18.12,4.47-26,10.12Z"/><path class="cls-1" d="M845.17,637.48c4.1-1.16,8.38-2,12.33-3.59,4.9-2,9.25-1.43,13.69,1.09,2.46,1.4,5.13,2.43,8.31,3.91a45,45,0,0,0-5,1.54,64.85,64.85,0,0,0-9.66,4.8c-2.12,1.44-3.43,1.29-5.49,0C854.84,642.54,850.12,640.17,845.17,637.48Z"/><path class="cls-1" d="M545.72,705.18c5.42-3,10.33-5.64,15.26-8.29a2.15,2.15,0,0,1,1.52-.34c5.12,2.21,10.2,4.5,15.32,6.78-.41.15-1.09.33-1.72.62-4.47,2.06-8.89,4.25-13.43,6.16a7.21,7.21,0,0,1-4.44.37,87.58,87.58,0,0,1-9.08-3.36A28.83,28.83,0,0,1,545.72,705.18Z"/><path class="cls-1" d="M979.23,667.49c-.36.19-1.55,1.3-2.19,1-8.87-3.58-18.57-5-26.82-10.19-2-1.29-3.31-2.89-2-5.44,1.45-2.79,2.21-2.89,5-1.46,2.08,1,4.44,1.54,6.55,2.54s4,2.48,6.14,3.5c3.33,1.6,6.77,3,10.14,4.48C978,662.83,979.6,664,979.23,667.49Z"/><path class="cls-1" d="M494.72,750.43c8.21-3.17,16.28-6.23,24.31-9.4a4.86,4.86,0,0,1,5.29.74c1.92,1.49,4,2.81,6.49,4.58-2.34.5-4.13.73-5.81,1.28-7.11,2.36-14.18,4.85-21.3,7.2a3.4,3.4,0,0,1-2.49-.2C499.07,753.4,497.06,752,494.72,750.43Z"/><path class="cls-1" d="M585.43,716.09l23.17-7.67c1.9-.63,3.81-1.2,5.69-1.86,6.27-2.19,6.26-2.2,12.15,2.42-4.93,1.19-9.54,2.11-14,3.44-6.48,1.93-12.65,4.56-17.86,9.08a2.74,2.74,0,0,1-2.55-.15C589.86,719.84,587.89,718.09,585.43,716.09Z"/><path class="cls-1" d="M710.45,701.84c-4.33,2.16-8.9,4.44-13.48,6.7a1.93,1.93,0,0,1-1.33.21q-6.52-2.52-13-5.16a12.12,12.12,0,0,1-1.79-1.31c5.73-2.52,11.15-4.9,16.58-7.25a1.34,1.34,0,0,1,1,0C702.53,697.3,706.54,699.61,710.45,701.84Z"/><path class="cls-1" d="M471.63,741.07q-9.93,3.87-19.84,7.73c-.4.15-1,.34-1.29.15-2.85-1.84-5.64-3.75-9-6,6.37-2.63,12-5,17.73-7.27a2.64,2.64,0,0,1,1.85.23C464.76,737.66,468.41,739.48,471.63,741.07Z"/><path class="cls-1" d="M841.15,654.19l-10.92,5.3-18.59-9.92c3.13-1.36,6-2.67,9-3.84a3,3,0,0,1,2.1.07c5.74,2.5,11.44,5.07,17.15,7.63A12.52,12.52,0,0,1,841.15,654.19Z"/><path class="cls-1" d="M668.51,690.77c-6.66,3-13.2,6-19.77,9a2.25,2.25,0,0,1-1.78,0c-2.32-1.28-4.58-2.69-7.23-4.27,6.09-3.17,11.78-6.27,17.61-9.06a5.52,5.52,0,0,1,4.14.31A77.43,77.43,0,0,1,668.51,690.77Z"/><path class="cls-1" d="M537.75,784.81c-.73.87-1.28,2.11-2.21,2.54-4.92,2.25-9.8,4.69-14.93,6.32A93.59,93.59,0,0,0,495.05,806c-1.78,1.24-3.13,1.49-4.49-.62-1.46-2.29.15-3.28,1.66-3.93,3.12-1.36,6.4-2.36,9.59-3.58,3.46-1.33,6.91-2.69,10.32-4.13,6.72-2.84,13.39-5.79,20.12-8.6a32.87,32.87,0,0,1,4.66-1.22Z"/><path class="cls-1" d="M813.94,667.09l-9.9,5.42-19.6-12.6c4-1.87,6.8-3.5,10.83-1.09,4.91,2.93,10.53,4.69,15.83,7C812.05,666.19,813,666.65,813.94,667.09Z"/><path class="cls-1" d="M497.86,740c-1.6-3.31-1.29-3.88,2.07-5.09,3.93-1.4,7.76-3.06,11.66-4.56q5.46-2.09,11-4.05c3.12-1.11,6.28-2.14,9.39-3.2.36,4.29-.78,6.17-4.68,7.43C517.53,733.65,507.79,736.77,497.86,740Z"/><path class="cls-1" d="M751.37,688.37c-4.46,1.37-8.51,2.68-12.61,3.81a4.33,4.33,0,0,1-2.38-.62c-4.78-2.06-9.55-4.16-14.67-6.39,4-1.65,8-3.28,11.92-4.84a2,2,0,0,1,1.34.26C740.3,683.1,745.62,685.63,751.37,688.37Z"/><path class="cls-1" d="M884.21,623.37c5.12-1.88,9-6,14.86-3.81,3.89,1.45,7.92,2.53,11.46,3.64-4,2.69-8,5.39-12,8a2.27,2.27,0,0,1-2-.09C892.63,628.72,888.79,626.25,884.21,623.37Z"/><path class="cls-1" d="M933.11,684.72c-2.28-1.08-4.4-2.13-6.56-3.08-2.33-1-4.73-1.94-7.07-3-4-1.75-8-3.46-11.91-5.39-1.77-.88-1.87-2.51-.77-4.15s2.19-1.7,3.88-.91c7.31,3.46,14.69,6.8,22,10.21a6.6,6.6,0,0,1,2.6,1.61c.56.75,1,2.17.67,2.86S934.24,684.06,933.11,684.72Z"/><path class="cls-1" d="M346.34,753.13c14.82,5,27.92,3.27,38.83-8.46.25,2.41-1,6.06-2.58,7.39-9.93,8.19-21,9.66-33.15,6C346.66,757.23,345.77,755.69,346.34,753.13Z"/><path class="cls-1" d="M813.33,682.81c3.25-1.55,6.5-3.12,9.78-4.63.57-.27,1.39-.59,1.85-.37,4.56,2.16,9.07,4.44,14.28,7-4.17,1.69-7.66,3.12-11.16,4.49a1.62,1.62,0,0,1-1.09-.12q-7-2.79-13.9-5.62Z"/><path class="cls-1" d="M806.6,699.2c-3.86,1.74-7.42,3.4-11.05,4.91a2.86,2.86,0,0,1-2.06-.45c-3.84-2.09-7.64-4.25-11.84-6.61,3.69-1.73,7.07-3.34,10.49-4.88a2,2,0,0,1,1.56.15C798,694.55,802.18,696.84,806.6,699.2Z"/><path class="cls-1" d="M869.26,616.27c-4.6,2.44-8.84,5-13.37,6.85-1.18.48-3.44-1.08-4.93-2.09a49.59,49.59,0,0,1-5-4.47c4.38-1.8,8.65-3.56,12.93-5.29a1.81,1.81,0,0,1,1.32-.1C863.22,612.8,866.16,614.5,869.26,616.27Z"/><path class="cls-1" d="M965.18,604.33c-5.93,2.95-11.88,5.86-17.79,8.85-3.82,1.94-7.54,4.06-11.41,5.89a3.41,3.41,0,0,1-3.08-.28c-1.18-1.15-.86-2.54.6-3.6,7.58-5.49,16.13-8.83,25.09-11.17a41,41,0,0,1,6.5-.65Z"/><path class="cls-1" d="M627.86,740.17c.64,2.93-.46,4.45-3.08,5.65-6.49,2.95-12.82,6.26-19.21,9.43-.52.25-1.09.69-1.57.62a29.63,29.63,0,0,1-3.55-.87c.57-1,.91-2.22,1.73-2.82C609.92,746.51,618.12,741.78,627.86,740.17Z"/><path class="cls-1" d="M679.33,679.21c6.4-2.82,12.12-5.38,17.88-7.83a3,3,0,0,1,2.33.21c2,1.14,3.81,2.48,5.91,3.89-4.4,2.35-8.7,4.66-13,6.94a1.67,1.67,0,0,1-1.08.3C687.56,681.65,683.78,680.52,679.33,679.21Z"/><path class="cls-1" d="M932,644c-3.65,1.76-7.2,3.5-10.78,5.18a2.68,2.68,0,0,1-1.85.32c-4.69-2-9.33-4.09-14.68-6.46,3-1.5,5.05-2.58,7.16-3.63a2.28,2.28,0,0,1,1.31-.39C919.41,640.64,925.67,642.32,932,644Z"/><path class="cls-1" d="M596.14,769.12c3.72,1.67,7.54,3.25,11.26,5.07,4.77,2.34,9.5,4.77,14.12,7.39.93.52,1.27,2.08,1.87,3.17-1.06.23-2.28.92-3.16.62a81.37,81.37,0,0,1-10.77-4.24c-4.16-2.08-8-4.74-12.13-7C595.13,773,594.42,771.69,596.14,769.12Z"/><path class="cls-1" d="M930.13,629.69c3.8-3.43,7.41-4.05,12.17-2.07s10.25,2.65,15.41,3.92c1.26.31,2.49.72,3.69,1.08-3.35,1.26-6.57,2.49-9.81,3.68a2.29,2.29,0,0,1-1.36.12C943.58,634.22,936.94,632,930.13,629.69Z"/><path class="cls-1" d="M686.65,727.53c5.88,2.29,10.85,4.11,15.72,6.17a81.66,81.66,0,0,1,7.45,3.94,48.47,48.47,0,0,0,5.19,2.93c2.51,1,3.22,2.4,1.75,5.17-2-.89-4-1.77-6-2.73-4.7-2.25-9.41-4.5-14.07-6.83a67.73,67.73,0,0,1-8.49-4.66C687.26,730.88,687.18,729,686.65,727.53Z"/><path class="cls-1" d="M719.45,661.32c4.47-1.4,9.5-3,14.59-4.48a5.43,5.43,0,0,1,3,.5c2.93,1.11,5.81,2.33,9.46,3.82-1.72.56-2.81.88-3.86,1.28-3.54,1.35-7.06,2.75-10.6,4.09a2.3,2.3,0,0,1-1.54.18C726.72,664.92,723,663,719.45,661.32Z"/><path class="cls-1" d="M1008,614.13c1.47,2.51.38,3.62-1.63,4.61-5.71,2.81-11.37,5.73-17,8.66-1,.52-1.81,1.41-2.79,2-.69.39-1.77,1-2.22.69a2.45,2.45,0,0,1-.87-2.21c.48-1.52,1-3.65,2.18-4.24,6.11-3.07,12.4-5.78,18.66-8.53A23.93,23.93,0,0,1,1008,614.13Z"/><path class="cls-1" d="M633.62,753.9l.89-3.28c3.71,1.64,7.28,3.31,10.93,4.82,4.81,2,9.7,3.81,14.52,5.8a22.07,22.07,0,0,1,5,2.65c.66.51.61,1.94.88,3-.94.09-2,.54-2.8.21-5.83-2.52-11.6-5.2-17.4-7.81C641.71,757.46,637.73,755.73,633.62,753.9Z"/><path class="cls-1" d="M713.1,788.35c-.2-3.24.55-5.05,3.65-6.06,6.75-2.2,13.32-4.95,20-7.43a34.42,34.42,0,0,1,3.49-.92l.64.57c-.42.73-.67,1.82-1.3,2.14Q728,782.44,716.27,788A10.23,10.23,0,0,1,713.1,788.35Z"/><path class="cls-1" d="M846.29,667.14c2.92-1.39,5.71-2.78,8.56-4a2.88,2.88,0,0,1,2.1,0c4.47,2.1,8.89,4.29,14.12,6.84-3.24,1.4-5.92,2.57-8.62,3.71a1.17,1.17,0,0,1-.81-.1C856.61,671.5,851.58,669.38,846.29,667.14Z"/><path class="cls-1" d="M767,761.67l-29.37-13.76c2-1.88,3.62-2.12,6-1,3.42,1.62,7.21,2.42,10.72,3.87a87.58,87.58,0,0,1,11.3,5.43c1.23.73,1.62,2.87,2.39,4.37Z"/><path class="cls-1" d="M566.83,850.24c-3.08-1.1-5.93-1.92-8.63-3.11-5.88-2.61-11.64-5.51-17.54-8.09-3.12-1.36-3.35-1.51-1.84-5,3.83,1.54,7.69,3.06,11.52,4.64q6.31,2.63,12.59,5.35C565.15,845,566.86,846.44,566.83,850.24Z"/><path class="cls-1" d="M684.09,770.48a5.09,5.09,0,0,1,6.87.42c1.12,1,2.69,1.43,4,2.24,4.14,2.64,8.32,5.23,12.33,8,2.36,1.65,2.23,1.83,1.4,7Z"/><path class="cls-1" d="M754.48,649.75c4.7-1.66,9.38-3.42,14.14-4.89a6.16,6.16,0,0,1,3.82.54c2,.84,3.84,2,5.89,3.15-3.92,2-7.72,3.94-11.62,5.73-.62.29-1.65-.17-2.44-.43-3.31-1.13-6.6-2.31-9.9-3.48Z"/><path class="cls-1" d="M654.23,647.34l63-22.43.27.76c-20.32,9.44-41.53,16.4-63,22.6Z"/><path class="cls-1" d="M594.46,725.31c1.29-1.19,2.4-2.75,3.91-3.5a94.07,94.07,0,0,1,26.32-8.65c.24,1.46.25,2.29-1.78,2.86a52.71,52.71,0,0,0-8.83,3.8c-6.05,3-12.08,5.91-18.88,6.53Z"/><path class="cls-1" d="M702.47,751.23c-1.81,1.68-3.35,4-5.49,4.92-8.7,3.72-17.6,7-27.37,10.83.83-1.33,1.14-2.46,1.86-2.85,4.27-2.29,8.63-4.41,13-6.6,4-2,7.93-4.14,12-6a37.47,37.47,0,0,1,5.28-1.6Z"/><path class="cls-1" d="M667,807.55,638.25,790.2c2.59-2.11,4.65-2,7.48.16,4.37,3.3,9.39,5.74,14.09,8.63a52.23,52.23,0,0,1,6.09,4.2C667.18,804.25,668.23,805.72,667,807.55Z"/><path class="cls-1" d="M869.84,619.73c0,2.75-1.36,3.9-3.9,4.74-2.74.89-5.19,2.69-7.71,4.19-1.68,1-3,2.79-4.91-.06-.87-1.27-3.33-1.43-5-2.17a30.92,30.92,0,0,1-2.75-1.53c-4-2.28-4-2.28-2.24-7l11.27,8.89C858.31,622.67,864,621.07,869.84,619.73Z"/><path class="cls-1" d="M647,772.07c-.73,3.66-1.21,7.3-5.82,8.66-2.89.85-5.54,2.5-8.33,3.73-3.36,1.48-3.75,1.25-4.35-2.24-.07-.36-.16-.72-.29-1.27l18.14-9.82Z"/><path class="cls-1" d="M646.22,736.51c1-3.91,21-15.2,26-15.4-.13,2.43-.9,4.15-3.34,5.31-5.59,2.64-11,5.67-16.55,8.36C650.62,735.61,648.64,735.85,646.22,736.51Z"/><path class="cls-1" d="M474,733l2.15-4.11c.85.28,1.65.47,2.39.8,4.55,2.08,9.15,4.07,13.58,6.37,1,.52,1.43,2.15,2.13,3.28-1,.61-2.26,1.93-3.07,1.71a64.42,64.42,0,0,1-10.12-3.6A63.11,63.11,0,0,1,474,733Z"/><path class="cls-1" d="M731.75,713.55c.27-1.14.54-2.29.84-3.54,7.73,4,15.28,7.68,22.68,11.67,1.86,1,3.33,2.8,4.86,4.35.41.41.39,1.23.66,2.22Z"/><path class="cls-1" d="M595.5,809.2c2.06-1.71,3.83-1.72,6,.31,4.82,4.45,10.21,8.27,14,13.84a10.44,10.44,0,0,0,4,3.06c2,1,2.26,2.3,1.57,5.09Z"/><path class="cls-1" d="M779.36,714.83c1.51,1,2.81,1.38,3,2.11a2.89,2.89,0,0,1-1.25,2.48c-4.24,2.31-8.58,4.45-12.93,6.57-1.78.87-3.22,0-4.07-1.48s-.26-2.91,1.45-3.65Z"/><path class="cls-1" d="M431.76,759.36c-.28,2.48-.56,4.6-2.92,5.67-5.72,2.59-11.43,5.24-17.21,7.69-.55.24-1.9-.55-2.35-1.21a2.39,2.39,0,0,1,.63-2.25,54.88,54.88,0,0,1,6.29-3.35c4.48-2.1,9-4.11,13.51-6.12A10.38,10.38,0,0,1,431.76,759.36Z"/><path class="cls-1" d="M750.1,674.23c7.71,3.57,15,6.93,22.3,10.37.75.36,1.27,1.2,1.9,1.81-.9.27-1.95,1-2.69.73-7.47-2.45-14.89-5.06-22.36-7.64Z"/><path class="cls-1" d="M939.67,680.67c4.09-.94,8-1.64,11.81-2.79,2-.61,3.79-2,5.68-3a12.33,12.33,0,0,1,3.06-1.48,13.9,13.9,0,0,1,3.4.09c-.51,1.32-.66,3.24-1.62,3.82a50.85,50.85,0,0,1-8.07,3.6q-4.8,1.85-9.68,3.46C940.44,685.57,939.56,684.83,939.67,680.67Z"/><path class="cls-1" d="M581.59,705.82c1.12,3.69.32,5.33-3,6.17-5,1.29-9.9,3.22-14.9,4.67-1,.3-2.33-.32-3.51-.51.6-1,1-2.59,1.84-2.94C568.51,710.61,575.05,708.26,581.59,705.82Z"/><path class="cls-1" d="M874.09,655.31c3.52-1.35,6.52-2.55,9.56-3.65a2.82,2.82,0,0,1,1.92,0c3.62,1.64,7.21,3.37,10.87,5.1-2.59,1.27-5,2.45-7.34,3.57a1.69,1.69,0,0,1-1.08-.06C883.54,658.67,879.08,657.08,874.09,655.31Z"/><path class="cls-1" d="M598.93,837.48c-.48.52-.86,1.24-1.44,1.53-6.64,3.28-13.26,6.57-20,9.65a12,12,0,0,1-5.23.8c-1,0-2-1-2.93-1.5l.15-1.29,28.9-9.85Z"/><path class="cls-1" d="M924.39,632.68c1.26-.32,2.68-1.19,3.75-.88,6.38,1.84,12.68,4,19,6a7.61,7.61,0,0,1,2.39.91,15,15,0,0,1,2.06,2.42,9.29,9.29,0,0,1-2.79.84,17.94,17.94,0,0,1-4.78-.7c-4.9-1.5-9.79-3-14.61-4.78a34.23,34.23,0,0,1-5.06-2.85C924.36,633.3,924.38,633,924.39,632.68Z"/><path class="cls-1" d="M622.69,723.38c2-1.64,4-2.68,6.3-1.34,4.23,2.51,8.39,5.15,12.41,8,.78.55.77,2.23,1.13,3.38-1.07,0-2.33.29-3.18-.16-5.19-2.76-10.3-5.67-15.42-8.57A7,7,0,0,1,622.69,723.38Z"/><path class="cls-1" d="M708.73,652.34c-5,2.77-9.7,5.43-14.48,8a2.94,2.94,0,0,1-2.09,0c-2.61-.87-5.17-1.87-8.13-3,2-.64,3.77-1.18,5.53-1.78,4.32-1.46,8.65-2.92,13-4.44C705.44,650.14,705.43,650.09,708.73,652.34Z"/><path class="cls-1" d="M896.44,604.33l-2.83,1.86c-5.42,3.6-5.4,3.59-10.79-.34-1.37-1-2.85-1.83-4.28-2.74C884.9,598.33,887.22,598.47,896.44,604.33Z"/><path class="cls-1" d="M551.46,742.25c6.29-2.72,12.75-5.55,19.26-8.26a2.3,2.3,0,0,1,2.14.56c.3.4-.14,1.45-.44,2.14a2.25,2.25,0,0,1-1.09.88c-5.41,2.49-10.79,5-16.26,7.39C553.33,745.71,551.64,745.44,551.46,742.25Z"/><path class="cls-1" d="M672.34,671.82c-.77.94-1.34,2.36-2.33,2.76-6.24,2.53-12.57,4.87-18.9,7.18-.49.18-1.78-.34-1.81-.63-.1-.9-.08-2.33.46-2.69a22.76,22.76,0,0,1,5.82-2.94c5.25-1.62,10.6-3,15.91-4.42Z"/><path class="cls-1" d="M454.31,754.42c-.65-2.58.05-4.06,2.85-4.69,6.19-1.38,12.31-3,18.46-4.56a3.59,3.59,0,0,1,1.08.06c.35,2.79-1.11,4.14-3.47,4.71C467,751.44,460.75,752.9,454.31,754.42Z"/><path class="cls-1" d="M886.83,668.55a40.2,40.2,0,0,1-5.34-1.74c-3.76-1.83-7.39-3.92-11.12-5.81-1.63-.83-2.16-2.13-1.19-3.44.38-.51,2.17-.39,3.12,0,4,1.53,7.81,3.45,11.82,4.84C887,663.38,888.13,664.9,886.83,668.55Z"/><path class="cls-1" d="M450.09,786.88c8.81-7.94,22.35-15,36.93-18.87-3.11,1.68-6.18,3.45-9.34,5-8.52,4.25-17.06,8.44-24.54,14.47-.65.53-2,.25-3,.35Z"/><path class="cls-1" d="M817.43,628.25c4-1.66,7.84-3.28,11.69-4.8a2.12,2.12,0,0,1,1.78.14c2,1.53,3.92,3.18,5.64,4.6-2.94,1.3-6.15,2.73-9.37,4.12a1.83,1.83,0,0,1-1.32,0C823.12,631.07,820.42,629.72,817.43,628.25Z"/><path class="cls-1" d="M779.31,628.09c-4.26,2.54-7.91,4.77-11.64,6.87a2.71,2.71,0,0,1-2.21-.1c-1.81-1-3.5-2.16-5.8-3.63,4.72-1.94,9.06-4.09,13.64-5.38C774.83,625.41,777,627.16,779.31,628.09Z"/><path class="cls-1" d="M642.43,673.37c6.52-2.19,12.75-4.11,18.82-6.42,2.78-1.06,4.83-.27,7,1L647.3,676.4Z"/><path class="cls-1" d="M979.57,630.57q-10.77-4.43-21.51-8.83c-2.11-.86-2.77-2.15-1.78-3.74,7.15,2.48,14.18,5,21.25,7.34C980.15,626.22,980.42,627.94,979.57,630.57Z"/><path class="cls-1" d="M628.81,687.66c1.09,2.78.09,4.21-2.33,5.23-5.72,2.41-11.36,5-17.33,7.65l-1.57-3.65Z"/><path class="cls-1" d="M814.85,629.46l10.55,6.06c3-1.28,6.19-2.76,9.46-3.87.85-.29,2.08.54,3.14.85-.71.81-1.27,1.9-2.16,2.35a31.34,31.34,0,0,1-6.06,2.4c-1.28.35-2.75,0-4.11.13-.85.08-1.86.91-2.46.65a54.26,54.26,0,0,1-8.27-4.26C814.36,633.39,814.85,631.38,814.85,629.46Z"/><path class="cls-1" d="M532.93,751.15a8.23,8.23,0,0,1-1.89,1.29c-7.36,2.44-14.74,4.82-22.12,7.2-1.92.62-3.31.07-4.21-2.25l27.67-7.46Z"/><path class="cls-1" d="M757.94,694.77c-5.83,1.11-11.44,2.23-17.07,3.19-.58.1-1.31-.71-2-1.11.45-.54.79-1.34,1.36-1.58,5.15-2.13,10.34-4.17,15.91-6.39Z"/><path class="cls-1" d="M445.71,790.1c-8-3.51-15.61-6.79-23.15-10.14-.46-.2-.69-.94-1-1.44a4.82,4.82,0,0,1,1.52-.7c3-.18,5.87.12,8.46,1.93a12.55,12.55,0,0,0,3.61,1.69C439.64,782.81,442.87,785.73,445.71,790.1Z"/><path class="cls-1" d="M861.92,653.32c.57-1.26.85-2.81,1.76-3.72,4.31-4.32,10.15-5.71,15.66-7.64.78-.28,2,.63,3,1-.6.76-1,1.86-1.83,2.24-4,1.9-8.18,3.53-12.21,5.43a53.44,53.44,0,0,0-5.27,3.26Z"/><path class="cls-1" d="M926.19,594c-2.19,1-4.29,2.09-6.46,3a2.92,2.92,0,0,1-1.93-.08c-4.2-1.46-8.36-3-12.49-4.46C909.94,589,917.37,589.46,926.19,594Z"/><path class="cls-1" d="M715.37,663c4.27,2.35,8.6,4.58,12.75,7.12.94.58,1.25,2.21,1.85,3.35-1.27.23-2.84,1-3.75.58a83.35,83.35,0,0,1-10.59-6.45c-.87-.62-.75-2.61-1.08-4C714.83,663.41,715.1,663.2,715.37,663Z"/><path class="cls-1" d="M384.9,764l19,6.36c.45.15,1,.17,1.31.47a12.56,12.56,0,0,1,1.26,2c-.68.22-1.43.77-2,.62-4.52-1.1-9-2.31-13.48-3.53-1-.28-1.93-.83-2.93-1.13C384.13,767.64,384.13,767.66,384.9,764Z"/><path class="cls-1" d="M578.19,763.44c.47,4.94-2.81,6-5.8,7.24-2.82,1.12-5.76,1.93-8.66,2.84a4.32,4.32,0,0,1-1.94.33,7.83,7.83,0,0,1-1.94-1c.34-.62.64-1.25,1-1.84a1.54,1.54,0,0,1,.7-.48Z"/><path class="cls-1" d="M781.93,661.52c5.86,3.65,11.64,7.24,17.42,10.82.41.25,1,.36,1.23.7a18.76,18.76,0,0,1,1.31,2.22c-.83.11-1.85.59-2.48.28-3.07-1.5-6-3.2-9-4.83a54.07,54.07,0,0,0-6.27-3.36c-2.36-.92-3.54-2.05-2.37-4.63A3.93,3.93,0,0,0,781.93,661.52Z"/><path class="cls-1" d="M466.62,793c4.33,5.65,10.56,8.09,16.62,10.85,1.23.56,2,2.06,3,3.13l-.82,1.22c-3.5-1.52-7.06-2.92-10.48-4.6-2.64-1.3-5.1-3-7.64-4.46C464.43,797.45,466.93,795.16,466.62,793Z"/><path class="cls-1" d="M691.81,687.77a3.54,3.54,0,0,1,2.19-4.2c4.37-1.82,8.8-3.5,13.29-5.27.34,5.07.25,5.11-4,6.57-2.6.9-5.1,2.09-7.69,3a16.3,16.3,0,0,1-3.31.45Z"/><path class="cls-1" d="M857.1,652.9c-4.8-3-9.66-6-14.34-9.18-.74-.51-.7-2.17-1-3.29l1-.84c4.92,2.91,9.92,5.72,14.69,8.85.75.49.5,2.49.7,3.79Z"/><path class="cls-1" d="M603.43,699.59c-3.79-1.31-7.16-2.45-10.51-3.65-2-.7-3.87-1.55-5.84-2.22-1.61-.55-2.79-1.29-2.4-3.26C591.51,689.39,602.67,694.39,603.43,699.59Z"/><path class="cls-1" d="M715.32,704.12c.24,1.31.41,2.23.66,3.57-6.46,1-11.68,6.21-18.55,5.47-.21-.47-.43-.94-.64-1.4a28.67,28.67,0,0,1,4.43-2.77c3.52-1.43,7.14-2.6,10.73-3.85C712.92,704.8,713.92,704.54,715.32,704.12Z"/><path class="cls-1" d="M679.67,704.82c4.6,2.38,9.25,4.67,13.76,7.22.73.41.84,1.93,1.23,2.94-1.11.11-2.42.65-3.31.25-3.9-1.71-7.66-3.75-11.51-5.57-2.71-1.29-.19-2.93-.76-4.33Z"/><path class="cls-1" d="M777.83,699.24c2.23.86,4.51,1.63,6.69,2.61a83.26,83.26,0,0,1,8.67,4.31c.94.57,1.42,2.1,1.79,3.29.12.38-.93,1.62-1.22,1.55a12,12,0,0,1-3.41-1.47c-3.62-2.22-7.22-4.49-10.77-6.83a18.87,18.87,0,0,1-2.5-2.33Z"/><path class="cls-1" d="M534.49,763.7c.3-1,.57-1.87.8-2.65,6.35,3.18,12.7,6.21,18.89,9.55,1.26.69,1.9,2.52,2.83,3.83l-.62.59Z"/><path class="cls-1" d="M841.51,671.67c1.18-.65,2.09-1.54,2.59-1.35,4.43,1.68,8.86,3.41,13.15,5.44,1.53.72,4.24,1.74,3.06,4s-3.47.54-5-.27C851,677.19,846.71,674.65,841.51,671.67Z"/><path class="cls-1" d="M810.12,652.07c10.45,4.16,15.87,7.61,18.38,12.21a52.05,52.05,0,0,1-5.75-2c-3.66-1.8-7.17-3.92-10.88-5.63C809.66,655.65,809,654.43,810.12,652.07Z"/><path class="cls-1" d="M582,743.36c4.46,2.19,9,4.35,13.4,6.65a8.75,8.75,0,0,1,3,2.57c.54.78.44,2,.63,3a13.22,13.22,0,0,1-2.85-.83c-4.55-2.5-9-5.14-13.58-7.64C581.12,746.33,580.24,745.56,582,743.36Z"/><path class="cls-1" d="M651.77,819.7l-26,11.34c-1.06-2.46-.52-3.65,1.52-4.38,6.88-2.45,13.73-5,20.61-7.45,1.12-.4,2.3-.62,3.45-.92C651.46,818.76,651.62,819.23,651.77,819.7Z"/><path class="cls-1" d="M725.92,642.71c5.39-1.73,10.09-3.5,14.93-4.63,1.69-.4,3.75.79,5.65,2-1.25.41-2.51.79-3.76,1.23-2.42.84-5.15,1.25-7.18,2.67C732,646.42,729.47,644.39,725.92,642.71Z"/><path class="cls-1" d="M667.58,693.89c.83,3.8-1.21,4.91-3.9,5.71-3.25,1-6.41,2.28-9.67,3.23a5.08,5.08,0,0,1-3.42-.64C655.45,697.45,661.71,696.2,667.58,693.89Z"/><path class="cls-1" d="M709.6,654.59c.56,3.69-1.21,5.56-4.36,6.66-2.66.94-5.22,2.17-7.87,3.17a20.22,20.22,0,0,1-3.13.66c.59-1.34.83-3.17,1.86-3.92,1.87-1.38,4.22-2.11,6.36-3.12C704.83,656.91,707.19,655.76,709.6,654.59Z"/><path class="cls-1" d="M881.13,625.36c4.86,2.47,9.77,4.86,14.54,7.49.74.41.86,1.94,1.27,2.95-1.08.07-2.35.54-3.2.14a131.68,131.68,0,0,1-12-6.35c-.91-.55-1-2.48-1.44-3.77Z"/><path class="cls-1" d="M776.81,685.51c2.26-1.54,4.24-3,6.33-4.3,4.75-2.93,5.69-2,8,2-3.59,1.69-7.09,3.55-10.76,5C778.25,689,777.39,687.15,776.81,685.51Z"/><path class="cls-1" d="M842.44,605.29c-4.37,2.08-7.92,3.83-11.54,5.43a3.4,3.4,0,0,1-2.34-.14c-1.64-.67-3.21-1.54-5.4-2.62,5.13-1.61,9.65-3.25,14.3-4.37C838.73,603.29,840.38,604.54,842.44,605.29Z"/><path class="cls-1" d="M718.52,687l18.12,8.19c-.57,2.14-1.57,2.75-3.55,1.86-4.08-1.83-8.17-3.67-12.34-5.26C718.41,690.94,717.6,689.65,718.52,687Z"/><path class="cls-1" d="M672,809.2c-1.23-2.83-.25-4.32,2.61-5.49,4.66-1.92,9.11-4.32,13.67-6.49,1.11-.52,2.28-.9,4.19-1.65-.39,1.31-.38,2.41-.86,2.69-6.41,3.75-12.88,7.38-19.34,11C672.22,809.32,672.1,809.23,672,809.2Z"/><path class="cls-1" d="M914.73,609.24c4.45,2.41,8.69,4.57,12.74,7,.81.5.89,2.2,1.31,3.35a11.29,11.29,0,0,1-3-.53c-3.24-1.53-6.46-3.12-9.58-4.88C914.16,613.08,914.25,612.93,914.73,609.24Z"/><path class="cls-1" d="M748.5,665.4c-.2,3.16-1.94,4.61-4.37,5.39-2.62.85-5.25,1.69-7.93,2.32-.7.16-2.24-.43-2.27-.78a6.08,6.08,0,0,1,.7-3.1c.23-.46,1.12-.65,1.75-.84,3.26-1,6.52-2,9.8-2.86A10.75,10.75,0,0,1,748.5,665.4Z"/><path class="cls-1" d="M499.24,814.86l24.93,11.52C515.73,827.14,501,819.7,499.24,814.86Z"/><path class="cls-1" d="M805.62,638.67c-6.65,4.34-8.29,4.2-13.33-1.13C797.7,633.69,800.5,633.92,805.62,638.67Z"/><path class="cls-1" d="M745.42,734.12l-19,9.29c-2-1.32-1.6-2.46.19-3.31,4.89-2.34,9.77-4.71,14.75-6.83C742.2,732.91,743.54,733.69,745.42,734.12Z"/><path class="cls-1" d="M899.76,659.37c2.13,4.08,2,4.31-2.34,6a69.41,69.41,0,0,0-6.57,3.51,45.66,45.66,0,0,1,.08-5.78,2.89,2.89,0,0,1,1.74-1.78C895,660.57,897.39,660,899.76,659.37Z"/><path class="cls-1" d="M825,694c-6.07.47-10.89-3-16.25-5.48.26-.88.52-1.75.79-2.68,4.75,1.69,9.38,3.26,13.93,5,.87.34,1.42,1.5,2.12,2.28Z"/><path class="cls-1" d="M844.66,607.41c1.46,2.59.71,3.93-1.59,4.7-3.74,1.26-7.45,2.61-11.2,3.87a9.81,9.81,0,0,1-2.38,0C833.42,610.27,839.76,610.21,844.66,607.41Z"/><path class="cls-1" d="M750.47,650.69l15.77,7.24c0,.36-.06.71-.08,1.07-.85.15-1.78.61-2.52.4-4-1.18-8-2.48-11.94-3.83C749.2,654.71,750.67,652.78,750.47,650.69Z"/><path class="cls-1" d="M768.11,657.69c3.72-4.73,8.8-5.19,13.29-6.87l.75.52c-.39,1.23-.44,3.18-1.24,3.57C777.12,656.76,773.31,659.05,768.11,657.69Z"/><path class="cls-1" d="M899.51,634.26c4.52-5.19,4.59-5.23,13.28-8.74.59,3.15-.61,5.11-3.69,6.16-1.78.61-3.34,1.9-5.12,2.5C902.85,634.57,901.49,634.26,899.51,634.26Z"/><path class="cls-1" d="M748,642.46c.72,2.35.14,3.56-2.32,4.09-3,.66-5.94,1.9-9,2.56-.88.19-2-.73-3-1.14.67-.72,1.23-1.82,2-2.08C739.8,644.63,743.89,643.59,748,642.46Z"/><path class="cls-1" d="M816.71,671.91c-.11.15-.44,1-1.05,1.33a52.1,52.1,0,0,1-7.51,3.31c-1,.34-2.44-.42-3.68-.68.7-1,1.18-2.35,2.13-2.87a83.07,83.07,0,0,1,7.76-3.48C816,668.84,817,669.27,816.71,671.91Z"/><path class="cls-1" d="M691.81,687.77l.51.55c-.83,1.91-2.09,2.18-3.89,1.2-3.74-2-7.59-3.89-11.28-6-.75-.44-1-1.75-1.48-2.66a9.25,9.25,0,0,1,2.61.4C682.81,683.36,687.31,685.58,691.81,687.77Z"/><path class="cls-1" d="M885.79,613.89c-4-.42-7.41-2.34-10.52-4.49-.81-.56-.48-2.78-.68-4.26C878.44,605.19,885.5,610.61,885.79,613.89Z"/><path class="cls-1" d="M902.77,644a34.07,34.07,0,0,0,14,7.63c.86.22,1.53,1.16,2.3,1.77-1,.33-2.14,1.18-2.84.89a107.63,107.63,0,0,1-12.3-5.89C903,647.87,903.13,645.53,902.77,644Z"/><path class="cls-1" d="M556.83,716.71c-4.32-2.1-8.43-4-12.39-6.12-.8-.43-1-1.91-1.51-2.91l.68-.35c3.56,1.49,7.14,2.91,10.65,4.5C557,713.07,557.44,714,556.83,716.71Z"/><path class="cls-1" d="M787.92,639.24a98.62,98.62,0,0,1,9.36,4.75c.74.47.46,2.54.77,4.8l-10.95-5.28C787.36,642.17,787.63,640.74,787.92,639.24Z"/><path class="cls-1" d="M782.05,630.59c.26,2.69-.9,4-3.47,4.62-1.52.34-2.86,1.41-4.32,2.07a20,20,0,0,1-4.19,1.62,8.88,8.88,0,0,1-3.07-.46c.75-.83,1.35-2,2.28-2.42C773.46,634.11,777.73,632.41,782.05,630.59Z"/><path class="cls-1" d="M840.69,686.85l1.47,3c-3.31,1.7-6.48,3.42-9.75,4.91-.75.35-1.86-.09-2.81-.17.42-1.08.53-2.7,1.31-3.13C834,689.75,837.23,688.43,840.69,686.85Z"/><path class="cls-1" d="M902.39,598.06c.34-1.63.55-2.63.82-3.95,3.73,1.46,7.34,2.82,10.9,4.31.66.28,1.06,1.14,1.58,1.73-.81.28-1.71,1-2.42.78C909.69,600.11,906.16,599.08,902.39,598.06Z"/><path class="cls-1" d="M874.93,675.2c-3.64,1.91-6.34,3.48-9.18,4.69-.61.26-2-.59-2.57-1.28-.27-.3.22-1.91.75-2.19a50.77,50.77,0,0,1,7.77-3.36C872.32,672.86,873.43,674.16,874.93,675.2Z"/><path class="cls-1" d="M895.52,585.21l1.25.5c.59,3.71-2.07,4.28-4.46,5-2.23.69-4.5,1.23-7.12,1.94.42-2.51.52-4.58,3.35-4.93a36.17,36.17,0,0,0,5-1.07C894.12,586.51,894.56,586,895.52,585.21Z"/><path class="cls-1" d="M820,609c2.55,1.1,5,2,7.35,3.25.79.43,1.12,1.72,1.66,2.61a11.68,11.68,0,0,1-3,.71,15.06,15.06,0,0,1-3.9-.72C817.88,613.6,817.82,613.39,820,609Z"/><path class="cls-1" d="M492.58,752.47c4.2.4,6,4.2,9,6.17-.54.64-1.29,1.92-1.59,1.82a27.34,27.34,0,0,1-6.49-2.72C491.79,756.64,490.84,754.8,492.58,752.47Z"/><path class="cls-1" d="M937.05,647.52c-3.86,3.37-8.81,4.42-13.51,6l-.72-.56c.31-.81.41-2.13.95-2.36,4.14-1.71,8.37-3.2,12.57-4.77Z"/><path class="cls-1" d="M854.41,595.89c5.46-3.56,6.21-3.54,11.73.25C861.56,599.72,861,599.72,854.41,595.89Z"/><path class="cls-1" d="M807.28,619.16c-6.95,3.68-7.34,3.68-12.58,0C798.77,615.89,803,616.33,807.28,619.16Z"/><path class="cls-1" d="M796.83,706.71,807.25,702c2.06,3.13,2,3.38-1,4.54a50.79,50.79,0,0,1-6.75,2.23c-.8.19-1.82-.59-2.74-.93Z"/><path class="cls-1" d="M538.86,735.6l10.24,8.16c-1.52,2.13-3,1.62-4.43.87C540.75,742.65,538.16,739.05,538.86,735.6Z"/><path class="cls-1" d="M682.12,659.05c3.07,1.11,6.23,2.19,9.33,3.45.45.18.81,1.26.72,1.84-.06.38-1.09.93-1.58.85a62.5,62.5,0,0,1-7.2-1.62C681.43,663,680.71,661.61,682.12,659.05Z"/><path class="cls-1" d="M439.46,744.85c3,1.7,5.83,3.41,8.76,4.85,2,1,2.51,2.1,1,4.12-2.66-1.4-5.29-2.87-8-4.17C438.8,748.47,438.3,746.83,439.46,744.85Z"/><path class="cls-1" d="M583.53,718.24c2.66,2,5.34,4,7.94,6.06a1.49,1.49,0,0,1,.22,1.47c-.25.4-1.09.85-1.42.7a36.41,36.41,0,0,1-7-3.59c-.76-.57-.45-2.58-.63-3.93Z"/><path class="cls-1" d="M899.53,608.21c-.95,1.11-1.71,2.52-2.89,3.25a42.08,42.08,0,0,1-6.92,3.35c-.64.26-1.63-.37-2.46-.59.42-.65.68-1.6,1.28-1.91,3.33-1.77,6.75-3.39,10.13-5.06Z"/><path class="cls-1" d="M999.2,632l9.24,2.72c0,.31,0,.62,0,.94-1.75,1.1-3.33,3.19-5.74,2C1000.62,636.76,997.45,636,999.2,632Z"/><path class="cls-1" d="M843,660.05l-3.26,1.84a62.33,62.33,0,0,1-5.7,3.16c-.77.35-1.89-.07-2.85-.13.35-.86.45-2.13,1.08-2.48a69.8,69.8,0,0,1,7.92-3.74c.72-.29,1.73.18,2.61.29Z"/><path class="cls-1" d="M881.85,592.89a42.77,42.77,0,0,1-6.21-1.65,3.17,3.17,0,0,1-1.27-2.57c0-.45,1.59-1.41,2.2-1.23a31.81,31.81,0,0,1,5.89,2.51,2.23,2.23,0,0,1,1,1.9C883.22,592.41,882.21,592.68,881.85,592.89Z"/><path class="cls-1" d="M982.87,665.65c2.51-1.24,4.77-2.53,7.17-3.45.73-.28,1.85.47,2.79.75-.34.84-.45,2-1.08,2.47a27.79,27.79,0,0,1-4.3,2.14C985.17,668.65,983.41,668.52,982.87,665.65Z"/><path class="cls-1" d="M849.59,597.5a15.72,15.72,0,0,1,3.48.66,43.6,43.6,0,0,1,5.25,2.83c.55.33.85,1.06,1.27,1.61-.58.43-1.1,1.09-1.75,1.24C855.43,604.38,850.28,600.67,849.59,597.5Z"/><path class="cls-1" d="M862.66,603.75c-.85-.61-1.87-1-1.84-1.38a2.44,2.44,0,0,1,1.15-1.73,72.55,72.55,0,0,1,7.11-2.83,2.08,2.08,0,0,1,1.88.64,1.92,1.92,0,0,1-.53,1.84C867.93,601.53,865.34,602.58,862.66,603.75Z"/><path class="cls-1" d="M636.53,700.38c.31-1,.61-1.94,1-3.11,3,1.38,5.82,2.57,8.52,4,.63.35.78,1.59,1.16,2.43a9.6,9.6,0,0,1-2.7-.15C641.93,702.67,639.45,701.57,636.53,700.38Z"/><path class="cls-1" d="M790.65,620.05c4.17.32,7,2.67,7.62,6.31C795.05,627.24,790.39,623.53,790.65,620.05Z"/><path class="cls-1" d="M963.33,635.06c1,2.93-3.9,6-8.45,5.33C953.93,637,954.56,638,963.33,635.06Z"/><path class="cls-1" d="M801,648c-.46-3.46,1.58-5.18,7.4-6.22C808.5,644.76,805.42,647.35,801,648Z"/><path class="cls-1" d="M638.5,674.52c2.17,1.06,4.42,2,6.49,3.24.73.43,1.06,1.55,1.57,2.36a7.07,7.07,0,0,1-2.68.16,17.82,17.82,0,0,1-4.51-2.26c-.84-.6-1.27-1.78-1.88-2.7Z"/><path class="cls-1" d="M917.54,601.91c2-3.56,5.65-4.44,9-6.13C925.66,600,921,603.21,917.54,601.91Z"/><path class="cls-1" d="M723.54,644.29c2.1,1,4,1.82,5.78,2.91.65.4.86,1.5,1.28,2.29-.91.25-1.9.88-2.71.71C724.32,649.43,723.24,647.92,723.54,644.29Z"/><path class="cls-1" d="M808.69,622.66a12.22,12.22,0,0,1-2.4,2.17,19.66,19.66,0,0,1-4.53,1.65c-.65.16-1.45-.33-2.18-.53.35-.69.53-1.77,1.08-2,2.3-1,4.72-1.75,7.09-2.59Z"/><path class="cls-1" d="M602.8,663.07l19.32-5.29.27,1-19.31,5.35Z"/><path class="cls-1" d="M986.56,646.1c-1.92,1.81-3.81,3.66-5.82,5.37-.28.24-1.31-.07-1.73-.43a1.54,1.54,0,0,1,0-1.5c2.09-1.65,4.27-3.18,6.41-4.75Z"/><path class="cls-1" d="M758.88,633.27c2,1.3,3.75,2.36,5.4,3.58a1.93,1.93,0,0,1,.53,1.64c-.08.36-.85.76-1.33.8C760.92,639.53,758.19,636.26,758.88,633.27Z"/><path class="cls-1" d="M840.86,585.57l14.73-3.94.18.49c-1.55.55-3.11,1.07-4.65,1.66-1.85.71-3.64,1.57-5.51,2.2a42.75,42.75,0,0,1-4.38,1C841.11,586.51,841,586,840.86,585.57Z"/><path class="cls-1" d="M833.82,587.58l9.89,3.61-.32,1c-3.82.33-6.55-2.58-9.9-3.62Z"/><path class="cls-1" d="M825.56,593.63l-8.68-.8C820.09,591.92,822.94,590.91,825.56,593.63Z"/><path class="cls-1" d="M1017.71,684.35c7,1.34,13.1,2.28,19.1,3.73,11.09,2.67,22.08,5.71,33.15,8.45,7.93,2,16.11,3.12,23.85,5.63a268.41,268.41,0,0,0,30.71,7.61c10.32,2.06,20.32,5.7,30.54,8.3,11.43,2.91,23,5.31,34.43,8.18,5,1.27,10,3.11,14.9,4.85,1,.34,2.31,1.38,2.33,2.12a4.47,4.47,0,0,1-1.72,3,88.16,88.16,0,0,1-18.41,11.36c-6.62,3-12.75,7.17-19.06,10.88q-10.1,5.94-20.14,12c-14.6,8.83-29,17.9-42.72,28.13-5.93,4.44-12.6,7.89-18.84,11.92-17.62,11.37-35.44,22.46-52.69,34.37-9.27,6.39-18.31,8.32-29,4.42a314.36,314.36,0,0,0-31.39-10.14c-15.59-3.92-30.07-10.63-45-16.29C917.61,819,907.43,815,897.1,811.49c-9.6-3.3-19.43-6-29.06-9.2-4.84-1.63-9.48-3.88-14.21-5.86a186.8,186.8,0,0,0-33.26-10.83c-6.57-1.41-13-3.66-19.4-5.66a2.8,2.8,0,0,1-1.76-1.89,2.84,2.84,0,0,1,1.52-2.09c3.27-1.52,6.63-2.83,10-4.22,8.32-3.5,16.7-6.88,25-10.53,18.12-8,36.26-15.92,54.21-24.25,13.21-6.13,26.14-12.86,39.21-19.3,2-1,4-1.88,6-2.66,17.36-6.65,34.76-13.19,52.09-19.92,5.86-2.27,11.44-5.27,17.34-7.41C1009.1,686.07,1013.82,685.31,1017.71,684.35Z"/><path class="cls-1" d="M813.08,549.45c-14.41,4.83-28.85,8.86-42.62,14.5-16.79,6.87-34.69,9.35-51.81,14.73-9.88,3.11-19.42,7.36-29.37,10.22C675,593,660.49,596.11,646.17,600c-11.66,3.16-23.13,7-34.79,10.2-19.65,5.34-39.47,10.08-59,15.67-11.43,3.26-22.42,8-33.78,11.51-17.18,5.28-34.33,10.91-51.84,14.81-15.68,3.5-30.09,10.12-45.12,15.15-8.37,2.81-17.1,4.5-25.55,7.08-15.56,4.74-30.94,10.08-46.56,14.61-17.81,5.16-35.77,9.82-53.72,14.45-10.76,2.78-21.64,5.09-33,7.73-1.95-4.33-4.29-9.4-6.51-14.52-6.28-14.41-12.5-28.85-18.78-43.26a31.64,31.64,0,0,0-2.8-5.31,51.62,51.62,0,0,1-7.86-18.89,27.6,27.6,0,0,0-1.58-4.89c-6.16-14.55-12.27-29.12-18.61-43.59-1.9-4.35-4.44-8.43-6.71-12.62-1-1.84-2.13-3.62-3.08-5.48-5-9.85-10.22-19.6-14.84-29.62-3.06-6.65-5.25-13.69-7.81-20.56-3.07-8.2-5.73-16.58-9.25-24.58-6.09-13.87-12.85-27.43-19-41.25-3.69-8.25-6.79-16.75-10.15-25.15a14.29,14.29,0,0,0-.67-1.87c-7.86-13.19-12-28.22-20.59-41.08-2.71-4-4.14-8.95-6.31-13.38-1.75-3.58-3.71-7.06-5.61-10.57-1.37-2.51-2.9-4.93-4.19-7.48-3.67-7.31-7-14.84-10.94-22A228.39,228.39,0,0,1,70.22,285c-3.46-10.47-6.86-21-10.28-31.45-.81-2.49.37-4.24,3.11-4.69,9.48-1.59,18.94-3.34,28.46-4.71,5.65-.82,11.43-.79,17.09-1.59,9.53-1.36,19-3.42,28.51-4.57,11-1.33,22-2.57,33.09-2.83,23.13-.54,46.28-.35,69.42-.56,19-.17,38.05-.17,57.05-.87,12-.45,24-2.09,36-3.13,4.47-.39,9-.54,13.44-.86,13.42-1,26.83-2.39,40.27-2.92,17.26-.67,34.45-2.47,51.83-1.38s35,.52,52.47.73c17.68.21,35.37.41,53.05.74,12,.22,24.07.19,36-1.41a95,95,0,0,1,11.44-.79c17.11-.24,34.22-.51,51.33-.46,4.57,0,9,1.2,11.36,6.07,4.08,8.29,8.41,16.46,12.66,24.66,6.29,12.1,12.57,24.21,18.94,36.27a28.13,28.13,0,0,0,3.49,4.89c12.69,15.08,22,32.39,31.19,49.58,11.37,21.25,21.14,43.36,31.77,65,5.59,11.38,11.76,22.48,17.3,33.87a335.49,335.49,0,0,1,19.44,51.23,52.63,52.63,0,0,0,2.46,6.39q8.93,19.95,17.94,39.87C810.2,544.6,811.69,546.93,813.08,549.45Zm-355,10.14c-3.05-2.89-3.73-2.82-7.82-1.13-1.66.69-4.13,1.26-5.49.52-4.55-2.46-8.48-.58-12.59.85-1.61.56-3.24,1-4.85,1.59-2.33.78-4.61,1.7-7,2.35-1.57.44-3.62,1.24-4.82.63-4.35-2.19-8.21-1.17-12.33.55-5.56,2.32-11.1,4.46-17.3,5.16-8.46.95-16.81,3-25.19,4.7-2.56.51-4.58,1.78-4.91,4.78-3.6-3.36-6.5-3.37-9.1-.16-1.86,2.3-1.71,5.49.56,6.77,1.06.6,2.83,1.06,3.73.57,2-1.1,3.69-2.83,5.62-4.4,2.66,2.2,3.75,2.23,8.41,1,5.88-1.51,11.84-2.73,17.77-4.1,2.65-.61,5.3-1.29,8-1.94,4.66-1.14,9.42-2,13.95-3.53,3.41-1.14,6.53-3.22,10.2-.92.36.22.95,0,1.41.14,5.21,1.15,9.56-2.11,14.41-2.9,1.91-.31,3.75-1.65,5.42-2.81a6.07,6.07,0,0,1,5.47-1.21,35,35,0,0,0,9.88,1c4.51-.24,6.84-3.32,6.53-7.62,1.51,1.78,3,3.42,5.77,2.79,2.46-.56,5-.82,7.42-1.5a45.55,45.55,0,0,0,5.48-2.27c.56-.24,1.28-.84,1.67-.67,3.33,1.41,5.64-.54,8.08-2.22,1.76-1.22,2.68-2.78,1.88-4.88a3.81,3.81,0,0,0-4.89-2.42c-3.65.9-7,2.76-11,2.52-2.34-.14-4.75,1.09-7.14,1.65C460.12,553.72,458.49,555.31,458.05,559.59Zm-85.28,48.26c-6.15,2-12.3,4-18.47,5.87-7.08,2.18-14.63,3.39-21.19,6.61-13.16,6.46-25.87,13.85-38.61,21.15-10.36,5.94-15.67,15.61-18,26.95a11.81,11.81,0,0,0,1.05,7.67c2.07,3.58,5,6.69,7.82,9.77a11.63,11.63,0,0,0,10.14,3.67c8.44-.84,17-1.08,25.29-2.8,12.08-2.53,24-5.83,35.88-9.37,25.51-7.63,50.93-15.57,76.36-23.49,10.62-3.31,21.09-7.15,31.76-10.29,17.06-5,34.25-9.62,51.36-14.46,14.36-4.06,28.74-8.09,43-12.38,12.38-3.71,24.54-8.26,37-11.54,19.41-5.11,39.13-9,58.14-15.61,6.81-2.38,13.82-4.21,20.7-6.43,7.32-2.35,14.47-5.41,21.93-7.18,9.24-2.19,18.77-3.17,28.1-5,10.72-2.14,21.34-4.69,32-7,7.78-1.71,15.72-2.69,22.69-7.24,6.46-4.21,12-12.9,5.17-22.53a55.36,55.36,0,0,0-16.57-15.56,19.35,19.35,0,0,0-5.34-1.87c-9.43-2.33-18.85-1-28.13.8-19.52,3.81-39,7.77-58.44,12.15-23.39,5.28-46.68,11-70,16.63-9.44,2.28-18.78,4.95-28.23,7.12-13.92,3.19-28,5.73-41.84,9.19-23.58,5.9-46.74,13.42-70.67,18C458.5,582,451,582.54,444.22,586c-1.2.62-2.79.51-4.2.73-9.12,1.44-18.26,2.82-27.36,4.37-3.84.65-7.61,1.71-11.43,2.47-3,.6-6.24.45-8.93,1.65-10.38,4.62-21.69,3.71-32.48,5.81-4.49.87-8.75,2.05-12.29,5a4.36,4.36,0,0,0-.67,6.39,4.29,4.29,0,0,0,6.18.35C358.81,607.72,366.08,608.73,372.77,607.85ZM477.65,234.67a11,11,0,0,0,.8,2.26c2,3.49,4.12,6.87,6,10.39,3.33,6.2,6.88,12.32,9.68,18.76,3.83,8.81,7,17.91,10.54,26.84a88.88,88.88,0,0,0,4,8.23c4.39,8.44,8.92,16.81,13.23,25.29,5.16,10.18,9.34,21,15.43,30.54,8.73,13.75,15.78,28.17,22.43,43,10.52,23.42,21.9,46.47,33.36,69.46,7.56,15.18,15.8,30,23.95,44.9,3.29,6,7.06,11.78,10.78,17.54,1.59,2.45,4.32,2.93,6.18,1.52s1.78-3.45.16-6.07c-4.37-7-8.79-14-12.84-21.27-4.7-8.39-9-17-13.51-25.51Q601.38,468.28,595,456c-2.45-4.74-4.68-9.59-7.19-14.29A451.63,451.63,0,0,1,565,392.86c-4.6-11.84-10-23.35-17.24-33.79-6.27-9.11-11.08-18.84-15.54-28.88-4.29-9.65-9-19.1-13.64-28.61-2.52-5.2-5.79-10.14-7.66-15.56a329,329,0,0,0-24.62-54.23,4.52,4.52,0,0,0-5.54-2.44C478.53,230,477.51,231.64,477.65,234.67Zm260.44,176,1-.54c-.49-1.19-.72-2.59-1.51-3.52-2-2.34-4.5-1.73-7.1-.92-18.38,5.77-36.37,12.91-55.62,15.65-5,.7-9.77,2.39-14.62,3.75-2.74.77-4.05,3.77-3.19,6.74,1.34,4.65,2.65,9.31,4,14,2,7.17,4.59,14.07,8.77,20.34a50.16,50.16,0,0,1,6,11c2,5.69,5.38,10.18,9.53,14.34a6,6,0,0,0,6.73,1.75c2.79-.94,5.48-2.19,8.31-3,18-5,35.8-10.35,53.12-17.34,4-1.61,5.42-3.3,4.42-7.41-1.39-5.71-3.41-11.25-5.17-16.87-2.65-8.51-5.21-17-8-25.5a54.77,54.77,0,0,0-3.68-7.84C740.15,413.64,739.06,412.18,738.09,410.66Zm-167-53c-5.05-2.09-8.6-.1-7.8,4.66.74,4.35,1.67,9.05,4,12.67,4.11,6.41,8.31,12.72,12,19.41,4.24,7.74,9.61,14.89,11.73,23.65a4.46,4.46,0,0,1,0,2.85c-1,1.89-1.42,3.95.2,5.27a10.6,10.6,0,0,0,5.33,1.8c1.21.14,2.55-.65,3.8-1.1,5.89-2.16,11.61-5.33,17.69-6.33,11.84-1.94,23.86-2.78,35.82-3.88,4.81-.44,9.16-.36,11.47-6.24,1.36-3.46,1.88-6.47.49-9.5-2.76-6-6.12-11.79-9-17.76-1.7-3.5-3.64-7.06-4.36-10.81a53.79,53.79,0,0,0-10.9-23.86,4.52,4.52,0,0,1-.7-2.08c-.5-3.25-2.7-4.8-5.92-4-1.75.45-3.43,1.22-5.19,1.6q-14.93,3.21-29.89,6.28c-7.35,1.52-14.69,3.14-22.1,4.32C575,355.06,572.53,355.13,571.08,357.67Zm-30.76-76.22c-1.5,8,.81,15,6,21,3.92,4.59,8.66,7.81,15,7.87a95.73,95.73,0,0,0,10.31-.22c6.6-.67,12.95-2,17.89-7.16a53.36,53.36,0,0,0,11.9-21c1-3.12.28-6.94-.28-10.34-.48-2.86-1.91-5.55-2.85-8.35-1.54-4.61-4.6-7.79-9.32-8.84-8.25-1.82-15.88.24-22.95,4.58a16.58,16.58,0,0,0-8,12.6,60,60,0,0,0-.53,6.84c-.08,4.86,2.1,8.69,6.52,10.52,5.1,2.12,10.72,3.4,15.42-.72a30,30,0,0,0,6.22-8.47c2.14-4-1.09-8.62-5.63-8.56-3.22,0-5.18,2.65-4.2,5.59a4.18,4.18,0,0,1-2.12,5.06c-2.32.88-6.5-.66-7.17-2.63-1.24-3.69.68-10.2,3.85-12.48a23.32,23.32,0,0,1,15.42-4.18,4.78,4.78,0,0,1,4.44,3.49c.88,2.51,2.14,4.93,2.68,7.51.47,2.23.8,4.85.06,6.89A72.19,72.19,0,0,1,587.3,292c-3.12,5.39-7.53,9.07-14.13,9.38-1.71.08-3.41.46-5.12.59-11.73.93-19-5.86-19-17.7,0-2.58-.15-5.18,0-7.74a12.08,12.08,0,0,1,1.18-4.94c2.85-5.07,5.75-10.14,9-14.91,1.45-2.09,3.82-3.61,6-5.1,2-1.35,3.07-3,2.46-5.28a4,4,0,0,0-4.72-3.24,13.22,13.22,0,0,0-5.35,2.33c-5.23,3.83-7.94,9.68-11.44,14.9C541.89,266.73,538.64,273.42,540.32,281.45ZM772.45,485a14.41,14.41,0,0,0-2.29.46c-4.68,1.56-9.31,3.31-14,4.75-10.64,3.23-21.33,6.31-32,9.47-13,3.86-26.12,7.6-39.11,11.63-6.53,2-12.88,4.62-19.36,6.84a106.88,106.88,0,0,1-10.36,3c-3,.69-4.72,2.5-4.35,5.32.35,2.62,2.77,4.34,5.77,3.64a72.73,72.73,0,0,0,11.48-3.36,354.93,354.93,0,0,1,50.46-16.29c13.6-3.41,26.94-7.49,40.13-12.15,5.07-1.79,10.19-3.47,15.28-5.21a4.18,4.18,0,0,0,3-4.66C776.86,486.24,775.37,485,772.45,485Zm-81.33-82.49c11,.59,20-4.84,29.18-9.57,2.6-1.34,3.48-4.07,2.91-6.92-.61-3.06-2.61-5.55-5.65-5.74a115.36,115.36,0,0,0-14.5.46c-3.1.2-6.18.9-9.28,1-5.16.25-10.1,1.09-14.07,4.66a10.46,10.46,0,0,0-3.43,10.87c1.08,4,4.73,4.55,8.26,4.81C686.73,402.33,688.93,402.42,691.12,402.55ZM176.27,426.43c3.4,1.67,6,.36,8.69-1.43.85-.57,2.49-1.26,3-.89,2.83,2.25,6,1.9,9.07,1.34,5.79-1.07,11.52-2.48,17.22-4a43,43,0,0,0,7.74-2.92,4.59,4.59,0,0,0,2.44-6c-.86-2-3.43-3.36-5.52-2.25-6.54,3.45-13.8,4.2-20.79,5.94a3.26,3.26,0,0,1-2.57-.73c-1.91-1.84-4.13-2.63-6.55-1.76-3.46,1.25-6.75,3-10.19,4.29-2.78,1.07-4.62,2.63-4.22,6l-3.71-.77c1.51-4.09.66-6.77-2.23-7.5-3.12-.79-5.47,1.07-6,5.14a20.65,20.65,0,0,0,.06,6.75c.81,4,3.71,6.1,7.33,5.79S175.68,430.88,176.27,426.43Zm194.47,97c-3.88-1.41-7.91.17-11.87,1.1a3.66,3.66,0,0,0-2.61,4.79c.52,1.45,2.31,3.52,3.46,3.48,4.24-.15,9,.8,12.06-3.42,4,1.48,4.32,1.23,8.19-.62,3.37-1.61,6.93-3.44,10.53-3.76,3-.26,5.19-1.5,7.67-2.59a52.9,52.9,0,0,1,5.1-1.76c2-.63,3.91-1.23,6.3-2,2.8,2.56,5.53.6,8.24-1.37,2.43-1.77,3.12-4.06,1.91-6.18s-3.76-2.87-6.51-1.48c-1.67.85-3.2,2-4.79,3-2.06-.54-4.34-1.07-6.22-.43-4.38,1.49-8.58,3.53-12.86,5.35a3.77,3.77,0,0,1-1.52.54C381.45,517.63,376.45,521.25,370.74,523.44Zm257-265.24a16.2,16.2,0,0,0-.41-2,5.07,5.07,0,0,0-5.81-3.52c-2.41.47-3.55,2.38-3.3,5.49.2,2.37.3,4.76.58,7.12a8.3,8.3,0,0,0,6.71,6.92c3.33.6,6.16-.93,7.9-4.31.62-1.22,1.19-2.46,1.79-3.71,5.7,3.71,7,3.69,12.3.16a5.31,5.31,0,0,1,2.14-.52c2.07-.26,4.17-.37,6.23-.71,3-.5,4.81-2.87,4.21-5.38s-3-3.61-5.93-3c-1.38.3-3.07,1.15-4.12.67-3.6-1.67-6.41-1.1-8.67,2.25C637.7,250.44,635.1,250.54,627.77,258.2ZM192.3,322.45c1.59-.21,2.64-.12,3.46-.51,3.6-1.71,7.27-.88,11-.67a19.34,19.34,0,0,0,6.67-.85c3.36-1,6.48-2.95,9.87-3.7a70.93,70.93,0,0,1,12.12-1.21c2.51-.11,4.29-.87,5-3.39a4.32,4.32,0,0,0-3.23-5.29,19.6,19.6,0,0,0-4.8-.41c-2.89-.06-5.79-.09-8.67,0-1.09.05-2.6.22-3.15.93-1.42,1.83-3.24,1.93-5.24,2.22a19.55,19.55,0,0,0-4.5,1.74c-.78.32-1.67,1.15-2.3,1-5.77-1.59-11.45-.34-17.18.2-2.21.2-4,.66-4.86,2.76a4.31,4.31,0,0,0,1.71,5.55A19.46,19.46,0,0,0,192.3,322.45ZM636,448.05l.27.89c4.73-1.61,9.53-3,14.14-4.91a4,4,0,0,0,1.82-5.64,4.24,4.24,0,0,0-5.56-2.16c-.73.23-1.42.55-2.14.8-2.69.92-5.38,2.58-8.07,2.58-6.79,0-12.34,3.58-18.4,5.6-1.87.62-3.18,2.44-5.59,1.11-.74-.41-2.43.28-3.37.93-2.51,1.72-3.29,6.68-1.63,9.08s5.21,3,8.23,1.23a6.15,6.15,0,0,0,1.63-1.15c4.16-4.7,10.26-5.56,15.6-7.89A11.8,11.8,0,0,1,636,448.05Zm28.37-107.11c0,.27,0,.54,0,.8-.55-.36-1.08-.76-1.65-1.08-2.3-1.29-4.83-1-6.23.81-1.57,2-1.26,4.09.23,6a36.3,36.3,0,0,0,2.41,2.85c2.56,2.69,5.64,3.2,8.39.66,3.36-3.11,7.55-2.59,11.42-3.47,5.89-1.34,11.82-2.56,17.72-3.87a4.12,4.12,0,0,0,1.47-.87c1.71-1.36,2.41-3.43,1.32-5.07-.9-1.35-3-2.74-4.48-2.66-3,.15-5.89,1.38-8.87,2-4.78,1-9.59,1.89-14.4,2.76C669.29,340.29,666.82,340.58,664.36,340.94ZM401.52,542.65c3.66,2.25,5.73,2,8-.84a4.46,4.46,0,0,0,0-6c-2.07-2.1-4.58-1.65-7.76,1-2.4-.37-4.42-1-6.38-.91a20,20,0,0,0-7,1.57c-5.65,2.6-11.82,2.5-17.68,3.91a22,22,0,0,0-6.33,2.43,4.14,4.14,0,0,0-1.33,6c1.48,2.18,3.47,2.23,5.8,1.44a69.59,69.59,0,0,1,7.12-1.86c3.17-.72,6.43-1.15,9.55-2.07,2.67-.79,5.18-2.1,7.79-3.12a2.18,2.18,0,0,1,1.38.05A6.42,6.42,0,0,0,401.52,542.65Zm-157.95-96.3c4-.66,8.52-1.15,12.87-2.17,8.42-2,16.78-4.23,25.14-6.44a3.93,3.93,0,0,0,3.11-4.26,3.88,3.88,0,0,0-3.56-3.88,14.8,14.8,0,0,0-5.09.31c-11.41,2.6-22.81,5.31-34.21,8-2.64.62-4.05,2.47-3.69,4.93S240.35,446.5,243.57,446.35Zm-76-149.62,0-.2c1.53-.1,3.06-.14,4.57-.3,3.08-.33,4.89-2.09,4.84-4.63s-2.43-4.71-5.19-4.8c-4-.14-8-.24-11.92-.24a19.66,19.66,0,0,0-3.34.64c-3.83.65-7.65,1.34-11.49,1.88a3.66,3.66,0,0,1-2.05-.73c-3-1.81-5.76-1.32-7.41,1.37s-.78,6.45,2,7.66a17.57,17.57,0,0,0,6.89,1.12c2,0,4.08-.91,6.15-1.22,3.54-.52,7.1-1.07,10.67-1.27A35.74,35.74,0,0,1,167.55,296.73ZM354,485.82c9.5,0,15.72-3,21.93-5.86a4.38,4.38,0,0,0,2.19-6.06c-1-2.14-3.57-3-6.16-1.92-3.16,1.32-6.28,2.75-9.39,4.19-2.06.95-4,1.45-6.27.35a5.41,5.41,0,0,0-3.57.05c-4.54,1.41-9.09,2.8-13.47,4.61a6.07,6.07,0,0,0-3.23,3.74c-.75,3.71,2.59,5.75,6.66,4.44C347.15,487.92,351.67,486.54,354,485.82Zm266.3-17.73c-3.29-.34-5.5,1.46-5.68,4.47a4.83,4.83,0,0,0,5,5.32,17.52,17.52,0,0,0,5.94-1.61c1.92-.8,3.55-2.32,5.49-3,6.44-2.3,13-4.33,19.44-6.53,3.32-1.13,4.75-3.62,3.79-6.32-.89-2.47-3.53-3.42-6.75-2.31-3.95,1.37-8,2.61-11.77,4.3-4.3,1.91-9.43,1.76-13.07,5.33C622.23,468.2,621.1,468,620.27,468.09ZM283.36,403.31c0-2.73-1.9-4.76-5.17-4.33-5.35.69-10.64,1.95-15.93,3-.89.19-1.91,1.34-2.51,1.11-3-1.18-5.31.73-7.9,1.5a29.29,29.29,0,0,1-6.1,1.13c-2.39.2-4.37.82-5,3.37-.61,2.35.68,4.59,3.51,5.41a14.84,14.84,0,0,0,5.24.08c5.31-.48,9.54-5,15.24-4.13.09,0,.18-.05.28-.07,4.64-.9,9.28-1.85,13.94-2.69C281.65,407.25,283.31,405.69,283.36,403.31Zm-56.05-21.79c1.75,2.31,4.4,1.75,7.34.84,3.72-1.15,7.66-1.59,11.32-2.87a27.38,27.38,0,0,0,8.11-4.48c.94-.77,1.06-3.41.56-4.86-.79-2.36-3.88-2.82-6.7-1.47-1.45.69-2.87,1.85-4.37,2A43.54,43.54,0,0,0,227,375.9c-2.57-3.41-6-1.13-9-1.08a4.11,4.11,0,0,0-4.31,4.62,4.35,4.35,0,0,0,5,4C221.4,383,224.12,382.23,227.31,381.52Zm.55-35.29.19.51a27,27,0,0,0,2.85-.28c4.66-.91,9.32-1.79,13.95-2.83a29.82,29.82,0,0,0,5.67-1.92,4.32,4.32,0,0,0-2.6-8.24c-5.19,1.14-10.33,2.49-15.54,3.54-1.87.38-3.88.05-5.8.24a24.28,24.28,0,0,0-4.62.94c-1.67.5-3.23,1.37-4.9,1.81-2.32.61-3.78,1.94-3.85,4.33s1.16,4.15,3.4,4.28a30.64,30.64,0,0,0,7.45-.92A22,22,0,0,0,227.86,346.23Zm129.76-43.07.08-.29c.57,0,1.15,0,1.72,0,3.34-.26,5.61-2.6,5.37-5.5s-2.25-4.15-5.8-4.07a25,25,0,0,1-3-.49c-1.92-.22-4-.88-5.76-.45-3.85.91-7.44,3.11-11.64,1.82-.4-.12-.92.18-1.4.24a54,54,0,0,1-5.5.7c-2.94.09-5.62,2.34-4.67,4.78a10.93,10.93,0,0,0,4.68,5.25c1.34.72,3.67-.29,5.52-.7,1.14-.26,2.17-1,3.31-1.25,2.88-.55,5.78-1,8.69-1.36a10.75,10.75,0,0,1,3.25-.07C354.19,302.09,355.89,302.68,357.62,303.16ZM585.23,336c4.3.44,6.29-.78,6.66-3.33a5.27,5.27,0,0,0-4.67-5.83,7.74,7.74,0,0,0-2.84.13c-2.59.63-5.13,1.44-7.71,2.11-.65.17-1.63.34-2,0-2.89-2.4-5.8-1.76-8.86-.43a4.23,4.23,0,0,1-2.84.31c-2.32-.84-4.2-.39-5.6,1.52-1.56,2.11-2.19,4.53-.91,7a4.65,4.65,0,0,0,5.61,2.43c2-.52,3.81-1.69,5.75-2.44.78-.31,1.94-.67,2.51-.33,2.93,1.77,5.74,1.37,8.77.3A46.78,46.78,0,0,1,585.23,336Zm-259,84.5c-2.87.77-7.49,1.8-12,3.28a4.39,4.39,0,0,0-2.9,6c.9,2.26,3.52,3.23,6.32,2.32.36-.12.7-.32,1.07-.41,3.76-1,7.51-2.61,11.28-2.68,6-.12,11.18-2.76,16.73-4.19a3.05,3.05,0,0,0,1.16-.82c1.57-1.45,2.16-3.2,1.14-5.16a4.09,4.09,0,0,0-4.81-2.23c-.83.17-1.59.64-2.42.86C337.29,418.67,333.17,421.63,326.23,420.51Zm300.95-92.84.26,1.06c3.31-1.12,6.78-1.93,9.85-3.52,1.1-.57,1.87-3,1.7-4.55-.24-2.26-2.33-3.23-4.53-2.94-3.73.49-7.41,1.41-11.15,1.82a61.08,61.08,0,0,1-9.75.29c-2.65-.14-4.79.44-6,2.81s-1.78,4.94.19,7.21,4.27,1.8,6.82,1C618.69,329.66,623,328.73,627.18,327.67ZM385.26,500.88a64.25,64.25,0,0,0,6.88-.8c4.4-1,8.72-2.3,13.13-3.24,2.56-.54,4.16-2.25,3.79-4.75a4,4,0,0,0-4.76-3.46c-3.75.53-7.48,1.19-11.24,1.58a13.11,13.11,0,0,0-9.12,4.61c-4.8-1.12-8.23-.35-9.25,2.21a4.16,4.16,0,0,0,1.75,5.47C379.41,504.44,382.76,503.65,385.26,500.88ZM698.7,362.28a4.47,4.47,0,0,0-5.44-4.35q-10.43,2-20.86,3.86a6.1,6.1,0,0,0-4.91,6.4c.37,2.79,2.55,4.1,6,3.51,6.35-1.08,12.71-2.18,19-3.34C696.33,367.66,698.74,365.2,698.7,362.28ZM374,413.55l-.15-.66c-1.69.26-3.38.5-5.07.78-3.28.54-6.54,1.23-9.84,1.61-2.51.28-4.29,1.27-4.6,3.84s1.19,4.14,3.58,4.79a8.2,8.2,0,0,0,3.39.33c7.5-1.32,15-2.64,22.47-4.23,3.35-.71,4.91-3.52,4-6.14s-3.3-3.36-6.69-2.26C378.76,412.36,376.37,412.91,374,413.55Zm-72.73,44.78-.29.76a43.09,43.09,0,0,0-4.83.4,4.92,4.92,0,0,0-4.08,5.64c.46,2.43,2.41,3.44,5.44,3.41a40.64,40.64,0,0,1,9,.71c6,1.33,11.12-.35,15.94-3.58a4.35,4.35,0,0,0,1.51-6c-1.25-2-3.54-2.59-6-1.4-1.63.79-3.13,1.93-4.83,2.42a9.54,9.54,0,0,1-4.66.1A75.48,75.48,0,0,1,301.27,458.33ZM608.38,256.5l-.21,0c.52,4,.8,8,1.63,11.9a40.18,40.18,0,0,0,3.13,9.41,5,5,0,0,0,7.21,1.68c1.92-1.39,2.16-4,1-6.14a25.33,25.33,0,0,1-2.82-7.26c-.71-4.31-.78-8.73-1.17-13.09a4.3,4.3,0,0,0-4.46-4.27c-2.61.05-4,1.51-4.33,4A35.29,35.29,0,0,0,608.38,256.5ZM281,338l.06.34a25.46,25.46,0,0,0,3.15,0c2.74-.35,5.48-.77,8.21-1.23,4.31-.72,6.54-2.91,6-5.86s-2.94-3.84-7.65-3.05c-4,.68-8.1,2.56-12.29.3-.71-.38-1.89-.06-2.8.16-1.83.47-3.63,1.08-5.43,1.64-2.17.68-3.42,2.1-3.33,4.43a4,4,0,0,0,3.62,4.14,18.8,18.8,0,0,0,4.56,0C277.07,338.66,279,338.28,281,338Zm25.53-33.74.32,1a93.87,93.87,0,0,0,9.87-3.35,4.23,4.23,0,0,0,1.73-5.93c-1.22-2.17-3.18-2.58-5.43-1.93a79.52,79.52,0,0,1-19.86,3.14c-2.24.06-3.89,1.14-4.32,3.44s.46,4.63,2.79,4.91a63.37,63.37,0,0,0,10.93-.09A17.85,17.85,0,0,0,306.5,304.25Zm453,201.35a11.9,11.9,0,0,0-.74-1.61c-1.49-2.42-4.19-3.26-6.41-2s-2.72,3.57-1.49,6.24c.36.78.75,1.54,1.12,2.32,2.24,4.67,7.15,6.25,11.49,3.4a17.39,17.39,0,0,1,7.19-3.13,11.43,11.43,0,0,0,5-2.62,4.19,4.19,0,0,0,.87-5.89c-1.33-1.8-3.7-2.18-5.91-1a26.68,26.68,0,0,1-3.29,1.66C764.77,503.87,762.21,504.67,759.46,505.6ZM340.54,324.43c0-2.77-2.58-4.69-6.22-4.29-2.93.32-5.81,1.05-8.72,1.57-4.12.74-8.27,1.33-12.36,2.24a4.86,4.86,0,0,0-3.76,6.09,4.53,4.53,0,0,0,6,2.82c6.76-2.87,14-3.42,21.12-4.3A4.17,4.17,0,0,0,340.54,324.43Zm94.35,114.23.06.27a10.92,10.92,0,0,0,1.14.08c2.89-.05,5-1.95,4.85-4.5s-2.64-4.62-5.72-4.18q-6.48.94-12.94,2.08c-2.72.48-5.42,1.07-8.11,1.69s-4.55,3-4.07,5.34c.51,2.53,2.69,3.57,5.8,2.95,4.57-.9,9.16-1.68,13.74-2.56C431.4,439.5,433.14,439.05,434.89,438.66Zm-62.17,62.87c0-3.78-3.83-5.35-7.82-4a120.91,120.91,0,0,1-16.24,4.18c-3.28.63-5.6,2.37-5.24,5.14s3.14,4.45,6.32,3.71c6.62-1.55,13.23-3.12,19.81-4.8A4,4,0,0,0,372.72,501.53ZM258.86,301.36c-4.14-.35-6.26.9-6.77,3.43s1.1,5.09,4.32,5.71a17.19,17.19,0,0,0,5.89-.19c4-.66,8-1.53,12-2.38a13.8,13.8,0,0,0,3.8-1.12,4.21,4.21,0,0,0,2.08-5.38c-.78-2.33-2.63-3.14-5-2.79-4.13.62-8.25,1.24-12.37,1.91C261.22,300.8,259.66,301.19,258.86,301.36Zm92.56,158.18.12.82a44.45,44.45,0,0,0,6-1.53c2.34-.94,3.17-2.95,2.53-5.4-.57-2.2-2.62-3.23-5.25-2.74a25.11,25.11,0,0,1-3.05.65c-5.58.26-11.17.39-16.75.65-3,.14-4.94,2.08-4.79,4.57s2.26,4.16,5.29,4C340.83,460.22,346.13,459.87,351.42,459.54Zm107.34-32.88-.16-1c-2.73.41-5.5.64-8.17,1.3a4.28,4.28,0,0,0-3.42,5.38c.64,2.28,2.71,3.54,5.42,3,3-.65,5.91-1.34,9-.18a3.51,3.51,0,0,0,2.49-.26,13.39,13.39,0,0,1,8.49-1.46,4.42,4.42,0,0,0,5.05-4.84c-.24-2.6-2.45-4.14-5.39-3.73ZM391.37,299.21l.1.72c3.3.06,5.49-1.66,5.64-4.42a4.16,4.16,0,0,0-3.94-4.43c-6.73-.57-13.45-1.18-20.08,1-2.29.74-3.73,2-3.75,4.42A4.31,4.31,0,0,0,373,301a12.58,12.58,0,0,0,4,0C381.79,300.44,386.58,299.81,391.37,299.21Zm271.08,22.42c4.54-.95,10.49-2.09,16.39-3.49a3.28,3.28,0,0,0,2.48-4.45,5.86,5.86,0,0,0-3.57-3.32c-1.92-.34-4,.61-6.09.91-3.74.54-7.37,2.21-11.29.21-2.64-1.35-5.67.76-6,3.76C653.85,318.9,656.65,321.56,662.45,321.63ZM485.66,431.78c1.2-.28,2.93-1.15,4.51-.94,4.93.65,8.8-1.95,12.92-3.75a3.83,3.83,0,0,0,2.16-5c-.7-2.19-2.65-3.55-4.68-2.69-5.36,2.26-11,2.86-16.64,3.5a4.27,4.27,0,0,0-3.84,4.85C480.36,430.12,482.42,431.75,485.66,431.78Zm47.05,105a6.13,6.13,0,0,0-1.14.07c-6.25,1.57-12.52,3-18.71,4.8a3.89,3.89,0,0,0-2.8,5,4.13,4.13,0,0,0,4.72,3.26,18.46,18.46,0,0,0,3.25-1c5-1.35,10-2.79,15-3.94,2.44-.55,4.05-2,3.89-4.41A3.94,3.94,0,0,0,532.71,536.78ZM382.45,452.6c.45-.17,1.48-.64,2.55-1q5.14-1.45,10.3-2.81a21.44,21.44,0,0,0,3.58-.78,4,4,0,0,0,2.37-4.95c-.58-2.21-2.31-3.6-4.48-3.11-5.71,1.28-11.38,2.79-17,4.49-2.12.65-3,2.66-2.48,4.88S379.48,452.63,382.45,452.6ZM133.32,300.76c-.71-1.46-1.14-2.39-1.61-3.3-1.6-3-4.87-4.87-4.89-9.08,0-2.88-4.53-3.88-6.9-1.9-2,1.67-3.22,9.11-1.8,11.28a5.12,5.12,0,0,0,1.14,1.27c2,1.56,3.84,3.38,6,4.52a7.33,7.33,0,0,0,5.07.55C131.59,303.73,132.37,301.91,133.32,300.76ZM232,453.56c3.14,0,5.22-1.45,5.6-3.82.42-2.57-.89-4.06-3.21-5.06a4.7,4.7,0,0,1-1.82-2.23c-1.19-2.33-2.92-3.43-5.57-2.93-1.41.26-2.82.49-4.23.65-2.56.3-4.1,1.68-4.19,4.24s1.47,4,3.92,4.53c.84.19,2,.49,2.35,1.12C226.57,452.94,229.35,453.32,232,453.56Zm93,128.86-.07-.36a8.33,8.33,0,0,0-.86-.08c-3.27-.07-5.7,2.12-5.65,5.08,0,2.78,2.19,4.68,5.53,4.3a88.16,88.16,0,0,0,11.75-2.1c3.16-.79,4.64-3.47,3.88-6-.83-2.72-3.06-3.48-6.55-2.53C330.38,581.45,327.67,581.86,325,582.42ZM295.84,435.47c3.39-.58,6.91-1,10.3-1.85a4.84,4.84,0,0,0,3.1-7.21,4.81,4.81,0,0,0-3.81-1.83c-4.24.41-8.46,1.21-12.65,2-2.07.42-3.62,2-3.24,4.07a8.3,8.3,0,0,0,2.88,4.08C293.16,435.41,294.59,435.25,295.84,435.47Zm-120.24-106c2.31,0,4.54-.51,5.69-2.87s.32-4.34-1.76-6c-.58-.47-.59-1.68-.85-2.56-.63-2.17-1.91-4.07-4.22-4.07-1.69,0-4,.67-4.94,1.89-2.32,2.91-2.52,6.58-1.26,10S172.65,329.18,175.6,329.51Zm100,41.73c.8-5.12-3.46-7.46-7.47-9.95-2.46-1.53-4.85-1.29-6.42.63s-1.32,4.46.6,6.46c.65.68,1.6,1.07,2.22,1.76a8.59,8.59,0,0,1,2.11,3c.87,3.07,2.78,4.89,5.27,4.57S275.86,375.35,275.65,371.24ZM187.44,382.4c-.25,3.45,1,5.39,3.85,5.46a37.46,37.46,0,0,0,7.08-.65A4,4,0,0,0,202,383c.05-2.29-1.25-3.57-3.46-4.29a4.74,4.74,0,0,1-2.52-2.27c-1.46-3.16-3.28-4.45-5.81-3.67-2.36.72-3.74,3.34-3.29,6.27C187,380.17,187.25,381.29,187.44,382.4Zm204.83,84.75-.17-.54c-.86.05-1.72.05-2.57.13-4,.37-6.44,2.89-5.84,5.9s3.29,4.07,7.35,3.17c3.25-.72,6.19-2.53,9.79-2.17,1.08.1,3.06-1.78,3.36-3.05s-.57-3.74-1.63-4.27c-1.67-.83-3.94-.7-5.93-.55A19.33,19.33,0,0,0,392.27,467.15Zm10.09-59.92-.29-.85a106.09,106.09,0,0,0-9.94,3.8c-2,1-2.43,3.17-1.52,5.26a3.75,3.75,0,0,0,4.48,2.24q6.23-1.21,12.42-2.62a4.49,4.49,0,0,0,3.63-5.3c-.54-2.28-2.6-3.34-5.39-2.86C404.63,407.09,403.49,407.13,402.36,407.23ZM284.62,473.48l.49.65c1.48-1.11,3.34-1.95,4.35-3.39,1.23-1.76.25-3.56-1.16-5.13-.67-.75-.71-2-1.26-2.92-.9-1.46-1.71-3.47-3.06-4a6.55,6.55,0,0,0-5,.69c-2.45,1.42-3.79,6.47-2.91,9.33,1,3.22,3.51,4.3,6.58,4.56C283.3,473.29,284,473.4,284.62,473.48Zm341.45,20.74c5.06-1.66,9.47-2.82,13.6-4.65,1.06-.47,1.74-3.05,1.63-4.6a3.37,3.37,0,0,0-4.18-3,76,76,0,0,0-12.79,4.37c-1.06.48-1.87,3.18-1.55,4.56S625,493.24,626.07,494.22ZM425.43,406.09l0-.36c-2,.09-4,.14-6,.29-2.81.23-4.57,1.86-4.61,4.15a4.06,4.06,0,0,0,4.5,4.17,119.28,119.28,0,0,0,13.06-1.16,3.71,3.71,0,0,0,3.4-4.49c-.29-2.24-2.37-3.5-5-3.18C429,405.73,427.21,405.9,425.43,406.09ZM415.6,296.44c1.15-.67,2.8-1.12,3.51-2.19s.86-3.17.22-3.92c-2.07-2.43-3.75-5.61-7.66-5.73-1.9-.06-3.78-.47-5.68-.58s-3.8.48-4.68,2.54c-1.21,2.85.72,5.72,4.18,5.87,2.43.1,4.6.22,6.35,2.33C412.52,295.6,414,295.77,415.6,296.44Zm-224.91-5.12c-.35-1.53-.26-2.65-.77-3.14a73.34,73.34,0,0,0-8.51-7.37c-.83-.58-3.33.15-4.23,1.08s-1.16,2.94-1,4.36c.17,1.16,1.48,2.13,2.22,3.21a22.63,22.63,0,0,1,2.61,4.14c1.18,2.94,4.66,4.18,7,2C189.3,294.38,190,292.52,190.69,291.32ZM333.58,617.87c2.42-1,5-1.64,7.23-3a4.5,4.5,0,0,0,1.54-6.25c-1.18-1.95-3.46-2.5-6-1.51a20.38,20.38,0,0,1-3.75,1.25c-3.38.58-4.9,2.06-4.7,4.86S330,617.39,333.58,617.87ZM303.77,400.31a67.18,67.18,0,0,0,7.46-2.26c2.22-.92,2.91-3.06,2.14-5.31a3.85,3.85,0,0,0-4.53-2.69,59.05,59.05,0,0,0-7.74,2,4,4,0,0,0-3,4.89C298.62,399.33,300.3,400.44,303.77,400.31ZM428.9,513.42c2.91,0,5.74-2.68,5.69-5.29a4.24,4.24,0,0,0-4.51-4.12,5.65,5.65,0,0,0-5.47,5.45A4,4,0,0,0,428.9,513.42Zm228.61-23.79c2.46,0,4.78-2.43,4.79-5.11a4.41,4.41,0,0,0-4.3-4.45,4.79,4.79,0,0,0-.49,9.56Zm-7.25,13.49c-.17,2.87,1.35,4.88,3.82,5s4.78-2.1,5-5.16a4.07,4.07,0,0,0-3.88-4.66C652.46,498.19,650.44,500.15,650.26,503.12ZM419.17,467.25a4.29,4.29,0,0,0-4.49-4.22,4.65,4.65,0,0,0-4.75,4.69,4.46,4.46,0,0,0,4.41,4.65A5.28,5.28,0,0,0,419.17,467.25Zm215.42,31.51a4.65,4.65,0,0,0-4.87,4.54,4.09,4.09,0,0,0,4,4.6,5,5,0,0,0,4.95-4.59A4.12,4.12,0,0,0,634.59,498.76Z"/><path class="cls-1" d="M57,241.18c-2.23-5.79-4.61-10.73-6-15.94-1.77-6.59-2.76-13.38-4-20.1-.09-.51.33-1.53.71-1.64,5.5-1.68,10.29-5.37,16.5-5.14,7.35.28,14.74.27,22.08-.13,14.59-.8,29.15-2.09,43.73-2.91,10.37-.58,20.76-.94,31.14-1,11.47-.07,23,.28,34.42.53,13.57.3,27.14.5,40.7,1.08,8.67.38,17.31,1.76,26,2,10.11.27,20.24-.21,30.36-.37,4.49-.08,9-.31,13.47-.23,15.77.26,31.55.38,47.3,1.07,8.45.37,16.84,1.85,25.27,2.71,4,.41,8,.54,12,.75.51,0,1.43-.17,1.5-.43.73-2.82,3-2.13,4.9-2.25,8.58-.53,17.15-1.18,25.73-1.53,5.43-.21,10.88,0,16.32.08,17.88.17,35.77.82,53.63.41,26.46-.62,52.89-2.11,79.35-3q16.77-.55,33.56-.09c7.32.21,14.6,1.4,21.91,2,1.75.14,3.59-.62,5.32-.4,3,.4,5.8,1.44,7.22,4.67,2.26,5.16,4.72,10.24,7.09,15.35l-.57,1.11c-6.28,0-12.55.06-18.83,0-10.32-.13-20.65-.55-31-.46-7.82.07-15.63.89-23.46,1.1-11.44.31-22.89.58-34.33.46-14.69-.16-29.39-.86-44.09-1.1-20.17-.32-40.37.14-60.51-.76-18.72-.84-37.23,1.27-55.84,2-13.73.54-27.44,1.67-41.14,2.74-11.81.92-23.6,2.13-35.39,3.19-1.62.14-3.25.19-4.87.28-37.56,2-75.16.39-112.73,1-15.08.25-30.17,1.17-45.19,2.53-9.56.86-19,3.18-28.5,4.66-4,.63-8.19.6-12.25,1.19-7,1-13.92,2.27-20.88,3.38S63.82,240.13,57,241.18Zm28.77-18.89c0-4.23,0-4.23-4.27-3.65-.1,0-.21.09-.28.06-.73-.32-1.7-.49-2.11-1.06-.27-.38.08-1.45.45-2,2-3,2-3.17-1-5a21.21,21.21,0,0,0-4.1-2c-2.17-.71-3.8-1.67-4.82-4a3.21,3.21,0,0,0-5.78-.37c-1.18,1.93-1.57,4.34-2.24,6.56-.28,1-.16,2.1-.64,2.92-5.13,8.66-1.57,15.77,4.27,21.45a7.13,7.13,0,0,0,3.64,1.47C77.08,238.18,85.62,230.81,85.72,222.29Zm103.42-10.08.78-.06c.19,3.18,1.89,5.13,4.84,5.06,10.15-.26,20.31-.69,30.45-1.23a4,4,0,0,0,3.86-4,3.77,3.77,0,0,0-3-4.32c-2.87-.51-6-1-8.77-.39a36.21,36.21,0,0,1-12.72.92,6.42,6.42,0,0,1-3.32-1.54,4.88,4.88,0,0,0-6.27-.79,31.2,31.2,0,0,0-2.72,1.84c-1.09-3.33-3.43-4.37-6.37-3.62a10,10,0,0,0-7.17,6.79,4.37,4.37,0,0,0,2.44,5.72,5.46,5.46,0,0,0,7-2.19C188.53,213.7,188.82,212.94,189.14,212.21Zm97.44,3.08V215c1.53,0,3.06.08,4.58,0a67.73,67.73,0,0,0,8.8-.82,4.45,4.45,0,0,0,3.63-5.33c-.54-2.31-2.47-3.52-5.29-3.26a19.75,19.75,0,0,1-2,.3c-7.23-.08-14.45-.24-21.67-.27-2.39,0-4.78.33-7.17.49a13,13,0,0,1-2.33,0c-2.29-.26-4.63-1.06-6.85-.8-3.24.38-5.74,4.11-5.39,7.12s2.58,4.72,6.44,4.73a26,26,0,0,0,4.82-.48c2.06-.38,4.07-1.3,6.12-1.38C275.71,215.15,281.15,215.29,286.58,215.29Zm226.6-13.54c-1.15.13-2.78.2-4.36.52A4.37,4.37,0,0,0,505,206.9c0,2.58,1.63,4,4,4.53a16.22,16.22,0,0,0,3.42.19c6.78.07,13.56.26,20.33.14s13.3-.48,19.93-.87a4.66,4.66,0,0,0,4.63-4.57c0-2.47-2.06-4.46-4.89-4.62a27.61,27.61,0,0,0-3.15.08c-7.39.32-14.78.82-22.18.9C522.6,202.72,518.13,202.1,513.18,201.75ZM141.44,216.89l.29,1.05c3.68-1.14,7.44-2.09,11-3.48a3.82,3.82,0,0,0,2.17-5.25,4,4,0,0,0-4.85-2.59c-1.39.25-2.69.94-4.06,1.31a18.85,18.85,0,0,1-3.33.57c-2.8.22-5.6.41-8.4.52s-5.6.13-8.4.1c-.35,0-.73-.51-1-.83-2.9-3-5.63-2.73-8,.7-.64.95-1.22,1.93-1.81,2.92-1.39,2.32-2.18,4.74-.38,7.19,1.6,2.18,4.23,2.7,7.54,1.57,1.35-.46,2.62-1.15,4-1.61a10.45,10.45,0,0,1,2.45-.4c2.14-.17,4.3-.18,6.42-.48S139.32,217.33,141.44,216.89ZM371.24,207l-.29,1c-2.1-2.25-4.42-2.13-7.11-1.21a20.81,20.81,0,0,1-6.15.9c-3.31.07-5.34,1.5-5.44,4.19s1.92,4.63,5,4.83c4.91.31,9.72,0,13.69-3.55,3.13,3.61,7,3.47,10.87,2.25a4.1,4.1,0,0,0,3-5.14c-.52-2.46-2.37-3.29-4.69-3.31-1,0-2.05,0-3.07,0C375.12,207,373.18,207,371.24,207ZM344,219.74c2.11-1.08,4.51-1.85,6.27-3.37.93-.81,1.3-3.07.91-4.37a4.82,4.82,0,0,0-3.23-2.72c-4.24-.71-8.56-.91-12.84-1.4a8,8,0,0,1-2.63-.94c-2.72-1.42-5.49-.65-6.79,2s-.37,6.14,2.36,7c2.22.68,4.69.5,7,.82a20.46,20.46,0,0,1,3.76.93C340.37,218.19,341.89,218.89,344,219.74Zm278-10.55c0-4.52-6.31-9.09-10.64-7.67a4.49,4.49,0,0,0-3.43,4.66c0,4.29,4.37,8.35,8.92,8.25A4.94,4.94,0,0,0,621.94,209.19Zm11.53,3.62c3.89.1,6.22-2.66,5.47-6.48-.64-3.21-4.56-6.67-7.89-6.94s-5.45,1.62-5.55,5A8.54,8.54,0,0,0,633.47,212.81Zm-54-1.41c3.37.41,5.35-.61,5.9-3a4.4,4.4,0,0,0-3-5.46,18.42,18.42,0,0,0-7.12-1.58c-1.66.09-4.06,1.47-4.63,2.89a8.47,8.47,0,0,0,.5,6.09c.89,1.94,3.2,2.09,5.31,1.59C577.45,211.66,578.47,211.56,579.49,211.4ZM99.73,219.6c.64,2.76,1.13,5,3.87,5.69a4.14,4.14,0,0,0,5.24-2.38,72.57,72.57,0,0,0,2.86-7.7,4.08,4.08,0,0,0-2-5.15c-2.08-1.15-4.35-.91-5.63,1.07A87.72,87.72,0,0,0,99.73,219.6Zm498.17-7.48c4.57,0,7.32-2,7.27-5.42s-3.62-6.32-7.55-6.28a5.63,5.63,0,0,0-5.74,5.79A6,6,0,0,0,597.9,212.12ZM468,205.49c0-2.82-1.79-4.52-4.69-4.52-3.45,0-5.74,1.86-5.69,4.62s2.6,4.85,5.67,4.79A4.52,4.52,0,0,0,468,205.49Zm23.61,2.85a4.74,4.74,0,0,0-4.73-5c-3-.09-5.2,1.71-5.23,4.39s2.46,4.89,5.58,4.87A4.23,4.23,0,0,0,491.62,208.34Z"/><path class="cls-1" d="M1253.29,239.42a22,22,0,0,1-3.71,1.72c-.73.17-2.1-.06-2.36-.55-2.24-4.29-6.24-5.7-10.51-6.56a11.75,11.75,0,0,1-8.93-8.52,46.19,46.19,0,0,0-1.52-6.08c-1.24-3.32-4.12-4.64-7.5-4.43a51.77,51.77,0,0,1-7.62-.54c-.78-6.33,2.4-10.44,4.86-14.79.26-.46.91-.67,1.28-1.08,1.72-1.93,3.47-3.85,5.08-5.87a12.36,12.36,0,0,0,1.26-2.43c6.62,2.94,12.8,6.37,20.19,5.59a4,4,0,0,1,4.3,2,16.8,16.8,0,0,0,4,3.56c2.49,1.9,5.14,3.6,7.51,5.64a3.11,3.11,0,0,1,.44,3c-2.15,3-4.16,6.33-7.06,8.37-3.39,2.4-4.52,4.54-3.78,8.74S1250.17,235.68,1253.29,239.42Z"/><path class="cls-1" d="M641,586.25,582,600.58c0-2.75.51-5.59-.1-8.15a115.64,115.64,0,0,0-5.07-16.3c-.72-1.78-3.21-3-5.07-4.16-2.15-1.34-4.39-2.83-6.79-3.37a26.13,26.13,0,0,0-9.51-.63c-11.65,1.72-17.85,10.16-15.57,21.78.86,4.37,3.41,8.45,5.5,12.5,1.68,3.26,3.15,6.85,7.66,8.42l-18,5.52c3.33-6.26,3.14-12.12.69-18.05-1.35-3.25-2.44-6.61-3.91-9.81-4.51-9.8-9.27-10.37-18.77-9.33-3.67.4-7.29,1.29-11.06,1.5,4.38-1.22,8.79-2.35,13.13-3.7,7.62-2.35,15.09-5.25,22.81-7.17,9-2.24,18.26-3.42,27.3-5.52,11.1-2.58,22.05-5.8,33.14-8.41,8.75-2.05,17.66-3.41,26.43-5.4,14.35-3.27,28.63-6.81,42.94-10.23.82-.19,1.64-.34,2.69-.55-5.32,7.57-3.77,18.66,3.11,24.34a25.89,25.89,0,0,1,3.35,3.51c2.24,2.68,4.92,3.77,8.39,2.81,1.92-.53,3.91-.8,5.85-1.3,6.21-1.62,9.75-6.18,12-11.71,1.35-3.27-3.49-15.44-6.58-17.19a32.63,32.63,0,0,0-5.6-2,10.28,10.28,0,0,1-3.54-1.69l30.55-7.42.12.32c-1.38.75-2.79,1.45-4.12,2.27-3.75,2.32-5.08,5.53-4.07,9.77.63,2.69,1.32,5.36,2,8,1.59,6.07,4.76,8.64,11.07,9.41,3.15.38,6.24,1.15,9.36,1.75,0,.4,0,.81,0,1.21-4.77.88-9.52,2-14.32,2.61-16.21,2.2-32,6-47,12.46-2.82,1.21-5.84,1.95-8.45,2.8,0-5.74.12-11.06,0-16.37-.14-4.66-1.76-8.58-6.47-10.55a2.89,2.89,0,0,1-1.49-1.53c-.92-2.75-2.9-3.71-5.56-3.39-7.7.9-15.22,2.51-22.2,6-4.56,2.29-5.73,5.74-3.91,10.52,1,2.57,1.75,5.24,2.85,7.76a21.31,21.31,0,0,0,10.74,11.4c1.53.7,3,1.45,4.56,2.17Zm-18.55-7.63c.61-4-1.46-7.88-3.17-12.07-2.53-6.23-6.48-9-13.2-8-6.1.92-12.25,1.57-18.36,2.45a3.24,3.24,0,0,0-2.29,1.44c-2.3,5.77-4.83,11.56-.76,17.65a62.71,62.71,0,0,1,4.83,8.1c2,4.24,5.31,5.55,9.59,5,4.72-.58,9.46-1.19,14.13-2.11C621.58,589.48,622.7,587.92,622.48,578.62Z"/><path class="cls-1" d="M510.86,623.08l-27.62,7.67-.57-.62c8.51-7.12,5.72-15.66,2.86-23.78-1-2.88-4.22-5-6.52-7.41-10-10.3-22.42-5-27.87,2.8-3.26,4.66-6.82,9.15-6.95,15.36A14.42,14.42,0,0,0,449.84,629c3.21,2.67,6.73,5,10.33,7.59l-35.93,11.53-.47-.61c.91-1.13,1.77-2.29,2.73-3.36,3.8-4.29,7.77-8.44,11.38-12.89a19.19,19.19,0,0,0,3.29-6.48,5.93,5.93,0,0,0-4.19-7.66c-3.92-1.11-6.88-3.5-9.93-6-2.89-2.37-6.15-4.28-8.82-6.11l80.37-23.53c-8.46,4.81-6.84,12-6.87,19.12,0,8.12,5.14,13.31,9.44,19,2.29,3,6,2.87,9.55,2.68C510.77,622.57,510.82,622.83,510.86,623.08Z"/><path class="cls-1" d="M368.29,665.41l-30.66,9.42c-.12-.22-.23-.44-.34-.66.58-.53,1.36-.94,1.69-1.59,1-2,2.42-3.94,2.64-6a26.82,26.82,0,0,0-.83-7.92c-.94-4.55-2.15-9-3.2-13.57-1.17-5.07-7.41-9.92-14.44-11.56,6.08-2.78,12-6.2,18.3-8.21,12.58-4,25.39-7.29,38.16-10.67,9.55-2.52,19.2-4.7,29.13-7.11-.09.57,0,1.27-.29,1.66-5,6.51-10,13-15,19.46-2.8,3.65-2.11,7,1.8,10.11,2.83,2.26,5.33,5,8.3,7s6.31,3.42,9.81,5.25c-10,5.09-20.85,6.33-31.19,9.4,1.4-.95,2.83-1.86,4.19-2.86,4.06-3,5.28-6.18,3.8-11-1.85-6-3.54-12.11-6.14-17.79-1.43-3.11-4.39-5.66-7.07-8-1.06-.91-3.29-.85-4.92-.65A58.9,58.9,0,0,0,361.67,622c-5,1.53-9.78,3.55-14.66,5.35a11.69,11.69,0,0,1-2.67.8c-3.53.39-5.37,2.22-4.89,5.65A82.1,82.1,0,0,0,342,646.69a135.61,135.61,0,0,0,5.46,13.78c2.31,5.33,8,7.39,14,5.43,2.12-.69,4.37-1,6.56-1.47Z"/><path class="cls-1" d="M741.58,558.14l2.87-4.87a27.51,27.51,0,0,0,4.23-13.48c.12-4.35-1.91-7-5.69-8.66-3.07-1.37-6.06-2.92-9.09-4.39l.22-.83,18.76-2.51.85.68c-5,2.91-3.22,7.08-3.11,11.11A16.67,16.67,0,0,0,755.13,546a39,39,0,0,0,5.74,5.15c3.23,2.46,7.44,1.17,8.32-2.82.63-2.81.4-5.85.31-8.78s-.49-6.1-.74-9.14a12.47,12.47,0,0,1,.18-1.7,43.12,43.12,0,0,1,4.6,3.81c1.81,2,3.34,4.17,5,6.28,3.44,4.37,1.69,8.19-2.5,11.08a31.54,31.54,0,0,1-13.24,5c-6.95,1.09-13.83,2.59-20.74,3.91Z"/><path class="cls-1" d="M500,598.61c0-1.14-.07-2.29,0-3.43.28-4.44,1.23-5.7,5.58-6.63,3.9-.84,7.84-1.49,11.8-2a5.84,5.84,0,0,1,6.48,3.67,131.24,131.24,0,0,1,5.52,14.34c1.4,4.72.09,5.75-4.71,6.33a78.74,78.74,0,0,0-12.45,2.77c-4.68,1.37-5,1.18-7.82-2.8C501.76,607.11,499.17,603.53,500,598.61Zm11.15,2.06a32.17,32.17,0,0,0-1.37,4.8c-.33,2.89,1.16,4.92,3.6,5.31,2.27.36,4.2-1.08,5-3.73.27-.91.49-1.84.84-2.72,2.38-6,.92-9.86-5.12-11.93a14.93,14.93,0,0,0-7-.25c-2.16.35-3.27,2.19-3.09,4.52a4,4,0,0,0,3.77,4A27.09,27.09,0,0,0,511.15,600.67Z"/><path class="cls-1" d="M401.6,632.08c2.47-2.86,5.25-5.88,7.78-9.11s4.7-6.53,7.4-10.32l14.93,12.26c-3.76,4.29-7.68,8.81-11.66,13.29-1.35,1.52-3.06,4.32-4.22,4.13a20,20,0,0,1-8.18-3.71C405.4,637,403.76,634.48,401.6,632.08Zm18.67-2.62a4.21,4.21,0,0,0-4.1-4.25,4.08,4.08,0,0,0-4.12,3.87,3.91,3.91,0,0,0,3.89,4.33A4.09,4.09,0,0,0,420.27,629.46Z"/><path class="cls-1" d="M452.27,618c.25-5.87,5.84-13,11-14.72a5.08,5.08,0,0,0,1.27-.65c3.85-2.68,3.94-2.49,7.81.33A17.6,17.6,0,0,1,480,616.3c.29,3.22-.36,5.86-3,7.83-1.83,1.36-3.51,3.09-5.56,4a11.17,11.17,0,0,1-6.5,1c-5.05-1.25-8.93-4.55-11.94-8.77A6.22,6.22,0,0,1,452.27,618Zm14.8-1.6a14,14,0,0,1,.95-1.36c2.28-2.44,2.55-4.82.75-6.8a5.28,5.28,0,0,0-7.25-.22c-2.8,2.26-4.14,7.9-2.77,11.59a10.06,10.06,0,0,0,9.33,6.31c3.24-.13,5.63-2.23,5.59-4.91s-1.86-4-5.32-4.31A10.94,10.94,0,0,1,467.07,616.43Z"/><path class="cls-1" d="M295.33,653.09c.39,5.36.56,9.55,1,13.71.59,5.21,2.85,9.18,8.41,10.59a54.84,54.84,0,0,1,6.07,2.26l0,.78c-5.33.28-10.7,1.09-15.95.62-2.43-.21-4.86-2.66-6.88-4.53-3.11-2.89-4.18-6.49-2.14-10.58a101.27,101.27,0,0,1,4.69-9.38C291.41,655.18,293.35,654.47,295.33,653.09Z"/><path class="cls-1" d="M564.35,591.91c-1.06,3.8-1,4.3,1.57,7.78l-3.17,1.24c.41-3.15,0-5.72-3.28-6.55-2.47-.61-4.52,1-6.55,5.26-2.93-6-7.28-11.2-4.58-18.3,1.36-3.55,3.87-5.48,7.46-4.85,4.14.73,8.6,0,12.39,2.5.69.45,1.73.85,1.92,1.47,1.36,4.55,2.57,9.13,3.75,13.73a1.86,1.86,0,0,1-.79,1.71,3.63,3.63,0,0,0,0-1.19c-.59-1.59-.84-3.84-2-4.55s-3.32,0-5,.18a5.17,5.17,0,0,0-1.53.75,4.31,4.31,0,0,0-.77-5.45c-1.12-1.15-2.23-2.31-3.36-3.46a4.2,4.2,0,0,0-5.66-.83c-2.15,1.31-2.37,3.38-1.59,5.51A8.53,8.53,0,0,0,564.35,591.91Z"/><path class="cls-1" d="M317.15,654.09l-11-4.78c4.46-3.18,8.47-5.11,13.05-5.77,2.29-.34,4.42-1.37,6.85.16a8.45,8.45,0,0,1,4.22,6.92,49,49,0,0,0,1.87,7.43c.41,1.53.83,3.05,1.39,5.1-1.83-.52-3.16-.83-4.44-1.28-4.3-1.5-4.67-2.54-2.59-6.5.52-1,1.33-2.3,1.06-3.15-.52-1.55-1.47-3.6-2.74-4.07s-3.49.34-4.74,1.31S318.23,652.27,317.15,654.09Z"/><path class="cls-1" d="M372,645.63c0,3.1-2.26,6.74-4.16,6.28-2.29-.56-5.56-1.95-6.13-3.71-1.29-4-1.64-8.39.69-12.43.83-1.42,1.92-2,3.22-.95a16.84,16.84,0,0,1,4.13,4.39A35.68,35.68,0,0,1,372,645.63Z"/><path class="cls-1" d="M647.5,557.59c6.68,1.64,7.48,2.61,7.5,9.21,0,1.33,0,2.67-.06,4-.19,4.43-.2,4.43-5,5.33.09-.51.13-.94.24-1.36a3.93,3.93,0,0,0-2-4.88,4.09,4.09,0,0,0-5.4,1.15c-1.28,1.53-2.46,3.14-3.89,5l-1.87-.94c.19-.43.23-.64.35-.75,1-.9,1.92-1.81,2.92-2.67,1.58-1.34,3-3.08,4.84-3.88,5.42-2.37,6.4-6.08,2.39-10.3Z"/><path class="cls-1" d="M722.7,536.39c.33,4.89.64,9.59,1,14.31-2.62.29-3.61-.37-4.3-3.43a42.22,42.22,0,0,0-1.24-5.53c-1-2.8.27-4,2.65-4.79C721.57,536.69,722.38,536.48,722.7,536.39Z"/><path class="cls-1" d="M731.85,544.94c-.41-3.25-.75-5.93-1.11-8.81,3.28-1.49,5.91,1.08,8.19,3,1,.81.17,3.78.17,6.37C736.45,543.22,734.22,542.9,731.85,544.94Z"/><path class="cls-1" d="M647.55,557.51a7.72,7.72,0,0,0-7.08,2.14c-2.63,2.33-5.36,4.56-8.31,7.06-.64-2-1.21-3.7-2-6.19,3.57-1.18,7.09-2.41,10.65-3.49a13.48,13.48,0,0,1,4.22-.61,7.24,7.24,0,0,1,2.5,1.17Z"/><path class="cls-1" d="M313.43,661.54l-5.69,7.58c-2.71-.19-3.7-3.22-2.53-10.29Z"/><path class="cls-1" d="M687.26,557.17c.59.69,1.61,1.89,2.76,3.22-2.11.64-4.25,1.33-6.43,1.93a1.53,1.53,0,0,1-1.24-.34c-2-1.87-4.07-3.73-6-5.75-1.63-1.75-1.34-8.89.64-11,.1,1.89.14,3.41.27,4.93.11,1.33.34,2.64.49,4,.26,2.39,1.32,4.57,3.74,4.76C683.33,559,685.22,557.82,687.26,557.17Z"/><path class="cls-1" d="M693.14,550.67,687,554.06c-.3-2.41-.66-4.92-.9-7.45-.15-1.63.86-1.76,2.22-1.64C691.88,545.27,693,547.61,693.14,550.67Z"/><path class="cls-1" d="M351,647.11l-2.88-11.65,4.28-2v13.51Z"/><path class="cls-1" d="M318.23,670.72l2.33-3.87,4.47,2.9Z"/><path class="cls-1" d="M748.65,464.64a8.06,8.06,0,0,1-1.75,1.25c-6.06,2.26-12,4.76-18.22,6.6-10.76,3.2-21.65,6-32.49,8.95-1.86.51-4.25,1.94-5.49,1.27-2.12-1.13-3.8-3.42-5.17-5.55a97.07,97.07,0,0,1-5.12-9.48c-3.08-6.1-6.35-12.14-9-18.42-1.93-4.52-3-9.41-4.53-14.11-.55-1.67,0-2.63,1.58-3,4-.84,8-1.61,12-2.38a72.63,72.63,0,0,0,7.26-1.37c11.57-3.5,23.1-7.13,34.64-10.7a31.39,31.39,0,0,0,5.18-1.56c2.65-1.35,4-.58,5.78,1.73,4.78,6.28,5.82,13.92,8.18,21.05,2.53,7.65,4.33,15.55,6.45,23.34C748.1,462.93,748.32,463.56,748.65,464.64Z"/><path class="cls-1" d="M600.35,417.2a62.22,62.22,0,0,1-2.67-6.48c-2.34-8-7.29-14.6-11.27-21.7-3.48-6.22-7.53-12.11-11.1-18.27-1.2-2.06-1.72-4.51-2.68-7.13,7.86,1.12,14.66-1,21.57-2.71,12.47-3,25-5.85,37.52-8.65a3.54,3.54,0,0,1,2.67,1c5.4,5.33,7.9,12.06,9.74,19.3a89.67,89.67,0,0,0,5.77,15.09c2.36,5.17,5.33,10.06,7.85,15.17,1.53,3.11,0,5-3.86,5-13.64-.19-26.92,2.47-40.18,5.13C609.18,413.86,604.85,415.74,600.35,417.2Z"/><path class="cls-1" d="M685.61,392.41l23.09-4c-7,4.53-14.52,6.69-22.83,5.12C685.79,393.14,685.7,392.78,685.61,392.41Z"/><path class="cls-1" d="M68.34,213.91l4.29,1.75c-.95,4.36-.32,5.39,5.52,8.22a26,26,0,0,1-2.56,3.38c-3,2.86-5.94,2.39-9.1-1.31-2.82-3.29-2.55-6.2.51-8.89C67.81,216.36,68,214.89,68.34,213.91Z"/><path class="cls-1" d="M604.68,564.51c5.8-.08,6.24.3,8.79,7-1.8.81-3.75,1.36-5.24,2.51-.73.57-.89,2.28-.8,3.44.24,3,2.67,4.07,7.68,3.89-.62.62-1.16,1.63-1.88,1.78-5.1,1.09-10.22,2.09-15.36,2.91a3.24,3.24,0,0,1-2.44-1.41c-1.67-2.54-3.06-5.26-4.64-7.86-2.34-3.84-.47-7.51,1.32-10.45,1.06-1.73,4.48-2,7.15-2.54-2.94,2.54-4.51,5.08-2.58,8.83.28.54-.65,1.69-1,2.57-1.67,4.18-.57,7.81,3.11,9a5.76,5.76,0,0,0,4.7-.54c1-.84,1.09-2.93,1.47-4.51.24-1,0-2.24.45-3.08C607.63,572.11,608,568.36,604.68,564.51Z"/></svg>