<svg id="Layer_1" data-name="Layer 1" xmlns="http://www.w3.org/2000/svg" viewBox="0 0 1853.66 855.49"><defs><style>.cls-1{fill:#eee9db;}</style></defs><path class="cls-1" d="M795.93,799.58c2-3.93,3.22-6.83,4.86-9.49,3.32-5.4,3.73-11.71-1.18-18.29-2.27-3-3-7.25-5.42-10.17-3.69-4.51-8.3-8.27-12.32-12.55-9.06-9.63-17.55-19.85-27.15-28.9-5.26-4.95-9.78-11.43-17.92-12.88-7.13-1.28-13.51.49-19.31,4.09-15,9.27-29.69,18.9-44.52,28.37-.55.35-1.23.49-2.89-.15q4.67-5.91,9.35-11.81c7.2-9.1,14-18.52,21.73-27.19,4.94-5.57,11.27-9.9,16.72-15.05,6.37-6,12.26-12.57,18.72-18.49,8.7-8,17.83-15.46,26.59-23.35,4.66-4.19,8.91-8.82,13.4-13.21s9-8.71,13.52-13.08c3.09-3,7.08-5.55,9-9.18,5.49-10.11,15.07-10.88,24.6-11.88,9.2-1,19.21.53,27.53-2.61,13.91-5.24,28.11-10.66,39.86-20.6,8.69-7.35,18.37-13.6,26.64-21.36A25.94,25.94,0,0,0,925,537.48c1.92-13.31-.45-25.87-9.33-36.9-6.46-8-11.41-17.26-18-25.12-8-9.52-17-18-29-23-15.8-6.62-31-14.85-42.58-27.71-6.69-7.44-15-11.54-23-16.73a71.8,71.8,0,0,1-14.23-12.57c-3.12-3.5-5.56-7.23-10.89-5.67s-6.8,5-5.86,11.59a25.37,25.37,0,0,0,.59,2.47,157.87,157.87,0,0,1-51.24-1.4c-4.27-.78-8.84.15-13.26.06-8.36-.18-16.49-1.82-24.71-3.18-6.65-1.09-13.92,2-21,2.72-7.28.73-14.62.72-21.93,1.21-6.39.44-12.75,1.32-19.15,1.59a23.91,23.91,0,0,1-8.8-1.3c-7.34-2.61-14.69-5.13-20.5-10.95-2-2-5.68-2.42-8.64-3.39-1.5-.48-3.27-.28-4.65-.94-9-4.28-18.25-3.77-27.8-2.66-5.25.62-10.68-.48-16-.62-17.22-.44-34.45-.79-51.68-1.24a13.31,13.31,0,0,1-4.14-.78q-26.22-9.48-52.39-19-7-2.54-14-4.95c-4-1.36-7.69-2.64-10.64-6.32s-7.62-3.52-11.76-1.12c-15.39,8.93-31.58,16-49,19.73-12.49,2.68-25.13,6.66-37.65,6.5-11.73-.16-24.06,2.17-35.53-2.73-1.79-.76-3.84-1.57-5-3-6.76-8.21-11.42-6.62-19.21-1.65-6.69,4.27-13.72,6.25-21,8.4s-14.19,5.51-21.52,7.35c-12.18,3.07-24.62,4.21-37.19,2.25a24.87,24.87,0,0,0-5.38-.27c-23.34,1.57-46.45-1.59-69.63-3.32A61.57,61.57,0,0,1,52.81,370c-1.87-1.61-3.21-3.83-4.94-5.63-6.51-6.78-13.07-13.5-19.6-20.26-1.85-1.91-4-3.64-5.38-5.86-3.58-5.94-2.84-10,3-13.6a84.85,84.85,0,0,1,34.18-12.22c23.2-2.84,46.69-5.08,68.41-14.64A69.73,69.73,0,0,1,162,291.54c7.31.47,14.81-1.81,22.22-2.92,16.14-2.42,32.35-4.47,48.38-7.49,8.47-1.59,16.61-4.89,24.9-7.46,28.91-9,57.8-18,86.75-26.87C356.79,243,369.41,239.52,382,236c5.8-1.61,8.6.58,8.87,6.74.15,3.41-.19,6.85.11,10.24.42,4.84,2.22,8.86,8.33,10.34,1.09-9.11,2-17.79,3.27-26.4.46-3,2-5.9,3.26-9.57,9.06,6.81,5.38,17.12,10.84,24,4.19-.59,6.11-4,7.28-7.78s2.32-7.58,2.4-11.4c.1-4.42,2.18-5.25,5.75-4.79,11.24,1.47,22.44,3.7,33.72,4.32,14.2.77,28.17,4.72,42.65,2.34,7.91-1.29,16.13-1.06,24.21-.94,14.64.2,28.45-4.23,42.59-6.9,17.45-3.28,35-6.17,52.39-9.67,13.2-2.66,26.19-6.37,39.4-9,14.09-2.79,28.28-5.25,42.53-7,4.92-.61,10.32.87,15.16,2.43,1.55.5,2.56,4.29,2.86,6.68.91,7.29,4.53,11.08,11.4,10.89,1.78-6.68-1.54-14.95,5.43-20.12,1.32-1,3.46-.85,4.37-1,2.35,5.49,4.16,10.19,6.41,14.67a4.86,4.86,0,0,0,3.87,2.24c1-.09,2.49-1.94,2.77-3.22a44.31,44.31,0,0,0,1.05-9.53c0-4.58,3.12-6.54,6.48-7.13,8.85-1.53,17.49-4.69,26.85-2.73,3.67.77,7.82-1.08,11.66-.73,7.41.66,14.72,2.48,22.13,3,10.89.77,21.84.6,32.74,1.25,13.38.8,26.73,2.46,40.12,2.93,11.44.39,22.91-.35,34.37-.66,4.3-.12,8.59-.41,12.88-.69,8.89-.58,17.77-1.29,26.66-1.8,6.77-.38,13.57-1,20.33-.7,21,.87,41.74,3.32,62.86-1.89,18-4.44,36.9-5.35,55.36-8.11,10.87-1.62,21.63-4,32.5-5.66,14.93-2.26,30-3.8,44.87-6.25,10.31-1.7,20.39-4.71,30.68-6.57,11.34-2.06,22.86-3.17,34.19-5.27s22.48-4.84,33.67-7.44c18.1-4.22,36.26-8.19,54.21-12.92,33.7-8.87,67.29-18.16,100.9-27.37C1464,110,1481.58,105.34,1499,100c10.3-3.16,20.31-7.36,30.29-11.46a26.74,26.74,0,0,0,8.83-5.88c7.75-8,18-9.55,28.05-11.58q25.26-5.1,50.58-9.86,23.25-4.41,46.53-8.57c12-2.17,24.08-4.47,36.19-6.21,8.65-1.25,17.41-2,26.14-2.37,23.88-1.11,47.45-3.74,70-12.38,3.1-1.19,4.86-1.24,6.64,2.94,8.94,21,12.16,43.2,15.86,65.37,2.91,17.47,4,35,4.76,52.74.84,18.8,3.8,37.52,5.81,56.27.16,1.43.11,2.87.18,4.31,1.07,22.32,2.54,44.63,3,67,.23,10.08-1.66,20.2-2.26,30.33-.53,9-.62,18-.87,27a55.74,55.74,0,0,1,0,5.92c-2.14,16.2-3.94,32.46-6.81,48.53-1,5.75-4.47,11.15-7.29,16.46a7,7,0,0,1-5.06,3.12c-9.28.34-18.58.13-27.87.27-4.46.06-8.94.9-13.36.65-8.53-.48-17-1.48-25.54-2.3-1-.1-2.09-.56-3.14-.58-23.7-.39-47.53-2.42-71.09-.74-40.69,2.9-81.36,2.38-122.05,3.12-11.79.22-23.51,3.58-35.29,5.37q-11.07,1.69-22.19,3c-4.81.55-9.67,1.26-14.47,1-21.81-1.06-42.91,3.27-64,7.89-13.67,3-27.51,5.26-41.11,8.51-8,1.92-16,4.74-16.91,15.15-.09,1.14-1.61,2.21-2.57,3.22-9.12,9.58-20,17.62-26.4,29.57-2.26,4.21-3.93,8.75-6.35,12.85-3.59,6.06-6.63,12.89-11.61,17.6-14.49,13.71-25.08,29.76-34.42,47.31-5.47,10.3-14.36,19.17-23,27.32-10.89,10.27-23.11,19.15-34.74,28.64-9.82,8-19.49,16.22-29.51,24a46.65,46.65,0,0,1-11.64,6.21c-12.35,4.81-24.66,9.85-37.33,13.67-7.2,2.17-15.07,2-22.62,3.08-10.2,1.43-20.34,3.26-30.57,4.37-3.64.4-7.45-.79-11.19-1.27-2.47-.31-5.08-1.32-7.38-.83-7.06,1.51-14,3.52-21,5.5a7.48,7.48,0,0,0-3.5,2.37c-10.73,13.12-26.27,18.74-40.89,25.4-12.81,5.83-26.33,10.19-39.71,14.71-9.05,3-18.32,5.52-27.6,7.75-11.25,2.69-19.5,9.94-28.06,17-23.6,19.37-47.89,37.71-76.8,48.69-7.6,2.88-15.31,5.48-23,8.11A62.53,62.53,0,0,1,795.93,799.58Zm99.19-64.76a14.83,14.83,0,0,0-.21-2c-4-13.41-9.87-25.89-19.72-36.05-10-10.33-20.31-20.41-30.56-30.52-.83-.82-2.28-1-3.44-1.52,0,1.29-.45,2.76,0,3.85,2.79,6.71,5.33,13.58,8.82,19.92,4.42,8.05,8.5,16.29,15.74,22.65,6.36,5.58,11.64,12.41,17.3,18.77,1.88,2.13,3.31,4.66,5.24,6.72a3.87,3.87,0,0,0,3.43.91C893.16,737,894.26,735.56,895.12,734.82Zm82.49-113.75c-1.52,6.18.2,10,5.07,12.83,10.37,6.12,20.6,12.47,30.74,19,2.22,1.43,4.29,2.83,5.66-.06.73-1.54.22-4.22-.67-5.89-4.36-8.19-12.67-11.62-20.22-15.77C991.59,627.49,984.65,624.47,977.61,621.07ZM877.09,667.82c-1.75,1.85-3.87,3.13-4.37,4.88s.32,4.08,1.42,5.53c3.91,5.2,8.43,9.94,12.21,15.22,2,2.73,3.69,2.37,5.78,1s4-3,1.75-6c-3.76-5.09-7-10.52-10.84-15.58C881.64,671,879.39,669.72,877.09,667.82Z"/><path class="cls-1" d="M884,556c-9.53-10.59-18.89-20.2-31.56-25.52-23.33-9.81-46.55-11.49-70.09,0-10.48,5.11-22.35,7.78-33.7,5.2-8.33-1.89-15.92-7.38-23.57-11.73-3.21-1.82-5.66-4.91-8.59-7.26-5.54-4.44-11.95-8.07-16.6-13.28-9.78-11-21.35-20.49-27.89-34.22a44.24,44.24,0,0,0-9.28-12.23,11.48,11.48,0,0,0-8.22-2.67c-3.46.34-6.32,2.32-3.92,7,2,3.93,3,8.37,5,12.31,1.28,2.56,3.5,4.66,5.35,6.92,2,2.49,4.48,4.71,6.13,7.42,6.78,11.11,15.07,20.5,26.19,27.7,8.78,5.68,13.54,15.1,15.61,25,.68,3.24-3,8.27-5.9,11.2-6.14,6.12-12.64,12.29-22.32,12.37a3.84,3.84,0,0,0-1.89.94c-14.25,10.43-30.75,16.17-46.91,22.66-10.54,4.23-20.94,8.79-31.38,13.27-5.34,2.3-7.85,7.54-6,12.07,2.18,5.17,7.6,7.57,13.47,5.16,15.1-6.19,30.16-12.52,45-19.21,9.9-4.45,19.55-9.49,29.16-14.53,2.62-1.38,4.64-3.85,7.1-5.59,9.58-6.78,27.31-13.44,38.39-4.35,5.21,4.28,5.41,8.25,1.27,13.61-4.37,5.66-9.5,11.17-8.83,19.33.46,5.75,3.88,9.3,9.53,9.25s8-3.31,9.05-9a77.17,77.17,0,0,1,5.54-16.87,70.83,70.83,0,0,1,7.44-12.83C764.8,559.74,781,545.52,804,541.34c18.77-3.42,36.58-1.08,52.25,10.76,4.41,3.33,8.49,7.11,12.58,10.83,2.34,2.12,1.89,3.8-1.07,5.22-5.59,2.66-11,5.79-16.58,8.35a30.22,30.22,0,0,1-9,2.48c-11.86,1.32-23.78,2.23-35.65,3.55-8.29.92-12.57,7.71-17.79,13-17.39,17.55-34.58,35.29-54.21,50.47-5,3.9-8.82,9.35-13.53,13.71-11.17,10.34-22.58,20.39-33.79,30.68a94.71,94.71,0,0,0-6.59,7.2c-7.5-1.49-14.12-3.15-20.85-4.06-12.51-1.69-22.73-8-32.15-15.7-8.18-6.69-16.92-11.17-27.78-10.3-10.25.83-19.63-1.8-29-6-6.2-2.82-13.09-4.36-19.83-5.7-11.38-2.27-21.19-10.68-22.72-21.69-1.34-9.61-2.66-19.53-1.62-29.06.83-7.66,4.86-15.08,8.07-22.34,9.78-22.07,19.78-44,25.9-67.52,7.54-29,18.87-56.8,31.3-84.09,1.83-4,3.74-8.2,6.53-11.53,1.37-1.64,5.27-2.66,7.33-1.95,9.1,3.11,18,3.13,27.25.9,3.75-.9,7.91.11,11.84-.24,9.73-.86,19.55-1.37,29.1-3.24,6.79-1.33,12.41,1.68,18.59,2.48,1.94.25,3.86.65,5.81.8,14,1.1,28,2.49,42.08,3.1,9.48.41,19-.39,28.53-.47,3.74,0,7.6-.12,11.19.74,6.74,1.6,14.29-1.82,20.39,3.28,7.31,6.1,14.39,12.47,21.9,18.3a222.86,222.86,0,0,0,21.32,14.95c8.19,4.94,17.21,8.53,25.32,13.59,12.64,7.89,19.8,20.75,28.06,32.62,4.89,7,10.14,13.78,10.51,22.69.12,3-.26,7-2.1,8.91C898.91,542.9,891.56,549.1,884,556Z"/><path class="cls-1" d="M670.71,776.25c-.1-10,5.07-17.89,12.71-23.33,13.29-9.46,27.34-17.87,41.14-26.61,4.35-2.76,7.82-2.83,12.41,1.29,12.56,11.26,24.26,23.18,34.29,36.74A24.3,24.3,0,0,0,775,768.2c9.46,8.2,9.41,18.25,2.74,25.78-5.54,6.24-10.87,12.68-16.74,18.6-2.25,2.27-5.75,3.28-8.64,4.95-2.29,1.33-5.44,2.26-6.58,4.28-4.57,8.15-12.78,8.68-20.35,10.71a34.26,34.26,0,0,1-4.16.78c-5.62.73-10.7,1.47-15.61-3.63-4-4.18-10.12-6.34-15.28-9.42-1.36-.81-3-1.43-3.91-2.63C677.53,805.28,669.63,792.49,670.71,776.25Z"/></svg>