
<svg id="Layer_1" data-name="Layer 1" xmlns="http://www.w3.org/2000/svg" viewBox="0 0 654.26 1080"><defs><style>.cls-1{fill:#222222;}</style></defs><path class="cls-1" d="M611.54,565.74c2.7,1.6,5.69,3.13,8.42,5a26.73,26.73,0,0,1,8,8.85c3,5.3,3.89,10.74,1.23,16.47-.61,1.3-1.11,2.65-1.59,4a18.54,18.54,0,0,1-9.7,10.62,7.78,7.78,0,0,0-2.71,1.87,15.68,15.68,0,0,1-8.85,5.76,3.85,3.85,0,0,0-.85.44c1,2.59,2.19,5.1,3,7.71,1.29,4.09,2.34,8.23,4.18,12.17,1.72,3.71,1.19,7.82.67,11.79-.34,2.54-.76,5.07-1.23,7.59a15.51,15.51,0,0,1-3.91,7.91c-3.36,3.57-6.31,7.61-10.84,9.92a7.81,7.81,0,0,0-1.93,1.51c-4.18,4.3-9.51,6.82-14.89,9.05a29.78,29.78,0,0,1-9.85,2.06c-6.65.31-13.32.1-20,.09a11.69,11.69,0,0,1-7.17-2.26,47.85,47.85,0,0,0-6-3.2c.3,7.84-2.92,14.33-5.55,21a25.92,25.92,0,0,1-6.7,9.48,36.76,36.76,0,0,0-3.76,4c-3.76,4.74-8.51,8.28-13.58,11.44a7.35,7.35,0,0,1-2.21,1.05c-4,.87-7.71,2.66-11.42,4.38-2.39,1.1-4.71,2.35-7,3.59-3.74,2-7.58,3.56-11.94,3.57-6.47,0-12.93.14-19.4.26-2.05,0-4.1.15-6.14.35-7.14.72-14.08-.8-21.07-1.81l-16.2-2.34a166.24,166.24,0,0,1-13.71,18.06A15.46,15.46,0,0,1,396,758.5c-3.81,2.78-7.49,5.77-11.5,8.23s-8.31,5.25-13.09,6.68a13.76,13.76,0,0,0-3.39,1.45,16,16,0,0,1-9.43,2.19,106.1,106.1,0,0,1-18.64-1.85c-5.8-1.25-11.72-1.92-17.54-3.1a41.17,41.17,0,0,1-7.21-2.53,42.11,42.11,0,0,1-5.82-2.8c-2.45-1.46-4.79-3.11-7.11-4.78-2.07-1.5-4.07-3.12-6.07-4.71-5.31-4.2-10.79-8.2-15.82-12.71-3.25-2.91-5.84-6.57-8.84-10-1.46.81-1.76,2.42-2.61,3.61-1.23,1.75-2.43,3.53-3.71,5.25a4.74,4.74,0,0,1-1.43,1.14,67.74,67.74,0,0,1-27.92,9.64c-7,.77-14,1.6-21.1,2.18A19.35,19.35,0,0,1,204.05,754a58.13,58.13,0,0,1-24.73-23.73c-1.69-3.07-3.59-6-3.8-9.63-.13-2.44-.07-4.88-.05-7.32,0-.81.16-1.62.31-3-1.18.84-2,1.36-2.77,2a44.66,44.66,0,0,1-24.71,10.73c-4.8.5-9.44-.72-13.86-2.37-16.29-6.11-29.73-16-39.49-30.58-.85-1.28-1.68-2.58-2.56-3.84a43,43,0,0,1-7.31-20c-.86-6.83,0-13.47,1-20.17a113.7,113.7,0,0,1,4.8-19.7c.35-1,.61-2.12,1.07-3.79-1.52.59-2.59,1-3.68,1.41-9.7,3.28-19,2.77-27.65-3.09a19.83,19.83,0,0,1-9-13.69,52.06,52.06,0,0,1-.13-17.12c1.05-6.29,3.31-12.08,8.69-16.35-6.6-3-11.69-7.54-16.18-12.8a28.66,28.66,0,0,1-7-21c.29-4.92,2.66-8.84,5.94-12.17a107.24,107.24,0,0,1,9.47-8.33c4.74-3.81,10.47-5,16.34-5.7,2.23-.26,4.47-.49,7.1-.78.07-2.63.5-5.31.14-7.89-.84-6.11,1.64-11,5-15.68,2.68-3.69,5.81-7.08,10.12-8.74a33.05,33.05,0,0,1,14.43-2.28,13.88,13.88,0,0,0,2.67-.39c2.18-.27,3.38.4,4,2.47,1.46,5.08,4.08,9.6,6.55,14.2a111.19,111.19,0,0,0,12.63,18.13,39.07,39.07,0,0,1,4.87,7.51c-1.16-.54-2.3-1.11-3.47-1.62-1.82-.78-3.13-.49-3.73.77s0,2.58,1.64,3.43c1.28.66,2.59,1.25,3.89,1.85s2.41,1.06,4,1.76c-1.58.87-2.84.45-4.09.4a16.66,16.66,0,0,0-4.24.23,2.25,2.25,0,0,0-1.72,2.83,2.31,2.31,0,0,0,2.62,1.65c6.56-.67,12.46,1.22,18.29,4.11,5.59,2.77,11.4,5.1,16.73,8.41,5.06,3.14,10.18,6.17,15.27,9.24a6.68,6.68,0,0,0,1.86,1c1.7.37,3.12-.17,3.09-1.93,0-2.06,1.27-2.41,2.84-2.3,3.36.24,6.72.57,10.07.88a9.63,9.63,0,0,0,2.72.29c3.91-.9,7.69.25,11.53.52,2.66.18,5.33.1,8,.15a12.54,12.54,0,0,1,3.37.16c3.76,1.16,7.69,1,11.51,1.69a27,27,0,0,1,2.7.57c5.83,1.61,11.63,3.32,17.48,4.84,3.16.82,6.42,1.29,9.63,2,3.49.77,7,1.61,10.45,2.46A30,30,0,0,1,281,565c2.43,1,2.66,3.14.47,4.66-3.67,2.56-8,3.75-12.15,5a57.15,57.15,0,0,1-10.56,1.93c-3.17.29-6.24,1.87-9.31,3-1.41.52-1.26,1.7-.72,2.83s1,2,1.44,2.84a49.66,49.66,0,0,1,4.29,2.94,8.94,8.94,0,0,0,5.41,1.87c2.77.18,4.15,1.65,4.9,4.25a55.05,55.05,0,0,0,2.73,6.43c-1.17,1.48-2.57,3.23-4,5a10.46,10.46,0,0,0-1.26,1.73,2.38,2.38,0,0,0,.68,3.28c1.22.8,2.19.23,3-.66,1.15-1.3,2.2-2.7,3.3-4,.77-1,1.55-1.89,2.59-3.15l6.9,3.93c-.41,1.12-.79,2-1,2.82a1.9,1.9,0,0,0,1.13,2.54,3.66,3.66,0,0,0,2.76-.6,11.54,11.54,0,0,0,2-2.82c5.61,2.56,10.14.42,14.21-3.09,3.17-2.75,6.07-5.81,9.16-8.66,1.8-1.67,3.78-3.15,5.59-4.81a32.39,32.39,0,0,0,4-4.22c2.19-3,4.06-6.18,7.8-7.56.53-.19.87-.85,1.33-1.25a5.17,5.17,0,0,1,3.91-1.36c3,.16,6,.08,8.57,1.87a2.57,2.57,0,0,0,.87.3c4.42.79,8.85,1.5,13.25,2.38,3.59.72,7.13,1.68,10.72,2.46,2.55.55,5.12,1,8.07,1.51-1.16.66-2.19,1.23-3.19,1.82-1.55.9-2.05,2-1.48,3.23s1.93,1.52,3.5.79a58.72,58.72,0,0,0,5.7-3,3.48,3.48,0,0,0,1.82-4.08c6.16-3,11.64-3.23,16.37,2.75-1.73,1-3.58,1.9-5.37,3a33,33,0,0,0-4.59,3,2.1,2.1,0,0,0-.37,3.25c.82.88,2,.78,3.3-.11,1.6-1.07,3.26-2,4.91-3.05,1.31-.8,2.63-1.57,3.94-2.37a7.55,7.55,0,0,1,1.55-1c4.57-1.32,9.06-2.89,13.88-3.38,7-.71,13.86.51,20.77,1.1,2.24.19,4.49.38,6.72.7a16.27,16.27,0,0,1,4.17,1,70.35,70.35,0,0,0,10.07,3.67c3,.81,5.62,2.87,8.45,4.3s5.91,2.83,8.87,4.24a4.53,4.53,0,0,0,.86.34,2.35,2.35,0,0,0,2.93-1,2,2,0,0,0-.81-2.94c-1.76-1-3.65-1.86-5.49-2.74-2.11-1-4.23-2-6.43-3,1.26-3,3.42-4.84,5.46-6.83a29.65,29.65,0,0,0,3.38-3.88,2.41,2.41,0,0,1,2.93-1c2.58.67,5.14,1.39,7.72,2a17.69,17.69,0,0,0,2.72.42,1.89,1.89,0,0,0,2.2-1.68,3.73,3.73,0,0,0-1.33-2.46,5.7,5.7,0,0,0-2.33-.7l-8.71-2.19a40.91,40.91,0,0,0,2.1-5.16c.58-2.25,1.33-4.65,1.07-6.87s-2.3-4-4.15-5.39c-1-.81-2.36-1.31-3.3-2.21a2.78,2.78,0,0,1-.77-2.35,3,3,0,0,1,2.11-1.35,12.74,12.74,0,0,1,3.36.18,3.52,3.52,0,0,0,4-2.64,20.4,20.4,0,0,0,.93-4.18,2.67,2.67,0,0,1,2.46-2.67c1.32-.19,2.64-.34,4-.47a22,22,0,0,0,3.65-.37c7.51-2.13,14.85-4.66,21.11-9.57,1.69-1.33,3.34-2.7,5.05-4a10.63,10.63,0,0,1,2.29-1.5,50.66,50.66,0,0,1,7.42-2.9c4.85-1.21,9.78-2.12,14.7-3,.73-.14,1.57.36,2.37.48a1.77,1.77,0,0,0,2.23-1.15,2,2,0,0,0-1-2.6,4.41,4.41,0,0,0-2-.49c-3.15.3-6.29.69-9.42,1.12-1.09.14-2.16.48-3.73.85.5-.9.63-1.56,1-1.8,2.14-1.33,4.11-3.12,7-2.7a4.74,4.74,0,0,0,1.81-.24c1.7-.47,2.5-1.51,2.13-2.82s-1.49-1.83-2.86-1.73c-.85.06-1.71.1-2.57.15l-.32-.6c.62-.74,1.21-1.5,1.85-2.22,2.51-2.84,5.12-5.6,7.53-8.52,1.35-1.65,2.31-3.6,3.54-5.36a69.55,69.55,0,0,1,4.76-6.38c.65-.73,2-.94,3.07-1.17a11.19,11.19,0,0,1,3.36-.28c5.18.48,10.18-1,15.28-1.36,8.77-.63,16.73,1.45,23.42,7.27,3.7,3.23,5.94,7.6,7.75,12.09,1.24,3.11,2,6.41,3,9.82,7.45.93,13,5.25,17.59,11.07,3.67,4.67,4.64,10,4.15,15.9a30.81,30.81,0,0,1-7.87,18C618.11,562.69,618,562.89,611.54,565.74ZM361.17,648.55l4.63-1.61c3.17-1.11,6.33-2.27,9.52-3.29,2-.66,4.15-1.07,6.22-1.66,1.86-.53,3.7-1.13,5.54-1.74a2.35,2.35,0,0,0,1.82-2.8c-.19-1.27-1.46-2-3.11-1.71a11.36,11.36,0,0,0-1.78.46q-12,3.76-23.91,7.54c-1.36.42-2.13,1.19-1.93,2.67S359.63,648.21,361.17,648.55Zm171-53.26.05-.18a9.93,9.93,0,0,0,1.22,0,2.23,2.23,0,0,0,2.14-2.22,2.06,2.06,0,0,0-2.06-2.25c-4.12-.16-7.56-2.41-11.35-3.52-4-1.18-8.15-1.79-12.24-2.62a1.16,1.16,0,0,0-.89.12c-.71.64-1.83,1.32-1.89,2.06s.85,1.72,1.59,2.24a4.86,4.86,0,0,0,2.37.41,31.43,31.43,0,0,1,12.69,3.12,33.17,33.17,0,0,0,4.54,1.84C529.59,594.7,530.9,595,532.17,595.29ZM165.69,566c-1.87,0-3,1.19-2.73,2.68a15,15,0,0,0,1.42,3.35c1.34,2.75,2.78,5.46,4,8.26,1,2.14,1.69,4.4,2.57,6.58a9.76,9.76,0,0,0,1.25,2.45c.76,1,1.68,1.91,3.12,1.12,1.25-.69,1.61-1.86,1-3.44-.89-2.19-1.77-4.37-2.76-6.51-2-4.26-4-8.5-6.15-12.69A7.49,7.49,0,0,0,165.69,566ZM408.5,642c1.9,0,3.13-.81,3.18-2.09a2.65,2.65,0,0,0-2.1-2.66,4,4,0,0,0-.6-.14c-4.61-.82-9.22-1.66-13.83-2.44-.58-.1-1.41-.17-1.77.15a4.23,4.23,0,0,0-1.6,2.3c-.07.63.79,1.5,1.42,2,.4.35,1.15.29,1.74.39l12.62,2.3ZM547.88,540c-2.38.39-5.67,1-9,1.44-1.37.18-2.45.46-2.56,2a2.57,2.57,0,0,0,2.54,2.59,10.56,10.56,0,0,0,3.59-.59,14.41,14.41,0,0,1,7.25-.7,22.19,22.19,0,0,0,4.89.31,2.09,2.09,0,0,0,2.22-2.09,2,2,0,0,0-1.83-2.39C553,540.41,550.92,540.28,547.88,540Zm-90,75.4c1.93.11,3.12-1.3,2.66-2.91a9.33,9.33,0,0,0-1.7-3.22c-1.59-2-3.3-3.9-5.05-5.77a18.67,18.67,0,0,0-3-2.61,2.06,2.06,0,0,0-3,.45,2.11,2.11,0,0,0,0,2.82c.36.49.86.88,1.25,1.34,2.45,2.88,4.87,5.77,7.34,8.62A10.08,10.08,0,0,0,457.89,615.42Zm-343.5-81.37c1.64-.35,3.45-.65,5.21-1.14a2.06,2.06,0,0,0,1.4-2.43c-.09-1.08-.71-1.9-1.68-1.83a33.33,33.33,0,0,0-6.29,1,2.13,2.13,0,0,0-1.36,2.75C112,533.62,113,534.13,114.39,534.05Zm19.78,19.07c-.32.18-1.35.44-1.43.87-.38,2-1.93,3-2.93,4.48a2.38,2.38,0,0,0,.09,2.23,2.65,2.65,0,0,0,2.14.71c2-.24,4.73-3.5,4.78-5.45A2.75,2.75,0,0,0,134.17,553.12Zm63.24,11.78c1.48,0,2.77-1.81,1.82-3a22,22,0,0,0-5.09-4.63c-1.36-.89-3.08.75-2.8,2.4C191.52,560.71,196.37,564.88,197.41,564.9Zm-75.89-45.26c1.2-.09,2.31-.24,2.53-1.71a2.11,2.11,0,0,0-1.87-2.66c-1.1-.24-2.17-.58-3.28-.75a2.66,2.66,0,0,0-2.87,1.77,2.22,2.22,0,0,0,1.9,2.65C119.12,519.25,120.34,519.41,121.52,519.64ZM404.46,593.7c-2,.11-2.5,1.26-2.94,2.43s-1.21,2.47.09,3.35a3.55,3.55,0,0,0,2.78.16c1.15-.41,2.16-3.26,1.61-4.31A7.39,7.39,0,0,0,404.46,593.7ZM180.2,613.33c0,1.61.86,2.69,2.21,2.75,1.56.08,2.56-1.18,2.5-3.14,0-1.62-1-2.65-2.35-2.6S180.2,611.56,180.2,613.33Zm372.09-16.59c.08-1.42-1.88-3.36-3.38-3.34a2.25,2.25,0,0,0-2.12,2.16,3.49,3.49,0,0,0,3,3.25A2.17,2.17,0,0,0,552.29,596.74Zm-127,49.58a2.35,2.35,0,0,0,2.66-2.24,2.87,2.87,0,0,0-2.82-2.92,2.64,2.64,0,0,0-2.48,2.58A2.37,2.37,0,0,0,425.31,646.32ZM569.15,540.89a2.33,2.33,0,0,0-2.5,2.14,3,3,0,0,0,3.08,2.75A2.41,2.41,0,0,0,572,543.4,2.62,2.62,0,0,0,569.15,540.89Zm-122.29,118a2.35,2.35,0,0,0-2.53-2.08,2.68,2.68,0,0,0-2.73,2.65,2.59,2.59,0,0,0,2.52,2.18A3,3,0,0,0,446.86,658.89ZM108.55,514.4a2.54,2.54,0,0,0-2.29,2.39,2.42,2.42,0,0,0,2.49,2.47,2.29,2.29,0,0,0,2.14-2.19A2.59,2.59,0,0,0,108.55,514.4Zm-5.27,17.73a2.56,2.56,0,0,0-2.58,2.43,2,2,0,0,0,1.94,2.28,2.51,2.51,0,0,0,2.74-2.55A2.19,2.19,0,0,0,103.28,532.13ZM123,566a2.17,2.17,0,0,0-2.11,2.46,2.13,2.13,0,0,0,2.21,2.06A2.27,2.27,0,0,0,123,566Zm86.14,3.15a2.1,2.1,0,0,0-2.33-1.88,2,2,0,0,0-1.89,2,2.23,2.23,0,0,0,2.19,2.08A2.19,2.19,0,0,0,209.12,569.11Z"/><path class="cls-1" d="M260,431.84l1.86-6a11.69,11.69,0,0,0,6.57-5.18,4.46,4.46,0,0,1,5.07-2c7.61,1.5,15.3,1.38,23,1.43a10.85,10.85,0,0,0,7.39-2.55,62.79,62.79,0,0,0,5.29-5.16c1.36-1.47,1.36-2.8.26-3.78s-2.3-.78-3.79.62a30.06,30.06,0,0,0-2.71,2.94,9.47,9.47,0,0,1-7.83,3.6c-1.33,0-2.68.1-4,0q-8.25-.78-16.49-1.68c-3-.34-5.89-.49-8.51,1.58a17.61,17.61,0,0,0,4.12-11.92,3.72,3.72,0,0,1,.46-2.05c1.93-2.88,1.79-6.26,2.37-9.45.53-2.92.92-5.87,1.49-8.78a11.08,11.08,0,0,1,1.15-2.82,8.83,8.83,0,0,0,.77-6.55,36.59,36.59,0,0,1-.85-11.55c3.68-2.56,3.45-5.34-.52-7.32-2.76-1.38-5.13-6.15-4.58-9.23.5-2.81,1-5.62,1.49-8.41.57,0,1-.12,1.14,0,2.88,2.39,6.31,3.77,9.58,5.47a19.08,19.08,0,0,1,5.32,4.55,53.86,53.86,0,0,0,8,7.6,64.16,64.16,0,0,1,5.9,5.77c.43.43.73,1.19,1.21,1.32a3.42,3.42,0,0,0,2.53-.05,3.11,3.11,0,0,0,.61-2.4,3.47,3.47,0,0,0-1.13-1.77,69.39,69.39,0,0,0-6.25-5.89,46.09,46.09,0,0,1-7.77-7.39c-2.09-2.56-4.45-4.9-7.64-6.06-3.84-1.41-6.9-4-10-6.5-1.33-1.09-2.62-2.23-3.68-3.13a33.26,33.26,0,0,0,1.55-4.41c.33-1.65-.8-2.85-1.71-4.13a12.38,12.38,0,0,1-1.4-3,16.63,16.63,0,0,0-4.23-7,6.45,6.45,0,0,1-1.38-7.36,86.89,86.89,0,0,1,3.82-8.4A76.63,76.63,0,0,0,273.3,274c.36-1.81.85-3.59,1.29-5.38s-.1-2.85-1.34-3.28-2.53.29-3,1.92c-.6,1.95-.87,4-1.35,6-.9,3.64-1.85,7.28-2.78,10.92l-.65.1c-.64-1-1.28-1.95-1.93-2.92-1.38-2-2.71-4.11-4.18-6.08a7.28,7.28,0,0,0-2.11-1.73,2,2,0,0,0-2.73.57,1.85,1.85,0,0,0,.1,2.76c4,3.55,6,8.56,9.19,12.81-1.41,2.95-2.67,6-4.27,8.84-2.28,4.06-2.28,8.25-1.07,12.51a5.47,5.47,0,0,0,2.22,2.79,8.51,8.51,0,0,1,3.25,4.69,23.45,23.45,0,0,0,1.34,3.41,3.88,3.88,0,0,1,.36,2.91,24.82,24.82,0,0,0-.31,4.88,2.85,2.85,0,0,0,.63,2c2.37,2.06,1.76,4.63,1.29,7.09-1.17,6.14-2.83,12.2-3.64,18.38-1.08,8.32-3.84,16.13-6.43,24-.66,2-2.05,3.76-3,5.67q-1.6,3.14-3,6.35c-.71,1.59-1.31,3.22-1.91,4.86a9.55,9.55,0,0,0-.7,2.64c-.23,3.9-2.61,6.18-5.78,7.86-4.34,2.3-8.7,4.55-13,6.85-.63.33-1.18.83-1.82,1.14-7.53,3.72-15.05,7.47-22.61,11.11-3.87,1.86-7.85,3.5-11.74,5.31-1.36.63-2.63,1.2-4,0,0-3.57-.44-7.21.13-10.69a13.58,13.58,0,0,0-2.24-9.62,47.82,47.82,0,0,0-5.79-7.12,9.26,9.26,0,0,0-3-1.58c-.89-.41-1.83-.72-3.09-1.2,2-1.86,3.65-3.44,5.31-5.06s3.12-3.25,4.78-4.78q4.27-3.94,8.71-7.75a3,3,0,0,1,2-.58,19.46,19.46,0,0,0,9.23-2c4.07-1.77,7.77-.85,11.32,1.33,2.45,1.5,4.83,3.12,7.25,4.66,1.67,1.07,3,1,3.78-.19s.4-2.58-1.08-3.7-3-2.07-4.58-3.1c0-.19,0-.46.1-.5,1.14-.54,2.32-1.1,2.12-2.64a2.92,2.92,0,0,0-2.52-2.41,40.06,40.06,0,0,0-5.13-.71c-1.32-.11-2.65,0-4.34,0-.28-3.19-.62-6.32-.83-9.46-.12-1.84.06-3.7,0-5.55a18.12,18.12,0,0,1,1.27-6.9,47.18,47.18,0,0,0,1.77-6.49c.79-4.14,3-10.51,5.11-13.7.28.29.51.54.74.8a2.14,2.14,0,0,0,3,.48,2.4,2.4,0,0,0,.88-3,26.32,26.32,0,0,0-1.52-4,26.08,26.08,0,0,1-2.57-12.18c0-6.56,0-13.14.46-19.67a107.89,107.89,0,0,1,2.15-14.26c1.84-8.91,3.75-17.81,6-26.62,1.53-6,2.41-12.27,6-17.68,4.79-7.28,11-12.66,19.41-15.25l5-1.53L265.4,230a63.25,63.25,0,0,0,4.29,6.75c4.12,5,6.28,11,8.78,16.82,1.56,3.65,3.56,7.12,5.35,10.67.41.82.76,1.68,1.2,2.49,2,3.79,4,7.66,6.18,11.34a138,138,0,0,1,11,23.7A52.17,52.17,0,0,0,307,311c2.29,3.64,4.91,7.08,7.38,10.6a2,2,0,0,1,.31.53c1.29,4.33,3.94,7.81,6.84,11.15a20.08,20.08,0,0,0,1.35,1.67,21.18,21.18,0,0,1,6.93,14c0,.41.08.82.11,1.23a19.52,19.52,0,0,0,5.84,13.1c3.67,3.65,6.49,8.17,9.61,12.37a23.3,23.3,0,0,0,6.29,6.23c2.55,1.58,3.73,4.35,5,6.86a22.57,22.57,0,0,0,3.77,5.55c3.07,3.15,6,6.39,9,9.61,4,4.34,8.06,8.68,12,13.06a22.17,22.17,0,0,0,3.55,3.62,16.6,16.6,0,0,0,1,3.64c1.48,2.7,1.62,4.18-.31,6.43-2.74,3.23-5.78,6.11-10,7.43a15.49,15.49,0,0,0-3.59,1.69,2,2,0,0,0-.91,2.67,2.18,2.18,0,0,0,2.8,1.32c4.32-1.39,8.59-3,11.78-6.39,2.5-2.63,5.46-5,6-9,2.42,1.12,2.57,1.16,2,3.79s.38,5,1.86,7.17a5.87,5.87,0,0,0,1.05,1.12,2,2,0,0,0,2.79.13,2,2,0,0,0,.68-2.72c-.39-.71-.9-1.36-1.31-2.06-.9-1.51-.88-1.76.2-4.05.84.26,1.71.49,2.56.81,3.18,1.19,6.37,2.13,9.86,1.81a5.47,5.47,0,0,1,3.42,1,58.68,58.68,0,0,1,5.48,4.87,5.7,5.7,0,0,1,.76,1.8c-1.28.24-2.35.41-3.41.65-9.66,2.22-18.48,6.55-27.27,11a56.18,56.18,0,0,1-11.32,4.7,26.69,26.69,0,0,1-10.35.3c-6.94-1.11-13.23-.29-18.91,4.06a21,21,0,0,1-4.2,2.55,10.23,10.23,0,0,1-8,.31,28.83,28.83,0,0,0-10.84-1.88,4.14,4.14,0,0,0-2.35.46,3,3,0,0,0-1.17,2.22c.1.69,1.09,1.28,1.75,1.84.19.15.6.09.91.07a25.56,25.56,0,0,1,10.55,1.67c5.88,2,11.21.47,15.86-3.24s9.67-4.06,15.12-3.39c6.07.74,12.05.88,17.66-2.27,1.59-.9,3.46-1.27,5.13-2.06a21.29,21.29,0,0,0,4.48-2.62,12.55,12.55,0,0,1,5.47-2.6,37.61,37.61,0,0,0,11.1-4.34,23.27,23.27,0,0,1,6.67-2.21c1-.22,2.11.32,3.18.51l.05.75-5.46,1.28a28.62,28.62,0,0,0-4.16,1A2.44,2.44,0,0,0,410,453.8c.54,1.53,1.8,1.54,3.06,1.29A87.07,87.07,0,0,0,429,450.5c2.79-1.16,6-1.35,8.95-2.08,2.79-.68,5.54-1.5,8.3-2.25a16,16,0,0,1,3.26-.84C456,445,462,442.93,468,441c2.4-.77,4.85-1.37,7.86-2.21a47.62,47.62,0,0,1-3,5,5.87,5.87,0,0,1-2.54,1.49c-4.9,1.81-9.82,3.55-14.73,5.33-1.34.49-2.69.94-3.33,2.48-.19.48-.9.74-1.38,1.11a39.43,39.43,0,0,0-5,4c-4.35,4.76-8.34,9.87-12.82,14.51-4.11,4.24-7.17,9.49-12.18,12.87a88,88,0,0,0-11.65,10c-1.63,1.56-4,2.39-6,3.54a5.77,5.77,0,0,0-1.34.74c-3.18,3.25-7.39,4.75-11.32,6.72a157.26,157.26,0,0,1-23.82,9.87,32.52,32.52,0,0,1-9.65,1.65c-4.28,0-8.56.41-12.85.58a19.11,19.11,0,0,1-4.28-.16c-6.83-1.25-13.63-.79-20.49-.2a16.19,16.19,0,0,1-7.05-1.45c-4.42-1.74-8.29-4.47-12.54-6.46-2-.92-3.61-2.78-6.19-2.07-.44.12-1.17-.39-1.61-.78-6.66-5.81-14.81-9.14-22.33-13.52-5.38-3.15-10.72-6.41-15.86-9.94-4.36-3-9.22-4.89-13.85-7.28-3.72-1.92-7.51-3.63-10.45-6.82-1.58-1.71-3.93-2.73-5.44-4.48a16.26,16.26,0,0,0-4.14-3.39,14.91,14.91,0,0,0-3.67-1.5c-4.84-1.33-9.73-2.49-14.55-3.88a35.56,35.56,0,0,0-17.33-.46,3.57,3.57,0,0,1-2.32-.08c-2.08-1.26-4-2.74-6.65-4.57l5.09-.24a94.77,94.77,0,0,1,27.17,2.43,13.33,13.33,0,0,1,1.77.52c3.81,1.49,7.56,3.16,11.65,3.81a8.53,8.53,0,0,1,2.27.92c6.52,3.25,12.87,6.74,18.24,11.78A37.62,37.62,0,0,0,254.26,479c1.86.7,3.4,2.22,5.12,3.33,1.37.89,2.76,1.76,4.18,2.56a2.29,2.29,0,0,0,3.25-.71,2.48,2.48,0,0,0-1-3.45c-4.56-2.52-8.63-5.78-13.48-7.95-3.83-1.72-7-5-10.4-7.56-3.92-2.93-7.54-6.34-12.4-7.83a7.66,7.66,0,0,1-2.29-1.53c-2.22-1.8-4.85-2.51-7.57-3.1a33.16,33.16,0,0,1-5-1.38,70.89,70.89,0,0,0-24.37-4.48c-7.18-.18-14.37.26-21.56.17-4.39-.06-8.78-.59-13.17-.95a8,8,0,0,1-1.68-.59c4.75-.94,9.17-1.75,13.57-2.69,5.76-1.23,11.53-2.46,17.25-3.86,2.57-.63,5.06-1.62,7.57-2.51.94-.33,1.84-.84,3-1.37.55,2.8,2.43,3.26,4.67,3.11a22.58,22.58,0,0,1,2.45-.17c1,0,2.21-.08,3,.42a54.48,54.48,0,0,0,15.32,6.94,8.14,8.14,0,0,1,2.47,1.22,12.42,12.42,0,0,0,7.45,2.48c4,0,8,.26,12,.18,2,0,3-1.12,2.83-2.46s-1.5-2.22-3.25-2.16c-1.09,0-2.18.19-3.63.31a7.08,7.08,0,0,1,4.07-3.39c2.91-1.27,5.84-2.5,8.66-3.93,3.14-1.58,6.52-1.36,9.66-.84,4.65.78,9.31,1.37,14,1.88,5.45.6,10.44,2.88,15.53,4.77,8.13,3,16.19,3.42,23.91-1.4a11.24,11.24,0,0,0,1.53-1c1.19-1,1.57-2.56.8-3.52a2.41,2.41,0,0,0-3.32-.51c-1.09.57-2.11,1.27-3.2,1.84-5.77,3.05-11.71,2.65-17.57.47-6.06-2.25-12-4.65-18.55-5.36-4.47-.48-8.91-1.21-13.36-1.85A2.11,2.11,0,0,1,260,431.84Zm107.09,75.38c.77-.24,1.67-.47,2.52-.81a158.88,158.88,0,0,0,23.19-11.33A49.3,49.3,0,0,0,403.22,487a38.12,38.12,0,0,1,4.2-3.6,107,107,0,0,0,13.51-12.55c4-4.46,8.34-8.5,13.78-11.18,2.58-1.27,5.18-2.5,7.66-3.94a26.51,26.51,0,0,0,4.1-3.16c.88-.79.52-1.7-.23-2.41a2.44,2.44,0,0,0-3.12-.21c-4.25,2.26-8.57,4.4-12.74,6.8A43.48,43.48,0,0,0,420.1,465c-5.43,5.87-11,11.6-17.61,16.28a39.33,39.33,0,0,0-3,2.65,35.51,35.51,0,0,1-4.63,4c-4.62,2.85-9.27,5.69-14.11,8.13s-9.76,4.27-14.65,6.39c-1.58.69-2.15,1.74-1.77,3.1S365.78,507.12,367.08,507.22Zm-16.49-10.89c-1.55.25-3.39.43-5.16.87a2.3,2.3,0,0,0-1.88,2.74,2.24,2.24,0,0,0,2.52,1.79c.6,0,1.21-.23,1.81-.24a25.47,25.47,0,0,1,5.79,0c4.65,1,8.68-.34,12.58-2.64,2.81-1.66,5.68-3.24,8.47-4.95,5.26-3.24,10.24-6.77,13.64-12.16a12.48,12.48,0,0,1,3.77-3.49c6.44-4.19,13-8.27,19.46-12.39a8.7,8.7,0,0,0,1.74-1.24c.71-.77,1.23-1.67.57-2.77a2.35,2.35,0,0,0-2.91-1.1,6.33,6.33,0,0,0-1.64.83q-10.11,6.42-20.22,12.87a13.53,13.53,0,0,0-4.81,4.64c-2.75,4.8-7.21,7.76-11.74,10.59-2.86,1.79-5.83,3.4-8.67,5.2a12.32,12.32,0,0,1-9.37,1.95C353.34,496.59,352.11,496.52,350.59,496.33Zm-23.06,9.45v0l.92,0c1.33,0,2.49-.22,2.72-1.83.21-1.46-.5-2.33-2.28-2.69-1.1-.21-2.23-.29-3.34-.5-3.1-.61-6.18-1.47-9.32-1.85a26.69,26.69,0,0,1-12.85-4.57,22.09,22.09,0,0,0-6.48-2.67,21.56,21.56,0,0,1-8.8-4.83c-1.87-1.73-4-3.14-6-4.76a27.78,27.78,0,0,1-4.28-3.88,13.68,13.68,0,0,0-7-4.79c-2.27-.66-4.55-1.25-6.34-3a3.25,3.25,0,0,0-1.69-.67c-1.05-.16-2.2-.06-2.56,1.14a2.31,2.31,0,0,0,1,2.91,30.08,30.08,0,0,0,7.12,3.52,10.62,10.62,0,0,1,4.75,2.58,43,43,0,0,0,8.53,7.47,26.15,26.15,0,0,1,3.3,2.75A22.46,22.46,0,0,0,295.31,496a23.23,23.23,0,0,1,8.3,3.84,17.75,17.75,0,0,0,7.64,3c4.64.77,9.22,1.84,13.84,2.74A19.74,19.74,0,0,0,327.53,505.78Zm29.6-99.69a10.4,10.4,0,0,1-2.52-.16c-3.58-1.2-7.18-2.38-10.68-3.8a17.92,17.92,0,0,1-9.46-8.39c-2-3.88-5.09-6.9-8.3-9.81-5-4.53-9.52-9.64-15.78-12.6-1.13-.53-2.09-.81-3.07.13a2.21,2.21,0,0,0-.06,3.31,23.94,23.94,0,0,0,3.45,2.47c2,1.4,4.08,2.69,6,4.21,1.67,1.35,3.07,3,4.7,4.42a42.72,42.72,0,0,1,10.15,11.85,15.24,15.24,0,0,0,6.89,6.81c4.08,1.89,8.21,3.69,12.4,5.33a16.9,16.9,0,0,0,4.84.78,8.43,8.43,0,0,0,8-4.58,2.48,2.48,0,0,0-1.18-3.37C359.94,401.34,358.13,402.38,357.13,406.09Zm-54.64,61.75c1.12,0,1.95.05,2.76,0,2.43-.18,3.78-1.33,3.53-2.93s-1.48-2-4-1.9c-6.76.23-13.53.14-20.11-1.65-4.82-1.32-9.57-3-14.3-4.63a86.66,86.66,0,0,0-26.68-5.24,9.75,9.75,0,0,0-1.53,0,2.19,2.19,0,0,0-2.07,2,2,2,0,0,0,1.59,2.31,27.31,27.31,0,0,0,3.92.61c1.93.16,3.89.12,5.81.35,7.88,1,15.35,3.51,22.74,6.24C283.44,466.41,293,467.6,302.49,467.84Zm-42.11-23.4c-1.3,0-3.35,0-5.4,0a2,2,0,0,0-2.23,2,2.18,2.18,0,0,0,2.16,2.46c1.22.13,2.47,0,3.69.05,4.09.18,8.21.1,12.24.67a97,97,0,0,1,22.28,5.55c4.67,1.84,9.46,1.35,14.25.7a6.15,6.15,0,0,0,1.72-.63,2,2,0,0,0,1-2.84,4.66,4.66,0,0,0-2.38-1.5c-.38-.15-1,.27-1.46.35-3.45.58-6.91.95-10.35,0-4.32-1.24-8.61-2.61-12.94-3.79A74.85,74.85,0,0,0,260.38,444.44Zm63.78,5.91,0,.18c-.41,0-.82,0-1.22,0-2,.14-3,1-3,2.42s.82,2,3,2.25c3.34.44,6.68.93,10,1.62s6.45.92,9.45-1.11a31,31,0,0,1,4.56-2.5c4-1.81,7.76-4.1,12.31-4.27a22,22,0,0,0,4.54-.75,2.6,2.6,0,0,0,2.13-3.17c-.43-1.53-1.53-2-3.42-1.6-1.69.37-3.4.64-5.1,1-1.19.23-2.4.4-3.56.74a40.35,40.35,0,0,0-11.1,5.05,11.47,11.47,0,0,1-10.44,1.68A60.73,60.73,0,0,0,324.16,450.35ZM334.57,491a2.44,2.44,0,0,0,2.78-1.91c.3-1.62-.7-2.81-2.66-3-2.64-.27-5.31-.3-7.93-.69a49.14,49.14,0,0,1-7.4-1.65,54.72,54.72,0,0,1-5.94-2.47c-2.25-1-4.49-2-6.7-3-1.85-.89-3.63-1.91-5.45-2.84s-3.64-1.89-5.52-2.68a2.31,2.31,0,0,0-3.09,1.22,2.07,2.07,0,0,0,1,2.88,27.07,27.07,0,0,0,2.48,1.21c3.39,1.7,6.72,3.5,10.16,5.08,4.26,2,8.61,3.77,12.92,5.64a5.62,5.62,0,0,0,.58.19C324.41,490.28,329.24,490.22,334.57,491ZM318,404.07c-1.3.27-2.39.44-2.78,1.81s.25,2.25,1.7,2.87c.46.2,1,.23,1.46.44,2.69,1.23,5.55,2.21,8,3.81,3,1.95,5.61,4.43,8.4,6.68a24.16,24.16,0,0,0,2.43,1.87,1.85,1.85,0,0,0,2.69-.61,4.36,4.36,0,0,0,.19-2.55c-.05-.42-.6-.8-1-1.15-4.21-3.92-8.54-7.69-13.73-10.26C323,405.81,320.47,405,318,404.07ZM272.87,296.49a14.86,14.86,0,0,0,1.18,3.09q5.74,8.87,11.66,17.62c1,1.45,2.32,1.77,3.41,1.07s1.46-1.93.6-3.47c-1.24-2.23-2.65-4.36-4-6.51-2.78-4.38-6.43-8.21-8.3-13.17a2.07,2.07,0,0,0-2.73-1.35A2.64,2.64,0,0,0,272.87,296.49ZM351.19,491.4c1-.25,1.48-.36,2-.51,7.76-2.29,14-7,19.85-12.38a2.45,2.45,0,0,0,.24-3.34,2.18,2.18,0,0,0-3.28-.26c-1.69,1.32-3.29,2.76-5,4a52,52,0,0,1-6,4.11c-2.49,1.35-5.18,2.37-7.79,3.52a2.34,2.34,0,0,0-1.58,2.94C349.82,490.31,350.72,490.88,351.19,491.4Zm7.63-62.28c4-.65,7.41-1.28,10.85-1.74,2.82-.38,5.67-.58,8.51-.85,1.67-.16,2.76-1.08,2.72-2.31s-1-2.18-2.75-2.32a12.64,12.64,0,0,0-2.75,0q-7.42,1-14.83,2.17a10.11,10.11,0,0,0-2.34.68,2,2,0,0,0-1.15,2.78C357.43,428.33,358.43,428.79,358.82,429.12ZM344.42,478c5.25-.11,9.53-2.58,13.56-5.63a1.9,1.9,0,0,0,.45-2.74,3.44,3.44,0,0,0-2.29-1,3.82,3.82,0,0,0-2.21.86c-3,2.18-6.23,3.83-10.11,3.67a4.6,4.6,0,0,0-1.18.28,2.2,2.2,0,0,0-1.95,2.38A2.4,2.4,0,0,0,343.2,478Zm-42.6-80.66a2.29,2.29,0,0,0,2.76-1.73,2.22,2.22,0,0,0-1.56-2.66,16.29,16.29,0,0,0-3-.77,5.82,5.82,0,0,1-4.81-3.76,10.19,10.19,0,0,0-1.43-2.36,2.31,2.31,0,0,0-2.95-.94c-1.11.47-1.48,1.67-1,3.18.09.29.28.54.38.83C292.13,394.59,296.54,396.55,301.82,397.31Zm29,82.26a2.35,2.35,0,0,0,2.74-1.81,2.17,2.17,0,0,0-1.82-2.74c-2.59-.08-4.69-1.26-6.93-2.29-1.55-.71-2.9-.2-3.43,1-.62,1.43.17,2.4,1.27,3.1A17.35,17.35,0,0,0,330.86,479.57Zm11.64,30.58V510c.93,0,1.85,0,2.77,0,2.09-.06,3.09-.76,3.16-2.14s-1-2.26-3-2.42c-.31,0-.62,0-.93,0-1.81-.12-3.64-.19-5.45-.39s-2.84.26-3.12,1.63.45,2.69,2.26,3.06A35.66,35.66,0,0,0,342.5,510.15ZM233.65,391.68a2.11,2.11,0,0,0-2.27,2.28,4,4,0,0,0,3.25,3.54,2.42,2.42,0,0,0,2.54-2.12C237.27,394,235.13,391.75,233.65,391.68Zm33.28,95a3.75,3.75,0,0,0,3.43,3.29,2.33,2.33,0,0,0,2.25-2.41c-.07-1.36-2.24-3.45-3.51-3.38A2.43,2.43,0,0,0,266.93,486.72Zm19.75,14.07c1.79,0,2.64-.68,2.6-2.21S288,496,286.14,495.9a2.28,2.28,0,0,0-2.58,2.34C283.55,499.91,284.57,500.74,286.68,500.79Zm39.39-70.23a2.42,2.42,0,0,0-2.23,2.42,3.06,3.06,0,0,0,2.83,3,2.38,2.38,0,0,0,2.48-2.17A3.79,3.79,0,0,0,326.07,430.56Zm30.95,75a2.38,2.38,0,0,0-2.36,2.34,2,2,0,0,0,2.13,2.12,2.42,2.42,0,0,0,2.55-2.46A2.27,2.27,0,0,0,357,505.57Z"/><path class="cls-1" d="M304.12,130.57l3.2-6.1c.7-1.34.69-1.35-.8-2.93l-3,4c-.48-.33-.89-.47-.93-.67-.7-3.83-1.28-7.68-.22-11.52.46-1.68,1.09-3.35,3.32-4.06,2.45,2.61.78,6,1.58,9,1.1.42,1.72-.31,1.92-1.22a26,26,0,0,0,1-6.31c-.13-4.76.87-9.35,1.69-14a34,34,0,0,1,3.85-10.94,26.16,26.16,0,0,1,8.86-9.18c2.42-1.54,5-2.89,7.53-4.18a12.51,12.51,0,0,1,4.07-1.35c7-.75,14.1-1.43,21.18-1a15.4,15.4,0,0,1,10.37,4.68,50.79,50.79,0,0,1,10.37,16.2c1,2.42,2.52,4.63,3.59,7a21.75,21.75,0,0,1,1.6,5.28c.41,2.62.43,5.3.76,7.94.25,2-1.2,2.93-2.2,4.17-1.61,2-1.58,2.35.56,4.26,1-1.5,2-3,3-4.47s.67-3.41,2.74-4.53a8.37,8.37,0,0,1,.32,1.87c-.33,4.25-.7,8.5-1.08,12.75-.26,2.85-1.29,4.08-4.08,4.74l-2.32-5c-.39,1-.82,1.53-.73,2a12.29,12.29,0,0,0,4.46,7.46,7.75,7.75,0,0,1,2.12,2.85c1,2.22,1.84,4.56,2.84,6.81a12.85,12.85,0,0,0,5.38,6.11,14.4,14.4,0,0,1,4,4.13c1.66,2.34,3.05,4.87,4.54,7.32a14.07,14.07,0,0,1,.86,1.63c1.56,3.57,3,7.17,4.68,10.7a19.23,19.23,0,0,1,2,8.6c-.11,5.74-.31,11.48-.38,17.22,0,4.09.66,7.84,4.23,10.65s3.94,6.67,3.59,11.44a23.29,23.29,0,0,0-2.25-2.1,16.11,16.11,0,0,0-2.42-1.08c.16,1.12.25,1.78.37,2.65-2.13.49-2.6,2.24-2.87,4.13-.62,4.35-1.25,8.7-1.92,13-.2,1.27-.57,2.51-.86,3.76l-.67-.05c-.1-3.15-.15-6.3-.33-9.45a17.42,17.42,0,0,0-.71-4.19,2.19,2.19,0,0,0-2.92-1.55c-1.36.39-1.53,1.48-1.46,2.7.31,5.2.71,10.39.83,15.59a29.46,29.46,0,0,1-.95,5.67c-.58,3.13-.17,3.66,3.42,4-.1,1.77-.21,3.56-.32,5.27-4,.68-3.8.71-4.29,4.5-.39,3.08-.41,6.38-3,8.82-.46.44-.51,1.29-.77,1.95-2.36,6-4.74,12-7.26,18.36a11.78,11.78,0,0,0-1.1-1.38c-1.49-1.28-2.85-1.1-3.7.67a25.39,25.39,0,0,0-1.18,3.8c-.66,2.15-1.23,4.34-2,6.44a16,16,0,0,1-1.91,2.88l-.57-.28c.12-1.09.25-2.17.35-3.26a18.27,18.27,0,0,0,.2-2.75c-.1-1.62-.87-2.43-2.2-2.41a2.33,2.33,0,0,0-2.45,2.27c-.13.91-.16,1.84-.24,2.76-.26,3.27-1.37,5.91-4.78,7.15a19.46,19.46,0,0,0-3.58,2.33A75.75,75.75,0,0,1,369.2,299c.1-.4.27-.78.37-1.18.49-1.88,0-3.14-1.37-3.54s-2.66.29-3.22,2.13c-.7,2.34-1.12,4.78-1.62,7.18-1.15,5.5-2,11.08-3.51,16.46-.69,2.45-2.68,4.53-4.12,6.74-.11.16-.56.1-.92.15.14-3.12.31-6.17.42-9.22.07-1.8-.62-2.84-1.9-3.06a2.5,2.5,0,0,0-2.76,2.31,38.84,38.84,0,0,0-.43,5.5c-.07,1.74,0,3.49,0,5.25l-3.86,1.86a52.8,52.8,0,0,1-3-6c-1.39-3.81-4.3-5.87-7.72-7.48-.64-.31-1.31-.56-1.65-.71-.7-1.62-1.26-3-1.86-4.3-.67-1.5-1.42-3-2-4.47-.51-1.28-1.23-2.16-2.71-2-1.33.18-1.91,1.16-1.75,3.09.08,1,.36,2,.57,3.08a10.27,10.27,0,0,1-6.26-5.1c-5.17-8.58-7-18.06-8.48-27.73q-1-6.36-1.91-12.74c-.29-1.93-1.48-3.2-2.84-3s-2.15,1.4-2,3.31a49,49,0,0,0,.72,5.79c1.56,8.66,2.76,17.41,5.48,25.82.58,1.81,1.23,3.6,1.95,5.71-.55-.34-.79-.4-.89-.56-3.82-6.18-8.33-11.94-11.38-18.59a3.63,3.63,0,0,1-.33-.86c-1.26-7.35-4.11-14.34-4.68-21.85a27.58,27.58,0,0,0-1.39-6c-.59-1.87-1.87-2.61-3.17-2.16s-1.92,1.76-1.48,3.57c.54,2.17,1.15,4.32,1.75,6.56-.43,0-.68.06-.73,0-2.55-4.24-6.08-7.86-7.61-12.8-1-3.29-2.95-6.3-4.53-9.57,1.56-1.52,1.21-3.46,1-5.41-.29-3.26-.53-6.53-.64-9.8a16.24,16.24,0,0,1,.55-3.9c.39-1.78-.31-3.27-1.83-3.65-1.25-.3-2.29.46-2.85,2.16-.19.58-.27,1.18-.46,2.08-3.4-.46-6.79-.63-10.24-1.69a17.23,17.23,0,0,1,.66-1.84c2.3-4.6,3.6-9.56,5.15-14.43a13.68,13.68,0,0,1,1.9-4.18c2.41-3.16,4.18-6.79,7.3-9.44a16.36,16.36,0,0,0,5.15-9.26,5.86,5.86,0,0,0,0-2.73c-1.13-4,0-7.7,1.66-11.3a7.12,7.12,0,0,0,.59-1.08c.9-3.49,3-6.21,5.26-8.95s3.85-6,5.78-9.07c1.05-1.67,2.05-3.33,1.88-5.42a2.52,2.52,0,0,1,1.12-2.34c1.26-1,2.34-2.27,3.5-3.41.44-.43.88-1.15,1.36-1.19,3.4-.29,4.15-3.75,6.46-5.34,1.08-.73.83-2.46-.08-3.27a2.12,2.12,0,0,0-3.06,0c-1.08.93-2,2.06-3,3.07a4.61,4.61,0,0,1-.94.57Zm29.57,26.75a14.06,14.06,0,0,0-3.86,9.43c-.08,3.7-.15,7.34-1.41,10.89a2.24,2.24,0,0,0,1.43,3.18,2.27,2.27,0,0,0,2.92-1.58,16.41,16.41,0,0,0,1.19-8.42c-.62-3.56-.43-6.89,2.06-9.85a3.34,3.34,0,0,0,.48-2.8c-.45-1.26-1.71-1.25-2.88-.79l3.09-1.65c2,.34,3.44,1,4.63.7a6.63,6.63,0,0,1,6.06.91c1.67,1.19,2.69.73,3.68-1.09.22-.4.39-.83.59-1.27.89.37,1.65.68,2.4,1s1.41.63,2.19,1c-2.74,2.42-2.78,2.8-.66,5.64.07.09.13.16.19.25,2.29,3.35,4,6.89,3.79,11.09a10.38,10.38,0,0,0,1.79,6.1c1.29,2.07,2.55,2.71,3.88,1.91s1.44-2.17.08-4.29c-.91-1.42-1.81-2.89-1.33-4.57s-.1-3.22-.59-4.77a33.19,33.19,0,0,0-6-10.88l5.57-.27a15.26,15.26,0,0,0,.83,2c1.3,2.18,2.27,4.79,4.11,6.38a17.69,17.69,0,0,1,4.42,6.12,29.57,29.57,0,0,0,1.85,3.53,2.08,2.08,0,0,0,3,.66,2,2,0,0,0,.91-2.89c-.89-1.73-1.7-3.5-2.61-5.22a13.8,13.8,0,0,0-4.33-5.08,7.32,7.32,0,0,1-3.07-6.4,10,10,0,0,1,2-1.43c2.1-.77,4.26-1.4,6.4-2.07,1.84-.57,2.19-1.1,1.5-2.88a3.6,3.6,0,0,0-1.49-1.73,2.85,2.85,0,0,1-1.66-2c-.34-1.49-.85-2.94-1.3-4.4q-.82-2.64-1.68-5.26a4.9,4.9,0,0,0-.52-1.11c-.79-1.23-1.65-2.36-3.36-2.31s-1.86,1.58-2.23,2.88c-3.85-1.38-6.72-4.91-10.83-3.75a33,33,0,0,0-1.85-4.8,2.34,2.34,0,0,0-3.15-1.15c-1.3.61-1.77,1.71-1.08,3.34a7.45,7.45,0,0,1,.39,4.92,63.55,63.55,0,0,1-6.45,1.78,4.59,4.59,0,0,1-4.79-2.05c-1.18-1.65-.66-2.89.26-4.47a19.93,19.93,0,0,0,2.76-9.27c.11-3.26-.09-6.53-.19-9.79a2,2,0,0,0-1.67-2.23,2.21,2.21,0,0,0-2.8,1.75,21,21,0,0,0,0,4.88c.24,2.67.52,5.29-.64,7.85a75.93,75.93,0,0,0-3.09,7.62,2.61,2.61,0,0,1-2.26,2.1c-5.48.88-8.46,4.47-10.34,9.4-.95,2.49-2.25,4.83-5.23,5.54a14,14,0,0,0-2.55,1.06c-2.22,1-2.46,2.77-.58,4.23a10.68,10.68,0,0,0,1.42.8c-.41,2-.91,3.74-1.11,5.54a5.48,5.48,0,0,1-1.69,3.75,13.51,13.51,0,0,0-2.5,4.18,2.1,2.1,0,0,0,1.09,2.86,2,2,0,0,0,2.74-.67c2.32-3.39,5.65-6.31,4.88-11.15-.23-1.43.64-2.74,2.34-3.42l4.24,2.9c-.21.46-.31.74-.45,1-2.05,3.82-4,7.62-2.69,12.24.28,1-.3,2.36-.75,3.44-.56,1.31-1.53,2.44-2.1,3.75-.69,1.6-.2,3,1,3.44s2.43-.1,3.26-1.54c.61-1.07,1.12-2.2,1.83-3.2,1.58-2.24,2.27-4.6,1.16-7.23-.86-2-.24-3.8.7-5.57.78-1.43,1.51-2.89,2.32-4.3a2.25,2.25,0,0,1,1.06-1C330.13,158.19,331.92,157.78,333.69,157.32ZM394.05,257.6c2.15-1.5,1.92-3.61,1.87-5.67-.07-3-.09-5.91-.18-8.86-.15-4.6-.21-9.2-.55-13.79a81.09,81.09,0,0,0-1.33-8.16,2.39,2.39,0,0,0-2.5-2.23c-1.32,0-2.14,1.07-2.18,2.81a5.59,5.59,0,0,0,.18,1.83c1.41,4.14,1.4,8.45,1.66,12.74.09,1.42.37,2.84.35,4.26-.07,4.6-.32,9.2-.28,13.79,0,1.15.86,2.29,1.26,3.28a30.21,30.21,0,0,0-1.28,4.14c-.31,1.81-.26,3.67-.46,5.5-.51,4.57-1.07,9.14-1.6,13.7-.16,1.34.1,2.49,1.57,2.95,1.26.39,2.38-.36,2.93-2a10.38,10.38,0,0,0,.38-2.1c.16-1.42.28-2.85.44-4.27.53-4.67,1.09-9.34,1.59-14C396.09,259.92,396.06,258.35,394.05,257.6ZM347.23,100.07v.33a8.94,8.94,0,0,0,1.8-.33c2.29-.89,4.6-1.74,6.8-2.8a8.12,8.12,0,0,1,5-1c2.72.44,5.45.78,8.17,1.19,1.59.24,3-.4,3.22-1.64.27-1.43-.59-2.33-1.75-2.94a4.36,4.36,0,0,0-1.47-.42,80.42,80.42,0,0,0-8.85-1,12.6,12.6,0,0,0-5.61,1.17c-3.46,1.66-6.79,3.13-10.79,2.22-1.67-.38-3.48,0-5.2-.27-4.46-.58-8.89-1.33-13.33-2-1.9-.26-3,.52-3.22,2s.88,2.69,2.76,2.91c4.25.52,8.49,1.17,12.75,1.66C340.75,99.58,344,99.79,347.23,100.07Zm-14.38-19.6c-2.13.4-4,.71-5.93,1.16a2.19,2.19,0,0,0-1.79,2.23,2.14,2.14,0,0,0,2.14,2.21,22.54,22.54,0,0,0,3.61-.45c1-.13,2.14-.66,2.95-.33a38.68,38.68,0,0,0,11.69,2.41,17,17,0,0,0,6.65-.36c3.54-1.21,6.85-1.86,10.37-.16a2.06,2.06,0,0,0,2.87-1,2.11,2.11,0,0,0-.7-2.75,6.28,6.28,0,0,0-4.4-1.88c-3.06.16-6.14,0-9.06,1.33a6.86,6.86,0,0,1-3.59.65c-3.83-.6-7.79-.56-11.43-2.21A16.89,16.89,0,0,0,332.85,80.47ZM292.16,182a31.07,31.07,0,0,1-2,2.59c-1.43,1.59-3.07,3-4.37,4.69a8.09,8.09,0,0,0-1.28,3.41,2,2,0,0,0,1.72,2.49,1.93,1.93,0,0,0,2.39-1.41,6.32,6.32,0,0,1,1.09-2.13c1.37-1.51,2.87-2.91,4.32-4.35,1.58-1.59,2.7-3.39,2.41-5.73a24,24,0,0,0-1-5.71,7.12,7.12,0,0,1-.24-5.32c.53-1.44,1-2.9,1.57-4.31a2.14,2.14,0,0,0-.89-2.91,2.1,2.1,0,0,0-2.8.34,2.56,2.56,0,0,0-.76,1c-1.47,4.14-3.18,8.23-1.18,12.75C291.77,178.63,291.79,180.14,292.16,182Zm6.43-19.73a5,5,0,0,0,1.41-.64c3.42-2.75,7.14-5.26,7.26-10.39a3.3,3.3,0,0,1,1.42-2.44,7.76,7.76,0,0,0,3.42-3.8,10.16,10.16,0,0,1,4.65-4.69,15.48,15.48,0,0,0,1.86-1.07c1.29-.94,1.62-2.12.88-3.14a2.24,2.24,0,0,0-3.22-.78c-3,2.06-6.43,3.66-8.14,7.23a5.46,5.46,0,0,1-2,2.19,6,6,0,0,0-3.18,4.95c-.13,3.12-1.85,5.06-4.05,6.85a12.09,12.09,0,0,0-2.36,2.38C295.6,160.31,296.67,162.16,298.59,162.28Zm94.34-8.45a8.16,8.16,0,0,0-1.62-1.9,10.89,10.89,0,0,1-4.07-5.24c-2.11-5.71-5.82-10.5-9-15.57a5.59,5.59,0,0,0-2.29-1.93,2.16,2.16,0,0,0-2.93.89,2.11,2.11,0,0,0,.28,2.79,14.27,14.27,0,0,1,2.17,2.54c2.45,4.93,6.25,9.05,8.21,14.3a12,12,0,0,0,6.12,6.63C391.36,157.11,393,156,392.93,153.83Zm13.12,30.6c-.68-3.3-1.2-6.64-2.07-9.89a64.83,64.83,0,0,0-3.33-9.88,34.06,34.06,0,0,0-4.51-6.89c-1.1-1.39-2.51-1.33-3.44-.25s-.75,2.18.13,3.31c1.19,1.53,2.68,3,3.29,4.78,1.7,4.92,3.06,10,4.42,15a40.27,40.27,0,0,1,.42,4.28c.28,1.77,1.51,2.83,2.85,2.64S405.78,186.21,406.05,184.43ZM384,247.61c.2-6.63-.93-12.54-2-18.48-.28-1.6-.14-3.26-.33-4.88a2.18,2.18,0,0,0-2.49-2.12,1.94,1.94,0,0,0-1.94,2.27c.12,2.75-.14,5.61.51,8.23,1.51,6.05,1.63,12.13,1.41,18.26-.08,1.93.65,3.07,2,3.21a2.77,2.77,0,0,0,2.73-2.76A31.5,31.5,0,0,0,384,247.61Zm-55.2,47.48c0-.2,0-.41-.06-.61a144.41,144.41,0,0,1-3.33-24,6.54,6.54,0,0,0-.44-1.78,2.19,2.19,0,0,0-2.63-1.59,2.08,2.08,0,0,0-1.77,2.19,22.2,22.2,0,0,0,.08,2.45c.21,2.14.42,4.28.73,6.4q1.2,8.32,2.49,16.65a5,5,0,0,0,.51,1.44c.62,1.21,1.55,1.95,3,1.52S328.83,296.28,328.79,295.09ZM383.41,263c-.06-2-.93-3.16-2.22-3.25a2.62,2.62,0,0,0-2.59,2.52c-.52,3.42-.91,6.87-1.35,10.31l-1.44,11.52a8.53,8.53,0,0,0-.27,2.71,2.68,2.68,0,0,0,1.46,1.72,2.76,2.76,0,0,0,2.2-.51,3.54,3.54,0,0,0,1.11-2.09c.55-3.73,1-7.48,1.46-11.22.41-3.33.81-6.67,1.25-10A13.81,13.81,0,0,1,383.41,263Zm-10.55-10q-.27-6-.55-11.92c-.12-2.55-.22-5.1-.42-7.64s-1.24-3.74-2.86-3.49-2.27,1.79-2,4.2.41,4.67.56,7c.22,3.57.38,7.14.6,10.7a7.75,7.75,0,0,0,.41,2.08,2.19,2.19,0,0,0,2.54,1.71A2,2,0,0,0,372.86,253Zm-17.33-14.71h-.28c0-3.49.06-7,0-10.47,0-2.27-1.12-3.52-2.69-3.42s-2.29,1.42-2.21,3.76q.24,6.92.4,13.84c0,2.15-.05,4.31,0,6.47.08,1.85,1.15,2.79,2.68,2.6,1.31-.16,2.08-1.31,2.07-3C355.51,244.82,355.53,241.55,355.53,238.27Zm-53-30.26a6.82,6.82,0,0,0,1.62,1.81,1.81,1.81,0,0,0,2.57-1,29.87,29.87,0,0,0,1.48-5.27c.46-2.34,1.42-4.26,3.63-5.37l4.07-2.08c1.69-.86,2.28-2.66,1.05-3.7a3.1,3.1,0,0,0-2.47-.66c-1.5.51-2.82,1.55-4.29,2.21C304.38,196.63,303.72,202.16,302.57,208Zm13.81,28.25c.44,4.69.78,8.85,1.25,13a11.7,11.7,0,0,0,1,3.51c.7,1.55,2,2.08,3.2,1.5a2.31,2.31,0,0,0,1.21-3.09c-1.53-4.83-1.52-9.83-1.7-14.8a4.26,4.26,0,0,0-.28-2.09,3.65,3.65,0,0,0-2-1.56,2.49,2.49,0,0,0-1.92,1.17A7.51,7.51,0,0,0,316.38,236.26Zm78.77-43.71c-.58-4.33-.92-8-1.6-11.59a47.58,47.58,0,0,0-2.15-7,2.39,2.39,0,0,0-2.9-1.68,2.73,2.73,0,0,0-1.53,3.25,2.69,2.69,0,0,0,.26.89c2.11,3.57,2.29,7.56,2.59,11.54a17.49,17.49,0,0,0,.83,4.19c.49,1.51,2,1.74,3.29,1.69C394.51,193.81,395,192.69,395.15,192.55Zm-45.57-16.18a38.07,38.07,0,0,0,.24,4,2.44,2.44,0,0,0,2.6,2.08,2.72,2.72,0,0,0,1.94-2.79c-.1-2-.11-4.09-.38-6.1a8.87,8.87,0,0,0-1.2-3.71,8.57,8.57,0,0,1-1.43-5.21,10.67,10.67,0,0,0-.1-3.05,2.61,2.61,0,0,0-1.52-1.65,2.63,2.63,0,0,0-2.12.71,3,3,0,0,0-.9,2.17,31.53,31.53,0,0,0,1.45,7.14C349,172.23,350.19,174.27,349.58,176.37ZM336,282.61l-.18,0c.55,4.56,1.09,9.12,1.68,13.67a2.22,2.22,0,0,0,.6,1.38c.6.48,1.45,1.14,2,1a2.83,2.83,0,0,0,2-3.74c-.44-3.54-1-7.08-1.39-10.62-.19-1.62-.14-3.27-.31-4.89a2.14,2.14,0,0,0-2.46-2.12,2,2,0,0,0-2,2.21Zm3.69-26.05c-.14-4.5-.26-9-.43-13.49-.07-1.78-.88-2.64-2.27-2.71a2.44,2.44,0,0,0-2.27,2.7c.19,4.59.12,9.18.28,13.77.08,2.23,1.25,3.53,2.72,3.46S339.88,259.06,339.65,256.56Zm33.09,15.26-.22,0c0-.51,0-1,0-1.53,0-2.62-.82-3.88-2.41-3.87s-2.34,1.34-2.54,3.88c-.27,3.34-.72,6.66-1.07,10a25.19,25.19,0,0,0-.12,2.75,2.08,2.08,0,0,0,2,2.28,2.27,2.27,0,0,0,2.63-2C371.64,279.47,372.17,275.64,372.74,271.82Zm4.48-117.55c-2.3,0-3.43,1.74-2.41,3.25a55.16,55.16,0,0,0,4.39,5.07q1.89,2.17,3.72,4.41c.39.47.6,1.08,1,1.55,1.06,1.28,2.45,1.59,3.48.78,1.21-1,1.09-2.13.37-3.29-1.62-2.6-3-5.33-5.81-7-1.25-.77-2.08-2.19-3.14-3.28C378.21,155.1,377.55,154.57,377.22,154.27ZM364,122.15c1.65-.21,8.71-3.71,9.75-5a2.34,2.34,0,0,0,.26-3.09c-.83-1.09-2-.94-3.07-.38a39.52,39.52,0,0,0-4.73,2.73c-1.81,1.29-3.33,1.71-5.15-.08a3,3,0,0,0-2.78,0,2.46,2.46,0,0,0-.81,2.29,4.75,4.75,0,0,0,2.14,2.35A24.54,24.54,0,0,0,364,122.15Zm-56.15,126c-.48-3-.88-5.43-1.25-7.85-.26-1.71-.35-3.46-.76-5.14a2.05,2.05,0,0,0-3.12-1.29,3.05,3.05,0,0,0-1.22,2.23c.36,4,.92,7.9,1.46,11.84a2.64,2.64,0,0,0,.53,1.09c.74,1,1.8,1.6,2.91.93A5.74,5.74,0,0,0,307.86,248.12ZM355.67,295h.1c0-1.75.07-3.49,0-5.23-.06-1.14-.37-2.25-1.79-2.53-1.69-.34-2.91.6-3,2.54-.13,3.38-.17,6.77-.21,10.15a3.05,3.05,0,0,0,.28,1.79c.52.69,1.3,1.54,2,1.59a3.06,3.06,0,0,0,2.1-1.36,4.66,4.66,0,0,0,.49-2.34C355.72,298.11,355.67,296.57,355.67,295ZM341.22,175.65c.35-5.13-.68-10.21,2.51-14.64a2,2,0,0,0-.68-3,2.41,2.41,0,0,0-3.23.76,7.48,7.48,0,0,0-.58,1.08c-2,4.09-2.3,8.46-1.95,12.89C337.46,174.9,338.54,175.55,341.22,175.65Zm-53.46,41.07a5.4,5.4,0,0,0,.27-.86c.05-4.15.2-8.22,4.12-11a2.45,2.45,0,0,0,.17-2.41,3.08,3.08,0,0,0-2.53-1,5.49,5.49,0,0,0-2.65,1.91c-3.11,3.8-3.76,8.24-3.24,13Zm35-95.43c2.36-.14,4-.18,5.61-.36a2.18,2.18,0,0,0,2.23-2.4c-.07-1.29-.94-2-2.54-2.08a2.4,2.4,0,0,0-.6.07c-3.06.7-5.83.34-8.08-2.09a.88.88,0,0,0-.25-.18c-1.56-1-2.65-.85-3.48.33a2.54,2.54,0,0,0,1,3.67,32.69,32.69,0,0,0,3.65,2.23A14,14,0,0,0,322.74,121.29Zm33.13,149.4c0-1.52.05-3.05,0-4.57s-1-2.75-2.19-2.88A2.66,2.66,0,0,0,351,266c-.14,2.24-.09,4.48,0,6.72a23,23,0,0,0,.37,3.31A2.11,2.11,0,0,0,354,278a2.16,2.16,0,0,0,1.91-2.38C355.85,274,355.87,272.32,355.87,270.69ZM354,203.16l-.15,0c.08-1,.2-2,.24-3.06a1.89,1.89,0,0,0-1.67-2.21,2.22,2.22,0,0,0-2.71,1.48,12.17,12.17,0,0,0-.52,3c-.11,2.12-.09,4.26-.13,6.39a6.73,6.73,0,0,0-.05,2.14,2.89,2.89,0,0,0,1.35,1.75,2.57,2.57,0,0,0,2.14-.6,3.76,3.76,0,0,0,.92-2.16C353.64,207.65,353.76,205.4,354,203.16Zm-77.27,8.77c1.19,0,1.88-.58,2.56-2.29,1-2.51,1.33-5.39,4.26-6.76.43-.2.71-1.62.44-2.17s-1.38-1.56-2-1.48c-1.24.15-3,.57-3.49,1.47a54.43,54.43,0,0,0-3.93,8.61A2,2,0,0,0,276.68,211.93Zm43.86-5.81c0,1.62.58,2.89,1.6,2.83a4.06,4.06,0,0,0,2.5-1.27c.57-.62.64-1.68,1-2.52.84-1.94,1.62-3.92,2.6-5.78.86-1.63.95-2.69-.07-3.53a2.62,2.62,0,0,0-3.77.68A25,25,0,0,0,320.54,206.12Zm56-10.54c-1.62,0-2.32.75-2.37,2.15-.08,2.3,1.62,3.18,3.31,3.93,2.11.94,4.49,1.16,6.22,3.06a2,2,0,0,0,3-.34,2.12,2.12,0,0,0,.09-2.81,7.2,7.2,0,0,0-4.43-3c-1.64-.43-3.43-.58-4.5-2.28C377.6,195.82,376.84,195.72,376.55,195.58Zm-40.68,25.78-.19,0a54,54,0,0,0,1,6,2.38,2.38,0,0,0,3.14,1.66,2.2,2.2,0,0,0,1.27-3,16.59,16.59,0,0,1-.34-7.86,2.4,2.4,0,0,0-1.84-3c-1.35-.24-2.43.56-2.73,2.24C336,218.69,336,220,335.87,221.36Zm70.18-30.88c-1.79,0-3,1.14-2.84,2.7a55,55,0,0,0,1.39,8.06,2.32,2.32,0,0,0,3.06,1.77c1.3-.43,1.76-1.52,1.41-3.22-.5-2.48-.86-5-1.51-7.43C407.34,191.55,406.42,190.93,406.05,190.48ZM354.42,78.35c1.62.13,2.63-.41,2.94-1.51s-.53-2.33-2.07-2.92a5.4,5.4,0,0,0-1.17-.34c-1.91-.24-3.82-.5-5.74-.67s-3,.65-3.16,2.06.67,2.55,2.53,2.78C350,78,352.2,78.16,354.42,78.35ZM302.27,181a14.08,14.08,0,0,0,0,1.6c.24,1.67,1.2,2.61,2.57,2.45,1.57-.19,1.72-1.3,1.84-2.65.2-2.29.11-4.67,1.79-6.63a1.81,1.81,0,0,0-.54-2.7,1.92,1.92,0,0,0-2.77.12,6.17,6.17,0,0,0-1.54,2.24C303,177.48,302.61,179.59,302.27,181Zm56.1,17.52a18.46,18.46,0,0,0,1.77,2.2c1.23,1.19,2.58,2.26,3.89,3.36.39.32.85.82,1.26.81a4.94,4.94,0,0,0,2.76-.56,1.75,1.75,0,0,0-.15-2.72,77,77,0,0,0-6.08-5.5C360.37,195,358.4,196.22,358.37,198.54Zm-42.31,22,.13,0v1.22c0,2.06.47,2.89,1.75,3s2.55-1,2.76-2.65c.3-2.31.58-4.61.79-6.92.14-1.52-.82-2.93-2-2.94a2.31,2.31,0,0,0-2.41,2.24C316.73,216.55,316.39,218.55,316.06,220.54Zm-14.67-28.91c-2.42,0-7.29,2.87-8.45,4.94a2.07,2.07,0,0,0,.17,2.53,2,2,0,0,0,2.74.47,5.41,5.41,0,0,0,1.19-.95,8.43,8.43,0,0,1,5-2.7,2,2,0,0,0,2-2.48C303.92,192.13,303.16,191.62,301.39,191.63Zm33.8,13.82.41.12a14.07,14.07,0,0,0,0,2.43,2.52,2.52,0,0,0,2.71,2.3,2.36,2.36,0,0,0,1.77-3,4,4,0,0,1,1.21-4.38,1.88,1.88,0,0,0,.3-2.49,2.08,2.08,0,0,0-2.56-1.11,4.28,4.28,0,0,0-2.34,1.66A27.48,27.48,0,0,0,335.19,205.45Zm71.4,13.83c-1.3-2.64-2.49-5.33-3.94-7.87a1.9,1.9,0,0,0-2.78-.27c-1.14.77-1,1.91-.56,3,.76,2,1.53,4,2.27,6a2.41,2.41,0,0,0,2.47,1.91C405.26,222,406.17,220.86,406.59,219.28Zm-7.7-12c2.17,0,3.27-1.89,2.11-3.31a45.47,45.47,0,0,0-6.12-5.89,2.62,2.62,0,0,0-2.42.46,3.23,3.23,0,0,0-.59,2.44c.07.59.78,1.15,1.29,1.62,1.34,1.23,2.72,2.43,4.12,3.59A13.9,13.9,0,0,0,398.89,207.29ZM291.58,242.34l.18,0a37.31,37.31,0,0,0-.8-4.49,2.41,2.41,0,0,0-3.13-1.7c-1.25.32-1.69,1.22-1.44,2.91.16,1.1.33,2.21.44,3.32.07.72,0,1.45.09,2.15a2.43,2.43,0,0,0,2.5,2.22,2.36,2.36,0,0,0,2.16-2.53Zm79.75-26.43c-.09-1.73-.14-3.47-.27-5.2s-1.08-2.79-2.3-2.74a2.67,2.67,0,0,0-2.34,2.78,36.18,36.18,0,0,0,.5,5.78,2.38,2.38,0,0,0,2.6,2.09A2.26,2.26,0,0,0,371.33,215.91Zm11.82-32.65c-.88-1.56-1.66-3.18-2.66-4.66a2.35,2.35,0,0,0-3.42-.82c-1.08.95-1,2.1-.37,3.32a35.5,35.5,0,0,1,1.45,3.28c.55,1.41,1.57,2.19,2.72,1.86C382.24,185.86,382.76,184.81,383.15,183.26ZM306.5,218.79h0a5.48,5.48,0,0,0-.06-2.11c-.33-.75-1-1.7-1.65-1.84a2.59,2.59,0,0,0-2.27,1,8.43,8.43,0,0,0-.62,6.2c.38,1.14,1.16,2,2.46,1.84a2.42,2.42,0,0,0,2.09-2.31C306.56,220.62,306.5,219.7,306.5,218.79Zm103.71-9.25a2.41,2.41,0,0,0-2.31,3.24,19,19,0,0,0,2.54,4.11c1,1.31,2.21,1.49,3.19.77s1-2.1.11-3.54c-.7-1.1-1.26-2.29-2-3.34A6.58,6.58,0,0,0,410.21,209.54ZM284.73,225.17a9.75,9.75,0,0,0,.23,2.14,2.25,2.25,0,0,0,2.53,1.72,2,2,0,0,0,1.82-2.09c.05-1,.28-2,.35-3a2.3,2.3,0,0,0-1.89-2.69A2.36,2.36,0,0,0,285,223.1,14.54,14.54,0,0,0,284.73,225.17Zm54.14-44.09c.08.93.08,1.54.19,2.14.28,1.48,1.25,2.21,2.52,2s1.76-1.16,1.43-2.75a35.69,35.69,0,0,0-.88-3.53c-.16-.5-.75-1.35-.92-1.3a3.34,3.34,0,0,0-1.91,1.15A6.57,6.57,0,0,0,338.87,181.08ZM390,214a33.73,33.73,0,0,0,.15-4,2.2,2.2,0,0,0-1.78-2.21,2.09,2.09,0,0,0-2.56,1.64,21,21,0,0,0-.32,3.41Zm-62-28.86a2.75,2.75,0,0,0-2.5,2.57,2.26,2.26,0,0,0,2.08,2.51,2.44,2.44,0,0,0,2.5-2.49A2.49,2.49,0,0,0,328,185.18Zm13.58,125a2.36,2.36,0,0,0-2.32,2.3,2.3,2.3,0,0,0,2.08,2.51,2.41,2.41,0,1,0,.24-4.81ZM370.64,187a2.17,2.17,0,0,0-2.16-2.11,2.23,2.23,0,0,0-2.1,2.2,2.13,2.13,0,0,0,4.26-.09Zm-27.78,5.38a1.82,1.82,0,0,0-2-1.73,2.37,2.37,0,0,0-2.16,2.17,2.09,2.09,0,0,0,2,1.9A2.39,2.39,0,0,0,342.86,192.4Zm36.49-1.87,4.9,1.82c-.17-1.92,0-3.56-1.93-4.08C380.76,187.85,379.81,188.68,379.35,190.53Zm-25.31.38c0-.92-.55-1.63-1.8-1.7a1.76,1.76,0,0,0-2,1.77,2,2,0,0,0,1.85,2.09C353.09,193.21,354,192.35,354,190.91Z"/><path class="cls-1" d="M177.17,545l-28.29-15.24c-.07-1.71-.67-3.54-3.2-4.07-.59-.12-1.1-.85-1.52-1.4a15.31,15.31,0,0,1-1.45-2.35c-3.83-7.8-9.4-14.4-14.52-21.32-3.36-4.53-6.91-9-9.49-14s-3.57-10.42-1.79-16.07c.88-2.82,1.51-5.73,2.27-8.59a6.46,6.46,0,0,1,.53-1.43c1.64-3,3.18-6,5-8.8a30.8,30.8,0,0,1,3.93-4.25c1.55-1.6,3.25-3.09,4.68-4.8s2.21-2.24,4.3-1.05A39.73,39.73,0,0,1,144.3,446c3.7,3.23,8,4.17,12.73,4.61,7.77.73,15,3.06,21,8.39-2.45,0-3.31-.11-4.93-1.3-2.39-1.76-5.18-1.77-7.92-1.89a2.35,2.35,0,0,0-2.36,2.34,2.15,2.15,0,0,0,2.38,2.23,26.47,26.47,0,0,1,9.53,2.2,7.77,7.77,0,0,0,5.07.58,3.44,3.44,0,0,1,1.82.11,58.68,58.68,0,0,0,18.87,2.07c6.74-.3,13.18,1.72,19.79,2.47a9.49,9.49,0,0,1,3.36,1.42c2.23,1.25,4.41,2.58,6.58,3.93a5.92,5.92,0,0,1,1.6,1.43c2.37,3.2,5.79,5.17,8.83,7.58a6.5,6.5,0,0,0,1.82,1.15c5.05,1.73,9,5.25,13.4,8,3.72,2.36,7.63,4.42,11.39,6.71,5.77,3.52,11.49,7.12,17.23,10.69a59.86,59.86,0,0,0,6.51,4.07c5.46,2.51,10.2,6.06,15,9.61,5.68,4.22,11.41,8.41,17.38,12.18,4.75,3,9.89,5.4,14.89,8a5.2,5.2,0,0,0,4.13.66,4.46,4.46,0,0,1,2.37.34c5.95,1.9,11.94,3.7,17.81,5.81,4.76,1.71,9.75,2,14.62,3.07,3.9.83,7.88,1.29,11.79,2.1a33.47,33.47,0,0,1,5.83,1.85c2.95,1.18,3.61,1,5.84-1.26a8.71,8.71,0,0,1,4-2c4.78-1.15,9.61-2.09,14.43-3.09,2.21-.46,4.45-.78,6.64-1.32a52.16,52.16,0,0,1,13.41-1.44c3.59.06,7.19,0,10.78,0a16.62,16.62,0,0,0,10.17-3.86c.56-.43,1.27-1,1.43-1.57.71-2.57,2.78-2.93,4.9-3.49s4-1.4,6.21-2.17a14.76,14.76,0,0,1,1.42,7.25,4.87,4.87,0,0,1-4.09,4.66,34.4,34.4,0,0,0-9.74,3.6,4,4,0,0,0-1.51,6,2.74,2.74,0,0,0,3.21,1.19c3.11-.66,5.49,1,7.79,2.64a3.16,3.16,0,0,1,.8,2.48c-.28,3.35-.68,6.7-1.19,10a5.43,5.43,0,0,1-2.74,4.26c-3.9,2-5.7,5.74-8,9.07-.18.25-.35.51-.63.92-3.12-.64-6.37-1-9.11-3a6.17,6.17,0,0,0-2.23-1c-5-1.17-9.92-2.39-14.92-3.34a22.71,22.71,0,0,0-6.11-.09c-7.65.66-15.28,1.55-22.94,2.11-2.06.16-4.19-.51-6.73-.87.68-1,1.07-1.53,1.43-2.09a2.38,2.38,0,0,0,0-3.12,2.71,2.71,0,0,0-3.08-.7,38.22,38.22,0,0,1-5.91,1.59c-2.82.46-5.67.69-8.52,1-3.77.37-7.56.6-11.31,1.06a16.27,16.27,0,0,1-7.85-.87,63.63,63.63,0,0,0-16.76-3.58c-2.46-.21-4.67-.4-6.81-2.14-1.43-1.16-3.83-1.37-5.84-1.54-6.68-.57-13.06-2.54-19.59-3.83a2.35,2.35,0,0,1-1.37-.6c-1.32-1.92-3.41-2.14-5.39-2.57-6.51-1.42-13-2.77-19.53-4.2-4.69-1-9.32-2.46-14.06-3.11-5.56-.78-10.42-3.64-15.87-4.65-4.23-.77-8.41-1.76-12.61-2.67a14.83,14.83,0,0,1-2.37-.65c-6.21-2.44-12.54-2.42-19-1.34a33.85,33.85,0,0,1-7.92,0c-4-.27-7.8-1.18-11.88-.93-3.45.21-7-1-10.47-1.58-4-.69-7.91-2.38-12.09-1.3A14.73,14.73,0,0,0,177.17,545Zm57.61-34,.11-.31a11,11,0,0,0,1.53-.1,21.27,21.27,0,0,0,2.37-.65c2.52-.81,3.44-1.95,2.94-3.55-.45-1.43-1.69-1.7-4.22-1.17-1.27.27-2.77.7-3.87.27-2.34-.9-5.08-.88-7-2.83a4,4,0,0,0-1.67-.72c-4.13-1.2-8.29-2.3-12.38-3.58-4.4-1.38-8.73-2.94-13.1-4.4a18.65,18.65,0,0,0-3.79-1.12,4.93,4.93,0,0,0-5.6,3.31,2.4,2.4,0,0,0,.84,3,1.9,1.9,0,0,0,2.76-.31c1.25-1.64,2.53-1.1,4.08-.54,4.52,1.62,9.12,3.06,13.67,4.61,5.59,1.9,11.42,3.09,16.72,5.89C230.18,509.87,232.56,510.28,234.78,511Zm-62.11.48a10.65,10.65,0,0,0-1.39.21,2.41,2.41,0,0,0-2.08,2.58,2.48,2.48,0,0,0,2.79,2.29c3.54-.52,4.53-.22,5.81-4.25a35.39,35.39,0,0,1,2.48-5.93c1.86-3.53,3.82-7,5.91-10.42a3.63,3.63,0,0,0,0-4.27c-1.68-2.69-3.29-5.43-5.08-8.05a12.84,12.84,0,0,0-3-3,2.36,2.36,0,0,0-3.12.23c-.79.75-.57,2.25.24,3.36,1.57,2.13,2.93,4.42,4.63,6.42,2,2.41,1.47,4.64.16,7.05C177.57,502.15,175.21,506.68,172.67,511.47Zm-14.5-5.12a2.32,2.32,0,0,0,2.55-1.72,2.28,2.28,0,0,0-1.65-2.63c-2.89-.92-3.71-3.13-4.21-5.78a27,27,0,0,0-1.76-5.87,21.58,21.58,0,0,0-3.19-5.16c-3-3.48-6.16-6.77-9.27-10.14a3.44,3.44,0,0,0-4.47.08c-1.26,1.15-1.27,2.43.09,3.7,2.83,2.65,5.62,5.35,8.59,7.84a13,13,0,0,1,4.35,6.53c.68,2.35,1.26,4.73,2,7.08C152.11,503.54,155.28,506.25,158.17,506.35Zm-1.52-45.43c-.73.78-1.56,1.29-1.81,2a3.23,3.23,0,0,0,.88,3.37c1.74,1.85,3.44,3.74,5.14,5.63s3,2.21,4.15,1.26,1-2.46-.52-4.3a2.09,2.09,0,0,0-.2-.22c-1.84-2-3.65-4.1-5.52-6.11A18.28,18.28,0,0,0,156.65,460.92Zm223.5,116.16a17.89,17.89,0,0,0,2.77-.68,2.41,2.41,0,0,0,1.67-2.9c-.25-1.16-1.34-1.75-3-1.24a4.21,4.21,0,0,1-5.12-1.53,1.93,1.93,0,0,0-3-.34c-1.1.85-1.29,1.91-.38,3.22C374.71,575.86,377,576.84,380.15,577.08ZM254.24,515a2.16,2.16,0,0,0,2.17-2.42c-.12-1.49-2.63-3.23-4.45-3.09a2.4,2.4,0,0,0-2.07,2.29C249.94,513.3,252.25,515,254.24,515Z"/><path class="cls-1" d="M478.38,443.6l5.13-7.66c8.14-1.66,16.78-3,25.67-1.21a75.39,75.39,0,0,0,18.65,1.62c3.46-.19,5.53,1.4,7.28,4.12a25.24,25.24,0,0,0,3.6,4.08,48.7,48.7,0,0,1,8.17,10.67c2.07,3.65,4,7.37,6.15,11a6.92,6.92,0,0,1,.43,7c-1,2.12-1.52,4.49-2.62,6.54a75.77,75.77,0,0,1-4.91,7.77c-2.83,4-5.76,8-8.69,11.9-1.16,1.56-2.45,3-3.67,4.53-1.41,1.76-2.91,3.45-4.18,5.3a49.69,49.69,0,0,1-14.46,14.46c-2.31,1.47-4.33,3.4-6.59,5a20,20,0,0,1-4.57,2.46c-8.5,3-17,5.88-25.79,8.88-.4-1.54-.76-3.29-1.32-5-1.3-3.94-2.77-4.41-6.4-2.6a38.06,38.06,0,0,1-6.58,2.4c-2.35.67-4.12,1.55-5.34,4-1.62,3.32-5.17,4.19-8.62,4.43-2.54.17-5.12-.13-7.68-.21A73.81,73.81,0,0,0,422.51,545c-5.29,1.24-10.65,2.17-16,3.16-3.66.68-7.16,1.73-9.78,3.69l-16.08-3c-2.72-.51-5.46-1-8.15-1.58-2-.46-3.9-1.2-5.86-1.77-1.17-.35-2.37-.64-3.56-.92L351.75,542c1.66-2.54,3.5-4.19,5.94-4.71,5-1,9.13-3.57,13.16-6.45a15,15,0,0,1,5.58-2.42c1.72-.38,3.27-1.59,4.87-2.48,5.35-3,10.76-5.88,16-9,3.93-2.38,8-4.72,11.36-7.79a99.34,99.34,0,0,0,14.68-16.93,44.22,44.22,0,0,1,5.38-6.3A149.45,149.45,0,0,0,447.9,463a15.73,15.73,0,0,1,4.46-4.13,50.41,50.41,0,0,1,8-4.41c4.68-2,9.23-4.29,14.41-5,3.2-.46,6.25-1.93,9.41-2.82a20.32,20.32,0,0,1,4.46-.7c1.39-.07,2.45-.39,2.78-1.85a2.23,2.23,0,0,0-2.3-2.65,17.63,17.63,0,0,0-5.1.65,46.84,46.84,0,0,0-5.1,2Zm-58.25,65.86a5.47,5.47,0,0,0,1.13-.1c3.61-1.86,7.58-1.39,11.41-1.87s7.63-.45,11.1-2.23c3.73-1.93,7.51-3.78,11-6a51,51,0,0,0,7-5.88c2.08-2,3.78-4.37,6-6.18,4.79-4,9.77-7.75,14.73-11.54,1-.79,1.6-1.63,1.22-2.87a2.31,2.31,0,0,0-2.61-1.72,6.71,6.71,0,0,0-3,1.4c-3.2,2.55-6.36,5.16-9.45,7.86a69.07,69.07,0,0,0-7.85,7.33,45.3,45.3,0,0,1-13.28,10.78c-4,2.17-8,4-12.68,4.32-3.78.24-7.56.66-11.3,1.21a10,10,0,0,0-4.19,1.65c-.6.42-.81,1.8-.7,2.68C418.82,508.81,419.84,509.22,420.13,509.46Zm71.92-32.82c.4,2.51.47,5.24,2.44,7.1a25.88,25.88,0,0,1,4.84,6.66c1.88,3.42,5.15,4.5,8.76,4.83,1.25.11,2.26-.31,2.47-1.72a2.29,2.29,0,0,0-1.53-2.7,5.71,5.71,0,0,0-1.46-.45c-2.59-.18-3.95-1.75-5.06-3.92a18,18,0,0,0-3.25-4.78,7.74,7.74,0,0,1-2.37-6.67,18.51,18.51,0,0,1,.93-4.48c1.95-5.6,4-11.16,6.05-16.74.14-.38.35-.75.45-1.14a2.22,2.22,0,0,0-1.23-2.83,2.38,2.38,0,0,0-3,.83,7.8,7.8,0,0,0-1.13,2.18c-2.08,6.2-4.18,12.4-6.12,18.65A33.49,33.49,0,0,0,492.05,476.64ZM525,492.75a11,11,0,0,0,2-.73c4.37-2.84,8.74-5.69,13-8.61a9.42,9.42,0,0,0,2-2.26,1.93,1.93,0,0,0-.28-2.77,4.07,4.07,0,0,0-2.82-.23c-.61.12-1.05.93-1.62,1.36-2.61,2-5.19,3.95-7.86,5.83-1.34.93-2.86,1.6-4.26,2.44a4.29,4.29,0,0,0-1.63,1.35,3,3,0,0,0-.28,2.21C523.57,492,524.44,492.33,525,492.75ZM374.44,543.24a7.06,7.06,0,0,0,2.1-.67,57.23,57.23,0,0,0,5-4.47,2,2,0,0,0-.2-3,2.2,2.2,0,0,0-3.07,0,60.76,60.76,0,0,0-4.9,4.13,2.93,2.93,0,0,0-.65,2.46C372.89,542.35,373.9,542.79,374.44,543.24Z"/><path class="cls-1" d="M421,324c0,1.71.53,3.81-1.24,5.46a.89.89,0,0,0-.24.56c.12,4.2-2.66,7.48-3.59,11.35-.45,1.89-1,3.76-1.47,5.64a4.4,4.4,0,0,1-.24,1.2c-2.73,4.14-3.13,8.94-3.89,14.38-1.16-1.56-2.05-2.62-2.79-3.77-1.39-2.14-2.54-4.43-4.84-5.88-.88-.56-1.35-1.76-2-2.66-4-5.44-8-10.87-12-16.32-.66-.91-1.17-1.92-1.76-2.88a21.16,21.16,0,0,0-2.29-3.62c-3-3.19-5.06-7.22-8.73-9.88-1.22-.88-1.82-2.61-3-4.4,2.75-.68,5.08-1.29,7.43-1.82,4.52-1,8.11-3.11,10-7.63,2.44-5.76,5.08-11.43,7.62-17.15,1.65-3.73,3.41-7.36,6.57-10.12a4.88,4.88,0,0,0,1.13-2.15c1.14-3.5,2.37-7,3.26-10.57.76-3.05,1.06-6.22,1.61-9.32.49-2.72.89-5.46,1.62-8.12A54.56,54.56,0,0,0,414.33,234a18.79,18.79,0,0,1,1.91-7.84c9.69,2.76,17.69,8.07,24.87,14.75.75.7,1.62,1.27,2.38,1.95.53.47,1.39,1,1.38,1.56,0,2.88,2.34,3.58,4.12,4.86.87.63,1.61,1.42,2.59,2.29-1.29,1.5-2.28,2.79-3.42,3.94a34.18,34.18,0,0,0-8.59,14,14.06,14.06,0,0,0-.45,1.78,2,2,0,0,0,1.52,2.34,3.28,3.28,0,0,0,2.38-.81,4.84,4.84,0,0,0,1-2.17,32.42,32.42,0,0,1,9.27-14.18c2.69,3.73,5.25,7.42,6.48,11.92a23.72,23.72,0,0,0,2.22,5.06,5.56,5.56,0,0,1,.22,4.68,23,23,0,0,0-.92,5.38,56.31,56.31,0,0,0,1.36,13.28c1.72,8.83,2.87,17.78,3.84,26.72.47,4.33,1.1,8.74.19,13.15-.7,3.39-1.19,3.83-4.67,3.61-1.33-.08-2.67-.06-4,0a2.91,2.91,0,0,1-3.1-2.41c-.7-2.23-1.53-4.42-2.33-6.61a2.26,2.26,0,1,0-4.27,1.44c.56,1.65,1.26,3.24,1.83,4.88.95,2.72,2.27,4.84,5.4,5.71,2.4.66,4.35,2.59,7.05,2.85.75.07,1.77,1.18,2,2,1.21,3.79,2,7.7,3.28,11.47,1.62,4.92,1.86,10.06,2.81,15.07a5.78,5.78,0,0,1-1,4.34,31.93,31.93,0,0,1-2.16,2.79c-5.16-.56-9.71,1.81-14.24,4.29a7,7,0,0,1-2.3.69c-1.33.2-2.45.68-2.78,2.05s.78,2.28,1.78,3a3.09,3.09,0,0,0,3.72-.11c1.86-1.23,3.74-2.46,5.7-3.52a14.65,14.65,0,0,1,7.41-1.7,31.5,31.5,0,0,0,4.88-.65l3.62,4.93a9.8,9.8,0,0,0,1.83,2.45c5.41,3.76,8.84,9.72,14.59,13.1,2.2,1.29,4.36,2.65,6.53,4-2.8,3.67-5.71,7.29-8.38,11.09a10.69,10.69,0,0,0-1.65,4.5c-.25,1.8.63,2.61,2.39,3,2.26.47,3.86-.91,3.11-3a3.11,3.11,0,0,1,.67-3.31c1.33-1.82,2.8-3.54,4-5.42,1.43-2.14,3.95-2.63,5.79-4.12,0,0,.3.23.56.42-4.37,4.82-8.78,9.62-10.86,16.34l-5.78.86a47.56,47.56,0,0,0-13.27,3.79,4.85,4.85,0,0,1-4.63-.11c-2.17-1.12-4.65-1.64-6.74-2.87-4.06-2.4-8.49-3.22-13-4.07a68.66,68.66,0,0,1-12-3.64,18.85,18.85,0,0,1-6.12-3.94c-1.91-1.86-1.58-4.53-1-7,.34-1.39.89-2.73,1.32-4.11a3,3,0,0,0-1.08-3.48c-2.76-2.59-5.53-5.27-6.84-9a39.51,39.51,0,0,1-1.11-4.75,29.68,29.68,0,0,0-.63-3.28A172.33,172.33,0,0,1,418,368.52a25,25,0,0,0-1.57-4.65,12.61,12.61,0,0,1-.86-6.64,114.16,114.16,0,0,1,5.17-21.15,82.46,82.46,0,0,1,3.36-9.87c2.09-4.42,1.4-8.76.52-13.17-.29-1.47-.66-2.81.87-3.84a2.15,2.15,0,0,0,.58-1.05c1.26-3.34,2.46-6.71,3.76-10,.91-2.34.83-3.72-.46-4.39s-2.86.13-3.94,2.44c-.69,1.48-1.17,3.07-1.92,4.53s-1.68,2.5-2.39,3.82a8.58,8.58,0,0,0-1.26,3.36,53.34,53.34,0,0,0,.41,6.42c.08,1,.24,2,.36,3-1.38.25-1.83-.69-2.24-1.42-1.44-2.6-2.75-5.26-4.16-7.87a21.57,21.57,0,0,0-2.11-3.36,1.88,1.88,0,0,0-2.76-.26,2,2,0,0,0-.62,2.71c2.16,3.84,4.12,7.81,6.57,11.46C416.64,320.58,418.8,322,421,324Zm44,54.64c0-1.45-.7-1.89-2.77-2.07-6.1-.55-11.41,2-16.74,4.31a2.36,2.36,0,0,0-1.37,3.3c.6,1.21,1.79,1.6,3.44.9,4.9-2.06,9.73-4.28,15.27-4C464.24,381.17,465,380,465,378.66ZM441.8,395a2.22,2.22,0,0,0-2.27,2,2.12,2.12,0,0,0,2.15,2.4A2.22,2.22,0,0,0,444,397.1,2.33,2.33,0,0,0,441.8,395Z"/><path class="cls-1" d="M313.25,311A11.71,11.71,0,0,1,320,313a78.24,78.24,0,0,0,12.19,6.49c4.37,1.86,7.11,5,9.16,9.07a49.13,49.13,0,0,0,2.57,4.52c1.57,2.4,2.5,2.48,4.56.57l1.46-1.37c1,.34,1.92.65,2.86,1,2.31.91,3.61.41,4.68-1.86.39-.82.71-1.68,1.11-2.51.07-.14.34-.2.51-.3.09.05.22.09.23.15,1.78,6.18,5.88,11.22,8.38,17a19,19,0,0,0,5,6.87,65.46,65.46,0,0,1,5.88,6.64c1.52,1.79,2.94,3.68,4.51,5.43,4.1,4.58,8.39,9,12.32,13.71,2,2.41,3.29,5.42,5.12,8a28.84,28.84,0,0,0,4.66,5.26c2.15,1.82,4,4,6.82,5.14,1,.4,1.85,1.92,2.26,3.11,1.37,4,.77,8.12.32,12.19-.19,1.65-1,2-2.6,1.22a23.71,23.71,0,0,1-4.3-2.77c-1.84-1.46-3.49-3.17-5.33-4.64a7.06,7.06,0,0,0-2.74-1.29,2.27,2.27,0,1,0-1.59,4.25,19.44,19.44,0,0,1,3.39,2.1c2.37,2.07,4.64,4.26,6.9,6.45a4.26,4.26,0,0,0,2.92,1.38c2.73.18,4,1.59,4.2,4.27.13,1.32.34,2.64.56,3.95.39,2.32-1.2,4.62-3.62,4.05-2.66-.64-5.33-1.27-7.94-2.08a33.64,33.64,0,0,1-5.66-2.32c-1.59-.83-3.4-1.73-4.4-3.12a53.75,53.75,0,0,0-7.4-8.11,39.72,39.72,0,0,1-5.13-5.25,54,54,0,0,0-5.45-5.75c-4.77-4.77-9.3-9.8-13.7-14.91-1.58-1.83-2.53-4.19-3.76-6.31a15.79,15.79,0,0,0-5.59-6,11.35,11.35,0,0,1-2.92-2.7c-2.86-3.63-5.59-7.34-8.42-11-1.5-1.94-3.18-3.75-4.63-5.73a10.48,10.48,0,0,1-1.95-3.72c-.59-2.69-.72-5.47-1.21-8.18a16.2,16.2,0,0,0-1.44-5,53.32,53.32,0,0,0-6.07-9.19c-2.67-3.12-5.7-6-7.13-10.23-1.06-3.11-3.48-5.76-5.28-8.62C314,312.34,313.66,311.74,313.25,311Zm59.21,66.24c-2.3,0-3.41,1.93-2.49,3.48a8.48,8.48,0,0,0,1,1.15c3.55,4.09,7.05,8.21,10.66,12.25,2.12,2.36,4.38,4.58,6.6,6.84a2.26,2.26,0,0,0,3.07.41,2.51,2.51,0,0,0,.59-3.31,15.33,15.33,0,0,0-1.82-2.07q-3.46-3.88-6.92-7.8c-2.76-3.14-5.46-6.34-8.29-9.42A9.84,9.84,0,0,0,372.46,377.28Z"/><path class="cls-1" d="M146.25,417.34c-.36-5.21.35-10,1-14.93a77.66,77.66,0,0,1,2.55-12,9.16,9.16,0,0,1,3.07-4.84,2.64,2.64,0,0,1,2.84-.41c1.19.44,1.21,1.4,1.18,2.24-.18,5.93-.49,11.86-.68,17.79q-.21,6.31-.2,12.62c0,2.22,1.32,3.87,2.91,5.22a40.58,40.58,0,0,0,3.8,2.62,2.3,2.3,0,0,0,3.1-3.35,53,53,0,0,0-4.18-3.63,9.52,9.52,0,0,1,1.12-2.23c1.21-1.39,2.56-2.67,3.9-3.94a3.31,3.31,0,0,1,4.21-.54,13.68,13.68,0,0,1,5.64,5.51,6.73,6.73,0,0,1,.6,2.34,51.55,51.55,0,0,1-.47,16c-.93.68-1.88,1.19-3-.19-.9-1.1-2.19-.95-3.37-.29a7.18,7.18,0,0,0-1.83,1.12c-2.28,2.39-5.12,3.06-8.31,3.32a96.68,96.68,0,0,0-9.68,1.6,7.83,7.83,0,0,1-6.38-1.36c-2.48-1.75-5.41-2.93-7.74-4.85a28.88,28.88,0,0,1-5.91-6.57,9.06,9.06,0,0,0-5.67-4.28,45.79,45.79,0,0,1-4.58-1.68c-2.51-.9-5-1.84-7.53-2.64a3.45,3.45,0,0,1-2.37-2.12q-3.7-8.46-7.62-16.8c-.9-1.92-1.16-3.48.23-5.4a14.81,14.81,0,0,0,1.9-5.15,17.54,17.54,0,0,1,3.14-6.95,19.18,19.18,0,0,0,1.48-2.67,22.42,22.42,0,0,1,1.51-2.67c1.53-2,3.14-4,4.83-6.07,1.17,1.08,1,2.61.68,3.86-1.19,5.07-2.42,10.14-4,15.1-.7,2.24-.74,3.87,1.1,5.49s3.6,3.64,5.48,5.36a17,17,0,0,0,2.94,1.71c.26-3,.31-5.5.75-8,.9-5,1.08-10.19,3.25-14.92a6.49,6.49,0,0,1,.94-1.92c.58-.57,1.52-1.33,2.14-1.2a2.08,2.08,0,0,1,1.47,2.66c-1.67,6.89-.9,13.81-.34,20.72.18,2.26.38,2.3,3.1,3.19a28.59,28.59,0,0,0-.17-3.31,38.3,38.3,0,0,1-.11-12.23c.19-1.16-.32-2.43-.22-3.63A88.69,88.69,0,0,1,134,373.59c.67-3,3.15-5.22,5.55-7.15a1.72,1.72,0,0,1,2.68,1.45,24.94,24.94,0,0,1-.42,4.86c-.12.9-.61,1.77-.64,2.66-.19,6.15-.36,12.3-.41,18.45a35.32,35.32,0,0,0,.6,5.79q1.17,7.28,2.53,14.51C144.13,415.37,144.14,416.89,146.25,417.34Z"/><path class="cls-1" d="M411.12,163.6l-20.88-29.21c.8-1.34,1.66-3,2.71-4.45a2.38,2.38,0,0,1,1.78-.89,13.83,13.83,0,0,1,4.15.81,39.26,39.26,0,0,1,5.74,2.93,18.45,18.45,0,0,1,2.7,2.51c1.05-1.71,2.52-3.24,2-5.8-5.32,1.24-9.44-1.22-13.53-4.29,0-2.71-.4-5.48,2.31-7.41,1.07-.75,9.88-3.24,11.14-2.93a17.64,17.64,0,0,1,2.49,1v-5.71c-1.1-.77-1.68-.12-2.5.67-3.5,3.4-8.16,4.86-13.65,4.29-.31-2.67-1-5.48-.86-8.25.19-4.27,3.63-6.41,6.67-8.67,1.07-.79,2.2-1.48,3.57-2.4-1.15-1.35-2.18-2.57-3.4-4-1.35,2.16-2.44,4.2-3.82,6s-3,3.32-4.69,5.18l-3.52-3,1.1-6.85c.67-4.14,1.46-8.27,2-12.42.56-4.35.86-8.73,1.34-13.09a12.27,12.27,0,0,1,.78-3.28c.88-2.15,2.66-2.42,4.41-.92s3.33,2.65,5.05,3.9c2.73,2,5.5,3.87,7.78,5.47,0,1.86-.41,3.28.09,4.21a14.89,14.89,0,0,0,3.52,4.19c.56.48,1.85.08,3,.08,4.55,7,7,15.06,9.17,23.44-2.47,1.33-2.49,3.51-2,5.84.41,1.87,1.95,1.78,3.53,1.77a12.41,12.41,0,0,1,.29,2.51c-.33,4-.5,8-1.17,11.91-.77,4.43-2,8.78-3.07,13.15-.11.45-.47,1.12-.81,1.19-2.91.59-3.07,3.35-4.07,5.31-.43.86.23,2.27.44,3.81C419.74,152.85,414.26,160.39,411.12,163.6Z"/><path class="cls-1" d="M305.16,55.81c.55,4.41-.47,8.32-.92,12.25-.1.86-1.11,1.64-1.75,2.42-1,1.27-1.6,2.55-.87,4.23.81,1.87,1.52,3.8,2.14,5.74.75,2.34,1.38,4.71,2,7.08a3,3,0,0,1,.14,1.81,12.94,12.94,0,0,1-2.36,3.81c-1.11,1-2.21-.33-3.32-.73-3.09-1.09-4.15-4.1-6.09-6.27-.33-.35-.62-.73-1.29-1.53l-2,4.59c2.08,1.42,4.08,2.76,6.07,4.14q2.11,1.49,4.19,3.05a1.86,1.86,0,0,1,.9,2.34c-.81,2.09-1.53,4.21-2.29,6.32-.87,2.43-1.17,2.68-3.77,2.69-3.52,0-7-.25-9.85-2.66a6.89,6.89,0,0,0-1.55-.58c-.17,2-.32,3.74-.47,5.53,2.52-.15,4.91-.25,7.29-.44s4,1.5,5.89,2.35a1.49,1.49,0,0,1,.48,1.34,24.21,24.21,0,0,0-.62,10.4c-4.69,2.46-8.89,5.37-14.72,4.94l1.73,4.18,13.17-6.54a33.79,33.79,0,0,0,1.88,3.88,4.79,4.79,0,0,1,0,5.46,9.21,9.21,0,0,1-.84,1.29c-5.5,6.29-9.12,13.85-13.95,20.6-1.9,2.66-3.13,2.63-4.83-.27-2.74-4.69-5.5-9.38-6.92-14.7a4.13,4.13,0,0,1-.17-2c1-3.81-.18-6-3.95-7a5.14,5.14,0,0,1-.79-.45c-.39-2-.95-4.18-1.22-6.4-.48-4-.92-7.93-1.09-11.91-.08-1.79-.18-3.61,1.39-5.32.94-1,1.17-3.49.62-4.88-1-2.46-.07-4.43.62-6.5,1.27-3.79,2.53-7.59,4.1-11.26,1.24-2.89,2.92-5.58,4.47-8.48l3.11.71c1.74-2.11,3.52-4.19,5.19-6.36a2.73,2.73,0,0,0,.5-2C285.07,69,285.8,68,287,67c2.36-2.12,4.58-4.39,7-6.48C297,57.77,300.84,56.66,305.16,55.81Z"/><path class="cls-1" d="M499,429.32c1.45-3.93,3.93-6.57,6.63-9.1-.4.76-.81,1.52-1.19,2.28-.81,1.59-.64,2.71.52,3.54a2.28,2.28,0,0,0,3.42-.89c2.1-3.64,4.1-7.35,6-11.09.85-1.67.33-3.37-.41-5a10.2,10.2,0,0,1-1-3.4c-.31-4.29-.39-8.6-.7-12.89a24.49,24.49,0,0,0-1-4.17c-.77-2.94-.43-5.37,2.47-7.14,2.19-1.33,3.33-1.35,4.19,1.18,1.25,3.65,2.06,7.46,3,11.22a30,30,0,0,1,.79,4.19,22.09,22.09,0,0,1,.16,4.52c-.25,2.63-1.34,5.23-.33,7.88a27.66,27.66,0,0,0,2.12,4.34,2.53,2.53,0,0,0,3.13,1.33,3.14,3.14,0,0,0,2.13-3.07c.23-3,.52-5.91.7-8.88q.43-7.2.73-14.42c.18-4.4.26-8.81.44-13.21.06-1.29.31-2.56.49-4.07,1,.16,1.53.31,2.11.35a2.85,2.85,0,0,1,3,2.85c.21,3.67.38,7.35.45,11,0,1.42-.35,2.85-.41,4.27-.23,6.14-.38,12.29-.62,18.42a13.88,13.88,0,0,1-.6,2.65c-.29,1.2-.21,2.29,1,2.9a2.34,2.34,0,0,0,3.13-1.17,11.09,11.09,0,0,0,.79-3.87,76.89,76.89,0,0,0-.94-16.24,41.77,41.77,0,0,1,0-13,17.86,17.86,0,0,1,6.3,8.24c1.11,3,2.36,5.89,3.43,8.87.59,1.63,1,3.34,1.39,5,.13.49.14,1,.29,1.51.48,1.62,1.52,2.38,2.88,2.13a2.41,2.41,0,0,0,1.86-3,19.75,19.75,0,0,0-1.27-5.34c-1.66-3.48-1.2-7-.7-10.55a23.2,23.2,0,0,0-1-10c-.48-1.6-1.81-2.93-2.75-4.39-2-3.1-1.09-6,2.33-7.27a2,2,0,0,1,1.8.54c2.57,3.3,5.31,6.41,6.34,10.75,1.19,5.06,3,10,4.56,15a5.84,5.84,0,0,1-.55,5.5c-2,3-3.4,6.33-5.35,9.33a72.77,72.77,0,0,1-5.45,7c-1.77,2.11-3.63,4.14-5.47,6.18-4.35,4.83-9.56,8.62-14.85,12.3a3.19,3.19,0,0,1-1.68.34,105.94,105.94,0,0,1-21.67-2.19c-2.6-.48-5.27-.62-7.91-.92Z"/><path class="cls-1" d="M253.9,581.4c2.49-.35,5-.87,7.48-1a16.62,16.62,0,0,0,7.89-2,22.82,22.82,0,0,1,8.05-2.82c2.95-.43,4.7-2.32,6.71-4s3.62-3.22,5.49-4.76c.77-.63,4.92,0,5.45,1,1,2,2.88,2.17,4.63,2.55,5.8,1.28,11.62,2.46,17.42,3.73,1.76.38,3.48,1,5.22,1.46-.12.27-.15.54-.28.62-4.39,2.52-7.32,6.45-10.21,10.45a14.32,14.32,0,0,1-2.57,2.59c-2.93,2.38-5.93,4.63-8.67,7.29-3.2,3.11-7.08,5.53-10.76,8.13-1.68,1.2-3.62.44-5.29-.11a61.12,61.12,0,0,1-8.53-3.45,23.55,23.55,0,0,1-4.79-3.58c-.43-.38-.48-1.31-.51-2-.08-1.82-.05-3.65,0-5.47,0-1.39-.43-2.39-2-2.6-2.33-.3-4.67-.53-7-1a32.65,32.65,0,0,1-6.11-1.94c-.8-.34-1.27-1.45-1.88-2.21Z"/><path class="cls-1" d="M384.67,93.47a16.16,16.16,0,0,1-3.2-6.47c-1-4.91-4.18-8.56-7.47-12.09-.77-.83-1.73-1.47-2.47-2.31a19.5,19.5,0,0,0-10-6.19c-3.51-.93-5.42-4.1-7.3-7-.31-.47.05-1.53.35-2.22a27.28,27.28,0,0,0,.85-19.5,11.66,11.66,0,0,0-4.26-6.25c-2.19-1.58-3.23-3.52-2.41-6.37.58-2-.33-4.33,1.25-6.34a6.31,6.31,0,0,1,5.73,2,4.64,4.64,0,0,0,1.15,1c5.87,3.45,10.52,8.45,15.94,12.47.81.61,1.47,1.41,2.23,2.09,1.83,1.63,3.66,3.27,5.53,4.85s3.7,2.9,5.44,4.48a3.76,3.76,0,0,1,1,2.18c.23,1.81.25,3.64.39,6-1.12-.81-1.82-1.32-2.53-1.82a42.81,42.81,0,0,0-3.55-2.43c-1.6-.9-3.07-.58-3.76.61s-.24,2.63,1.57,3.46c3.72,1.71,5.65,5.27,8.51,7.86a2.81,2.81,0,0,1,.62,1.72,76.86,76.86,0,0,1,.38,10.25c-.44-.62-.86-1.24-1.33-1.84-2.15-2.73-4.26-5.49-6.5-8.15a9.81,9.81,0,0,0-2.68-2,2.29,2.29,0,0,0-3.25.7c-.82,1.19-.28,2.11.56,3,2,2.08,4,4.08,5.89,6.25A24.73,24.73,0,0,1,387,85.07c.27,2.51-.83,5.17-1.35,7.75C385.57,93,385.16,93.15,384.67,93.47ZM370,61.75c1.9.19,2.95-.08,3.4-1.35a2.14,2.14,0,0,0-1.16-2.8A12.54,12.54,0,0,0,368.66,56,3.54,3.54,0,0,0,366.13,57a1.61,1.61,0,0,0,.36,2.43A41,41,0,0,0,370,61.75Zm3.71-15.36a2.37,2.37,0,0,0-2.29,2,2.34,2.34,0,0,0,2.07,2.25,2.14,2.14,0,0,0,.22-4.26Z"/><path class="cls-1" d="M341.07,59.53c-2.4.28-3.27,1.77-4.05,3.53a9.45,9.45,0,0,1-5,4.73c-5.64,2.64-11.52,5-15.69,9.92-1.57,1.86-3,3.85-4.38,5.86-.8,1.16-1.38,2.46-2.3,4.13a10.66,10.66,0,0,1-1.36-2.32,51.64,51.64,0,0,1-1.2-6.62,4.35,4.35,0,0,1,.92-2.5c2.91-4.49,6-8.8,11.06-11.21a2.49,2.49,0,0,0,1.38-3.54,2.46,2.46,0,0,0-3.51-.79A63.73,63.73,0,0,0,311,65c-.79.6-1.47,1.37-2.61,2.46,0-.92,0-1.35,0-1.77.34-3.25.78-6.49,1-9.75a3.74,3.74,0,0,1,2.14-3.41c2-1,4-2,6-3.16a26.77,26.77,0,0,0,4.05-2.76c1.45-1.25,1.58-2.36.73-3.46-1-1.27-2.11-1.3-3.75-.2-1.87,1.25-3.76,2.46-5.66,3.65a8.78,8.78,0,0,1-1.7.54,12,12,0,0,1,3.17-6.77,43.86,43.86,0,0,1,9.11-7.73,60.39,60.39,0,0,0,7.68-6.09,52,52,0,0,1,9.89-7.18c3-1.59,4.54-.62,4.78,2.82a16,16,0,0,1-3,11.17,33.78,33.78,0,0,0-3.61,6.43c-2.3,5.17-1.55,10.4.1,15.57C339.75,56.7,340.41,58,341.07,59.53Zm-11.31-2a2,2,0,0,0-2.08-2.15,2.75,2.75,0,0,0-2.8,2.32,1.84,1.84,0,0,0,1.91,2.22A2.56,2.56,0,0,0,329.76,57.53Zm.15-16.06a2.31,2.31,0,0,0-2.51-2.12,2.24,2.24,0,0,0-2.3,2.3,2.53,2.53,0,0,0,2.5,2.21A2.49,2.49,0,0,0,329.91,41.47Z"/><path class="cls-1" d="M410.67,380.42c-.36,0-.49.08-.56,0-2.17-1.22-3.06-1.22-3.93,0s-.46,2.49,1.11,4c1.84,1.78,3.7,3.55,5.5,5.38a11.89,11.89,0,0,1,1.22,2c-.86,0-1.32.08-1.57-.1a27.29,27.29,0,0,1-6.77-6.58c-3.19-4.74-6-9.73-10.24-13.77-3.63-3.47-6.94-7.27-10.37-10.93a12.23,12.23,0,0,1-1.74-2.15c-2.32-4.07-5.68-7.22-9-10.43a14.26,14.26,0,0,1-2.36-3.55c-1.42-2.6-2.82-5.22-4.07-7.91a64.53,64.53,0,0,1-3.85-9.33,7.09,7.09,0,0,1,1.89-7.3c1.09-1,2.15-2.12,3.25-3.2l11.16,12.94a3.56,3.56,0,0,1,.42.45c3.74,5.61,7.46,11.23,11.21,16.84.74,1.1,1.56,2.14,2.39,3.18s2,2.32,2.91,3.53c2.6,3.38,5.9,6.21,7.74,10.18.36.77,1.39,1.2,2,1.9a11.27,11.27,0,0,1,2.89,6C410.17,374.58,410.41,377.5,410.67,380.42Z"/><path class="cls-1" d="M627.84,886.76c2.8-.4,4.6,1.37,5.52,4,1.51,4.23,2.86,8.53,4,12.87.91,3.34,1.4,6.8,2.2,10.18a6.07,6.07,0,0,1-1.17,5.44,23.59,23.59,0,0,0-2.61,5.16c-2,5-5.53,5.67-9.36,1.76-2.09-2.14-2.21-4.88-2.35-7.44-.51-9.6-.49-19.22-.06-28.83C624.15,887.43,625.13,886.64,627.84,886.76Z"/><path class="cls-1" d="M563.77,787c-.22,4.2-1.92,7.84-4.06,11.24-2.33,3.71-8.85,3.29-10.54-.64a26,26,0,0,1-2.07-14.1c.66-4.65,1.72-9.26,2.29-13.92.42-3.41,2.36-4.94,5.42-5.63a2.13,2.13,0,0,1,2.77,1.31c1.45,4,3.89,7.7,4.22,12.14a38.56,38.56,0,0,0,1.05,4.78C563.19,783.81,563.47,785.42,563.77,787Z"/><path class="cls-1" d="M314.16,782c.27,1.91.38,3.73.8,5.49,1,4.06,1.89,8.16,3.21,12.11a30.31,30.31,0,0,1,2,10.48c-.05,2.23.34,4.48.34,6.72a51.07,51.07,0,0,1-.41,5.8c-.23,2.1-.76,4.18-3,5a7.2,7.2,0,0,1-6.94-1.28,7.92,7.92,0,0,1-2.58-4.42,39.15,39.15,0,0,1,.55-23.25c1.46-4.57,3.33-9,3.61-13.93C311.8,783.51,312.07,782.17,314.16,782Z"/><path class="cls-1" d="M557,1016.32a74.36,74.36,0,0,1-2.45,16.74,16.21,16.21,0,0,1-5.49,8c-2.21,1.87-4.76.52-5.35-2.47-1.08-5.46,0-10.79.81-16.14q.91-6.36,1.78-12.73c.24-1.82.48-3.65.59-5.48.18-3,2.19-5.23,3.41-7.77.71-1.46,3.38-.86,3.89.84a32.19,32.19,0,0,1,.93,4.81C555.81,1006.81,556.41,1011.57,557,1016.32Z"/><path class="cls-1" d="M637,850.28c-.09,1.33-.25,2.66-.25,4,0,5-2.81,8.38-6.69,11.05a4.87,4.87,0,0,1-7-1.27,11.54,11.54,0,0,1-2.08-7.54c.33-5.92.89-11.83,1.12-17.75a12.25,12.25,0,0,1,2-5.71c.76-1.33,1.74-1.44,3.1-.61a29,29,0,0,0,2.61,1.56,9.8,9.8,0,0,1,4.8,5A22,22,0,0,1,637,850.28Z"/><path class="cls-1" d="M317.59,865.23A59.72,59.72,0,0,1,315,880.1a11.27,11.27,0,0,1-1.2,2.47,3.73,3.73,0,0,1-4,1.7,3.44,3.44,0,0,1-3.11-2.91,17.73,17.73,0,0,0-1.68-3.88c-1.23-2.32-2.07-4.7-1.59-7.36.81-4.52,1.66-9,2.51-13.55.29-1.5.75-3,1-4.49.29-2,.64-3.84,2.77-4.77.34-.14.49-.78.67-1.22.4-1,.85-1.92,2.14-1.82s1.69.92,1.88,2.05c.58,3.51,1.24,7,1.83,10.52C316.76,860,317.24,863.08,317.59,865.23Z"/><path class="cls-1" d="M546.73,736.07c.54-3.49,1-7.15,1.69-10.74a37,37,0,0,0,1.05-10.59c-.2-2.52.67-4,2.11-4.27s2.25.4,3.41,2.89c4.16,8.91,5.75,14,7.08,24.21a11.67,11.67,0,0,1-2.33,8.38,4.28,4.28,0,0,1-4,1.86c-5.42-.33-7-1.33-8.3-6.72C547.1,739.51,547,737.87,546.73,736.07Z"/><path class="cls-1" d="M478.66,886c.92-6.57,1.75-13.15,2.8-19.69.47-2.93,1.8-3.31,4.6-2.23a6.67,6.67,0,0,1,4.2,4.53c.46,1.46.78,3,1.22,4.43.76,2.53,1.4,5.12,2.4,7.56s1.45,4.65.57,7.12a19.74,19.74,0,0,1-5.58,8.68c-3.27,2.8-7.06,1.78-8.57-2.24a20.37,20.37,0,0,1-1-3.84c-.24-1.41-.27-2.85-.38-4.28Z"/><path class="cls-1" d="M92.51,718.55c-2.23,2.92-.68,6.14-.17,9.12a31,31,0,0,1-.44,13.65c-1,3.55-1.78,7.16-2.94,10.65-.9,2.74-2.72,3.35-5.34,2.17a5,5,0,0,1-1.57-.94,7.34,7.34,0,0,1-2.4-4.83c-.12-2-.55-4.06-.51-6.09a29.63,29.63,0,0,1,.74-7.61c1.6-5.49,3.58-10.88,5.5-16.28a8.5,8.5,0,0,1,1.79-2.83c1.49-1.58,3.12-1.29,4.2.64C91.77,716.91,92.08,717.66,92.51,718.55Z"/><path class="cls-1" d="M547.39,837.86c.31-1.79.9-5.21,1.46-8.63.36-2.21.73-4.43,1-6.66a5.79,5.79,0,0,1,2.77-4.79c2.1-1.26,4-1.26,5.29.79a11.78,11.78,0,0,1,1.9,5.09,39.38,39.38,0,0,0,2.75,11.89c1.72,4.16.6,8.13-1.3,11.79s-8.91,3.94-11.42.55C548,845.39,547.35,843.25,547.39,837.86Z"/><path class="cls-1" d="M133.42,1004.71c-.53,6.39-.94,11.68-1.43,17a19.47,19.47,0,0,1-.86,4.5,11.23,11.23,0,0,1-2,3.73c-2.35,2.7-5.93,1.86-6.83-1.6-1.93-7.4-2.48-14.86-.49-22.37,1.13-4.23,2.71-8.36,2.83-12.83a2.65,2.65,0,0,1,1.91-2.54c1.34-.45,2,.49,2.81,1.32C133.19,995.82,132.81,1001,133.42,1004.71Z"/><path class="cls-1" d="M308.4,912.09a23.29,23.29,0,0,0,1.47,9.65c1.73,4.55,1.33,9-.2,13.48-1.1,3.2-2.11,6.43-3.18,9.64a17.21,17.21,0,0,1-1.05,2.56c-1.47,2.79-4.63,3-5.94.12a20.61,20.61,0,0,1-2.08-7.93,70.89,70.89,0,0,1,4.77-26.45,4.35,4.35,0,0,1,1.11-1.81,3.11,3.11,0,0,0,1.25-2.62,1.87,1.87,0,0,1,1.89-2c1.33,0,1.92,1,2,2.31C308.42,910,308.4,911.06,308.4,912.09Z"/><path class="cls-1" d="M397.2,1000.27c-.39,5.62-.68,11.26-3.1,16.51-2.24,4.85-7.53,5.65-11.18,1.74a4.74,4.74,0,0,1-1-4.59,21.23,21.23,0,0,1,1.67-4.93c2.15-4.3,3-8.91,3.67-13.6.47-3.45.89-6.9,1.35-10.35a3.3,3.3,0,0,1,.4-1.46,4.81,4.81,0,0,1,1.82-1.77,2,2,0,0,1,2.54,1.19c.59,1.3,1.08,2.65,1.57,4A33.92,33.92,0,0,1,397.2,1000.27Z"/><path class="cls-1" d="M633.87,787.91c-.76,5.38-1.36,10.23-2.15,15.06-.65,3.94-3,5-6.65,3.3-3.4-1.61-4.62-4.67-4.66-8-.09-7.16.17-14.31.27-21.47,0-1.12-.2-2.25-.12-3.36s.19-2.3,1.59-2.69a2.5,2.5,0,0,1,3.1,1.25c2,3.1,4.25,6,6,9.23A47.17,47.17,0,0,1,633.87,787.91Z"/><path class="cls-1" d="M212.84,1036.88a24,24,0,0,1-4.47,12.55,6.83,6.83,0,0,1-4.86,2.93c-2.43.26-3.69-.94-3.57-3.38.06-1.12.32-2.22.41-3.34.42-5.3.73-10.61,1.25-15.9.28-2.83.88-5.63,1.35-8.45.43-2.6,1-5.19,1.28-7.81.12-1.31.47-2.33,1.67-2.57,1.38-.28,2.32.68,2.75,1.93a38.75,38.75,0,0,1,2.11,6.72c.86,5.44,1.41,10.93,2.07,16.4A7,7,0,0,1,212.84,1036.88Z"/><path class="cls-1" d="M213.77,839.34c.84-5,1.69-10.2,2.67-15.42.29-1.58,3.49-3.86,5-3.82,1.33,0,2.39,1.16,2.85,3.21.86,3.89,1.77,7.79,2.45,11.72a26.92,26.92,0,0,1,.35,9.14,23.75,23.75,0,0,1-4.59,10c-1.61,2.24-4.4,2-5.92-.33a5.92,5.92,0,0,1-.84-2.28C215.05,847.6,214.45,843.66,213.77,839.34Z"/><path class="cls-1" d="M218.54,767.25q2.09,2.76,4.18,5.51c2.38,3.11,3.22,6.74,4,10.49A42.56,42.56,0,0,1,227,800a15.38,15.38,0,0,1-1.55,4.3,4.44,4.44,0,0,1-7.42,1,10.61,10.61,0,0,1-2.13-4,23.34,23.34,0,0,1-.61-10c.82-6.17,1.87-12.31,2.78-18.46a18.78,18.78,0,0,0-.05-2.7c0-.94,0-1.88,0-2.82Z"/><path class="cls-1" d="M396.38,932.8c1.94.54,2.28,1.94,2.66,3.17,1.34,4.3,2.64,8.61,3.78,13a7.54,7.54,0,0,1-.13,3.59,55.89,55.89,0,0,1-2.63,8.78c-1.45,3.27-5.11,5.05-7.72,4.35a8.32,8.32,0,0,1-5.71-8.21,30.2,30.2,0,0,1,4.76-15.06C393.3,939.39,395.41,936.51,396.38,932.8Z"/><path class="cls-1" d="M399.93,851.81c.53-4.13.92-7.38,1.36-10.63.6-4.35,1.19-8.71,1.86-13,.35-2.22,1.4-3.24,3-3.23s2.69,1.25,3.14,3.18c1.25,5.28,2.48,10.57,3.88,15.81,1.49,5.6-.88,13.21-5.37,16.71a3.8,3.8,0,0,1-6.08-1.59A71,71,0,0,1,399.93,851.81Z"/><path class="cls-1" d="M482,1038.87c-.63,2.74-1.25,6.26-2.3,9.66a9.5,9.5,0,0,1-2.76,4c-2.35,2.12-5.57,1.27-6.79-1.66a13,13,0,0,1-.84-3.26,46.25,46.25,0,0,1,1.53-19.7c.6-1.95.94-4,1.55-5.93a8.3,8.3,0,0,1,1.61-3.24,3.49,3.49,0,0,1,2.71-.81,2.75,2.75,0,0,1,1.72,1.78c1,4.17,1.87,8.38,2.69,12.59C481.51,1034.16,481.66,1036.11,482,1038.87Z"/><path class="cls-1" d="M563.38,882.05c-.28,4.07-1.39,8.12-5.75,10.7a6.07,6.07,0,0,1-9-3.64c-.67-2.79,0-5.49.2-8.23a28.3,28.3,0,0,1,3-11.19c.75-1.46,1.43-2.91,3-3.83.61-.37.91-1.27,1.3-2a2.29,2.29,0,0,1,2.52-1.33c1.11.16,1.43,1,1.68,1.92.33,1.27.77,2.52,1.18,3.76a10.58,10.58,0,0,1,.71,2C562.63,874,563,877.8,563.38,882.05Z"/><path class="cls-1" d="M59.22,850.42a54.34,54.34,0,0,1,2.66-15.06A39.75,39.75,0,0,0,63,831.55a4.37,4.37,0,0,1,4-3.53c1.18-.07,2.16.44,2.11,1.69-.26,5.89,2.41,11.21,3.17,16.86a23.07,23.07,0,0,1-2.7,14.23,3.73,3.73,0,0,1-4.38,2c-2.31-.47-4.13-1.48-4.62-3.88C60,855.84,59.58,852.68,59.22,850.42Z"/><path class="cls-1" d="M495.28,827.19a88.58,88.58,0,0,1-1.4,9.36,16.67,16.67,0,0,1-2.86,5.67c-2.27,3-6.22,2.6-7.6-.93a22.47,22.47,0,0,1-1.65-8.65,42.69,42.69,0,0,1,2.64-13.19,53.7,53.7,0,0,0,1.48-5.94,9.36,9.36,0,0,1,.67-2.33,2.91,2.91,0,0,1,5.21-.2,6.75,6.75,0,0,1,1,2.24C493.66,818,494.5,822.86,495.28,827.19Z"/><path class="cls-1" d="M127.21,962.8c.39-4,.86-8.86,1.35-13.75.27-2.64.57-5.28.93-7.91a6.4,6.4,0,0,1,.72-2.33,2.28,2.28,0,0,1,3.85-.15c1.06,1.82,2.53,3.46,2.71,5.75a13.93,13.93,0,0,0,.93,4.18c2.16,5.32,1.62,10.64.08,15.93-.94,3.24-2,6.46-3.25,9.59-1,2.4-2.13,3-3.91,2.66s-2.76-1.64-2.92-3.84C127.47,969.86,127.39,966.78,127.21,962.8Z"/><path class="cls-1" d="M472.61,992.45c1-7.38,1.92-14.78,3-22.15A11.48,11.48,0,0,1,477.1,967a2.34,2.34,0,0,1,2.8-1.37,2.9,2.9,0,0,1,2.43,2.36,25.4,25.4,0,0,0,2.44,6.58,11,11,0,0,1,1.17,8.55c-.48,1.77-.93,3.55-1.49,5.3-1,3-2.08,6-3,9-.84,2.72-1.87,4-3.62,4-1.94,0-3.72-1.56-4.46-4a5,5,0,0,1-.31-1.18c0-1.23,0-2.46,0-3.69Z"/><path class="cls-1" d="M546.12,969.22c.41-5.31.9-10,3-14.29,1.19-2.41,2.21-2.51,4.5-1.27,2.89,1.58,3.36,4.29,4.36,6.93a31,31,0,0,1,1.67,13.22c-.23,3.46-2,6.44-3.62,9.36-1.35,2.39-4.45,2.45-5.46.21a109.14,109.14,0,0,1-4-10.22A17.25,17.25,0,0,1,546.12,969.22Z"/><path class="cls-1" d="M68.83,799.2c.7-5,1.22-9.94,2.19-14.83a39.64,39.64,0,0,1,2.8-7.69c.53-1.25,1.82-1.55,3.13-1.48a3.12,3.12,0,0,1,3,2.27,15.18,15.18,0,0,0,2.24,4.61,4.24,4.24,0,0,1,.58,2.33,32.13,32.13,0,0,1-.39,5.19c-.66,3.72-1.45,7.42-2.24,11.12a16.7,16.7,0,0,1-.9,2.92c-1.24,3-2.65,3.82-5.35,3.37-3.16-.54-4.53-1.94-4.81-5-.08-.91,0-1.84,0-2.76Z"/><path class="cls-1" d="M207.48,937.11c1-6.16,2-12.32,3-18.47a4.75,4.75,0,0,1,1.06-2.17,2.49,2.49,0,0,1,4.37.95c1.27,4.42,2.55,8.83,3.7,13.28,1.41,5.46.48,10.78-1.28,16a8.42,8.42,0,0,1-1.27,2.07,4.14,4.14,0,0,1-7.35-1.06c-.79-2.63-1.22-5.38-1.75-8.08a16.76,16.76,0,0,1-.14-2.46Z"/><path class="cls-1" d="M303.3,1018.82a45.46,45.46,0,0,1-3.24,13.68c-.55,1.44-1.11,2.87-1.67,4.3-.77,2-1.58,2.7-3.33,2.6s-3.79-.4-4.5-2.53a8.32,8.32,0,0,1-.59-3.3c.72-7.33,1.6-14.64,2.35-22a10.28,10.28,0,0,1,2.54-5.15c.93-1.21,2.24-1.31,3.11-.1C300.68,1010.08,303.47,1013.82,303.3,1018.82Z"/><path class="cls-1" d="M486.88,785.75a60.23,60.23,0,0,1,2.43-14.61,59.92,59.92,0,0,0,1.36-6.28c.54-2.66,1.6-3.94,3.2-3.84s3.09,1.93,2.91,4.37c-.2,2.89.92,5.42,1.81,8,.54,1.54,1.22,3,1.89,4.53a8.56,8.56,0,0,1,.33,6.58,37.91,37.91,0,0,1-2.94,6.71,5.1,5.1,0,0,1-3.18,2.08,6.6,6.6,0,0,1-7.92-6.78A2.69,2.69,0,0,1,486.88,785.75Z"/><path class="cls-1" d="M547.41,931.62c.52-4.22,1-8.18,1.49-12.13a18.36,18.36,0,0,0,.41-3.34c-.21-3.56,1.86-6.1,3.78-8.67a2.22,2.22,0,0,1,3.81.47,8.66,8.66,0,0,1,.59,2c.83,3.26,1.61,6.54,2.49,9.79,1.1,4,.23,7.92-1,11.74a43.8,43.8,0,0,1-2.09,4.78c-.77,1.68-1.81,3-3.94,2.77s-4.06-.93-4.77-3.18A31.93,31.93,0,0,1,547.41,931.62Z"/><path class="cls-1" d="M149.32,797.68a7.85,7.85,0,0,0,2.06,5.93c5.79,6.37,2.39,14.89-2.18,19.18-2.79,2.62-6,2.21-7.68-1.73-2.09-5-1.78-10-.74-15.06.52-2.5,1.27-5,1.81-7.44s2.46-3.42,4.49-4.15a1.59,1.59,0,0,1,2.22,1.44A11.17,11.17,0,0,1,149.32,797.68Z"/><path class="cls-1" d="M635.28,964c-.32,2.85-.53,5.71-1,8.54-.57,3.73-2.4,4.91-6.05,4.11s-6.49-3.9-6.24-7.66q.6-8.88,1.91-17.69a3.72,3.72,0,0,1,6.5-1.84c3.11,3.26,5.56,6.85,4.71,11.76a15.88,15.88,0,0,0,0,2.76Z"/><path class="cls-1" d="M606.38,715c4.6,5,9.15,9.8,11.33,16.27a35.78,35.78,0,0,0,3.53,6.77c2.21,3.69,1.54,7.5.51,11.26-.45,1.69-2,2.09-3.76,1.43a12,12,0,0,1-6.48-6.23,38.43,38.43,0,0,1-4.15-14.63Q606.87,722.39,606.38,715Z"/><path class="cls-1" d="M400.88,878.13q3.56,6.93,7.09,13.88a3.35,3.35,0,0,1,.24.89,26.88,26.88,0,0,1-1.84,15.57,4.45,4.45,0,0,1-4.86,3c-2.31-.26-4.11-1.18-5-3.43-1.38-3.4-.84-6.91-.36-10.32.8-5.77,1.9-11.5,2.93-17.23a12,12,0,0,1,1-2.41Z"/><path class="cls-1" d="M212.16,886.81c.32-2.55.65-6.33,1.33-10a11.44,11.44,0,0,1,2.08-4.37c1.07-1.47,2.33-1.35,3.64-.09a25.31,25.31,0,0,0,2.94,2.65,6.37,6.37,0,0,1,2.9,5.77,50.09,50.09,0,0,1-.51,5.19q-.79,5.46-1.72,10.91a12.06,12.06,0,0,1-.87,2.95c-1.4,3.09-4.57,3.36-6.5.51C212.94,896.6,212.1,892.42,212.16,886.81Z"/><path class="cls-1" d="M149.4,740.93c.13,2,.39,4,.36,6.05-.06,4.06.28,8,2.56,11.51a2.19,2.19,0,0,1,.37.84c.48,3.64,1.07,7.27,1.34,10.93a10.17,10.17,0,0,1-.89,4.15,5.56,5.56,0,0,1-5.75,3.14,2.89,2.89,0,0,1-1.82-1.74c-1.18-4.54-2.33-9.1-3.19-13.71a27.57,27.57,0,0,1,1.82-15.93c.48-1.14.94-2.27,1.33-3.43C146.08,741.13,147.06,740.34,149.4,740.93Z"/><path class="cls-1" d="M143.4,908.76a25.46,25.46,0,0,1-2.13,9.57,13,13,0,0,1-2.05,3.39,4.41,4.41,0,0,1-7.12-.41,8,8,0,0,1-1.38-5.86c1-6.66,2.1-13.3,3.39-19.91a11.46,11.46,0,0,1,2.28-4.22,2.55,2.55,0,0,1,2.09-.71,2.24,2.24,0,0,1,1.33,1.46c1,3.72,2,7.47,2.83,11.23C143,905.09,143.15,906.94,143.4,908.76Z"/><path class="cls-1" d="M409.45,777.76c.89,3.55,1.53,6.73,2.53,9.8.72,2.21,2.19,4.19,2.86,6.41,1.74,5.81,1.17,11.32-3,16.09-1.32,1.5-3.11,1.8-4.59.48a34.25,34.25,0,0,1-4.37-4.72c-2-2.67-1.11-5.72-.56-8.58.68-3.5,1.7-6.94,2.65-10.39A25.8,25.8,0,0,1,409.45,777.76Z"/><path class="cls-1" d="M147.48,858.66c-.53,4.2-.6,7.63-3.07,10.32a10.73,10.73,0,0,1-1.77,1.67c-3,2-6,.9-6.83-2.6a27.3,27.3,0,0,1-.59-11.82c1-5,2.24-10,3.37-14.93a2.2,2.2,0,0,1,2.65-1.95,2.12,2.12,0,0,1,1.93,2.38c-.12,3.28,1.21,6.15,2.25,9.15C146.39,853.65,146.94,856.57,147.48,858.66Z"/><path class="cls-1" d="M203.32,986c.83-6.13,1.59-11.71,2.36-17.28.24-1.73.5-3.45-.44-5.08a1.84,1.84,0,0,1,1-2.79c1.16-.56,2.48-.64,3.34.56a10.24,10.24,0,0,1,1,2.52c.61,1.71,1.13,3.46,1.81,5.15.53,1.32,1.31,2.55,1.85,3.87a16,16,0,0,1-.2,13.67c-.94,1.93-1.77,3.93-2.55,5.93a3.14,3.14,0,0,1-3.31,2.15,2.8,2.8,0,0,1-3.06-2.4C204.49,990.1,203.84,987.87,203.32,986Z"/><path class="cls-1" d="M292.3,988.61c.64-6.55,1.28-12.73,1.84-18.93.2-2.22,1.88-3.33,3.34-4.49a1.78,1.78,0,0,1,2.82.8,35.44,35.44,0,0,1,3.37,9.43c.51,3,1.54,5.63.3,8.66a13.78,13.78,0,0,0-.49,4.53c-.14,2.9-4.62,5.49-7.08,5C293.46,993.14,292.19,991.57,292.3,988.61Z"/><path class="cls-1" d="M63.54,888.33c-.33,5.67-1,11.23-3.66,16.35a5.86,5.86,0,0,1-3.44,3.3c-1.91.58-2.7.32-3.29-1.52-.71-2.22-1.36-4.37-.85-6.87,1.14-5.5,1.92-11.07,2.85-16.61a8,8,0,0,1,3.57-5.48c1.49-1,2.75-.74,3.51.87A8.16,8.16,0,0,1,63,881C63.24,883.45,63.37,885.9,63.54,888.33Z"/><path class="cls-1" d="M45.72,993.63c.22,6.29-2.7,11.88-5.35,17.54a3.1,3.1,0,0,1-3.48,2,3.5,3.5,0,0,1-2.91-2.82,9.84,9.84,0,0,1-.45-3.33c.58-5.6,1.17-11.19,2.84-16.62A5.61,5.61,0,0,1,41.62,986a2.2,2.2,0,0,1,2.52,1.24C45.17,989.19,46.17,991.11,45.72,993.63Z"/><path class="cls-1" d="M391.08,1045.81c-.69,3.55-1.31,7.49-2.27,11.34a15.72,15.72,0,0,1-2.38,4.57,3.12,3.12,0,0,1-3.66,1.56c-1.54-.42-2-1.56-2.4-2.88-1.17-3.76-.62-7.51.17-11.21.68-3.19,1.66-6.32,2.58-9.46a4.64,4.64,0,0,1,1.1-2.15,3.14,3.14,0,0,0,1-3c-.11-1.11.3-2.11,1.58-2.22a1.88,1.88,0,0,1,2.25,2c-.15,3.06.94,5.81,1.71,8.66A20,20,0,0,1,391.08,1045.81Z"/><path class="cls-1" d="M476.35,933.09a59.11,59.11,0,0,1,3.37-16.36,6.42,6.42,0,0,1,.87-1.61c1.28-1.69,3.5-1.71,4.17.25,1.67,4.83,4.61,9.49,2.79,15a16.62,16.62,0,0,0-.49,3.33,12.18,12.18,0,0,1-3,6.31c-1.4,1.74-3.35,1.91-4.6.11C477.82,937.72,475.87,935.3,476.35,933.09Z"/><path class="cls-1" d="M52.66,942.43a41,41,0,0,1-.55,4.59q-1.39,6.29-3,12.5c-.39,1.46-.9,3-2.89,3.1a3.72,3.72,0,0,1-3.87-2.88,16.91,16.91,0,0,1-.75-6,56.61,56.61,0,0,1,1.6-8.7c.92-3.76,2.08-7.46,3.09-11.2.33-1.23,1-2.07,2.32-2a2,2,0,0,1,1.92,2.32A5.9,5.9,0,0,0,51.9,938C52.64,939.05,52.42,940.75,52.66,942.43Z"/><path class="cls-1" d="M132.81,1050.65c-.38,4.42-1,7.8-3,10.82a26.39,26.39,0,0,0-1.68,3.61c-.59,1.33-1.46,2.28-3,2s-2.09-1.46-2.2-2.91a4.34,4.34,0,0,0-.14-1.51c-2.57-5.13-1-10.42-.73-15.66.15-2.47,1.82-4.25,2.7-6.38a2.16,2.16,0,0,1,2.85-1.21,4.71,4.71,0,0,1,2,2,31,31,0,0,1,1.81,4.51C132,1047.77,132.51,1049.62,132.81,1050.65Z"/><path class="cls-1" d="M299.1,1060.53c-.21,1.42-.31,2.85-.64,4.24a5.81,5.81,0,0,1-8.68,3.22c-1.63-1.15-1.66-2.93-1.51-4.71.27-3.37.75-6.73.79-10.09a13.31,13.31,0,0,1,2.31-6.81c.92-1.53,3.32-1.58,3.67.06C296.06,1051.22,299.45,1055.34,299.1,1060.53Z"/><path class="cls-1" d="M360.37,532.16a74.54,74.54,0,0,0-7.93,4.4c-3.63,2.58-7.06,3-11,.75a12.82,12.82,0,0,0-7.44-1.4,7.59,7.59,0,0,1-5.7-1.66c3.82,0,6.4-1.48,9-3.21,4.52-3.07,9.45-2.52,14.4-1.13C354.45,530.71,357.32,531.38,360.37,532.16Z"/><path class="cls-1" d="M189.85,312.16a6.16,6.16,0,0,1-6.26,6.47,6.47,6.47,0,0,1-6.63-5.87,4.65,4.65,0,0,1,.48-2c.46-1.13,1-2.22,1.55-3.32a4.35,4.35,0,0,1,4.71-2.51A7.25,7.25,0,0,1,189.85,312.16Z"/><path class="cls-1" d="M351.54,46.64c-.35-2.81-.7-5.63-1-8.38,4.6,5.33,3.8,15.18-1.78,19.76.49-1.66,1-3.16,1.37-4.71a17.89,17.89,0,0,0,0-3.14c-1.16,2.21-2,3.79-3.06,5.86l-1.47-5.23-.62.05c-.11,1.72-.23,3.43-.34,5.14-2.32-3.49-3.77-7-2.1-11.17a79.4,79.4,0,0,1,3.75-8.75l-1.23,9.25.8.17c.51-1.85,1-3.71,1.75-6.31l3.13,7.71Z"/><path class="cls-1" d="M146.91,298.54c0-4,2.66-6.85,6.32-6.89,3.16,0,6.15,2.7,6.34,6.67.18,3.67-2.65,6.32-6.43,6.32S146.91,302.28,146.91,298.54Z"/><path class="cls-1" d="M171.91,290.54a5.47,5.47,0,0,1,5.61,5.94c-.1,3.79-3.24,7-6.76,7-3.08,0-6.13-3.26-6.17-6.55S168,290.51,171.91,290.54Z"/><path class="cls-1" d="M144.24,320.75c-3.66,0-5.91-2.32-6-6.17-.05-3.41,3.1-7.09,6-7,2.67.06,6.94,4.33,6.93,6.93C151.19,317.94,148.08,320.74,144.24,320.75Z"/><path class="cls-1" d="M145.48,331.08c0-3.09,3.55-6,7.31-6,2.86,0,5.89,2.94,5.81,5.6-.11,3.91-2.87,7.14-6.25,7C148.14,337.57,145.55,335.27,145.48,331.08Z"/><path class="cls-1" d="M181.4,330c-.05,2.69-3.07,5.41-6.13,5.25-3.7-.2-6.39-2.94-6.72-7.73-.2-2.93,2.62-5.23,6-5.17C178.14,322.41,181.47,326.13,181.4,330Z"/><path class="cls-1" d="M545.12,319.64c-.06,3.42-2.08,5.75-5.24,6-3.64.33-6.93-1.8-6.84-5.34.06-2.3,1.64-4.72,3-6.76.88-1.32,2.79-1.07,4.3-.62A6.42,6.42,0,0,1,545.12,319.64Z"/><path class="cls-1" d="M496.22,321.62c0-3.13,2.76-6.36,5.4-6.42s6.91,4.09,6.9,6.52c0,3.19-3.31,6.17-6.83,6.16S496.17,325.68,496.22,321.62Z"/><path class="cls-1" d="M533.41,304.55c0,3.47-3.1,6.91-6.14,6.93s-6.25-3.52-6.18-6.56,3.68-6.06,7.37-6A5.37,5.37,0,0,1,533.41,304.55Z"/><path class="cls-1" d="M516.15,306.64c.49,3.12-2.25,5.81-6,5.81a5.61,5.61,0,0,1-5.9-6,6.2,6.2,0,0,1,6.13-6.33C513.11,300,516.65,303.05,516.15,306.64Z"/><path class="cls-1" d="M503,337.61c0-3,3.3-5.72,6.8-5.74,2.67,0,5.61,2.64,5.66,5.1.08,3.76-2.93,7.08-6.31,7A6.12,6.12,0,0,1,503,337.61Z"/><path class="cls-1" d="M525.07,334.16a5.3,5.3,0,0,1,7.5-4.57,7.74,7.74,0,0,1,4.28,5,4.55,4.55,0,0,1-1.64,5.47c-2.32,1.81-4.37,2.05-6.51.75A6.82,6.82,0,0,1,525.07,334.16Z"/><path class="cls-1" d="M170.75,406.94c1.18-.33,1.72-.67,2.14-.56,5.74,1.47,9.14,5.51,11.37,10.69a10.38,10.38,0,0,1,.63,4.16c0,3.68-.21,7.36-.42,11-.13,2.33-.24,2.36-3.2,2.46a20.08,20.08,0,0,1,.24-3.24,21.68,21.68,0,0,0,.05-9.45,2.51,2.51,0,0,1-.1-.6c.49-6.5-3.53-10.1-8.42-13.15C172.54,408,172,407.68,170.75,406.94Z"/><path class="cls-1" d="M408,62.5a10.25,10.25,0,0,1-1.59-2.65,64.66,64.66,0,0,1-1.18-7.22,2.18,2.18,0,0,1,.78-1.79,2.12,2.12,0,0,1,1.89.31c2.06,1.66,4.05,3.42,6,5.2.76.68.6,1.46-.21,2C412,59.7,410.15,61,408,62.5Z"/><path class="cls-1" d="M253.39,87c.23-1.16.44-2.35.7-3.53.5-2.26,1.25-2.7,3.34-1.84a29.15,29.15,0,0,1,3,1.56A2.85,2.85,0,0,1,261,88a25.59,25.59,0,0,1-5.32,2.84,1.88,1.88,0,0,1-1.62-.83A14.19,14.19,0,0,1,253.39,87Z"/><path class="cls-1" d="M289.66,52.29c-.47,3.55-.61,4.51-4.75,3.58a4.76,4.76,0,0,1-1.13-.45c-4-2.1-4.07-3.23-.24-5.71.84-.55,1.57-1.28,2.37-1.9,1.47-1.12,2.31-.87,3,.88a9.37,9.37,0,0,1,.35,1.48C289.4,50.87,289.53,51.57,289.66,52.29Z"/><path class="cls-1" d="M422.43,164.22c.69-.28,1.23-.74,1.59-.62,3.14,1,6.26,2.17,9.55,3.34a25.09,25.09,0,0,1-.94,2.51c-2,3.94-3.52,4.07-6.18.56-1.1-1.46-2.17-2.94-3.24-4.42A14.57,14.57,0,0,1,422.43,164.22Z"/><path class="cls-1" d="M260.91,156.77c2.12-2.55,6.36-3.6,8.66-2.22a2,2,0,0,1,.68,1.7,45,45,0,0,1-1.71,4.76c-.55,1.37-1.65,1.62-3,.72a5.38,5.38,0,0,1-.89-.83C263.47,159.58,262.26,158.24,260.91,156.77Z"/><path class="cls-1" d="M249.53,118.11c3.54-.9,6.09.44,8.66,1.12,1.35,4.21.28,5.75-4,5.72a3,3,0,0,1-2.2-1.15A55.88,55.88,0,0,1,249.53,118.11Z"/><path class="cls-1" d="M437.16,87.83c-2.73,1.15-6.16.87-10-.74l4.73-7C435.19,81.78,435.47,85.11,437.16,87.83Z"/><path class="cls-1" d="M133.14,300.84a3.82,3.82,0,0,1,3.91-4.09,4,4,0,0,1,3.68,3.8c0,2.37-1.39,4.05-3.42,3.83C134.15,304,133.06,303.85,133.14,300.84Z"/><path class="cls-1" d="M165.6,337.39c1.73.07,3,2,2.86,4.27-.12,2.16-2,4.09-3.83,4-1.62-.07-3.54-2.83-3.39-4.88A4,4,0,0,1,165.6,337.39Z"/><path class="cls-1" d="M434.15,121.25c2.76-.48,4.32-2.35,6.77-2.19,1.36.09,2.12.41,2.28,1.82.21,1.75.48,3.49.82,5.92C440.21,125.37,436.54,125.28,434.15,121.25Z"/><path class="cls-1" d="M157.82,284.75c.18-3.27,1.5-4.81,4-4.68a3.36,3.36,0,0,1,3.33,3.62c-.11,2-2.61,4.08-4.78,4S157.71,286.88,157.82,284.75Z"/><path class="cls-1" d="M522,343.57c1.65.05,2.85,1.78,2.78,4s-1.68,4-3.51,3.94c-1.6,0-3.32-2.49-3.25-4.61A3.62,3.62,0,0,1,522,343.57Z"/><path class="cls-1" d="M494.64,312.12c-2.74-.12-3.51-1-3.35-3.88.12-2.08,1.41-3.21,3.62-3.15,1.9.05,3.71,1.72,3.68,3.39A3.6,3.6,0,0,1,494.64,312.12Z"/><path class="cls-1" d="M514.73,293.53c.1-3.36,1.36-4.73,4.07-4.43a3.06,3.06,0,0,1,2.54,4.5,4.43,4.43,0,0,1-3.89,2.6C515.27,296.26,514.66,295.68,514.73,293.53Z"/><path class="cls-1" d="M187.39,325.9a3.85,3.85,0,0,1,3.58-4.1c1.37,0,2.77,1.93,2.75,3.83a3.92,3.92,0,0,1-3.69,4.06C188.41,329.67,187.43,328.26,187.39,325.9Z"/><path class="cls-1" d="M192.52,296.08a2.94,2.94,0,0,1-3.28,3.12c-1.92,0-3.7-1.41-3.68-2.91,0-2,1.88-4.11,3.7-4.14C191.25,292.12,192.54,293.68,192.52,296.08Z"/><path class="cls-1" d="M548.82,332.79c-.18.44-.32,1.63-1,2.22a5,5,0,0,1-3,1.06c-1.15,0-1.65-1-1.77-2.15-.07-.6-.34-1.19-.35-1.79a3.62,3.62,0,0,1,3.39-3.35C547.59,328.72,548.78,330.22,548.82,332.79Z"/><path class="cls-1" d="M136.69,331.83a3.45,3.45,0,0,1-3.31-3.05c0-2,1.65-3.4,4-3.35a3.24,3.24,0,0,1,3.29,3.27C140.59,330.37,138.64,331.91,136.69,331.83Z"/><path class="cls-1" d="M544.6,307.28c-1.77,0-3.45-1.36-3.47-2.77,0-1.86,1.82-4.05,3.43-4.09s3.47,2,3.41,4A3.33,3.33,0,0,1,544.6,307.28Z"/><path class="cls-1" d="M494.79,338.3a3,3,0,0,1-3.28-2.89c0-2,1.39-3.21,3.62-3.2a2.9,2.9,0,0,1,3.13,3A3.36,3.36,0,0,1,494.79,338.3Z"/><path class="cls-1" d="M203.6,311c0,1.4-1.26,2.4-3,2.35a3.14,3.14,0,0,1-3.1-3.14,3.22,3.22,0,0,1,3.23-3C202.28,307.25,203.61,309,203.6,311Z"/><path class="cls-1" d="M184.3,344.8a3.16,3.16,0,0,1-3.17,3.4,2.58,2.58,0,0,1-2.65-2.74,3.75,3.75,0,0,1,3.45-3.31C183.3,342.14,184.24,343.19,184.3,344.8Z"/><path class="cls-1" d="M555.63,320.73a3,3,0,0,1-3.09-3.09,2.83,2.83,0,0,1,2.78-2.67c1.64-.08,3,1.52,3.06,3.49C558.4,319.67,557.18,320.67,555.63,320.73Z"/><path class="cls-1" d="M340.69,66.32c.71-1.47,1.18-2.45,1.69-3.53,1.42.61,2.7,1.6,4,1.59s2.53-1,4.05-1.73l2.34,2.74C348.6,66.14,344.83,65.68,340.69,66.32Z"/><path class="cls-1" d="M142,347.37c0-2,1.07-3.37,2.73-3.42a2.63,2.63,0,0,1,2.59,2.83,3,3,0,0,1-3.22,3C142.52,349.67,142,349.08,142,347.37Z"/><path class="cls-1" d="M177.55,280.27c0-2.36.95-3.49,2.92-3.42a2.4,2.4,0,0,1,2.61,2.39,3.61,3.61,0,0,1-3.38,3.34C178.25,282.61,177.55,281.86,177.55,280.27Z"/><path class="cls-1" d="M139.31,282c0-1.82.78-2.72,2.47-2.8a2.31,2.31,0,0,1,2.65,2.58c0,2-1.2,3.58-2.62,3.52S139.33,283.81,139.31,282Z"/><path class="cls-1" d="M540,350.82a3.19,3.19,0,0,1-3.25,3.05,2.39,2.39,0,0,1-2.26-2.45,3.13,3.13,0,0,1,3.1-3.16A2.22,2.22,0,0,1,540,350.82Z"/><path class="cls-1" d="M533.41,289.09c0-2,.87-3,2.6-3.11s2.7.83,2.73,2.25a3.49,3.49,0,0,1-3.17,3.2C534.21,291.52,533.45,290.69,533.41,289.09Z"/><path class="cls-1" d="M502,291.05c-.15,1.61-1.32,3.08-2.42,3.05-1.36,0-2.68-2-2.46-3.66a2.47,2.47,0,0,1,2.63-2.36C501.21,288.15,502.11,289.34,502,291.05Z"/><path class="cls-1" d="M499.52,353.1c0-1.88,1.31-3.39,2.82-3.35a2.78,2.78,0,0,1-.57,5.53C500.2,355.26,499.5,354.58,499.52,353.1Z"/><path class="cls-1" d="M130,315a2.42,2.42,0,0,1-2.62,2.36,3,3,0,0,1-2.67-2.84,2.58,2.58,0,0,1,2.85-2.14A2.61,2.61,0,0,1,130,315Z"/><path class="cls-1" d="M488.29,322.07a2.35,2.35,0,0,1-2.24,2.4,2.65,2.65,0,0,1-2.76-2.67c0-1.19.8-1.89,2.25-2A2.41,2.41,0,0,1,488.29,322.07Z"/><path class="cls-1" d="M122.86,339.61c0,1.08,0,2.25-1.53,2.32a2.38,2.38,0,0,1-2.14-2.48,2.11,2.11,0,0,1,2-2.23C122.63,337.29,122.9,338.3,122.86,339.61Z"/><path class="cls-1" d="M165.39,364.75c0,1.79-.91,2.78-2,2.83a1.79,1.79,0,0,1-1.85-1.95c0-1.27,1.24-2.58,2.32-2.23C164.55,363.63,165.06,364.45,165.39,364.75Z"/><path class="cls-1" d="M481.61,346.08a1.64,1.64,0,0,1-1.63,1.77,2.25,2.25,0,0,1-.17-4.45C480.91,343.4,481.59,344.29,481.61,346.08Z"/><path class="cls-1" d="M520.91,368.3a5.47,5.47,0,0,1,1.1,1.85c.18,1-1.18,2.22-2.16,2.14a1.7,1.7,0,0,1-1.62-1.88A2.34,2.34,0,0,1,520.91,368.3Z"/><path class="cls-1" d="M140,269.19c-.86-1.13-1.6-1.72-1.8-2.46-.29-1.06.94-2.17,2.06-2.06s1.78.83,1.54,1.82C141.58,267.31,140.82,268,140,269.19Z"/><path class="cls-1" d="M271.2,230.7l-3-5.44h3c.26,1.79.49,3.46.73,5.14Z"/><path class="cls-1" d="M211.34,332.39c-1.07.9-1.69,1.8-2.5,2-1,.27-1.67-.5-1.71-1.62s.54-2.12,1.71-2C209.56,330.81,210.23,331.62,211.34,332.39Z"/><path class="cls-1" d="M163.34,266c-.08,1.6-1.07,2.51-2.08,2.32a1.73,1.73,0,0,1-1.58-1.92c0-1.17.92-2,2-1.7C162.41,264.88,163,265.65,163.34,266Z"/><path class="cls-1" d="M206.06,279.26c-1.15.86-1.81,1.64-2.62,1.88s-1.85-1-1.7-2c.17-1.16.93-1.92,2.06-1.67C204.49,277.62,205,278.42,206.06,279.26Z"/><path class="cls-1" d="M181.94,266c-.81-1.33-1.51-2.05-1.66-2.87-.18-1,.62-1.65,1.65-1.77s2.15.72,1.87,1.78C183.58,264,182.84,264.67,181.94,266Z"/><path class="cls-1" d="M108.88,314.6c.33.44,1.17,1.09,1.34,1.89.2,1-.68,1.63-1.7,1.74a1.72,1.72,0,0,1-1.86-1.91C106.66,315.23,107.15,314.59,108.88,314.6Z"/><path class="cls-1" d="M192.07,359.13c-.68-1.19-1.5-2-1.38-2.58a2.93,2.93,0,0,1,1.73-1.77c.87-.32,2,1.07,1.65,2C193.78,357.53,193,358.07,192.07,359.13Z"/><path class="cls-1" d="M537.28,274.81c-.33-.41-1.14-1-1.27-1.7a1.76,1.76,0,0,1,3.49-.41C539.67,273.75,538.84,274.73,537.28,274.81Z"/><path class="cls-1" d="M518.18,278.57c-.81-1.21-1.53-1.83-1.66-2.57-.18-1,.5-1.7,1.63-1.68s1.83.63,1.62,1.7C519.63,276.74,519,277.36,518.18,278.57Z"/><path class="cls-1" d="M500.11,276.1c-1.06.86-1.72,1.8-2.33,1.78a2.82,2.82,0,0,1-1.82-1.57c-.33-.73,1-2.14,1.84-1.9S499.08,275.31,500.11,276.1Z"/><path class="cls-1" d="M558.48,285.68c.66,1.25,1.28,1.93,1.35,2.67a1.47,1.47,0,0,1-1.75,1.63,1.44,1.44,0,0,1-1.47-1.86C556.82,287.39,557.57,286.82,558.48,285.68Z"/><path class="cls-1" d="M122.38,289.43a11.56,11.56,0,0,1-2.63,1.65,1.36,1.36,0,0,1-1.68-1.34c-.1-1.07.52-1.9,1.57-1.8C120.38,288,121.06,288.67,122.38,289.43Z"/><path class="cls-1" d="M550,361.94c-1.14.75-1.82,1.52-2.51,1.54s-1.39-.8-1.61-1.43c-.29-.85,1.07-2.1,2-1.8C548.47,360.46,549,361.12,550,361.94Z"/><path class="cls-1" d="M564.89,339.39c-.4.34-.95,1.09-1.65,1.3-.89.27-1.57-.36-1.63-1.35s.26-1.88,1.4-2S564.72,337.77,564.89,339.39Z"/><path class="cls-1" d="M132.73,363.29c-.84-1.12-1.6-1.71-1.75-2.42a1.43,1.43,0,0,1,1.55-1.76,2.5,2.5,0,0,1,1.69,1.64C134.31,361.35,133.48,362.1,132.73,363.29Z"/><path class="cls-1" d="M480.86,298.11c-1.17.74-1.85,1.51-2.52,1.5a2.22,2.22,0,0,1-1.48-1.55,1.38,1.38,0,0,1,1.75-1.5C479.25,296.67,479.79,297.34,480.86,298.11Z"/><path class="cls-1" d="M490.62,368.33c-.73-1.26-1.38-1.93-1.48-2.66a1.2,1.2,0,0,1,1.6-1.29c.64.18,1.6,1,1.56,1.4C492.24,366.49,491.47,367.13,490.62,368.33Z"/><path class="cls-1" d="M573.52,316.78c1.54.18,2,.86,1.73,1.75-.18.53-1.1,1.3-1.36,1.19-.63-.27-1.4-1-1.47-1.54S573.24,317.11,573.52,316.78Z"/><path class="cls-1" d="M467.92,322.25c1.58,1.23,1.58,1.23.44,3Z"/><path class="cls-1" d="M319.92,150.65c1.67-3.09,3.24-5.93,4.77-8.79,2.35-4.4,4.58-5.62,9.14-4.87a3.28,3.28,0,0,1,1.17.32c2.26,1.34,4.51,2.73,6.89,4.17-.22,5.24-3,8.92-7.8,11.2-1.57.75-3.23,1.31-4.87,1.91a4.39,4.39,0,0,1-4.13-.37C323.23,153,321.41,151.68,319.92,150.65Z"/><path class="cls-1" d="M348.09,140.22c1-.27,2-.45,3-.77a4.52,4.52,0,0,0,1.78-1,4.73,4.73,0,0,1,6.11-1.17,14.18,14.18,0,0,1,7,6.94,66,66,0,0,0,4.4,7,22.35,22.35,0,0,1-11,2.42c-4.5-.26-7.13-3.22-9-6.88A48,48,0,0,1,348.09,140.22Z"/><path class="cls-1" d="M349.15,152.67l-5.64-1.55q.84-2.46,1.79-5.21Z"/></svg>