
<svg id="Layer_1" data-name="Layer 1" xmlns="http://www.w3.org/2000/svg" viewBox="0 0 1799.86 956.45"><defs><style>.cls-1{fill:#eee9db;}</style></defs><path class="cls-1" d="M1325.29,330c-1.57-8.33-3-16.66-4.71-25-2.43-12.14-.92-23.82,8.11-32.43,4-3.86,11.17-5.23,17.14-6.16,11.15-1.73,22.54-1.94,33.71-3.55,5.21-.75,10.09-3.57,15.25-5,17.32-4.73,34.72-9.16,52-13.87,11.42-3.11,22.8-6.47,34.84-5.21,5.7.61,11.48,1.14,17,2.59,2.74.72,5.16,3.22,7.4,5.26,5.58,5.08,11,10.37,16.44,15.53,8.58,8.09,11.6,19.17,15.85,29.57.47,1.14.08,2.81-.32,4.11-2.85,9.25-5.8,18.46-8.75,27.68-.36,1.14-.61,2.69-1.44,3.24-8.22,5.33-13.63,14.77-24.32,16.5a30.34,30.34,0,0,0-5.86,2c-13.49,5.17-27,10.36-40.66,14.6,4.52-4.91,9.41-9.55,13.47-14.83s8.14-10.63,10.36-16.65c3.49-9.51,6.69-19.46,7.71-29.46,1.3-12.76-7.48-21-16.88-28.18-1.5-1.13-3.3-1.85-4.88-2.89-2.48-1.64-4.43-3.05-3.49-7,1-4.24-2.22-7.15-6-6.29q-28.51,6.45-57,13.23a32.85,32.85,0,0,0-10.36,4.09c-10.57,7-8.32,17.21-6.39,27.35,2.81,14.81,7,29.6,7.51,44.51.29,8.26-1.91,16.7.48,25.16.26.92-1.64,3.18-3,3.68-3.55,1.35-7.38,2-11,3.1-3.22,1-7.06,1.52-9.35,3.63-4.41,4.08-10.42,6.54-12.38,13.46-1,3.52-5.72,4.44-9.63,6-10.33,4.17-21.3,3.54-31.66,6.58-9.59,2.81-19.45,4.79-29.28,6.76-6,1.19-9.09,4.42-9.24,10.45-.22,8.7-1.36,17.52-.32,26.08,1.55,12.72,9.35,22.21,19.17,30.11a24.83,24.83,0,0,1,5.51,6.11c1,1.66,1.87,3.54-1.07,5.51-6.65,4.48-8.62,14-4.51,20.89,3.36,5.62,7.22,11.15,14.63,11.2-.39-5.69-1.06-10.92-1-16.15s2.7-6.55,7.09-3.64c16,10.61,34.38,12.71,52.56,12.11,14.57-.48,29-4.61,43.49-7.4,10.85-2.09,21.62-4.6,32.42-7a10.46,10.46,0,0,0,2.19-1.05l.3-1.59c-3.11-.86-6.19-2.3-9.35-2.49-6.55-.38-13.15-.11-19.73-.11-12.31,0-24.61-.06-36.92,0a37.93,37.93,0,0,0-7.23,1c-13.47,2.78-26.21-1.24-39-4.35-3.31-.8-6.26-3-9.38-4.61l.44-1.74c8.16,0,16.33-.27,24.48.07,9.24.38,18,0,25.73-6.21,11.69-9.29,16.89-24.21,12.7-38.63-.82-2.82-2-5.55-2.72-8.39-1.45-5.54-5-9.15-9.42-12.71-5.14-4.16-9.44-9.41-13.8-14.44a4.69,4.69,0,0,1-.17-4.56c.72-.9,3-.89,4.54-.77,6.09.5,12.21.9,18.23,1.88q15.93,2.61,31.74,5.88c11.2,2.31,22.62,4.1,33.4,7.72,9.94,3.35,19.23,8.67,28.62,13.5,1.72.89,2.44,3.63,3.75,5.42,6.47,8.81,9,19.43,10.27,29.6,1.66,13.13-2.17,25.65-13.61,34.37a3.5,3.5,0,0,0-.79.69c-11.29,15.87-29.46,17.69-46.12,22.6-2,.58-4,1.3-5.94,1.87a292.93,292.93,0,0,1-57.76,10.84,50.31,50.31,0,0,0-9.64,2c-10.82,3.07-21.6,6.25-32.38,9.45a12.41,12.41,0,0,0-4.68,2.07c-1.87,1.63-4.48,3.73-4.55,5.71-.06,1.6,3,3.47,5,4.95,3,2.34,6.17,4.45,9.25,6.68,1.25.91,2.31,2.25,3.7,2.8,13.32,5.28,23.11,15.86,35,23.24a12.75,12.75,0,0,1,4,4.08c5.2,8.55,10.45,17.08,15.23,25.86,2.56,4.68,2.17,9.69-.56,14.48-3.15,5.56-6.66,11-9,16.92-3.43,8.75-10.73,13.59-18.12,17.24-18.77,9.25-38.33,16.88-57.21,25.93-19.88,9.54-40.63,15.42-62.34,19.15-20.62,3.54-40.94,8.83-61.35,13.55-3.51.81-6.7,3-10.2,3.85-5.64,1.44-11.41,2.48-17.16,3.45-8,1.36-16,3.14-24.15,3.61-17.12,1-32,10-48.65,12.69-3.44.54-6.9,1.74-10.29,1.57-15.43-.79-29.63,3.76-43.35,9.89-13.41,6-27.11,8.84-41.9,9.54-19.87.95-38.78,7.49-57.05,15.23-9.12,3.87-18.53,5.48-28.24,6.7-21.39,2.67-42.7,5.89-64,8.81-3.1.42-6.39,1-9.38.46-10.82-2.08-21.13.42-31.56,2.58-2.19.46-4.67-.28-7-.62-8.75-1.28-17.5-2.56-26.23-4-8.18-1.31-16.43-2.43-24.5-4.26-11.78-2.67-23.42-5.91-33-8.37-2.72-5.26-4.6-9-6.59-12.74-2.23-4.18-4.75-7.61-4.14-13.36,1-9.63.25-19.56-.83-29.24-.33-2.86-3.78-6.63-6.64-7.68-6.09-2.22-11.46,2.63-10.21,9.11,2.36,12.2,1.86,24.35,0,36.43-.43,2.85-3.34,5.6-5.69,7.79-1.68,1.57-4.68,1.71-6.46,3.22-6.69,5.72-14.33,7.06-22.88,6.56-10.4-.61-20.13,2.7-30,5.67a387.11,387.11,0,0,1-44.85,10.91c-23.59,4.07-47.09,7.55-69.6,16.71-12.69,5.16-26.82,6.71-40.21,10.22-15.55,4.07-31,8.55-46.51,12.76-9,2.45-18.39,3.94-27,7.27-10.28,4-20.69,8.36-29.76,14.49-13.37,9-27.86,14.65-43.14,18.94A66.29,66.29,0,0,0,297.23,891,450.78,450.78,0,0,1,223,920.54c-12.59,3.84-23.6,10.77-33.95,19.17-8.51-9.83-17.31-19.68-25.75-29.83-10.73-12.89-21.09-26.09-31.76-39-10.11-12.28-16.14-26.75-22.05-41.2-10.81-26.44-21.88-52.81-31.37-79.72C72.55,734,70.3,717,65.52,700.72c-4.24-14.41-10.4-28.25-14.75-42.64a164.7,164.7,0,0,1-6.05-30c-2-18.24-3-36.59-4.26-54.9-.52-7.34-.57-14.71-1.13-22.05-.72-9.54-1.73-19.07-2.69-29.45,4.31,0,8.54-.64,12.51.11,12.52,2.37,24.73-.15,37-1.51,6.41-.71,12.93-2.27,19.24-1.67,26.08,2.46,50.9-3.61,75.71-10.1,19.93-5.22,39.72-11,59.76-15.69,12.8-3,26-4.37,38.91-7s25.64-5.91,38.46-8.85c19.4-4.45,38.72-9.26,58.24-13.1,10.4-2.05,21.14-2.3,31.71-3.51,8.81-1,17.59-2.29,26.4-3.34s17.65-2.4,26.52-2.89c23.46-1.29,46.95-2,70.4-3.33,16.91-1,33.81-2.49,50.66-4.27,5.44-.58,10.81-2.48,16-4.3,3.76-1.31,6.11-1.45,7.6,3,3.58,10.79,7.73,21.39,11.26,32.19,4.38,13.46,8.59,27,12.42,40.62,1.63,5.82,2,12,3.17,17.93.61,3.17.09,7.68,6.74,6.27-.59-12.27-.47-24.76-2-37-2-16.18-5.14-32.22-8.07-48.27-.77-4.22-1.82-8.73-4.07-12.24-3.2-5-3.62-10.06-3.28-15.53.38-6.2,4-8,9.49-5.3,13.94,7,24.69,17.49,33.82,29.9,2.17,2.95,4.86,5.51,7.51,8.47,2.72-1.5,3.34-2.71,2.18-5.81-5.11-13.68-14.45-24.48-23.4-35.55-1.82-2.25-4.39-3.94-6.74-5.72-4.4-3.33-5.13-7.78-2.48-12.05a92.62,92.62,0,0,1,11.37-14.85c4.49-4.77,9.53-1.43,14.2.44a67.13,67.13,0,0,1,6.24,3.43c-.24-2-.14-3.12-.53-4.05-.94-2.23-2.06-4.4-3.21-6.53-2.06-3.83-1.85-7,1.34-10.45,5.38-5.86,9.86-12.54,15.29-18.35,7.75-8.29,15.9-16.21,24.09-24.06,5.55-5.34,11.31-10.5,17.27-15.37,10.27-8.4,20.9-16.35,31.12-24.79,8.63-7.12,17.08-14.48,25.27-22.09,10.67-9.93,21.33-19.91,31.39-30.45,6.59-6.88,11.89-15,18.18-22.18,7.84-9,16.35-17.35,24.11-26.38A72.84,72.84,0,0,0,869,172a64.24,64.24,0,0,1,24.38-27.19c7.85-4.87,16.52-6.73,25.79-7.5a106.43,106.43,0,0,0,26.41-5.4c13.82-4.89,27.76-9,42.35-10,12.21-.9,23.09-5.9,34.41-9.62,17.26-5.66,34.77-10.62,51.76-17,12.16-4.55,23.5-11.27,35.54-16.19,5-2,10.87-1.75,16.28-2.81,13.94-2.73,27.22.85,40.73,3.5s27.07,4.33,40.69,5.88c4.39.49,9.06-.47,13.46-1.43,2.82-.62,3.73-.21,4.18,2.64,1.6,10.06,6.2,14.05,16.31,14.8,8,.59,16,1.75,24,1.95a50.68,50.68,0,0,0,13.87-1.92c21.44-5.64,42.83-11.41,62-23.26,4.68-2.9,10-4.81,16.21-7.76-2.27,6.67-3.84,12.7-6.34,18.32-6.39,14.37-15.43,26.94-25.12,39.43-17,21.9-38.83,36.23-63.44,47.87-17.6,8.33-36.87,9.18-55,14.87-2.72.86-6,0-8.93.19-5.4.26-10.81.58-16.19,1-9,.78-15.38-3.22-18.62-12-1.56-4.23-3.22-8.44-4.59-12.73-1.3-4-2.27-8.21-3.62-13.18-7.14,13.65-8.89,27-5,42.11A105.55,105.55,0,0,1,1116,220.84c-13.07,5.57-26.09,11.28-39.12,17-6.2,2.7-12.58,1.54-18.87.71-3.92-.51-7.74-1.89-11.66-2.5-1.2-.18-3.38.61-3.71,1.48-.48,1.26-.23,3.63.67,4.43a71,71,0,0,0,8.54,5.94c4.2,2.74,4.42,4.61.13,7.07-11.89,6.8-19.46,17.23-25.07,29.28a12.12,12.12,0,0,0-1.1,7.45c1.24,4.78,5.3,7.87,10,2.75,2.51-2.7,5.48-5.11,7.41-8.17,5.69-9.06,15.48-8.59,21.44,1.56.26.45.54.88.81,1.32l1.43-.63c-1.3-4.06-2.21-8.3-4-12.14-2.18-4.7-1.37-7.92,3.2-10.27,6.89-3.55,14.35-6.31,20.55-10.81,17.45-12.7,39.26-17.05,56.44-30.09,5-3.8,9.86-7.79,14.59-11.92,2.37-2.06,4.42-2.36,7.73-2.27,7.57.2,15.2-1.34,22.8-2.18a25.58,25.58,0,0,1,4.64-.57c12.15.91,23.77-2.09,35.64-4a169.7,169.7,0,0,0,56.83-19.23c21.23-11.85,40.12-26.34,55.13-46.41,9.47-12.65,18.65-25.2,25.31-39.41,2.86-6.1,3.83-13.06,6-19.54.43-1.34,2.06-3.08,3.3-3.22,8.61-1,17.26-1.61,25.9-2.27,4-.31,5.2,1.81,5.67,5.69.66,5.43,1.58,11.09,3.8,16,3.22,7.1,7.54,13.74,11.77,20.33,1,1.51,3.5,2,5.31,3,.26-1.82,1.08-3.76.71-5.43-2.38-10.68-5.53-21.15-5-32.37.54-10.58,4.27-14.94,12.66-17.11,9.39-2.42,18.47-6.08,27.91-8.28,18.18-4.23,36.75-4.6,55.32-3.94,4.73.17,5.25,4.68,5.49,8,.94,12.47,4.67,23.78,12.8,33.37a31.09,31.09,0,0,0,8,6.62c1,.6,3.57-.67,4.92-1.72.51-.41,0-2.82-.64-3.92-6.93-11.29-11.89-23.19-10.59-36.73a12.35,12.35,0,0,1,4.29-7.63,46.46,46.46,0,0,1,11.77-6.46c18.77-7.35,38.43-11,58.42-12.66,12.53-1.07,25.13-1.34,37.69-2.21,12.91-.89,25.79-2.53,38.72-3C1703.47,25.28,1716,30,1727.65,36c5.8,3,10.67,7.83,12.14,15.07s4.11,14,5,21.17c1.82,14-1.69,17.74-14.07,22-6.47,2.23-13.06,4.55-19,7.92-18.45,10.5-38.41,16.62-58.86,21.58-15.82,3.83-31.55,8-47.4,11.76-5.06,1.19-10.39,1.19-15.56,2-7,1.09-14.14,1.82-20.92,3.77-15.78,4.54-31.27,10.13-47.12,14.45-7.81,2.13-16.41,1.42-24.16,3.69-15.42,4.52-30.45,10.35-45.73,15.39s-31.23,9.17-46.35,15c-18,7-35.27,15.61-53.07,23-14.72,6.14-29.78,11.48-44.64,17.31-15,5.9-21,18-22.93,33.15-.88,7.08,5.24,12.39,13.37,11.22.84-.12,1.66-.9,2.44-.83,2.34.21,5.61-.08,6.72,1.28s.41,4.63-.33,6.77c-3,8.6-3.46,17,1,25.23,3.65,6.7,7.25,13.43,11.11,20,1,1.7,2.93,2.84,4.44,4.24ZM1259,638.88c4.66,2.62,7.55,4.67,10.75,6,9.73,3.95,19.66,7.45,26.61,16,.83,1,2.31,1.54,3.53,2.2,3.81,2,7.76,1.47,9.68-2.05,1.43-2.62,2.23-7.5.76-9.43-3.8-5-7.49-10.24-13.81-13.09a291.5,291.5,0,0,1-26.94-14.15c-4.92-2.87-8.77-8-13.92-10-8.53-3.2-9.57-10-11.77-18,4.88,1.91,8.9,3.4,12.86,5,7.32,3,14.44,6.69,22,9.14,9.32,3.05,19.28,3.78,25.94-4.86a42.13,42.13,0,0,0,8.83-28.73c-.43-6.7-1.93-13.34-3.19-20-.52-2.73-.85-6.63-2.67-7.78a220.9,220.9,0,0,0-25-13.73c-6.08-2.82-13.3-3.39-19-6.67-7.54-4.32-15.21-5.07-23.51-5.24-6.44-.13-10.32,2.81-14.13,7.37-7.62,9.1-10.87,20-13.83,31.1a24.94,24.94,0,0,0,9.87,27c1.15.79,2.5,2,2.82,3.21,2,7.82,3.49,15.82,5.88,23.54.89,2.91,3.42,5.58,5.81,7.69s5.71,3.6,8.39,5.22c-2.35,4.63-4.42,8.79-6.57,12.91a63.19,63.19,0,0,0-7,33.72c.11,1.85,1.66,3.62,2.23,4.77Zm-116.1,8.77c0-6.16,0-12.45,0-18.75.1-14.53,0-29.07.41-43.59.38-15,.87-30.09,1.92-45.1.59-8.46,3.67-16.87,3.4-25.24-.49-15.56,3.27-30,8.47-44.29,7.1-19.52,15.1-38.77,21.2-58.6a521,521,0,0,1,48.29-110.24c.85-1.45,1.08-3.26,1.59-4.9-6.06,3.68-12.26,7.14-15.84,12.39a344.33,344.33,0,0,0-21.1,35.93c-6.35,12.34-10.75,25.71-17.47,37.83-7.32,13.21-14.48,26.31-19.36,40.69-6.67,19.69-15.9,38.7-20.6,58.81-4.6,19.67-5.48,40.31-6.82,60.61-.71,10.68,1,21.54,1.79,32.3.71,9.41,2.54,18.61,2.59,28.22.08,13.3,3.26,26.55,4.67,39.87C1136.51,648.09,1138.35,648.89,1142.89,647.65Zm-14.45-404.21-1.69-.56c-1.06,2.22-2.65,4.33-3.08,6.66-1,5.63-1.33,11.4-2.25,17-1.78,11-2.42,22.32-6,32.69-9.51,28-20.18,55.56-30.61,83.22-5.81,15.39-12.43,30.48-18,45.95-4.44,12.35-7.29,25.27-11.79,37.59-8.44,23.11-17.46,46-26.42,68.9-6.44,16.46-13.4,32.67-23.26,47.51-3.35,5-5.43,10.9-8.1,16.38l1.78,1.5c1.73-1.23,3.9-2.14,5.1-3.76,4.56-6.18,8.69-12.67,13.18-18.9,12.35-17.12,23.33-34.81,29.61-55.32,3.17-10.34,8.71-20,13.46-29.81,4.29-8.86,10.17-17.12,13.24-26.34,8.54-25.64,16.57-51.37,27.47-76.22,6.85-15.6,10.78-32.47,16.28-48.68,6.71-19.75,12.35-39.64,14.86-60.52C1133.85,267.72,1131.94,255.63,1128.44,243.44Zm-823,415.8c-9.05-.22-12.85,2.65-13,8.49-.18,6,4.49,10.5,11.41,9.9a57.3,57.3,0,0,0,14-3.51c17.4-6.26,35-10.92,53.73-11.29a151.88,151.88,0,0,0,30.1-3.31c24.13-5.4,48.54-8.55,73.05-11.32,18-2,34.1-10.11,50.43-17.2,4-1.73,5.38-5.82,4.15-10.21s-4.29-7.32-8.85-6.2a155.16,155.16,0,0,0-20.66,6.72c-12.11,4.87-24.19,9.36-37.45,10.19-9.36.58-18.83,1.37-28,3.37-23.62,5.16-47.3,9.89-71.46,11.11-15.65.79-30.52,4.42-45.18,9.46C313.13,657,308.46,658.3,305.41,659.24Z"/><path class="cls-1" d="M1451.32,270.89c-.39,7.66,4.79,11.13,11,14.08,5.47,2.62,10,10.89,8.51,16.52-3.66,14.11-7.2,28.48-19.26,38.36a40.29,40.29,0,0,1-11,6.82c-10.27,3.81-20.79,6.95-32,10.63,3.07-18.13-2.77-33.78-6-49.8-1.25-6.24-1.94-12.58-2.88-18.9C1423.47,275.5,1440.29,269.65,1451.32,270.89Z"/><path class="cls-1" d="M1294.12,424.08c6.16-1.22,10.63-1.63,14.75-3,7.54-2.57,14.85-5.78,22.3-8.61,3.3-1.26,5.92-.83,8.85,2,3.5,3.4,8.19,5.57,12.29,8.38a80,80,0,0,1,6.36,4.93c1.33,1.14,2.35,2.64,3.69,3.75,8.89,7.28,11.14,15.41,7.19,26.34-2.07,5.76-6.5,8.77-12.62,8.93-8.92.24-17.86,1.26-26.73.84-10.76-.51-22.3.47-30.15-9.63-3.78-4.86-6.87-9.93-6.56-16.44C1293.79,435.33,1293.94,429.12,1294.12,424.08Z"/><path class="cls-1" d="M1349.31,55a29.51,29.51,0,0,1-4.2,3c-13.89,6.6-27.5,14-41.86,19.37-12.17,4.57-25.11,7.51-38,9.72-6.24,1.08-13.07-1-19.59-2-1.1-.16-2-1.75-3-2.69,1.08-1,2-2.4,3.26-2.77,12.25-3.68,24.79-6.52,36.79-10.86,20.18-7.31,41-11.2,62.19-13.57a29.44,29.44,0,0,0,4-1Z"/><path class="cls-1" d="M1760.38,77.23c.66-16.92-4.19-32.29-11.26-46.68,7.81.48,11.51,2.65,15.8,9.74,1.89,3.12,3.92,6.16,5.76,9.31C1777.16,60.68,1774.16,71.78,1760.38,77.23Z"/><path class="cls-1" d="M1246.39,539.94c2.2.86,4.38,1.76,6.6,2.55,8,2.83,15.87,5.89,24,8.36,11.29,3.43,17.49,10.52,18.85,22.41a31.7,31.7,0,0,1-1.71,15.66c-2.17,5.59-4.16,6.84-9.93,5.18-3.66-1-7.47-2.12-10.67-4.07-11.73-7.13-24.81-10.59-37.7-14.62-5.41-1.69-7.87-4.62-6.48-9.45a129.12,129.12,0,0,1,7.57-20.32C1239.37,540.46,1240.27,540.56,1246.39,539.94Z"/></svg>