
<svg id="Layer_1" data-name="Layer 1" xmlns="http://www.w3.org/2000/svg" viewBox="0 0 1611.51 519.64"><defs><style>.cls-1{fill:#eee9db;}</style></defs><path class="cls-1" d="M19.83,173.06c7.63,1.53,13.07-2.24,19.07-4.92,5.71-2.56,12.24-3.23,18.28-5.14,8.27-2.61,16.39-5.67,24.62-8.42,4.22-1.41,8.56-2.47,12.79-3.85,3.12-1,6.15-2.3,9.22-3.46,1.26,3.43,2.62,7.2,4,11,1,2.8.12,4.13-2.92,4.26-4.34.18-8.32,1.38-11.31,4.82-2.42,2.8-2.49,6.31,0,9,1.59,1.69,3.53,3,5.19,4.67,5.74,5.59,11.34,11.32,17.15,16.83a87.46,87.46,0,0,0,9.51,7.91c5.62,4,10.57,1.65,11.58-5.18a329.56,329.56,0,0,0,3-59.47c-.11-3.41,1.29-4.81,4.07-5.86,4.74-1.79,8.28-.5,12.33,2.49,8.61,6.38,13,15.69,18.72,24.22,5.55,8.34,11.89,16.14,17.86,24.19,1,1.34,1.64,3.13,2.92,4,1.75,1.24,4,2.65,5.93,2.45,1.62-.17,3.89-2.27,4.34-3.92,1.06-3.92,1.22-8.08,1.72-12.15,1-7.88,2-15.75,2.87-23.65a41.28,41.28,0,0,0,.12-9.68c-.38-2.89-2.55-4.69-5.65-4.83-2.05-.09-4.11,0-6.43,0V125.49c24-10.63,50-12,75.25-20,.6,5.7,1.32,10.6,1.48,15.51,0,1-1.88,2.56-3.19,3-5,1.64-8.89,4.32-9.76,9.73a32.85,32.85,0,0,0-.06,9.7c2,13.54,4.17,27,6.33,40.55,1.47,9.22,3,18.42,4.52,27.63,1.58,9.59,3.28,19.16,4.76,28.77.91,6,1.7,12,2.18,18,.94,11.81,1.54,23.65,2.42,35.48,1.33,17.73,3.89,35.39,3.13,53.25-.05,1.24.37,2.5,1,4.83-3,1.26-6,2.72-9.12,3.76-5.8,1.95-11.75,3.48-17.52,5.54-2.55.92-4.22.4-5.72-1.55-4.31-5.59-8.5-11.28-12.93-16.76-4.28-5.29-8.86-10.33-13.2-15.57-9.68-11.67-19.36-23.34-28.9-35.12-4.86-6-11.36-4.73-13.24,2.55-2.57,10-4.54,20.14-6.34,30.29-1.59,8.95-2.59,18-3.82,27a25.4,25.4,0,0,0-.14,3.49c0,8.12,0,16.25,0,24.12-7.76,1.16-14.47,2-21.13,3.18-6.27,1.1-12.48,2.51-18.72,3.79-2.12.44-3.31-.5-4.21-2.41-3.43-7.29-6.71-14.68-10.56-21.76-4.44-8.18-9.32-16.14-14.19-24.08A164.68,164.68,0,0,1,92.49,308c-3.06-8.47-7.46-16.45-11-24.77-4-9.52-7.77-19.14-11.44-28.8C66.87,246,64,237.58,58.88,229.85c-3.61-5.49-5-12.39-7.61-18.57S46.18,199,43.05,193.22c-2.06-3.83-5.6-4.41-9.69-2.73-1,.39-1.88.84-2.85,1.15-2.47.8-4.32.88-5.23-2.43C23.86,184.06,21.89,179.06,19.83,173.06Z"/><path class="cls-1" d="M1219,323c-11.6.37-21.49-.28-31-5-4.23-2.1-9.29-2.53-14-3.7-5.7-1.43-11.42-2.73-17.07-4.3-3.31-.92-3.52-4.07-3.46-6.68,0-1.29,1.56-3.1,2.86-3.69,4.6-2.11,9.6-3.41,14-5.79,2.06-1.12,3.75-3.82,4.57-6.16a152.12,152.12,0,0,0,4.4-16.18c1.13-5,2-10,2.73-15,1.28-9,2.25-18.05,3.52-27.05,1.33-9.5,3.34-18.92,4.21-28.46a449.11,449.11,0,0,1,9-55.62c3.4-15.46,6.1-31.07,9-46.65,1.49-8.16,2.64-16.39,4-24.58a4.73,4.73,0,0,1,.52-1.13c13.86,2.35,27.7,4.57,41.49,7.12,4.7.87,9.26,2.56,13.87,3.93,1.59.48,3.1,1.58,4.67,1.63,4.48.14,5.58,3,6.31,6.65,1.54,7.6,3.39,15.15,4.9,22.76a61.46,61.46,0,0,1,1.35,11c.05,3.64,1.05,6.37,4.65,7.51,3.14,1,7.66-1,9.48-3.71a31.81,31.81,0,0,1,4.5-5.66c8.84-8.16,17.28-16.67,23.19-27.27,1.24-2.23,2.63-2.55,4.7-1.84,6,2.08,12,4.22,18.09,6.25,7.31,2.45,14.63,4.86,22,7.18,2.87.91,5.86,1.46,8.74,2.34,2.17.66,2.26,2.25,1.93,4.33-.65,4.16-.92,8.38-1.32,12.58-.79,8.31-1.31,16.65-2.41,24.92-1.27,9.5-2.94,19-4.63,28.4Q1370,202,1366,222.85c-1.3,6.77-3,13.46-4.17,20.25-1.4,8.32-2.75,16.68-3.52,25.08-1.3,14.12-2.42,28.26-3.06,42.42a202.9,202.9,0,0,0,.82,24c.12,1.63,2,3.5,3.5,4.57,1.92,1.33,3.2,2.2,2.07,4.86-1.06,2.51-1,7.24-2.28,7.56-2.93.72-6.4-.56-9.62-1.21-2.48-.5-4.89-1.61-7.39-1.86-8.87-.9-18,.73-26.64-2.41-3.3-1.2-6.5-2.66-10-4.12,2-3.4,3.61-6.3,5.41-9.08,3.13-4.81,2.89-8.6-.2-13.56-2-3.22-3.31-6.87-4.87-10.36-2.39-5.35-4.6-10.77-7.13-16.05-1.16-2.41-3.23-4.44-6.17-3.56-1.72.51-4.13,1.93-4.46,3.35-1.66,7.16-6.17,12.54-10.47,18.07-3.82,4.93-7.1,10-7.73,16.46-.21,2.17-1.4,3-3.79,2.15-4.3-1.58-8.81-2.61-13-4.35-1.78-.74-4-2.47-4.42-4.14-2.93-12.7-6.65-25.1-12.33-36.87A3.35,3.35,0,0,1,1236,283c-.18-3.08-1.81-5.69-4.68-5.72-2.35,0-5.65,1.27-6.9,3.1-4.61,6.72-8.56,13.89-12.71,20.92a13,13,0,0,0-.84,2.53c-2.73,8.13-2.19,9.22,5.11,13.52C1217.28,318.12,1217.67,320.4,1219,323Z"/><path class="cls-1" d="M1143.63,158.1c-1.22,15.26-1.69,30.65-4,45.75-1,6.76-5.73,13-8.79,19.41-.33.7-.83,1.31-1.14,2-6,13.9-16.23,24.84-26.1,35.84a124.6,124.6,0,0,1-21.45,18.33c-6.85,4.79-15.27,6.51-23.57,7.43a126.54,126.54,0,0,1-19,.81,157.6,157.6,0,0,1-40.8-6.65c-8-2.5-13.18-8.44-17.75-14.83C970.89,252,963,236.54,958.84,219.45a151.29,151.29,0,0,1-4.15-47.1c.57-7.31,2.78-14.52,4.51-21.71,2.43-10.14,4.75-20.32,7.77-30.29,3.17-10.47,9.37-19.35,16.74-27.36,12.35-13.41,24.78-26.84,40.29-36.68,6.68-4.23,13.92-7.67,22.51-7.62,13.18.07,25.4,2.71,36.87,9.43,7.82,4.58,16.47,7.78,24.18,12.51,9.8,6,16.54,14.52,19.4,26.17,1.66,6.73,5.06,13,7.83,19.48C1140.53,129.63,1144.18,143.37,1143.63,158.1Zm-132.46,22.46c.48,5.77.21,11.72,1.61,17.25,2,8,5.43,15.59,7.9,23.46,4.39,13.94,26.51,20.52,38.05,11.67,6.89-5.27,12.8-11.89,18.75-18.27,2.57-2.75,5.21-6.19,6-9.71,2-9.11,4.15-18.46,4-27.68a73.54,73.54,0,0,0-9.37-35.23c-4.88-8.77-11.31-15.26-21.11-17.65-8.47-2.06-16.49-.91-23.29,5.25a53.6,53.6,0,0,0-14.64,22.3C1015.79,161.29,1010.74,170.15,1011.17,180.56Z"/><path class="cls-1" d="M922.38,84c-5,5.13-9.85,9.78-14.29,14.8-7.34,8.31-14.38,16.88-21.59,25.29-1.28,1.49-2.36,4.27-5.41,1.17,6.31-5.74,1.62-11-1-16.35-1.28-2.66-2.69-5.27-3.8-8-2.2-5.36-5.84-8.2-11.86-8.87-7.08-.79-14.06-2.59-21.09-3.9a101.08,101.08,0,0,0-31.52-1c-7.28.94-11.79,7-17.23,11.23-20.54,16-29.55,38.42-34.89,62.86-3,13.94,1.22,26,9.11,37.33A95.06,95.06,0,0,1,776,211.32a20.05,20.05,0,0,0,8.34,8.71c3.08,1.79,5.75,4.35,9,5.83a80.82,80.82,0,0,0,13.91,5A149.6,149.6,0,0,0,824.53,234c2.48.33,5.09-.31,7.64-.55,2.81-.27,5.62-.76,8.43-.87,15.87-.64,30.45-5,43.23-14.67,4.52-3.41,4.51-3.94.67-8.27-2.48-2.8-4.83-5.73-7.14-8.68-2.11-2.71-1.88-6.69.35-8.38,1.85-1.4,4.69,0,7.06,2.49,9.9,10.39,20.06,20.52,29.94,30.93a87.54,87.54,0,0,1,8.16,10.65c.33.47-.54,2.12-1.23,2.88-2.47,2.72-5.08,5.31-7.68,7.91a19.85,19.85,0,0,1-3.36,3.07c-9,5.66-18.1,11.23-27.16,16.84a2.36,2.36,0,0,0-.61.47c-6.07,7.15-14.47,8.5-23.09,10.58-13,3.13-26.19,4.52-39.36,6.4C805,287,791.86,281,778.65,274.51c-8.4-4.13-16.22-9.11-24.19-13.93a49.24,49.24,0,0,1-17.81-18.17q-10.1-17.82-19.63-36c-6.55-12.45-10.17-26-12.37-39.71-.88-5.53.44-11.55,1.48-17.2,4.53-24.52,12.32-48.14,20.28-71.71,3.49-10.35,10.93-16.66,20.42-21.17,4-1.91,8.22-3.71,11.8-6.31,6.58-4.76,14.15-6.34,21.82-7.7,9.69-1.73,19.43-3.18,29.16-4.67a26.59,26.59,0,0,1,4.28,0c4,0,7.93.1,11.89,0,9.05-.22,18,.2,26.59,3.48,2.35.91,4.94,1.19,7.32,2.06,3.8,1.4,7.52,3,11.24,4.6,1.52.65,2.87,1.8,4.43,2.24,9.65,2.71,17.42,8.5,25,14.76,6.29,5.22,12.77,10.23,19.12,15.4A27.43,27.43,0,0,1,922.38,84Z"/><path class="cls-1" d="M482,246.53c1.16,4,2.51,7.74,3.32,11.6,3.19,15.16,6.21,30.35,9.3,45.54-13.82,2.26-27.51,4.16-41.05,6.85-5.82,1.15-11.26,4.1-17,5.89a91.35,91.35,0,0,1-11.17,2.42c-6.3,1.14-12.6,2.36-18.94,3.17-7.77,1-15.59,1.58-23.38,2.36-1.38.14-3.33-.1-4,.7-3.62,4.23-9.28,3.68-14.1,6.47-.54-2-1-3.91-1.55-5.78-1.69-6-3.68-12-5-18.07-1.18-5.49-1.55-11.15-2.44-16.72-1.86-11.73-3.35-23.55-5.84-35.15-4.71-21.93-10.37-43.65-15-65.6-2.4-11.5-3.1-23.34-5-35-2.78-17.29-5.92-34.52-8.88-51.78-.45-2.65-.77-5.33-1.19-8-.58-3.6.48-5.77,4.24-7.25,4-1.58,7.3-4.87,11.3-6.42,5-1.91,10.29-2.84,15.47-4.13,11.38-2.84,22.71-5.85,34.15-8.38a233.12,233.12,0,0,1,26.77-4.78c15.22-1.54,30.62-1.43,45.41-6.17,1.4-.45,3.08-.06,4.67-.06,3.47,8.57,11.92,55.17,12.36,68.7l-16,5c-.6-3.35-1.07-6.58-1.79-9.76-1.13-5-5.87-8.22-11.92-8.87-9.85-1-18.92,1.39-27.42,6a49.63,49.63,0,0,1-24,5.9c-8.07,0-15.5,3.43-22.35,7.36-4.74,2.72-3.9,8.14-3.19,12.67,1.51,9.7,3.5,19.33,5.2,29a6.9,6.9,0,0,0,9.88,5c10.26-4.68,21.1-6.58,32.18-7.62a11.25,11.25,0,0,0,1.58-.37c1.89,4.41,4.28,8.46,5.33,12.82,1.78,7.33,2.81,14.84,3.85,22.31a4.25,4.25,0,0,1-2.26,3.36A62.71,62.71,0,0,1,412,213c-7.49,1.07-15.05,1.68-22.58,2.43-4.16.42-7.09,4.84-6,9.56q5.74,24,11.72,47.91c1.21,4.84,5.16,6.49,10,5.69,9.74-1.61,19.58-2.66,29.37-4,8.87-1.18,17.74-2.41,26.61-3.61a28.74,28.74,0,0,1,3.07-.3c8.5-.2,12-4.59,10.08-12.84-.17-.74-.43-1.46-.61-2.2-1.55-6.47-.7-7.76,6-9.07A14.5,14.5,0,0,1,482,246.53Z"/><path class="cls-1" d="M1525.85,198c-4.17.3-8.17.61-12.17.86-7.26.46-14.38,0-21.16-3.06-4.26-1.93-7.83.22-8.86,4.88-.82,3.71-2.12,7.33-3,11-1,4.34-1.85,8.71-2.45,13.12-.9,6.6-1.29,13.27-2.33,19.85-1,6.16,1.5,9.49,7.6,10.49,5.12.84,10.09,2.62,15.18,3.79s10.27,2,15.39,3.14c4.55,1,4.87,1.68,4,6.18-1.92,10.42-3.86,20.83-5.56,31.28-.43,2.67-2.07,2.38-3.64,2.13-6.71-1-13.39-2.2-20.08-3.33-2.51-.42-5.06-.72-7.54-1.3-1.82-.42-3.89-.77-5.28-1.87-6.39-5.07-12.56-3.25-14.92,4.76a65.43,65.43,0,0,0-1.58,8.26c-1.3,8.32-2.5,16.65-3.84,25-.46,2.82.53,5.32,3,6.09,4.18,1.34,8.62,1.89,13,2.69,2.44.44,5,.5,7.35,1.14,3.14.84,6.11,2.33,9.26,3.08q16.18,3.81,32.45,7.27c5.23,1.12,10.57,1.78,15.79,2.93a10.35,10.35,0,0,1,4,2.58c2.59,2.28,6.1,2.08,7.33-1.16,1.46-3.87,2.08-8.09,2.82-12.2.5-2.78.48-5.64.87-8.44.46-3.32,2.8-4.75,6.07-3.88,3.45.91,6.88,1.84,10.33,2.77,2,.52,2.59,1.83,2.23,3.76-2.18,11.8-4.47,23.58-6.47,35.41-1,5.81-1.37,11.72-2.11,17.57-.11.91-.4,2.19-1,2.58a41.35,41.35,0,0,1-8.51,4.33c-1.51.48-3.55-.6-5.31-1.1-2.89-.82-5.71-1.87-8.62-2.61a53.81,53.81,0,0,0-8.22-1.53c-3.78-.33-7.73.3-11.37-.53-9.68-2.2-19.19-5.19-28.88-7.42-4.84-1.12-10-.9-14.86-1.94-7.22-1.54-14.25-3.95-21.47-5.47-13.62-2.88-27.33-5.33-41-8.13-1.28-.26-2.36-1.71-3.44-2.71-5.57-5.19-1.35-10.94-.42-16.18,1.9-10.77,5-21.33,7.14-32.07,1.13-5.64,1.23-11.48,1.83-17.23a337.57,337.57,0,0,1,10.85-57.12c2.57-9,3.62-18.52,5.5-27.77q3-14.79,6.28-29.52c3-13.43,6.26-26.8,9.23-40.24.66-2.95,1.66-3.48,4.74-2.94,9.57,1.65,19.2,3.11,28.87,3.94,8,.69,15.45,3.4,22.92,6,11.24,3.85,23,4.57,34.6,6.74,14,2.64,28.53,2.87,42.16,7.83,2.89,1.06,4.44,1,4.35,5.44-.2,10-4.18,18.93-6.13,28.39-1.52,7.38-3,14.76-4.33,22.18-.74,4.25-2.86,6.08-7.16,5.3a7.87,7.87,0,0,0-1.94,0c-5.58.43-5.68.42-4.93-5.1a70,70,0,0,1,2-9.74,11.22,11.22,0,0,0-8.64-14c-6.3-1-12.57-2.31-18.88-3.24C1533.2,198.37,1529.45,198.28,1525.85,198Z"/><path class="cls-1" d="M544.34,295.25c-.15-11.61,1.66-22.19-2-32.71-1.72-5-2-10.55-2.38-15.88-.75-10.15-.93-20.35-1.69-30.5-.5-6.64-1.64-13.23-2.45-19.85-.75-6.11-1.41-12.23-2.17-18.34-1.94-15.66-1.43-31.55-5.22-47.05A104.59,104.59,0,0,1,526,109.49c-.28-9-2.39-17.46-4.88-25.95-3.89-13.23-3.72-11.21-15.63-11.36-.77,0-1.54,0-3,0-.74-5-1.47-9.93-2.25-15.24,4.53-.6,8.74-.93,12.86-1.76,5.61-1.12,11.11-2.74,16.71-3.94a138.45,138.45,0,0,1,16.58-3.06c9.51-.88,19.06-1.29,28.61-1.62,3.44-.12,6.91.54,10.79.89.53,3.33,1.19,6.69,1.59,10.07s-2.08,2.94-4.16,3c-6.11.11-9.61,2.72-9.77,7.53-.06,1.77.58,3.56.65,5.35.58,14.18.4,28.43,1.81,42.52,1.73,17.3,3,34.69,7.2,51.72,2.55,10.27,3.54,20.93,5.05,31.44.75,5.2,1,10.48,1.64,15.71.4,3.29,2.09,6.23,5.46,6.7a149.75,149.75,0,0,0,19.15,1.5c9.49.08,19-.48,28.49-.58,9.86-.11,19.74.19,29.6-.12,3.4-.11,4.16-3.46,4.48-6.29a29.87,29.87,0,0,0,0-7.38c-.54-3.72,1.38-5,4.5-5.57,5.34,10.73,12.24,76.25,8.68,82.2-2-5.92-4.31-6.88-10.79-5.33-3.74.9-7.64,1.08-11.46,1.66a32.68,32.68,0,0,0-6.71,1.32c-11,4.16-22.39,3.71-33.87,2.69-3.53-.31-7.17.56-10.77.74-2.78.13-5.57-.12-8.35,0-13.37.69-26.81.84-40.08,2.44C560.11,289.75,552.32,293,544.34,295.25Z"/><path class="cls-1" d="M711.7,219.72c3.26,6.05,6.4,12.16,9.81,18.12,3,5.21,6.4,10.18,9.46,15.35a39.77,39.77,0,0,0,15.26,14.73c3.23,1.8,5.95,4.49,9.12,6.42,16,9.75,32.65,18.23,51.41,21,6.27.91,12.89-.22,19.3-.85,7-.68,14-1.57,21-2.89,7.25-1.38,14.32-3.69,21.58-5,4.76-.85,9.13-2.05,13.13-4.87q11.78-8.28,23.81-16.17c4.36-2.85,9-5.27,14.47-8.45-1.17,5-2.17,9.08-3,13.15-2.32,10.83-4.7,21.66-6.84,32.53-2.63,13.38-4,27-8.77,40-1,2.72-1.25,5.72-2.26,8.44-1.31,3.55-3.1,6.92-4.57,10.41-4.94,11.68-14.62,17.55-26.23,20.23-10.58,2.43-21.4,3.86-32.15,5.5-5.33.82-10.79,1.88-16.09,1.48A199.15,199.15,0,0,1,794.71,385c-9.23-1.92-18.39-4.32-27.42-7a92.59,92.59,0,0,1-15.21-6.35,13.11,13.11,0,0,1-5.47-5.27c-7.92-15.22-14.79-30.83-17.4-48-.7-4.6-2.82-9-3.9-13.53a92.29,92.29,0,0,1-1.45-10.66c-.87-7.77-1.41-15.58-2.57-23.31-1.79-12-3.89-23.94-6.07-35.87-.75-4.13-2.11-8.14-3.19-12.21-.25-.95-.53-1.89-.79-2.84Z"/><path class="cls-1" d="M932.66,232.78c1.8-5.91,3.31-10.64,4.68-15.4,1.55-5.37,2.94-10.79,4.49-16.16a51.54,51.54,0,0,1,3.76-9.76c.64,5,1.36,10,1.88,15,1.25,11.89,3.8,23.49,8.92,34.28,4.7,9.89,9.56,19.8,15.43,29,9.06,14.27,22.42,22.05,39.52,23.51,9.57.82,19,2.8,28.6,3.64,5.22.46,10.57-.28,15.85-.64,9.91-.67,19.78-2.13,28.44-7.16,6.4-3.71,12-8.73,18.9-13.8-2.67,4.29-4.94,7.82-7.08,11.42-3.6,6-8.21,11.75-10.42,18.27-4.44,13.14-13.65,23.71-18.08,36.94-2.94,8.78-9.48,16.35-14.34,24.5a18.51,18.51,0,0,0-2.45,5.19c-.9,4-3.52,6.4-6.77,8.45-4.49,2.84-8.63,6.44-13.44,8.48-7.6,3.22-15.29,6.32-24,5.92-11.1-.5-22.26.22-33.36-.21-12.42-.47-24.66-3-35-10-7.07-4.79-15-9.13-19.28-17.27a10,10,0,0,0-2.69-2.79c-3.14-2.53-4-5.9-3.67-9.7.09-1.15.67-2.32.54-3.43-1.39-11.36,3.71-21.57,5.62-32.33,1.85-10.45,3.44-20.95,5.51-31.35,1.25-6.24,3.26-12.32,4.84-18.49,2-8,4.16-16,5.91-24.11C936,240,935,235.38,932.66,232.78Z"/><path class="cls-1" d="M542.93,308.72c4.76-3.05,9.1-5.8,15-5.65,3.32.09,6.64-2.46,10.09-3.33,4.44-1.13,9-2.47,13.5-2.48,8.35,0,16.7,1.08,25.06,1.32,4.9.14,9.81-.49,14.72-.74a17.54,17.54,0,0,1,3.4,0,34.7,34.7,0,0,0,12-.56c6.43-1.27,13.12-1.22,19.7-1.77a8.07,8.07,0,0,0,2.95-.63c6.44-3.25,13.29-3.73,19.59-3.21,2.17,2.24,4.1,4,5.8,6,1.21,1.43,2.7,3,3.06,4.72,4.08,19.47,12.84,37.33,19,56.06,2.69,8.09,4.84,16.37,7.28,24.54.75,2.52.22,4.5-2.41,5.17-5.56,1.41-11.12,3.15-16.78,3.73-13.58,1.4-27.29,1.68-40.83,3.38-15.6,2-31.09,4.9-46.6,7.55-6.47,1.1-7.23.85-10.74-5.57C590.4,385.53,584,373.72,577.5,362c-5.73-10.26-11.31-20.62-17.62-30.52-4.41-6.91-10-13.1-15-19.64C544.17,310.85,543.58,309.74,542.93,308.72Z"/><path class="cls-1" d="M404.32,388.36v8.38c0,4.48.13,9,0,13.43-.21,7.51-.56,15-.88,22.53,0,.18-.28.34-1,1.1q-11.16-9-22.37-18.05a35.26,35.26,0,0,0-5.23-4c-12.93-6.89-23-17.4-34.05-26.64-4.43-3.7-9.37-6.79-13.81-10.47-8.34-6.91-16.54-14-24.7-21.12-3.34-2.92-4.68-6.61-4.88-11.25-.66-14.92-1.87-29.82-2.9-44.73-.79-11.44-1.39-22.9-2.5-34.31-1-10.07-2.48-20.08-3.84-30.11-1.24-9.12-2.39-18.27-3.95-27.34-1.93-11.21-4.38-22.32-6.33-33.52-1.44-8.28-2.44-16.65-3.64-25l1-.39,2.1,2c12.72,12.29,23.93,25.9,35.06,39.6,2.77,3.4,5.63,6.71,8.47,10.06.42.49.86,1.21,1.39,1.32,5.87,1.16,5.29,6.22,6.26,10.29,3.07,12.89,6.37,25.74,9,38.72,2.59,12.64,5.23,25.34,6.56,38.14,1.6,15.36,5.42,30.12,9.26,45,1.95,7.52,7.8,12.18,11.83,18.14,4.33,6.41,10,11.45,16.38,16.09,7,5.09,12.81,11.84,19.07,17.93C402.16,385.62,403.4,387.29,404.32,388.36Z"/><path class="cls-1" d="M558.52,413.86c-5,0-9.31-.37-13.57.08-8.27.88-16.48,2.21-24.71,3.39-6.33.9-12.66,2.64-19,2.59-12.35-.11-24.22,2.2-36,5.22a5.12,5.12,0,0,1-5.49-1.4c-9.21-8.69-18.55-17.26-27.8-25.92-1.69-1.59-3.09-3.49-4.77-5.1-5.09-4.9-10.29-9.68-15.36-14.59-2.4-2.33-4.62-4.85-6.9-7.31a19.43,19.43,0,0,0-1.74-2.07c-6.14-5-12.53-9.73-18.42-15-4.44-4-8.27-8.65-12.4-13,5.8-1.41,10.84-2.81,16-3.82,6.26-1.24,12.56-2.27,18.87-3.16,8.26-1.16,16.56-2,24.8-3.23,2.07-.31,4-1.73,6-2.52,9.14-3.62,18.27-7.14,28.18-8.38,8.11-1,16.13-2.75,24.15-4.35,3.1-.62,5,.09,6.58,3,13,24.07,28.2,46.74,44.05,69,5.52,7.74,10.71,15.71,16,23.59C557.4,411.54,557.73,412.36,558.52,413.86Z"/><path class="cls-1" d="M770.5,174.28c-.79-11.36,2.34-21.07,5.67-30.61,4.21-12.09,10.34-23.25,19.6-32.33,4.33-4.25,9-8.14,13.67-12,4-3.37,9.16-2.61,13.73-2.8a73.15,73.15,0,0,1,26.56,3.64,27,27,0,0,0,9.4,1.5c4.63-.16,7.71,1.2,9,5.85a6.94,6.94,0,0,0,1,2c3.71,5.36,4.41,10.46.67,16.51-1.7,2.75-1.08,7-1.18,10.65-.3,10.33.25,20.74-.8,31-1.35,13.32-4,26.5-5.89,39.78a69.66,69.66,0,0,0-.13,11.65c.1,3.32-1.78,4.24-4.58,4.38s-5.37.38-8,.34a8.12,8.12,0,0,1-3.63-1c-5.27-2.84-10.3-6.23-15.78-8.56-3-1.29-6.81-1.38-10.18-1.09-5.46.47-10.84,1.93-16.3,2.49-2.37.25-4.86-.7-7.29-1.14-.22,0-.38-.38-.61-.46-11.15-3.9-12.45-15.56-18.49-23.49a42.57,42.57,0,0,1-2.4-4.36C772.11,182.25,769.6,178.31,770.5,174.28Z"/><path class="cls-1" d="M1327.6,448.67c5.81-4.82,11.39-9.16,16.64-13.87,8.94-8,17.71-16.22,26.48-24.42,5.28-4.92,10.52-9.88,15.61-15,4.47-4.5,8.69-9.24,13-13.86,1.5-1.6,3-1.88,5.41-1.39,14.79,2.93,29.68,5.35,44.5,8.1,4.64.86,9.17,2.3,13.79,3.27,5.23,1.09,10.53,1.86,15.76,2.95,6.11,1.27,12.16,2.82,18.28,4.09,9.73,2,19,5.94,29.37,5.42,4.56-.23,9.23,1.85,14.61,3-2.76,1.21-5.06,2.13-7.28,3.21-11.37,5.52-22.63,11.29-34.1,16.59-14,6.49-28.27,12.56-42.38,18.89-10.84,4.85-21.59,9.93-32.46,14.69-9.7,4.25-19.51,8.26-29.33,12.22a6.48,6.48,0,0,1-4.08-.06c-15.76-5.22-31.55-10.35-47.18-15.93C1338.63,454.6,1333.39,451.47,1327.6,448.67Z"/><path class="cls-1" d="M1319.09,440.1c.31-2.47.8-4.93.89-7.4.34-9.86.42-19.72.93-29.57a8.75,8.75,0,0,1,2.66-5.47c10.27-9.25,20.65-18.4,31.19-27.34,3.56-3,7.78-5.26,11.56-8,1.41-1,3.11-2.38,3.53-3.9,1.8-6.61,3.37-13.3,4.64-20,.75-3.9-1.78-6.47-5.19-7.54-2.12-.67-2.59-1.6-2.55-3.52.3-14.1,0-28.25,1-42.3,1-12.75,3.23-25.42,5.2-38.07,1.34-8.58,3.13-17.08,4.78-25.6a4.31,4.31,0,0,1,1.22-2.11c6-5.81,12.83-11,17.91-17.48a330.14,330.14,0,0,1,29.61-33.24c3.92-3.83,7.11-8.4,11.36-13.51-1.81,8-3.08,15-5,21.81-4.92,17.23-8.12,34.76-10.92,52.45-2.22,14.08-6.51,27.82-9.38,41.81-1.71,8.38-2.46,17-3.64,25.44-2.11,15.19-3.72,30.47-7.92,45.3-2.35,8.32-5.52,16.59-6.38,25.08-.58,5.71-3.34,8.53-6.92,11.88-6.7,6.27-12.86,13.12-19.59,19.36-13,12-26.22,23.83-39.41,35.67-2.73,2.44-5.7,4.61-8.56,6.9Z"/><path class="cls-1" d="M1198.79,93.81c-1.15,5.15-2.38,10.28-3.45,15.45-2.64,12.74-5.07,25.52-7.84,38.23a359.12,359.12,0,0,0-7.16,48.23c-.92,11.7-3.57,23.26-5.13,34.92-1.33,9.91-2.07,19.9-3.34,29.82-.4,3.12-1.68,6.13-2.59,9.18-1.2,4-2.28,8.13-3.73,12.08a7.25,7.25,0,0,1-3,3.64c-4.82,2.65-10,4.72-14.67,7.56-2.09,1.26-3.62,3.66-5,5.8-3.79,5.87-7.18,12-11.08,17.8q-17.92,26.66-36.13,53.11c-2.3,3.37-4.9,6.54-7.37,9.81l-1.09-.58c1.91-3.95,4.08-7.8,5.67-11.87a54.39,54.39,0,0,0,3.38-11.71c2-13.93,3.54-27.94,5.71-41.85.62-3.95,2.7-7.59-1.19-11-.37-.32.21-2.14.74-3,3.8-6.38,7.71-12.68,11.55-19q5.58-9.24,11.08-18.53a17.72,17.72,0,0,0,2.34-4.79,35.47,35.47,0,0,1,7.3-14.56c1.45-1.82,1.19-4.89,2.2-7.17,2.63-6,5.12-12,8.41-17.58,4.88-8.3,5.5-17.48,6.42-26.59.68-6.66.51-13.4,1-20.08.09-1.17,1.48-2.25,2.29-3.35a68,68,0,0,0,4.62-6.28c2.9-5.1,5.5-10.37,8.33-15.52,7.6-13.8,15.17-27.61,22.94-41.32,2.24-3.94,5.09-7.53,7.67-11.29Z"/><path class="cls-1" d="M314.71,447.5c-14.19-6.38-28.27-14.17-43.29-19.05a237.77,237.77,0,0,1-39-16.91C218.1,403.85,204,395.79,189.69,388a6.13,6.13,0,0,1-3.64-6.37c.57-15,1.14-30.07,3.85-45,1.89-10.39,2.95-20.94,4.38-31.42l1.52-.36c7.79,9.15,15.69,18.22,23.35,27.48,9.74,11.78,19.23,23.77,29,35.54,1.79,2.17,4.31,3.72,6.48,5.57a2.4,2.4,0,0,1,.84,1.08c.91,4.13,3.95,6.5,7.11,8.82,6,4.39,11.67,9.18,17.9,13.17,11.82,7.56,24,14.62,35.87,22.06a5,5,0,0,1,1.85,3.82c-.15,3.16-.94,6.29-1.38,9.45C316.05,437.13,315.38,442.43,314.71,447.5Z"/><path class="cls-1" d="M524.4,258.44c-5.21-1.7-9.37-.28-13.69,1.74-2.86,1.35-5.69.29-7.47-2.92-3.74-6.7-7.71-13.28-11.58-19.91-2.46-4.22-4.77-5.12-9.29-3.59-.24.08-.47.2-.71.28-6.77,2.4-7,2.56-10.72-3.63-7.57-12.73-14.68-25.73-22.26-38.46-4.25-7.15-8.81-14.15-13.7-20.89a48,48,0,0,0-9.75-10c-2.05-1.55-5.43-2.07-8.12-1.88-5.32.4-10.57,1.66-15.87,2.45a3,3,0,0,1-2.4-.67c-5-6.77-9.92-13.63-15.46-21.32,4.16-1,7.8-2.69,11.45-2.71a60.55,60.55,0,0,0,26.63-6.54c5.76-2.79,12.17-4.37,18.42-5.94,3.07-.77,5.47.41,6.09,4.46,1.81,11.67,8.73,20.69,15.62,29.91,8,10.67,15,22,22.29,33.21,8.09,12.46,16.1,25,23.86,37.64C513.42,238.92,518.65,248.47,524.4,258.44Z"/><path class="cls-1" d="M1095.84,390l50.83-74c10.12,4.76,21.16,6,31.92,8.36,2.57.56,5,1.93,7.48,2.71,4.85,1.5,9.7,3,14.62,4.18,3.42.82,7,1.08,11,1.66-4.78,5.19-9.13,9.9-13.47,14.63-12.2,13.27-25.4,25.64-35.57,40.71a67.06,67.06,0,0,1-9.6,11.08c-1.28,1.2-4.11,1.43-6.07,1.11-8.33-1.36-16.58-3.11-24.87-4.68-6.78-1.28-13.59-2.43-20.36-3.78A46.86,46.86,0,0,1,1095.84,390Z"/><path class="cls-1" d="M1348,360.7c-6.16,5.82-11.8,11.52-17.83,16.76-9.14,7.94-18.35,15.82-27.89,23.25-7.59,5.91-15.84,11-23.58,16.67-6.49,4.81-12.62,10.1-19,15-1.19.91-3.09,1.76-4.44,1.5-9.34-1.85-18.61-4-28.54-6.18,5.49-5.92,10.2-11,14.93-16.1,6.34-6.82,12.78-13.55,19-20.46,11.33-12.54,22.63-25.11,33.74-37.83,2.26-2.59,4.49-3.23,7.2-1.65,8,4.69,17,5.2,25.81,6.79a10.39,10.39,0,0,0,4.64,0C1337.44,356.86,1342.39,358.38,1348,360.7Z"/><path class="cls-1" d="M309.31,459c-8.65,2.45-16.39,5.06-24.32,6.68-3.11.63-6.77-.66-10-1.61-9.81-2.87-19-7.23-28.24-11.55-9.65-4.49-19.25-8.91-28.41-14.37-4.92-2.93-10.62-4.51-15.71-7.19-5.65-3-11-6.6-16.5-9.77-2.84-1.63-5.91-2.85-8.83-4.34q-18.4-9.39-36.78-18.84l.35-1.53a39.5,39.5,0,0,1,4.81-1.43c6.66-1.11,13.39-1.82,20-3.25,3.46-.75,6,0,9,1.65q20.79,11.64,41.88,22.75c12.1,6.42,23.81,14.11,36.62,18.51a470.65,470.65,0,0,1,52.26,22C306.51,457.27,307.57,458,309.31,459Z"/><path class="cls-1" d="M569.42,409.55c-10-14.83-20-29.09-29.5-43.68C529.34,349.54,519.12,333,509,316.35a17.72,17.72,0,0,1-2.44-9c.11-8.68-2.91-16.59-5-24.75a83.4,83.4,0,0,1-2.39-14.8c1.19,2.21,2.27,4.5,3.6,6.63,6.52,10.44,13,20.86,19.72,31.19.85,1.32,2.57,3,3.86,2.93,3.75-.08,4.35,2.66,5.88,5a103.68,103.68,0,0,0,9.87,13.26c6.86,7.38,10.94,16.35,16,24.85,4.55,7.72,5.32,15.93,6.53,24.29,1.5,10.38,3.3,20.71,4.94,31.07A14.66,14.66,0,0,1,569.42,409.55Z"/><path class="cls-1" d="M265.67,370.06c6.94-1.34,13.13-2.21,19.12-3.83,3.08-.83,5.81-3,8.74-4.56l98.48,79c-4.53.74-9.83,1.77-15.19,2.34-1.28.13-2.81-1.15-4.08-2-10.83-7.17-21.49-14.6-32.47-21.53-12-7.59-24.34-14.71-36.49-22.1-1.87-1.14-3.46-2.7-5.26-3.94-2.63-1.8-5.12-4.12-8-5.12-9.31-3.2-15.64-10.5-23.23-16.07A13.54,13.54,0,0,1,265.67,370.06Z"/><path class="cls-1" d="M1180.07,410.15a45.93,45.93,0,0,1,3.15-4.77c19.81-23.19,38.68-47.23,61-68.15,2.58-2.4,4.76-3.36,8.18-2.07,4.42,1.65,9,2.82,13.8,4.28a9.82,9.82,0,0,1-1.11,1.95c-11.34,11.88-22.81,23.64-34,35.63-10.33,11-20.48,22.25-30.56,33.52-2.84,3.18-5.51,5.17-10,3.13C1187.45,412.25,1184,411.45,1180.07,410.15Z"/><path class="cls-1" d="M395.06,227.86c5.34-.58,9.91-1,14.45-1.62a79.87,79.87,0,0,0,9.28-2c3.43-.94,6.77-2.22,10.21-3.12a3.21,3.21,0,0,1,2.6,1,42.37,42.37,0,0,1,2.72,4.15c6.57,9.44,13.18,18.87,19.74,28.32,1,1.47,1.9,3,3.19,5.13l-52,6.34C401.9,253.52,398.57,241.05,395.06,227.86Z"/><path class="cls-1" d="M902.64,201.76c-1.49-1.31-3-2.55-4.46-3.94-1.83-1.8-3.49-3.77-5.31-5.58-1.65-1.65-2.12-3.21-1.72-5.77,1-6.46,1.27-13,1.8-19.58.79-9.6,2.64-19.27,2-28.77-.59-8.93,4.53-13.9,9.34-19.49,7.81-9.07,15.86-17.93,24.65-26.46-1.2,4.43-2.44,8.86-3.6,13.31-4,15.14-8.23,30.21-11.67,45.47-2.33,10.3-3.32,20.89-5.19,31.31-1.16,6.44-2.84,12.79-4.29,19.18Z"/><path class="cls-1" d="M652.86,211.48c-2.81,0-5.4.06-8,0-5.44-.14-6.73-4.85-8.13-8.46-6.55-16.76-11.6-34.19-19.2-50.44C610.27,137,604.61,121,598.94,104.84c-3.51-10-6-20.3-9.43-30.33-1.32-3.92,1.52-4,3.48-5,2.89-1.45,2.71,1.31,3.38,2.74,5,10.65,10.18,21.22,14.87,32,2.48,5.72,3.84,11.9,6.14,17.71,3.71,9.37,7.52,18.73,11.77,27.86a237.7,237.7,0,0,1,10.26,25.86C643.35,187.59,648.19,199.19,652.86,211.48Z"/><path class="cls-1" d="M1493.48,208.49c8.13,0,15.94-.19,23.74,0,9,.28,18,.91,27,1.47.78,0,1.54.63,3.35,1.41-5.32,4.68-10.34,8.67-14.85,13.18s-8.11,9.35-12.29,13.91c-3.81,4.16-7.8,8.13-11.8,12.1a2.67,2.67,0,0,1-2.08.2c-6.66-1.61-13.3-3.27-20.24-5C1489,232.88,1486.33,219.54,1493.48,208.49Z"/><path class="cls-1" d="M588.08,110.8c3.4,9.43,6.65,18.91,10.24,28.26,1.78,4.62,4.36,8.93,6.28,13.51q4.57,10.92,8.73,22c4.42,11.83,8.66,23.72,13.36,36.64H601C598.31,177.53,587.41,145,588.08,110.8Z"/><path class="cls-1" d="M464.77,142.43c4.63-1.64,8.78-3.3,13.06-4.47,1-.27,2.95.83,3.54,1.84,8.75,14.9,17.29,29.92,26,44.84,4.62,7.94,9.43,15.77,14.19,23.61,4.15,6.83,8.1,13.64,7.58,22.13-.14,2.33,1.07,4.72,1.29,7.11.11,1.12-.66,2.31-1,3.47-.87-.72-2-1.27-2.57-2.19-6.09-10.07-11.89-20.32-18.15-30.29Q493.34,184.11,477.52,160c-3.57-5.46-7.79-10.49-11.7-15.73A20.8,20.8,0,0,1,464.77,142.43Z"/><path class="cls-1" d="M1293.8,307.27c3.09,6.09,6,11.72,8.78,17.41a3,3,0,0,1-.47,2.42,80.6,80.6,0,0,1-6.42,8.56c-8.66,9.36-17.61,18.45-26.22,27.86-8,8.75-15.65,17.84-23.59,26.66-6.49,7.21-13.16,14.24-19.78,21.33-1,1.11-2.23,2.08-3.36,3.12l-3.81-7.5a54.59,54.59,0,0,1,3.51-4.36c9.73-10,19.56-20,29.25-30.06q11.13-11.58,22-23.47a17.65,17.65,0,0,0,4.91-11.78c.32-5.94,1.45-12.66,6-17.85C1287.84,315.75,1290.68,311.45,1293.8,307.27Z"/><path class="cls-1" d="M526.35,199a13.55,13.55,0,0,1-1.76-2.65c-7.89-21-20.38-39.52-31.26-58.92-1.8-3.22-4.54-6-5.87-9.36s-1.55-7.21-2.06-10.87c-1.37-9.76-2.4-19.56-4-29.27-.82-4.87-2.75-9.54-4.1-14.33a25.58,25.58,0,0,1-.51-3.63l1.12-.38q4.22,10.17,8.44,20.33c3.47,8.36,6.9,16.73,10.39,25.08s6.71,16.79,10.6,24.94c4.12,8.64,9.21,16.83,13.23,25.51,2,4.31,2.59,9.28,3.73,14,1.08,4.45,2.17,8.92,3,13.43a32.36,32.36,0,0,1,.06,5.91Z"/><path class="cls-1" d="M715.15,345.94c-7.22-13.89-11.76-28.55-15.66-43.51-1.27-4.84.13-8.67,1.43-12.72,3.11-9.64,2.17-19.28.8-29-.76-5.44-1.45-10.9-2-16.37a106,106,0,0,1-.57-14.33c1.48,5.34,3.41,10.6,4.34,16,2.34,13.74,4.46,27.52,6.23,41.33,1,7.77,1,15.66,1.71,23.46.8,8.67,1.93,17.31,2.89,26C714.64,339.83,714.87,342.89,715.15,345.94Z"/><path class="cls-1" d="M1179.52,391.72c-3.28-2.65-1.93-4.8.28-7.16,8.49-9.06,16.85-18.23,25.3-27.32,5.44-5.85,11-11.56,16.4-17.45a70.93,70.93,0,0,0,6.4-8.16,8.63,8.63,0,0,0,1.13-4.38c.1-3-.27-5.95-.16-8.92.18-4.58-1.17-8-5.83-9.7-.9-.33-2.08-2.4-1.78-3.06,1.92-4.29,4.21-8.41,6.38-12.58l1.64,0c1.85,4.49,3.9,8.92,5.49,13.51,1.41,4.08,1.82,8.55,3.53,12.47,2.19,5-.12,8.06-3.29,11.2-5.88,5.84-12,11.5-17.5,17.63-7.69,8.49-15,17.35-22.45,26C1189.93,379.83,1184.74,385.73,1179.52,391.72Z"/><path class="cls-1" d="M1466.57,332.6c1.27-9.41,2.51-18.62,3.7-27.47l30.06,5.25c-2.08,2.54-4.38,5.73-7.07,8.55s-6,5.3-8.83,8.08C1477.59,333.7,1477.63,333.74,1466.57,332.6Z"/><path class="cls-1" d="M430.39,195.82l3.2-5.71q14.91,25.37,30,51l-3,2.21c-1-1.39-2.14-2.73-3.1-4.17-5.45-8.21-10-17.25-16.57-24.42C435.76,209.11,434,202.18,430.39,195.82Z"/><path class="cls-1" d="M883.59,137.87c-.49,9.46-1,18.71-1.45,27.95-.29,5.72-.6,11.44-.84,17.16-.12,3-2.15,4.48-4.47,4.19-2.88-.36-2.21-2.79-2-5.17.88-8.06,1.57-16.16,1.8-24.26a144.18,144.18,0,0,0-.95-16.72c-.27-3.11.7-4.48,3.8-4.2A25.33,25.33,0,0,1,883.59,137.87Z"/><path class="cls-1" d="M1521.28,253.85l31.16-32.08c1.36,8.31-1.24,11.13-5.81,15.1-6.4,5.58-13,11-19.59,16.31-1.3,1-3.1,1.47-4.67,2.17Z"/><path class="cls-1" d="M323.62,181.6l-43.71-48.23c2.48-2.1,4.41-1,6.47,1.37,7.82,9.08,15.78,18,23.64,27.07,1.61,1.85,3,3.9,4.53,5.79,1.3,1.58,2.46,3.91,4.15,4.44C323.9,173.66,322.52,177.86,323.62,181.6Z"/><path class="cls-1" d="M107.23,174c6.23-4.86,10.18-.21,14.46,3.37,4.55,3.8,6.91,8.27,4.37,15.18Z"/><path class="cls-1" d="M1529.38,268.34c.54-1.1.81-2.51,1.66-3.25,8.49-7.32,16.92-14.73,25.75-21.63,1.91-1.49,5.32-1.06,9.11-1.69l-35.82,27Z"/><path class="cls-1" d="M317.6,153.27c-7.24-8.69-14.44-17.43-21.78-26.05-1.73-2-3.65-4.28-6-5.36-3.8-1.78-4.66-4.31-3.46-9,5.68,7.18,10.7,14.07,16.31,20.45s12.21,11.66,16.47,19Z"/><path class="cls-1" d="M129.24,167.1c-3.22-1.69-6.13-3.16-9-4.77a3.21,3.21,0,0,1-1.15-1.8c-1.22-4.13-2.37-8.28-3.88-13.59,2.09,1.67,3.65,2.73,5,4,2.81,2.73,5.57,5.51,8.17,8.43a5.63,5.63,0,0,1,.8,3.08C129.33,164,129.24,165.56,129.24,167.1Z"/><path class="cls-1" d="M1529.35,345.2l13.25-9.13,1.2.92c-.54,3.78-1.07,7.56-1.64,11.61Z"/><path class="cls-1" d="M197,173,182.8,153.87l.77-.68c4.49,4,9.26,7.83,13.28,12.28C198,166.75,197,170,197,173Z"/><path class="cls-1" d="M871.15,217.41c-.58-1.4-1.44-2.55-1.42-3.69a7.62,7.62,0,0,1,1.39-3.52,41.63,41.63,0,0,1,2.72-3.65c1.15,1.33,2.86,2.52,3.24,4,.29,1.14-.9,2.9-1.85,4S873,216.22,871.15,217.41Z"/><path class="cls-1" d="M1049.46,132.89a25.91,25.91,0,0,1,17.4,10.88c10.08,14.62,11.8,30.77,9,47.78a29.55,29.55,0,0,1-1.22,6c-1.4,3.62-2.52,7.59-4.85,10.55-4.43,5.63-9.08,11.33-14.62,15.79-8.4,6.75-21,2.88-25.07-7.1-2.51-6.1-5.35-12.19-6.87-18.56a56.61,56.61,0,0,1,3.11-36.8c3.29-7.47,6.21-15.09,9.46-22.57C1037.36,135.23,1042.34,132.89,1049.46,132.89Z"/></svg>